<svg width="668" height="558" viewBox="0 0 668 558" fill="none" xmlns="http://www.w3.org/2000/svg">
<g opacity="0.1">
<path fill-rule="evenodd" clip-rule="evenodd" d="M455.094 482.809C439.233 497.401 422.103 512.945 403.387 523.096C396.408 526.903 389.429 529.758 382.133 532.612C365.003 539.274 352.949 544.667 338.674 556.721C336.453 558.625 334.233 558.307 331.695 556.404C317.42 544.35 305.366 538.957 288.236 532.295C280.94 529.44 273.961 526.585 266.982 522.779C248.266 512.628 231.136 497.084 215.275 482.492L195.925 484.712L194.656 480.906C185.139 450.452 183.236 417.779 202.269 390.498L207.345 383.202L210.517 391.767C218.447 414.289 231.453 434.274 249.218 450.452L254.928 455.528L247.632 458.066C241.604 460.286 236.529 463.776 232.722 468.534L258.1 479.954C268.885 481.857 279.036 487.884 290.139 481.54C311.71 469.486 313.613 417.462 313.931 396.842L315.517 310.241L316.468 282.96L321.861 121.178H288.236C284.429 121.178 280.94 118.006 280.94 113.882V98.9725C280.94 95.1658 284.112 91.6764 288.236 91.6764H306.635C295.532 83.4287 288.553 70.4227 288.553 55.5133C288.553 30.4529 308.855 10.468 333.598 10.468C358.659 10.468 378.644 30.7701 378.644 55.5133C378.644 70.4227 371.348 83.4287 360.562 91.6764H381.181C384.988 91.6764 388.477 94.8486 388.477 98.9725V114.199C388.477 118.006 385.305 121.495 381.181 121.495H347.873L354.218 310.876L355.804 397.477C356.121 417.779 358.024 470.12 379.595 482.174C390.698 488.519 400.849 482.174 411.634 480.588L437.012 469.168C433.205 464.41 428.13 460.921 422.103 458.7L414.807 456.162L420.517 451.087C438.281 434.909 450.97 414.924 459.217 392.401L462.39 383.836L467.465 391.132C486.498 418.413 484.595 451.087 475.078 481.54L473.81 485.347L455.094 482.809ZM334.233 36.1628C345.018 36.1628 353.9 45.045 353.9 55.8305C353.9 66.616 345.018 75.4982 334.233 75.4982C323.447 75.4982 314.565 66.616 314.565 55.8305C314.565 45.045 323.447 36.1628 334.233 36.1628Z" fill="#9D9D9D"/>
<path fill-rule="evenodd" clip-rule="evenodd" d="M335.502 113.248H343.749L349.142 283.278L350.094 310.559L351.68 397.16C353.583 514.849 398.946 486.933 413.538 484.396L444.625 470.438C439.867 462.825 433.205 457.115 424.323 453.942C442.722 436.812 456.045 416.51 464.293 393.353C479.52 415.242 482.375 444.109 471.272 479.637L453.508 477.417C435.743 493.912 418.931 508.821 401.166 518.655C379.595 530.392 361.831 530.71 335.819 552.598C335.184 552.915 335.502 552.915 334.867 552.281C308.855 530.392 291.091 530.075 269.52 518.338C251.755 508.504 234.943 493.595 217.178 477.099L199.414 479.32C188.311 443.791 191.166 414.924 206.393 393.036C214.641 415.876 227.647 436.495 246.363 453.625C237.481 456.797 230.502 462.825 226.061 470.121L257.148 484.078C271.74 486.299 317.103 514.214 319.006 396.843L320.592 310.242L321.544 282.961L326.937 112.931H335.502V113.248Z" fill="white"/>
<path fill-rule="evenodd" clip-rule="evenodd" d="M337.722 137.357V516.752C351.997 516.435 364.369 514.849 375.472 512.311C387.526 509.456 397.994 505.649 407.194 500.574C417.979 494.864 428.447 487.251 437.012 478.368C444.626 470.438 451.287 461.556 455.411 451.405C458.583 443.791 460.804 435.226 461.756 425.393C462.707 417.145 463.024 408.58 462.39 399.381C462.39 398.746 462.073 398.429 462.39 397.794L464.293 393.036L466.831 397.794C467.148 398.112 466.831 398.746 466.831 399.063C467.466 408.58 467.148 417.462 466.197 426.027C464.928 436.178 462.707 445.378 459.535 453.308C455.094 463.776 448.115 473.293 440.185 481.858C430.985 491.057 420.2 498.988 409.097 505.015C399.58 510.09 388.795 514.214 376.423 517.069C365.003 519.607 352.315 521.193 337.722 521.51V547.522H332.964V521.51C318.372 521.193 305.683 519.607 294.263 517.069C281.892 514.214 271.106 510.09 261.59 505.015C250.487 498.988 239.701 491.374 230.502 481.858C222.254 473.61 215.593 464.094 211.152 453.308C207.662 445.378 205.442 436.178 204.49 426.027C203.538 417.462 203.221 408.897 203.856 399.063C203.856 398.746 203.856 398.112 203.856 397.794L206.393 393.036L208.297 397.794C208.614 398.429 208.297 398.746 208.297 399.381C207.662 408.58 207.979 417.462 208.931 425.393C209.883 434.909 212.103 443.791 215.275 451.405C219.399 461.556 226.061 470.438 233.674 478.368C242.556 487.251 253.025 494.864 263.493 500.574C272.692 505.649 283.161 509.456 295.215 512.311C306.318 514.849 318.689 516.435 332.964 516.752V137.357H337.722Z" fill="#9D9D9D"/>
<path fill-rule="evenodd" clip-rule="evenodd" d="M335.185 96.4357H381.499C382.768 96.4357 384.037 97.7046 384.037 98.9734V114.2C384.037 115.469 382.768 116.738 381.499 116.738H335.185H288.871C287.602 116.738 286.333 115.469 286.333 114.2V98.9734C286.333 97.7046 287.602 96.4357 288.871 96.4357H335.185ZM334.233 15.2273C356.756 15.2273 374.837 33.3089 374.837 55.8315C374.837 78.3541 356.756 96.4357 334.233 96.4357C311.71 96.4357 293.629 78.3541 293.629 55.8315C293.629 33.3089 312.028 15.2273 334.233 15.2273ZM334.233 31.0883C347.874 31.0883 358.976 42.191 358.976 55.8315C358.976 69.472 347.874 80.5747 334.233 80.5747C320.593 80.5747 309.49 69.472 309.49 55.8315C309.49 42.191 320.593 31.0883 334.233 31.0883Z" fill="white"/>
<path fill-rule="evenodd" clip-rule="evenodd" d="M377.057 237.281L376.423 237.598L374.52 236.647C371.982 235.378 369.127 234.743 366.589 233.474L358.976 229.668L366.272 225.227C378.009 218.248 389.429 207.145 398.946 197.311C408.145 188.429 417.344 178.913 427.178 170.665C438.598 161.148 449.066 156.707 463.976 155.438C465.562 155.438 466.831 155.121 468.417 155.121C482.692 154.487 496.967 158.928 510.29 163.369C542.964 174.154 574.368 190.333 607.677 198.897C621.634 201.118 640.033 202.704 653.674 197.629C657.797 196.36 662.873 195.725 665.728 199.532C668.9 203.973 666.362 209.683 663.507 213.172C661.604 215.393 659.383 217.613 657.163 219.517L655.894 222.689C652.405 232.206 645.743 238.55 636.861 240.453C632.42 252.508 625.441 256.632 613.704 256.314C609.263 268.369 601.015 269.32 590.547 268.686L590.229 269.32C585.788 277.568 575.637 278.837 564.852 277.251C562.631 281.058 559.459 283.912 555.335 285.181C547.405 288.036 538.205 285.499 529.64 282.326C529.006 283.278 528.689 284.23 527.42 284.864C517.586 291.209 504.263 288.354 492.526 283.278C491.891 284.23 491.574 284.864 490.305 285.499C463.024 300.725 438.281 269.32 416.076 259.487C414.172 258.535 411.952 257.9 411.317 255.997C407.828 255.363 404.656 253.459 399.897 250.604L377.057 237.281Z" fill="#9D9D9D"/>
<path fill-rule="evenodd" clip-rule="evenodd" d="M376.106 232.523C373.569 231.254 370.714 230.619 368.176 229.35C388.161 217.296 411.001 190.015 430.034 174.471C440.502 165.589 450.336 161.465 463.976 160.196C465.245 160.196 466.831 159.879 468.1 159.879C481.741 159.245 495.698 163.686 508.387 167.81C541.061 178.278 573.1 195.091 606.408 203.338C628.614 206.828 644.157 205.876 654.943 201.752C667.949 197.311 662.239 213.172 647.33 219.517C637.496 223.64 627.028 221.737 616.877 219.834C595.623 216.027 574.369 208.731 552.481 199.532C533.765 191.601 516.318 181.133 496.65 175.106C477.934 169.396 462.073 168.127 448.75 174.154C427.813 183.671 409.097 215.71 376.106 232.523Z" fill="white"/>
<path fill-rule="evenodd" clip-rule="evenodd" d="M441.453 182.402C469.686 159.562 512.828 184.305 541.695 197.629C544.867 199.215 545.502 198.897 545.502 202.387C545.184 204.29 542.964 205.559 540.109 206.193C534.082 207.462 529.641 205.242 523.931 203.021C497.601 193.187 471.589 180.816 442.722 183.671C439.867 183.671 438.916 184.305 441.453 182.402Z" fill="white"/>
<path fill-rule="evenodd" clip-rule="evenodd" d="M535.985 209.366C543.916 208.414 548.674 205.876 548.991 201.118C571.831 211.586 602.601 222.054 631.151 224.909C639.399 225.544 644.475 223.958 651.136 221.737C647.33 232.84 638.447 237.915 627.345 237.281C597.526 235.061 570.562 227.764 535.985 209.366Z" fill="white"/>
<path fill-rule="evenodd" clip-rule="evenodd" d="M427.496 194.139C430.986 191.284 433.206 187.795 437.647 187.16C465.563 182.085 500.14 196.994 524.566 206.51C531.227 209.048 527.103 214.124 522.028 215.075C516.001 216.344 511.56 215.71 505.85 213.489C479.52 203.656 458.584 188.746 428.448 195.408C425.91 196.042 424.641 196.359 427.496 194.139Z" fill="white"/>
<path fill-rule="evenodd" clip-rule="evenodd" d="M516.635 218.247C524.883 217.93 530.593 215.392 530.91 210.634C552.163 220.151 592.45 241.722 632.737 239.184C628.931 250.287 622.904 252.824 611.801 252.19C599.746 251.238 588.009 248.066 575.638 243.942C557.239 238.232 537.254 229.35 516.635 218.247Z" fill="white"/>
<path fill-rule="evenodd" clip-rule="evenodd" d="M416.076 204.925C419.566 202.07 422.104 199.215 426.228 198.263C454.46 191.284 479.203 205.559 503.629 215.71C510.291 218.565 506.801 222.689 501.726 223.641C495.699 224.91 491.258 224.275 485.548 222.055C459.218 212.221 447.481 199.532 417.345 206.194C414.808 206.511 413.539 207.145 416.076 204.925Z" fill="white"/>
<path fill-rule="evenodd" clip-rule="evenodd" d="M496.015 226.813C504.263 226.496 509.973 223.958 510.29 219.2C524.882 225.227 569.61 250.287 609.263 254.728C605.456 265.831 597.525 264.879 586.423 264.245C565.169 262.976 514.731 236.964 496.015 226.813Z" fill="white"/>
<path fill-rule="evenodd" clip-rule="evenodd" d="M406.559 214.441C410.049 211.586 409.732 210.635 413.855 209.366C443.991 200.801 460.487 214.759 484.913 224.91C491.574 227.765 489.671 230.62 484.596 231.571C478.568 232.84 474.762 230.302 469.052 228.399C443.04 220.151 439.233 213.172 407.828 215.393C404.973 215.71 404.022 216.345 406.559 214.441Z" fill="white"/>
<path fill-rule="evenodd" clip-rule="evenodd" d="M478.886 235.06C486.816 234.743 491.575 232.522 491.892 227.764C502.995 232.522 532.179 249.652 562.315 260.755C569.928 263.61 578.176 266.782 585.789 267.417C573.1 291.208 495.064 240.453 478.886 235.06Z" fill="white"/>
<path fill-rule="evenodd" clip-rule="evenodd" d="M398.312 220.785C401.801 217.93 401.167 217.93 405.291 217.613C442.088 216.027 445.578 223.957 466.514 230.936C473.493 233.157 470.004 236.963 464.928 237.281C445.895 238.867 424.324 218.882 400.85 222.054C398.312 222.371 395.457 223.006 398.312 220.785Z" fill="white"/>
<path fill-rule="evenodd" clip-rule="evenodd" d="M461.122 241.088C469.052 240.771 472.859 239.502 472.859 234.743C499.822 245.529 533.448 269.638 561.046 274.396C559.46 277.568 556.922 279.789 553.75 281.058C543.916 284.864 529.958 277.568 521.393 273.444C497.285 262.342 470.004 243.943 461.122 241.088Z" fill="white"/>
<path fill-rule="evenodd" clip-rule="evenodd" d="M442.723 245.846C448.75 245.212 452.239 243.625 454.143 240.136C478.886 252.19 500.457 268.686 525.834 279.471C525.517 280.106 525.2 280.74 524.883 281.057C503.312 294.698 457.632 256.314 441.771 247.115C438.599 245.529 439.868 246.163 442.723 245.846Z" fill="white"/>
<path fill-rule="evenodd" clip-rule="evenodd" d="M417.979 253.776C424.006 253.142 429.716 250.287 432.254 247.432C432.571 246.797 432.889 246.48 433.206 245.846C434.475 246.48 435.744 247.115 436.695 248.066C456.363 259.803 464.611 270.272 489.037 280.105C488.719 280.74 488.402 281.374 488.085 281.692C463.659 295.332 438.599 264.562 417.979 255.362C414.807 254.093 414.49 254.093 417.979 253.776Z" fill="white"/>
<path fill-rule="evenodd" clip-rule="evenodd" d="M391.333 226.495C394.823 223.64 394.188 224.591 398.312 224.274C404.974 223.957 411.635 223.64 417.663 225.543C427.179 228.398 436.061 234.108 446.53 236.646C449.067 237.28 450.336 237.915 450.336 238.549C450.971 241.087 442.723 244.894 436.379 243.625C422.738 240.77 415.442 231.888 393.871 228.081C391.333 227.446 388.796 228.715 391.333 226.495Z" fill="white"/>
<path fill-rule="evenodd" clip-rule="evenodd" d="M402.119 246.797L380.548 234.108L387.844 229.35C391.016 229.35 397.995 230.936 405.608 234.108C412.904 237.281 421.786 240.136 425.91 243.942C429.717 247.432 425.91 249.018 419.249 250.921C411.001 252.824 409.415 250.921 402.119 246.797Z" fill="white"/>
<path fill-rule="evenodd" clip-rule="evenodd" d="M290.139 237.281L290.774 237.598L292.677 236.647C295.215 235.378 298.07 234.743 300.607 233.474L308.221 229.668L300.925 225.227C289.188 218.248 277.768 207.145 268.251 197.311C259.052 188.429 249.852 178.913 240.018 170.665C228.598 161.148 218.13 156.707 203.221 155.438C201.635 155.438 200.366 155.121 198.78 155.121C184.505 154.487 170.23 158.928 156.907 163.369C124.233 174.154 93.1455 190.333 59.5201 198.897C45.5624 201.118 27.1637 202.704 13.5232 197.629C9.39934 196.36 4.32383 195.725 1.46885 199.532C-1.70335 203.973 0.834402 209.683 3.68938 213.172C5.5927 215.393 7.81325 217.613 10.0338 219.517L11.3027 222.689C14.7921 232.206 21.4537 238.55 30.3359 240.453C34.777 252.508 41.7558 256.632 53.493 256.314C57.934 268.369 66.1818 269.32 76.65 268.686L76.9672 269.32C81.4083 277.568 91.5594 278.837 102.345 277.251C104.565 281.058 107.738 283.912 111.861 285.181C119.792 288.036 128.991 285.499 137.556 282.326C138.191 283.278 138.508 284.23 139.777 284.864C149.611 291.209 162.934 288.354 174.671 283.278C175.305 284.23 175.623 284.864 176.892 285.499C204.173 300.725 228.916 269.32 251.121 259.487C253.024 258.535 255.245 257.9 255.879 255.997C259.369 255.363 262.541 253.459 267.299 250.604L290.139 237.281Z" fill="#9D9D9D"/>
<path fill-rule="evenodd" clip-rule="evenodd" d="M291.091 232.523C293.629 231.254 296.484 230.619 299.021 229.35C279.036 217.296 256.197 190.015 237.163 174.471C226.695 165.589 216.861 161.465 203.221 160.196C201.952 160.196 200.366 159.879 199.097 159.879C185.456 159.245 171.499 163.686 158.81 167.81C126.136 178.278 94.0971 195.091 60.7889 203.338C38.5835 206.828 23.0398 205.876 12.2543 201.752C-0.751761 197.311 4.95818 213.172 19.8675 219.517C29.7014 223.64 40.1696 221.737 50.3207 219.834C71.5744 216.027 92.8282 208.731 114.716 199.532C133.432 191.601 150.879 181.133 170.547 175.106C189.263 169.396 205.124 168.127 218.447 174.154C239.384 183.671 258.1 215.71 291.091 232.523Z" fill="white"/>
<path fill-rule="evenodd" clip-rule="evenodd" d="M225.744 182.402C197.511 159.562 154.369 184.305 125.502 197.629C122.33 199.215 121.696 198.897 121.696 202.387C122.013 204.29 124.233 205.559 127.088 206.193C133.116 207.462 137.557 205.242 143.267 203.021C169.596 193.187 195.608 180.816 224.475 183.671C227.013 183.671 228.282 184.305 225.744 182.402Z" fill="white"/>
<path fill-rule="evenodd" clip-rule="evenodd" d="M130.895 209.366C122.964 208.414 118.206 205.876 117.889 201.118C95.049 211.586 64.2787 222.054 35.7288 224.909C27.4811 225.544 22.4056 223.958 15.744 221.737C19.5506 232.84 28.4328 237.915 39.5355 237.281C69.6714 235.061 96.6351 227.764 130.895 209.366Z" fill="white"/>
<path fill-rule="evenodd" clip-rule="evenodd" d="M239.701 194.139C236.212 191.284 233.991 187.795 229.55 187.16C201.635 182.085 167.058 196.994 142.632 206.51C135.97 209.048 140.094 214.124 145.17 215.075C151.197 216.344 155.638 215.71 161.348 213.489C187.677 203.656 208.614 188.746 238.75 195.408C240.97 196.042 242.239 196.359 239.701 194.139Z" fill="white"/>
<path fill-rule="evenodd" clip-rule="evenodd" d="M150.562 218.247C142.315 217.93 136.605 215.392 136.288 210.634C115.034 220.151 74.7469 241.722 34.4599 239.184C38.2665 250.287 44.2937 252.824 55.3964 252.19C67.4508 251.238 79.188 248.066 91.5595 243.942C109.958 238.232 129.943 229.35 150.562 218.247Z" fill="white"/>
<path fill-rule="evenodd" clip-rule="evenodd" d="M251.121 204.925C247.632 202.07 245.094 199.215 240.97 198.263C212.738 191.284 187.995 205.559 163.569 215.71C156.907 218.565 160.396 222.689 165.472 223.641C171.499 224.91 175.94 224.275 181.65 222.055C207.979 212.221 219.717 199.532 249.852 206.194C252.39 206.511 253.659 207.145 251.121 204.925Z" fill="white"/>
<path fill-rule="evenodd" clip-rule="evenodd" d="M170.864 226.813C162.617 226.496 156.907 223.958 156.59 219.2C141.997 225.227 97.2694 250.287 57.6169 254.728C61.4235 265.831 69.354 264.879 80.4567 264.245C102.028 262.976 152.466 236.964 170.864 226.813Z" fill="white"/>
<path fill-rule="evenodd" clip-rule="evenodd" d="M260.638 214.441C257.148 211.586 257.466 210.635 253.342 209.366C223.206 200.801 206.71 214.759 182.284 224.91C175.623 227.765 177.526 230.62 182.602 231.571C188.629 232.84 192.435 230.302 198.145 228.399C224.157 220.151 227.964 213.172 259.369 215.393C261.907 215.71 263.176 216.345 260.638 214.441Z" fill="white"/>
<path fill-rule="evenodd" clip-rule="evenodd" d="M187.994 235.06C180.064 234.743 175.306 232.522 174.988 227.764C163.886 232.522 134.701 249.652 104.565 260.755C96.9522 263.61 88.7044 266.782 81.0912 267.417C94.0972 291.208 172.133 240.453 187.994 235.06Z" fill="white"/>
<path fill-rule="evenodd" clip-rule="evenodd" d="M268.885 220.785C265.396 217.93 266.03 217.93 261.906 217.613C225.109 216.027 221.619 223.957 200.683 230.936C193.704 233.157 197.193 236.963 202.269 237.281C221.302 238.867 242.873 218.882 266.347 222.054C268.568 222.371 271.423 223.006 268.885 220.785Z" fill="white"/>
<path fill-rule="evenodd" clip-rule="evenodd" d="M206.076 241.088C198.146 240.771 194.339 239.502 194.339 234.743C167.375 245.529 133.75 269.638 106.152 274.396C107.738 277.568 110.276 279.789 113.448 281.058C123.282 284.864 137.239 277.568 145.804 273.444C169.596 262.342 197.194 243.943 206.076 241.088Z" fill="white"/>
<path fill-rule="evenodd" clip-rule="evenodd" d="M224.475 245.846C218.448 245.212 214.958 243.625 213.055 240.136C188.312 252.19 166.741 268.686 141.363 279.471C141.68 280.106 141.998 280.74 142.315 281.057C163.886 294.698 209.565 256.314 225.426 247.115C228.599 245.529 227.33 246.163 224.475 245.846Z" fill="white"/>
<path fill-rule="evenodd" clip-rule="evenodd" d="M249.218 253.776C243.191 253.142 237.481 250.287 234.943 247.432C234.626 246.797 234.309 246.48 233.991 245.846C232.723 246.48 231.454 247.115 230.502 248.066C210.834 259.803 202.587 270.272 178.161 280.105C178.478 280.74 178.795 281.374 179.112 281.692C203.538 295.332 228.599 264.562 249.218 255.362C252.073 254.093 252.707 254.093 249.218 253.776Z" fill="white"/>
<path fill-rule="evenodd" clip-rule="evenodd" d="M275.864 226.495C272.375 223.64 273.009 224.591 268.885 224.274C262.224 223.957 255.562 223.64 249.535 225.543C240.018 228.398 231.136 234.108 220.668 236.646C218.13 237.28 216.861 237.915 216.861 238.549C216.227 241.087 224.475 244.894 230.819 243.625C244.46 240.77 251.756 231.888 273.327 228.081C275.864 227.446 278.402 228.715 275.864 226.495Z" fill="white"/>
<path fill-rule="evenodd" clip-rule="evenodd" d="M265.079 246.797L286.65 234.108L279.354 229.35C276.181 229.35 269.203 230.936 261.589 234.108C254.293 237.281 245.411 240.136 241.287 243.942C237.481 247.432 241.287 249.018 247.949 250.921C256.197 252.824 257.783 250.921 265.079 246.797Z" fill="white"/>
<path fill-rule="evenodd" clip-rule="evenodd" d="M453.19 378.444L120.744 37.7492C113.765 30.1359 109.641 22.2054 109.007 12.0544C108.689 9.51659 108.689 7.61329 108.372 4.7583L108.055 0L114.082 0.317215C116.937 0.317215 119.792 0.317211 122.647 0.634431C131.846 1.58609 139.142 5.70994 146.121 12.3716L486.816 344.818C463.976 369.879 469.369 354.652 453.19 378.444Z" fill="#9D9D9D"/>
<path fill-rule="evenodd" clip-rule="evenodd" d="M527.42 437.764C532.813 444.108 539.157 449.818 547.405 452.039C551.529 453.308 554.067 453.308 557.239 449.818C557.873 449.184 558.508 448.55 559.46 447.598C562.315 444.743 563.266 443.157 562.949 438.716C562.315 427.93 556.287 420.951 547.722 415.876C547.722 414.29 547.405 412.704 546.136 411.435L543.281 408.58C541.695 406.994 539.792 406.676 537.889 406.994L490.306 352.749L481.741 341.329L475.396 355.604L451.922 370.513L460.487 377.492L465.88 382.885L517.269 428.247C516.952 430.151 517.269 432.054 518.855 433.323L521.71 436.178C522.979 438.398 525.517 438.716 527.42 437.764Z" fill="#9D9D9D"/>
<path fill-rule="evenodd" clip-rule="evenodd" d="M476.347 360.68L474.127 384.471L469.051 379.713L463.659 374.32L459.852 371.465L476.347 360.68ZM534.082 418.731L534.716 410.483L538.205 414.607L534.082 418.731ZM531.861 407.628L530.592 422.221L523.931 428.882L522.979 427.931L525.517 400.332L531.861 407.628ZM522.979 397.16L520.441 425.393L514.097 419.683L516.952 389.864L522.979 397.16ZM514.097 387.009L511.242 417.462L504.897 411.752L508.069 380.03L514.097 387.009ZM504.897 376.541L501.725 408.897L495.381 403.187L498.553 369.245L504.897 376.541ZM496.015 366.39L492.843 400.967L486.499 395.257L489.988 359.094L496.015 366.39ZM486.816 355.922L483.326 392.402L476.982 386.692L479.837 357.19L483.009 350.529L486.816 355.922Z" fill="white"/>
<path fill-rule="evenodd" clip-rule="evenodd" d="M528.372 431.419L537.571 421.585L537.888 421.903C540.426 423.806 543.598 426.344 546.136 429.516C548.991 432.688 551.211 436.495 551.846 441.253C551.846 441.888 552.797 442.522 553.432 442.522C554.066 442.522 554.701 441.57 554.701 440.936C554.066 435.86 551.529 431.419 548.356 427.93C545.501 424.44 542.012 421.585 539.474 419.682L541.378 417.779C551.211 422.537 558.19 428.882 558.825 439.35C558.825 442.205 558.507 442.522 556.604 444.743C555.97 445.377 555.335 446.011 554.384 446.963C552.48 448.866 551.846 448.549 548.991 447.915C541.695 445.694 534.716 440.619 528.372 431.419Z" fill="white"/>
<path fill-rule="evenodd" clip-rule="evenodd" d="M542.647 408.263C540.426 406.043 536.62 406.36 534.399 408.898L518.538 426.662C516.317 428.883 516.635 432.689 518.855 434.91L521.71 437.448C523.931 439.668 527.737 439.351 529.958 436.813L545.819 419.049C548.039 416.828 547.722 413.022 545.502 410.801L542.647 408.263Z" fill="#9D9D9D"/>
<path fill-rule="evenodd" clip-rule="evenodd" d="M539.792 411.752L542.646 414.29C542.964 414.607 542.964 415.242 542.646 415.876L526.785 433.64C526.468 434.275 525.517 434.275 525.199 433.958L522.344 431.42C522.027 431.103 522.027 430.468 522.344 429.834L538.205 412.07C538.523 411.435 539.157 411.435 539.792 411.752Z" fill="white"/>
<path fill-rule="evenodd" clip-rule="evenodd" d="M469.369 367.658L353.583 249.335L113.448 8.88205C113.13 19.3503 116.62 26.9636 123.916 34.8941L454.777 374.003L469.369 367.658ZM475.713 361.314L357.39 245.528L117.254 5.39263C127.723 5.07541 135.336 8.56484 143.266 15.8609L482.375 346.722L475.713 361.314Z" fill="#EEF2F5"/>
<path fill-rule="evenodd" clip-rule="evenodd" d="M505.214 318.807C510.924 319.124 517.269 315.635 520.758 312.145C525.517 307.387 530.909 296.601 524.882 290.574C519.172 284.864 507.752 289.305 502.677 294.381C498.87 298.188 495.698 304.849 496.332 310.559L450.653 342.916L418.296 388.595C412.586 387.961 405.925 391.133 402.118 394.94C397.36 399.698 392.601 411.118 398.311 417.145C404.021 422.855 415.124 417.78 419.882 413.021C423.372 409.532 426.861 403.187 426.544 397.477L475.079 367.659L505.214 318.807Z" fill="#9D9D9D"/>
<path fill-rule="evenodd" clip-rule="evenodd" d="M472.224 363.851L421.786 394.939C423.689 397.794 422.103 404.455 417.028 409.531C411.635 414.924 404.339 416.193 402.118 413.655C399.898 411.434 400.532 403.504 405.925 398.111C410.683 393.353 417.662 392.084 420.834 393.987L454.46 346.404L502.36 312.779C500.774 309.924 501.725 302.945 506.484 297.869C511.876 292.477 519.807 291.842 522.028 294.063C524.248 296.283 522.979 303.579 517.904 308.972C512.828 314.048 506.167 315.317 503.312 313.73L472.224 363.851Z" fill="white"/>
<path fill-rule="evenodd" clip-rule="evenodd" d="M429.716 384.154C429.082 384.788 429.082 385.74 429.399 386.375C430.034 387.009 430.985 386.692 431.62 386.057L463.659 356.556L467.466 362.266C468.1 362.9 470.321 362.583 470.955 362.266C471.59 361.631 471.59 359.728 470.955 359.094L465.245 355.287L494.112 323.248C494.747 322.613 495.381 321.979 494.747 321.344C494.112 320.71 493.478 321.662 492.843 322.296L462.073 351.798L458.266 346.722C457.632 346.088 455.729 346.722 455.411 347.357C454.777 347.991 454.46 349.26 455.094 349.894L460.487 353.384L429.716 384.154Z" fill="#9D9D9D"/>
<path fill-rule="evenodd" clip-rule="evenodd" d="M140.729 437.129C135.336 443.474 128.674 448.867 120.427 451.087C115.985 452.039 113.765 452.356 110.593 448.867C109.958 448.232 109.324 447.598 108.372 446.646C105.517 443.474 104.566 442.205 104.883 437.764C105.517 426.978 111.862 420 120.427 415.241C120.427 413.655 120.744 412.069 122.013 410.8L124.868 407.945C126.454 406.359 128.674 406.042 130.578 406.676L179.112 353.066L187.994 341.963L194.339 356.238L217.496 371.782L208.614 378.444L203.221 383.836L151.197 428.247C151.514 430.151 150.88 432.054 149.611 433.323L146.756 436.178C145.487 437.764 142.949 438.081 140.729 437.129Z" fill="#9D9D9D"/>
<path fill-rule="evenodd" clip-rule="evenodd" d="M193.387 360.997L195.29 384.788L200.683 380.347L206.076 374.954L209.882 372.099L193.387 360.997ZM134.701 418.096L134.067 409.848L130.577 413.655L134.701 418.096ZM136.922 406.676L138.191 421.268L144.852 427.93L145.804 426.978L143.583 399.38L136.922 406.676ZM146.121 396.525L148.342 424.758L155.003 419.048L152.783 389.229L146.121 396.525ZM155.321 386.691L157.541 417.145L164.203 411.435L161.665 379.713L155.321 386.691ZM164.52 376.54L167.058 408.897L173.719 403.187L171.182 369.244L164.52 376.54ZM173.719 366.389L176.257 400.966L182.919 395.256L180.064 359.093L173.719 366.389ZM182.919 356.238L185.774 393.036L192.435 387.326L190.215 357.824L187.36 350.845L182.919 356.238Z" fill="white"/>
<path fill-rule="evenodd" clip-rule="evenodd" d="M140.094 430.786L130.895 420.952L130.578 421.269C128.04 423.172 124.868 425.71 122.013 428.882C119.158 432.055 116.937 435.861 116.303 440.619C116.303 441.254 115.351 441.888 114.716 441.888C114.082 441.888 113.448 440.937 113.448 440.302C114.082 435.227 116.937 430.786 119.792 427.296C122.647 423.807 126.136 421.269 128.674 419.366L127.088 417.462C117.254 421.903 110.275 428.248 109.324 438.716C109.007 441.571 109.324 441.888 111.544 444.109C112.179 444.743 112.813 445.378 113.765 446.329C115.668 448.233 116.303 448.233 119.158 447.281C126.454 444.743 133.432 439.668 140.094 430.786Z" fill="white"/>
<path fill-rule="evenodd" clip-rule="evenodd" d="M214.007 378.444L546.453 37.7492C553.432 30.1359 557.556 22.2054 558.19 12.0544C558.508 9.51659 558.508 7.61329 558.825 4.7583L559.142 0L553.115 0.317215C550.26 0.317215 547.405 0.317211 544.55 0.634431C535.351 1.58609 528.055 5.70994 521.076 12.3716L180.381 344.818C203.221 369.879 197.511 354.652 214.007 378.444Z" fill="#9D9D9D"/>
<path fill-rule="evenodd" clip-rule="evenodd" d="M126.137 407.31C128.674 405.09 132.164 405.724 134.384 407.945L149.928 426.026C152.149 428.564 151.831 432.054 149.294 434.274L146.439 436.812C143.901 439.032 140.411 438.398 138.191 436.177L122.647 418.096C120.744 415.558 120.744 412.069 123.282 409.848L126.137 407.31Z" fill="#9D9D9D"/>
<path fill-rule="evenodd" clip-rule="evenodd" d="M128.992 410.8L126.137 413.338C125.819 413.655 125.819 414.29 126.137 414.924L141.68 433.006C141.998 433.64 142.949 433.64 143.266 433.323L146.121 430.785C146.439 430.468 146.439 429.833 146.121 429.199L130.578 411.117C130.26 410.483 129.626 410.483 128.992 410.8Z" fill="white"/>
<path fill-rule="evenodd" clip-rule="evenodd" d="M197.511 367.658L313.297 249.335L553.749 8.88205C554.067 19.3503 550.577 26.9636 543.281 34.8941L212.103 373.685L197.511 367.658ZM191.484 361.314L309.807 245.528L549.943 5.39263C539.475 5.07541 531.861 8.56484 523.931 15.8609L185.14 346.722L191.484 361.314Z" fill="#EEF2F5"/>
<path fill-rule="evenodd" clip-rule="evenodd" d="M240.019 398.111C239.702 403.821 243.191 410.166 246.681 413.655C251.439 418.413 262.224 423.806 268.252 418.096C274.279 412.386 269.838 400.966 264.762 395.891C260.956 392.084 254.294 388.912 248.584 389.229L216.862 342.915L171.499 309.924C172.134 304.214 169.279 297.553 165.472 293.746C160.714 288.67 149.294 283.912 143.584 289.622C137.557 295.332 142.632 306.435 147.391 311.193C150.88 314.682 157.225 318.489 162.935 318.172L191.802 367.024L240.019 398.111Z" fill="#9D9D9D"/>
<path fill-rule="evenodd" clip-rule="evenodd" d="M195.608 364.169L165.472 313.096C162.617 314.682 155.955 313.413 151.197 308.338C146.121 302.945 144.852 295.649 147.073 293.429C149.611 291.208 157.224 291.842 162.617 297.235C167.375 302.311 168.327 309.29 166.741 312.145L214.006 346.722L246.997 394.939C249.852 393.353 256.831 394.305 261.907 399.38C266.982 404.773 267.617 412.703 265.396 414.924C262.858 417.144 255.562 415.876 250.487 410.483C245.728 405.407 244.142 398.746 246.046 395.891L195.608 364.169Z" fill="white"/>
<path fill-rule="evenodd" clip-rule="evenodd" d="M175.94 321.344C175.306 320.71 174.354 320.393 173.72 321.027C173.085 321.662 173.403 322.613 174.037 323.248L202.904 355.604L197.194 359.411C196.56 360.045 196.877 362.266 197.194 362.9C197.829 363.535 199.732 363.535 200.366 362.9L204.173 357.19L235.895 386.375C236.529 387.009 237.164 387.643 237.798 387.009C238.433 386.375 237.798 385.74 236.847 385.106L207.662 354.018L212.738 350.529C213.372 349.894 212.738 347.991 212.421 347.674C211.786 347.039 210.517 346.722 209.883 347.357L206.393 352.749L175.94 321.344Z" fill="#9D9D9D"/>
</g>
</svg>
