<svg width="794" height="713" viewBox="0 0 794 713" fill="none" xmlns="http://www.w3.org/2000/svg">
<g opacity="0.08">
<path fill-rule="evenodd" clip-rule="evenodd" d="M541.459 623.539C522.588 640.901 502.207 659.394 479.94 671.472C471.636 676.001 463.333 679.398 454.652 682.795C434.271 690.72 419.929 697.137 402.945 711.479C400.304 713.743 397.662 713.366 394.642 711.101C377.658 696.759 363.316 690.343 342.936 682.417C334.255 679.02 325.952 675.624 317.648 671.094C295.38 659.017 275 640.523 256.129 623.162L233.106 625.804L231.596 621.275C220.274 585.042 218.009 546.168 240.654 513.71L246.693 505.029L250.467 515.219C259.903 542.016 275.377 565.794 296.513 585.042L303.306 591.081L294.626 594.101C287.455 596.742 281.416 600.894 276.887 606.555L307.08 620.143C319.913 622.407 331.99 629.578 345.2 622.03C370.865 607.688 373.129 545.791 373.507 521.258L375.394 418.222L376.526 385.764L382.942 193.279H342.936C338.406 193.279 334.255 189.505 334.255 184.598V166.859C334.255 162.33 338.029 158.179 342.936 158.179H364.826C351.616 148.366 343.313 132.892 343.313 115.153C343.313 85.3365 367.468 61.5589 396.907 61.5589C426.723 61.5589 450.501 85.7139 450.501 115.153C450.501 132.892 441.82 148.366 428.988 158.179H453.52C458.049 158.179 462.201 161.953 462.201 166.859V184.976C462.201 189.505 458.426 193.656 453.52 193.656H413.891L421.439 418.977L423.326 522.013C423.704 546.168 425.968 608.443 451.633 622.785C464.843 630.333 476.92 622.785 489.752 620.898L519.946 607.31C515.417 601.649 509.378 597.497 502.207 594.855L493.527 591.836L500.32 585.797C521.456 566.549 536.553 542.771 546.366 515.974L550.14 505.784L556.179 514.465C578.824 546.923 576.559 585.797 565.237 622.03L563.727 626.559L541.459 623.539ZM397.662 92.13C410.494 92.13 421.062 102.698 421.062 115.53C421.062 128.363 410.494 138.93 397.662 138.93C384.829 138.93 374.261 128.363 374.261 115.53C374.261 102.698 384.829 92.13 397.662 92.13Z" fill="#9D9D9D"/>
<path fill-rule="evenodd" clip-rule="evenodd" d="M399.171 183.844H408.984L415.401 386.142L416.533 418.6L418.42 521.636C420.685 661.66 474.656 628.447 492.017 625.427L529.004 608.821C523.343 599.763 515.417 592.969 504.849 589.195C526.74 568.814 542.592 544.659 552.405 517.107C570.521 543.149 573.918 577.495 560.708 619.766L539.572 617.124C518.437 636.75 498.433 654.489 477.298 666.189C451.633 680.153 430.497 680.531 399.549 706.573C398.794 706.95 399.171 706.95 398.417 706.195C367.468 680.153 346.332 679.776 320.668 665.811C299.532 654.111 279.529 636.372 258.393 616.747L237.258 619.388C224.048 577.117 227.445 542.772 245.561 516.73C255.374 543.904 270.848 568.437 293.116 588.817C282.548 592.592 274.245 599.763 268.961 608.443L305.948 625.05C323.31 627.692 377.281 660.905 379.546 521.259L381.433 418.223L382.565 385.765L388.981 183.467H399.171V183.844Z" fill="white"/>
<path fill-rule="evenodd" clip-rule="evenodd" d="M401.813 212.528V663.924C418.797 663.547 433.516 661.66 446.726 658.64C461.068 655.243 473.523 650.714 484.468 644.676C497.301 637.882 509.756 628.824 519.946 618.256C529.004 608.821 536.93 598.253 541.836 586.175C545.611 577.117 548.253 566.927 549.385 555.227C550.517 545.414 550.895 535.223 550.14 524.278C550.14 523.523 549.762 523.146 550.14 522.391L552.404 516.73L555.424 522.391C555.801 522.768 555.424 523.523 555.424 523.901C556.178 535.223 555.801 545.791 554.669 555.982C553.159 568.059 550.517 579.004 546.743 588.44C541.459 600.895 533.156 612.217 523.72 622.408C512.775 633.353 499.943 642.788 486.733 649.959C475.41 655.998 462.578 660.905 447.858 664.301C434.271 667.321 419.174 669.208 401.813 669.585V700.534H396.152V669.585C378.79 669.208 363.693 667.321 350.106 664.301C335.387 660.905 322.554 655.998 311.232 649.959C298.022 642.788 285.19 633.73 274.245 622.408C264.432 612.595 256.506 601.272 251.222 588.44C247.07 579.004 244.428 568.059 243.296 555.982C242.164 545.791 241.786 535.601 242.541 523.901C242.541 523.523 242.541 522.768 242.541 522.391L245.561 516.73L247.825 522.391C248.203 523.146 247.825 523.523 247.825 524.278C247.07 535.223 247.448 545.791 248.58 555.227C249.712 566.549 252.354 577.117 256.128 586.175C261.035 598.253 268.961 608.821 278.019 618.256C288.587 628.824 301.041 637.882 313.496 644.676C324.442 650.714 336.897 655.243 351.239 658.64C364.448 661.66 379.168 663.547 396.152 663.924V212.528H401.813Z" fill="#9D9D9D"/>
<path fill-rule="evenodd" clip-rule="evenodd" d="M398.797 163.841H453.9C455.41 163.841 456.92 165.351 456.92 166.861V184.977C456.92 186.486 455.41 187.996 453.9 187.996H398.797H343.693C342.184 187.996 340.674 186.486 340.674 184.977V166.861C340.674 165.351 342.184 163.841 343.693 163.841H398.797ZM397.664 67.2213C424.461 67.2213 445.974 88.7343 445.974 115.531C445.974 142.328 424.461 163.841 397.664 163.841C370.868 163.841 349.355 142.328 349.355 115.531C349.355 88.7343 371.245 67.2213 397.664 67.2213ZM397.664 86.0923C413.894 86.0923 427.103 99.3021 427.103 115.531C427.103 131.76 413.894 144.97 397.664 144.97C381.435 144.97 368.226 131.76 368.226 115.531C368.226 99.3021 381.435 86.0923 397.664 86.0923Z" fill="white"/>
<path fill-rule="evenodd" clip-rule="evenodd" d="M448.613 331.416L447.858 331.793L445.593 330.661C442.574 329.151 439.177 328.396 436.158 326.887L427.1 322.358L435.78 317.074C449.745 308.771 463.332 295.561 474.655 283.861C485.6 273.293 496.545 261.97 508.245 252.157C521.832 240.835 534.287 235.551 552.026 234.041C553.913 234.041 555.423 233.664 557.31 233.664C574.294 232.909 591.278 238.193 607.13 243.477C646.004 256.309 683.369 275.557 722.998 285.748C739.605 288.39 761.495 290.277 777.724 284.238C782.631 282.728 788.669 281.974 792.066 286.503C795.84 291.787 792.821 298.58 789.424 302.732C787.16 305.374 784.518 308.016 781.876 310.28L780.366 314.054C776.214 325.377 768.289 332.925 757.721 335.19C752.437 349.532 744.134 354.439 730.169 354.061C724.885 368.403 715.072 369.535 702.617 368.781L702.24 369.535C696.956 379.348 684.878 380.858 672.046 378.971C669.404 383.5 665.63 386.897 660.723 388.406C651.288 391.803 640.343 388.784 630.152 385.01C629.397 386.142 629.02 387.274 627.51 388.029C615.81 395.577 599.959 392.181 585.994 386.142C585.239 387.274 584.862 388.029 583.352 388.784C550.894 406.9 521.455 369.535 495.035 357.835C492.771 356.703 490.129 355.948 489.374 353.684C485.223 352.929 481.448 350.664 475.787 347.268L448.613 331.416Z" fill="#9D9D9D"/>
<path fill-rule="evenodd" clip-rule="evenodd" d="M447.482 325.754C444.463 324.245 441.066 323.49 438.047 321.98C461.824 307.638 488.999 275.18 511.644 256.686C524.099 246.118 535.799 241.212 552.028 239.702C553.538 239.702 555.425 239.325 556.935 239.325C573.164 238.57 589.77 243.854 604.867 248.76C643.742 261.215 681.861 281.219 721.49 291.032C747.91 295.183 766.403 294.051 779.236 289.144C794.71 283.861 787.917 302.732 770.178 310.28C758.478 315.187 746.023 312.922 733.945 310.658C708.658 306.128 683.371 297.448 657.329 286.503C635.061 277.067 614.303 264.612 590.903 257.441C568.635 250.648 549.764 249.138 533.912 256.309C509.002 267.631 486.734 305.751 447.482 325.754Z" fill="white"/>
<path fill-rule="evenodd" clip-rule="evenodd" d="M525.232 266.122C558.822 238.948 610.151 268.387 644.497 284.238C648.271 286.125 649.026 285.748 649.026 289.9C648.648 292.164 646.007 293.674 642.61 294.429C635.439 295.938 630.155 293.296 623.361 290.654C592.035 278.954 561.087 264.235 526.741 267.632C523.345 267.632 522.212 268.387 525.232 266.122Z" fill="white"/>
<path fill-rule="evenodd" clip-rule="evenodd" d="M637.703 298.203C647.139 297.071 652.8 294.051 653.177 288.39C680.352 300.845 716.962 313.3 750.93 316.696C760.743 317.451 766.781 315.564 774.707 312.922C770.178 326.132 759.61 332.171 746.401 331.416C710.923 328.774 678.842 320.093 637.703 298.203Z" fill="white"/>
<path fill-rule="evenodd" clip-rule="evenodd" d="M508.626 280.086C512.778 276.69 515.42 272.538 520.703 271.783C553.917 265.744 595.056 283.483 624.117 294.806C632.043 297.825 627.136 303.864 621.098 304.996C613.927 306.506 608.643 305.751 601.849 303.109C570.523 291.409 545.613 273.67 509.758 281.596C506.739 282.351 505.229 282.728 508.626 280.086Z" fill="white"/>
<path fill-rule="evenodd" clip-rule="evenodd" d="M614.68 308.77C624.493 308.393 631.286 305.373 631.664 299.712C656.951 311.035 704.883 336.699 752.816 333.68C748.287 346.89 741.116 349.909 727.906 349.154C713.564 348.022 699.599 344.248 684.88 339.341C662.99 332.548 639.212 321.98 614.68 308.77Z" fill="white"/>
<path fill-rule="evenodd" clip-rule="evenodd" d="M495.038 292.919C499.19 289.523 502.209 286.126 507.116 284.994C540.706 276.69 570.145 293.674 599.207 305.752C607.133 309.149 602.981 314.055 596.942 315.187C589.771 316.697 584.487 315.942 577.694 313.3C546.368 301.6 532.403 286.503 496.548 294.429C493.529 294.807 492.019 295.561 495.038 292.919Z" fill="white"/>
<path fill-rule="evenodd" clip-rule="evenodd" d="M590.148 318.961C599.961 318.584 606.755 315.564 607.132 309.903C624.494 317.074 677.71 346.89 724.888 352.174C720.359 365.384 710.923 364.252 697.714 363.497C672.426 361.987 612.416 331.039 590.148 318.961Z" fill="white"/>
<path fill-rule="evenodd" clip-rule="evenodd" d="M483.714 304.242C487.866 300.845 487.488 299.712 492.395 298.203C528.25 288.012 547.876 304.619 576.937 316.696C584.863 320.093 582.599 323.49 576.56 324.622C569.389 326.132 564.86 323.113 558.066 320.848C527.118 311.035 522.589 302.732 485.224 305.374C481.827 305.751 480.695 306.506 483.714 304.242Z" fill="white"/>
<path fill-rule="evenodd" clip-rule="evenodd" d="M569.768 328.774C579.203 328.396 584.864 325.754 585.242 320.093C598.452 325.754 633.174 346.135 669.029 359.345C678.088 362.741 687.901 366.516 696.959 367.271C681.862 395.577 589.016 335.19 569.768 328.774Z" fill="white"/>
<path fill-rule="evenodd" clip-rule="evenodd" d="M473.903 311.79C478.055 308.393 477.3 308.393 482.206 308.015C525.987 306.128 530.139 315.564 555.049 323.867C563.352 326.509 559.2 331.038 553.161 331.416C530.516 333.303 504.852 309.525 476.922 313.299C473.903 313.677 470.506 314.432 473.903 311.79Z" fill="white"/>
<path fill-rule="evenodd" clip-rule="evenodd" d="M548.631 335.945C558.066 335.568 562.595 334.058 562.595 328.397C594.676 341.229 634.683 369.913 667.519 375.574C665.632 379.349 662.612 381.991 658.838 383.5C647.138 388.029 630.531 379.349 620.341 374.442C591.657 361.232 559.199 339.342 548.631 335.945Z" fill="white"/>
<path fill-rule="evenodd" clip-rule="evenodd" d="M526.741 341.606C533.912 340.851 538.063 338.964 540.328 334.812C569.767 349.154 595.431 368.78 625.625 381.613C625.247 382.367 624.87 383.122 624.493 383.5C598.828 399.729 544.479 354.061 525.608 343.116C521.834 341.229 523.344 341.983 526.741 341.606Z" fill="white"/>
<path fill-rule="evenodd" clip-rule="evenodd" d="M497.302 351.042C504.473 350.287 511.267 346.89 514.286 343.493C514.663 342.738 515.041 342.361 515.418 341.606C516.928 342.361 518.438 343.116 519.57 344.248C542.97 358.213 552.783 370.668 581.844 382.368C581.467 383.122 581.09 383.877 580.712 384.255C551.651 400.484 521.834 363.874 497.302 352.929C493.528 351.419 493.15 351.419 497.302 351.042Z" fill="white"/>
<path fill-rule="evenodd" clip-rule="evenodd" d="M465.598 318.583C469.75 315.186 468.995 316.318 473.902 315.941C481.827 315.563 489.753 315.186 496.924 317.45C508.247 320.847 518.815 327.641 531.27 330.66C534.289 331.415 535.799 332.17 535.799 332.925C536.554 335.944 526.741 340.473 519.192 338.963C502.963 335.567 494.282 324.999 468.618 320.47C465.598 319.715 462.579 321.225 465.598 318.583Z" fill="white"/>
<path fill-rule="evenodd" clip-rule="evenodd" d="M478.432 342.738L452.768 327.641L461.448 321.98C465.222 321.98 473.526 323.867 482.584 327.641C491.265 331.415 501.832 334.812 506.739 339.341C511.268 343.493 506.739 345.38 498.813 347.644C489 349.909 487.113 347.645 478.432 342.738Z" fill="white"/>
<path fill-rule="evenodd" clip-rule="evenodd" d="M345.201 331.416L345.956 331.793L348.22 330.661C351.24 329.151 354.637 328.396 357.656 326.887L366.714 322.358L358.033 317.074C344.069 308.771 330.482 295.561 319.159 283.861C308.214 273.293 297.269 261.97 285.569 252.157C271.981 240.835 259.526 235.551 241.788 234.041C239.9 234.041 238.391 233.664 236.504 233.664C219.52 232.909 202.536 238.193 186.684 243.477C147.81 256.309 110.822 275.557 70.8157 285.748C54.2092 288.39 32.3187 290.277 16.0896 284.238C11.1831 282.729 5.1444 281.974 1.74761 286.503C-2.02661 291.787 0.992753 298.58 4.38955 302.732C6.65407 305.374 9.29602 308.016 11.938 310.28L13.4477 314.054C17.5993 325.377 25.5251 332.926 36.0929 335.19C41.3768 349.532 49.6801 354.439 63.6447 354.061C68.9286 368.403 78.7416 369.535 91.1965 368.781L91.5739 369.535C96.8578 379.348 108.935 380.858 121.768 378.971C124.41 383.5 128.184 386.897 133.09 388.406C142.526 391.803 153.471 388.784 163.661 385.01C164.416 386.142 164.794 387.274 166.303 388.029C178.003 395.578 193.855 392.181 207.82 386.142C208.575 387.274 208.952 388.029 210.462 388.784C242.92 406.9 272.359 369.535 298.778 357.835C301.043 356.703 303.685 355.948 304.44 353.684C308.591 352.929 312.365 350.664 318.027 347.268L345.201 331.416Z" fill="#9D9D9D"/>
<path fill-rule="evenodd" clip-rule="evenodd" d="M346.333 325.754C349.353 324.245 352.749 323.49 355.769 321.98C331.991 307.638 304.817 275.18 282.172 256.686C269.717 246.119 258.017 241.212 241.788 239.702C240.278 239.702 238.391 239.325 236.881 239.325C220.652 238.57 204.045 243.854 188.949 248.76C150.074 261.215 111.955 281.219 72.3253 291.032C45.9058 295.183 27.4122 294.051 14.5799 289.145C-0.894404 283.861 5.89916 302.732 23.638 310.28C35.338 315.187 47.793 312.922 59.8704 310.658C85.1577 306.129 110.445 297.448 136.487 286.503C158.755 277.067 179.513 264.612 202.913 257.441C225.181 250.648 244.052 249.138 259.904 256.309C284.814 267.632 307.081 305.751 346.333 325.754Z" fill="white"/>
<path fill-rule="evenodd" clip-rule="evenodd" d="M268.585 266.122C234.995 238.948 183.665 268.387 149.32 284.238C145.546 286.125 144.791 285.748 144.791 289.9C145.168 292.164 147.81 293.674 151.207 294.429C158.378 295.938 163.662 293.296 170.456 290.654C201.782 278.954 232.73 264.235 267.076 267.632C270.095 267.632 271.605 268.387 268.585 266.122Z" fill="white"/>
<path fill-rule="evenodd" clip-rule="evenodd" d="M155.736 298.203C146.301 297.071 140.64 294.051 140.262 288.39C113.088 300.845 76.4779 313.3 42.51 316.697C32.697 317.451 26.6583 315.564 18.7324 312.922C23.2615 326.132 33.8293 332.171 47.039 331.416C82.8941 328.774 114.975 320.093 155.736 298.203Z" fill="white"/>
<path fill-rule="evenodd" clip-rule="evenodd" d="M285.191 280.086C281.04 276.69 278.398 272.538 273.114 271.783C239.901 265.744 198.762 283.483 169.7 294.806C161.774 297.825 166.681 303.864 172.72 304.996C179.891 306.506 185.175 305.751 191.968 303.109C223.294 291.409 248.204 273.67 284.059 281.596C286.701 282.351 288.211 282.728 285.191 280.086Z" fill="white"/>
<path fill-rule="evenodd" clip-rule="evenodd" d="M179.136 308.77C169.323 308.393 162.53 305.373 162.152 299.712C136.865 311.035 88.9325 336.699 41 333.68C45.5291 346.89 52.7001 349.909 65.9098 349.154C80.2518 348.022 94.2164 344.248 108.936 339.341C130.826 332.548 154.604 321.98 179.136 308.77Z" fill="white"/>
<path fill-rule="evenodd" clip-rule="evenodd" d="M298.78 292.919C294.628 289.523 291.608 286.126 286.702 284.994C253.111 276.69 223.673 293.674 194.611 305.752C186.685 309.149 190.837 314.055 196.876 315.187C204.047 316.697 209.331 315.942 216.124 313.3C247.45 301.6 261.415 286.503 297.27 294.429C300.289 294.807 301.799 295.561 298.78 292.919Z" fill="white"/>
<path fill-rule="evenodd" clip-rule="evenodd" d="M203.288 318.961C193.475 318.584 186.682 315.565 186.304 309.903C168.943 317.074 115.727 346.891 68.5488 352.174C73.0779 365.384 82.5134 364.252 95.7232 363.497C121.388 361.987 181.398 331.039 203.288 318.961Z" fill="white"/>
<path fill-rule="evenodd" clip-rule="evenodd" d="M310.102 304.242C305.951 300.845 306.328 299.713 301.422 298.203C265.567 288.012 245.941 304.619 216.879 316.696C208.954 320.093 211.218 323.49 217.257 324.622C224.428 326.132 228.957 323.113 235.75 320.848C266.699 311.035 271.228 302.732 308.593 305.374C311.612 305.751 313.122 306.506 310.102 304.242Z" fill="white"/>
<path fill-rule="evenodd" clip-rule="evenodd" d="M223.671 328.774C214.236 328.396 208.575 325.754 208.197 320.093C194.987 325.754 160.265 346.135 124.41 359.345C115.352 362.741 105.539 366.516 96.4805 367.271C111.955 395.577 204.8 335.19 223.671 328.774Z" fill="white"/>
<path fill-rule="evenodd" clip-rule="evenodd" d="M319.915 311.79C315.763 308.393 316.518 308.393 311.612 308.015C267.831 306.128 263.679 315.564 238.769 323.867C230.466 326.509 234.618 331.038 240.657 331.416C263.302 333.303 288.966 309.525 316.896 313.299C319.538 313.677 322.934 314.432 319.915 311.79Z" fill="white"/>
<path fill-rule="evenodd" clip-rule="evenodd" d="M245.185 335.945C235.749 335.568 231.22 334.058 231.22 328.397C199.139 341.229 159.133 369.913 126.297 375.575C128.184 379.349 131.203 381.991 134.978 383.5C146.678 388.029 163.284 379.349 173.475 374.442C201.781 361.233 234.617 339.342 245.185 335.945Z" fill="white"/>
<path fill-rule="evenodd" clip-rule="evenodd" d="M267.074 341.606C259.903 340.851 255.751 338.964 253.487 334.812C224.048 349.154 198.383 368.78 168.189 381.613C168.567 382.368 168.944 383.122 169.322 383.5C194.986 399.729 249.335 354.061 268.206 343.116C271.98 341.229 270.471 341.983 267.074 341.606Z" fill="white"/>
<path fill-rule="evenodd" clip-rule="evenodd" d="M296.515 351.042C289.344 350.287 282.55 346.89 279.531 343.493C279.154 342.738 278.776 342.361 278.399 341.606C276.889 342.361 275.379 343.116 274.247 344.248C250.847 358.213 241.034 370.668 211.973 382.368C212.35 383.122 212.728 383.877 213.105 384.255C242.166 400.484 271.983 363.874 296.515 352.929C299.912 351.419 300.667 351.419 296.515 351.042Z" fill="white"/>
<path fill-rule="evenodd" clip-rule="evenodd" d="M328.218 318.583C324.066 315.186 324.821 316.318 319.915 315.941C311.989 315.563 304.063 315.186 296.892 317.45C285.569 320.847 275.002 327.641 262.547 330.66C259.527 331.415 258.018 332.17 258.018 332.925C257.263 335.944 267.076 340.473 274.624 338.964C290.853 335.567 299.534 324.999 325.199 320.47C328.218 319.715 331.237 321.225 328.218 318.583Z" fill="white"/>
<path fill-rule="evenodd" clip-rule="evenodd" d="M315.385 342.738L341.05 327.641L332.369 321.98C328.595 321.98 320.292 323.867 311.233 327.641C302.553 331.415 291.985 334.812 287.079 339.341C282.549 343.493 287.079 345.38 295.004 347.645C304.817 349.909 306.704 347.645 315.385 342.738Z" fill="white"/>
<path fill-rule="evenodd" clip-rule="evenodd" d="M539.197 499.368L143.659 94.0173C135.356 84.9592 130.45 75.5237 129.695 63.4462C129.317 60.4268 129.317 58.1623 128.94 54.7655L128.562 49.1042L135.734 49.4816C139.13 49.4816 142.527 49.4816 145.924 49.859C156.869 50.9913 165.55 55.8978 173.853 63.8236L579.204 459.361C552.029 489.178 558.445 471.061 539.197 499.368Z" fill="#9D9D9D"/>
<path fill-rule="evenodd" clip-rule="evenodd" d="M627.514 569.946C633.93 577.494 641.478 584.288 651.291 586.93C656.198 588.44 659.217 588.44 662.991 584.288C663.746 583.533 664.501 582.778 665.633 581.646C669.03 578.249 670.162 576.362 669.785 571.078C669.03 558.246 661.859 549.943 651.669 543.904C651.669 542.017 651.291 540.13 649.782 538.62L646.385 535.223C644.498 533.336 642.233 532.959 639.969 533.336L583.356 468.797L573.165 455.21L565.617 472.194L537.688 489.933L547.878 498.236L554.294 504.652L615.436 558.623C615.059 560.888 615.436 563.152 617.323 564.662L620.72 568.059C622.23 570.701 625.249 571.078 627.514 569.946Z" fill="#9D9D9D"/>
<path fill-rule="evenodd" clip-rule="evenodd" d="M566.751 478.233L564.109 506.539L558.07 500.878L551.654 494.462L547.125 491.065L566.751 478.233ZM635.442 547.301L636.196 537.488L640.348 542.395L635.442 547.301ZM632.8 534.091L631.29 551.453L623.364 559.378L622.232 558.246L625.251 525.411L632.8 534.091ZM622.232 521.636L619.213 555.227L611.664 548.433L615.061 512.956L622.232 521.636ZM611.664 509.559L608.267 545.791L600.719 538.998L604.493 501.256L611.664 509.559ZM600.719 497.104L596.945 535.601L589.396 528.807L593.17 488.423L600.719 497.104ZM590.151 485.026L586.377 526.165L578.828 519.372L582.98 476.346L590.151 485.026ZM579.206 472.572L575.054 515.975L567.506 509.181L570.903 474.081L574.677 466.155L579.206 472.572Z" fill="white"/>
<path fill-rule="evenodd" clip-rule="evenodd" d="M628.645 562.397L639.59 550.697L639.967 551.074C642.987 553.339 646.761 556.358 649.78 560.133C653.177 563.907 655.819 568.436 656.574 574.097C656.574 574.852 657.706 575.607 658.461 575.607C659.216 575.607 659.971 574.475 659.971 573.72C659.216 567.681 656.196 562.397 652.422 558.245C649.025 554.094 644.874 550.697 641.854 548.433L644.119 546.168C655.819 551.829 664.122 559.378 664.877 571.833C664.877 575.229 664.5 575.607 662.235 578.249C661.48 579.004 660.725 579.758 659.593 580.891C657.329 583.155 656.574 582.778 653.177 582.023C644.496 579.381 636.193 573.342 628.645 562.397Z" fill="white"/>
<path fill-rule="evenodd" clip-rule="evenodd" d="M645.629 534.846C642.988 532.204 638.458 532.582 635.816 535.601L616.945 556.737C614.303 559.379 614.681 563.908 617.323 566.55L620.72 569.569C623.362 572.211 627.891 571.834 630.533 568.814L649.404 547.679C652.046 545.037 651.668 540.508 649.026 537.866L645.629 534.846Z" fill="#9D9D9D"/>
<path fill-rule="evenodd" clip-rule="evenodd" d="M642.233 538.997L645.629 542.017C646.007 542.394 646.007 543.149 645.629 543.904L626.758 565.039C626.381 565.794 625.249 565.794 624.871 565.417L621.474 562.398C621.097 562.02 621.097 561.265 621.474 560.51L640.346 539.375C640.723 538.62 641.478 538.62 642.233 538.997Z" fill="white"/>
<path fill-rule="evenodd" clip-rule="evenodd" d="M558.445 486.536L420.687 345.757L134.979 59.6719C134.601 72.1268 138.753 81.1849 147.434 90.6204L541.084 494.084L558.445 486.536ZM565.994 478.987L425.216 341.228L139.508 55.5202C151.963 55.1428 161.021 59.2945 170.456 67.9752L573.92 461.626L565.994 478.987Z" fill="#EEF2F5"/>
<path fill-rule="evenodd" clip-rule="evenodd" d="M601.094 428.413C607.888 428.791 615.437 424.639 619.588 420.487C625.25 414.826 631.666 401.994 624.495 394.823C617.701 388.029 604.114 393.313 598.075 399.352C593.546 403.881 589.772 411.807 590.527 418.6L536.178 457.097L497.681 511.446C490.887 510.691 482.962 514.465 478.433 518.994C472.771 524.656 467.11 538.243 473.903 545.414C480.697 552.207 493.907 546.169 499.568 540.507C503.72 536.356 507.871 528.807 507.494 522.014L565.239 486.536L601.094 428.413Z" fill="#9D9D9D"/>
<path fill-rule="evenodd" clip-rule="evenodd" d="M561.843 482.006L501.833 518.993C504.097 522.39 502.21 530.316 496.171 536.355C489.755 542.771 481.075 544.281 478.433 541.261C475.791 538.619 476.545 529.184 482.962 522.768C488.623 517.106 496.926 515.597 500.7 517.861L540.707 461.248L597.698 421.241C595.811 417.844 596.943 409.541 602.604 403.502C609.02 397.086 618.456 396.331 621.098 398.973C623.74 401.615 622.23 410.296 616.191 416.712C610.153 422.751 602.227 424.261 598.83 422.373L561.843 482.006Z" fill="white"/>
<path fill-rule="evenodd" clip-rule="evenodd" d="M511.268 506.162C510.513 506.917 510.513 508.049 510.891 508.804C511.645 509.559 512.778 509.181 513.532 508.426L551.652 473.326L556.181 480.12C556.936 480.875 559.578 480.497 560.333 480.12C561.088 479.365 561.088 477.101 560.333 476.346L553.539 471.817L587.884 433.697C588.639 432.942 589.394 432.187 588.639 431.433C587.884 430.678 587.13 431.81 586.375 432.565L549.765 467.665L545.236 461.626C544.481 460.871 542.216 461.626 541.839 462.381C541.084 463.136 540.707 464.646 541.462 465.4L547.878 469.552L511.268 506.162Z" fill="#9D9D9D"/>
<path fill-rule="evenodd" clip-rule="evenodd" d="M167.437 569.191C161.021 576.739 153.095 583.155 143.282 585.797C137.998 586.93 135.356 587.307 131.582 583.155C130.827 582.401 130.072 581.646 128.94 580.513C125.543 576.739 124.411 575.23 124.788 569.946C125.543 557.113 133.091 548.81 143.282 543.149C143.282 541.262 143.659 539.374 145.169 537.865L148.566 534.468C150.453 532.581 153.095 532.203 155.359 532.958L213.105 469.174L223.673 455.964L231.221 472.948L258.773 491.442L248.205 499.368L241.789 505.784L179.892 558.623C180.269 560.888 179.514 563.152 178.005 564.662L174.608 568.059C173.098 569.946 170.079 570.323 167.437 569.191Z" fill="#9D9D9D"/>
<path fill-rule="evenodd" clip-rule="evenodd" d="M230.089 478.61L232.353 506.916L238.77 501.632L245.186 495.216L249.715 491.819L230.089 478.61ZM160.266 546.545L159.511 536.732L155.359 541.261L160.266 546.545ZM162.908 532.958L164.417 550.32L172.343 558.245L173.476 557.113L170.834 524.277L162.908 532.958ZM173.853 520.881L176.495 554.471L184.421 547.678L181.779 512.2L173.853 520.881ZM184.798 509.181L187.44 545.413L195.366 538.619L192.347 500.877L184.798 509.181ZM195.743 497.103L198.763 535.6L206.689 528.807L203.669 488.422L195.743 497.103ZM206.689 485.026L209.708 526.165L217.634 519.371L214.237 476.345L206.689 485.026ZM217.634 472.948L221.031 516.729L228.957 509.935L226.315 474.835L222.918 466.532L217.634 472.948Z" fill="white"/>
<path fill-rule="evenodd" clip-rule="evenodd" d="M166.683 561.643L155.738 549.943L155.36 550.32C152.341 552.585 148.567 555.604 145.17 559.379C141.773 563.153 139.131 567.682 138.376 573.343C138.376 574.098 137.244 574.853 136.489 574.853C135.734 574.853 134.98 573.721 134.98 572.966C135.734 566.927 139.131 561.643 142.528 557.491C145.925 553.34 150.077 550.32 153.096 548.056L151.209 545.791C139.509 551.075 131.205 558.624 130.073 571.079C129.696 574.475 130.073 574.853 132.715 577.495C133.47 578.25 134.225 579.004 135.357 580.137C137.622 582.401 138.376 582.401 141.773 581.269C150.454 578.25 158.757 572.211 166.683 561.643Z" fill="white"/>
<path fill-rule="evenodd" clip-rule="evenodd" d="M254.622 499.368L650.16 94.0173C658.463 84.9591 663.369 75.5236 664.124 63.4461C664.502 60.4268 664.502 58.1622 664.879 54.7654L665.256 49.1041L658.085 49.4815C654.689 49.4815 651.292 49.4815 647.895 49.859C636.95 50.9912 628.269 55.8977 619.966 63.8235L214.615 459.361C241.79 489.178 234.996 471.061 254.622 499.368Z" fill="#9D9D9D"/>
<path fill-rule="evenodd" clip-rule="evenodd" d="M150.076 533.713C153.096 531.071 157.247 531.826 159.889 534.468L178.383 555.981C181.025 559 180.648 563.152 177.628 565.794L174.231 568.813C171.212 571.455 167.06 570.7 164.418 568.059L145.925 546.546C143.66 543.526 143.66 539.374 146.68 536.733L150.076 533.713Z" fill="#9D9D9D"/>
<path fill-rule="evenodd" clip-rule="evenodd" d="M153.473 537.865L150.076 540.884C149.699 541.262 149.699 542.017 150.076 542.772L168.57 564.285C168.947 565.039 170.079 565.039 170.457 564.662L173.854 561.643C174.231 561.265 174.231 560.51 173.854 559.756L155.36 538.242C154.983 537.488 154.228 537.488 153.473 537.865Z" fill="white"/>
<path fill-rule="evenodd" clip-rule="evenodd" d="M234.997 486.535L372.756 345.757L658.841 59.6718C659.218 72.1267 655.067 81.1848 646.386 90.6204L252.358 493.707L234.997 486.535ZM227.826 478.987L368.604 341.228L654.312 55.5202C641.857 55.1427 632.799 59.2944 623.363 67.9751L220.277 461.626L227.826 478.987Z" fill="#EEF2F5"/>
<path fill-rule="evenodd" clip-rule="evenodd" d="M285.571 522.768C285.194 529.562 289.345 537.11 293.497 541.262C299.158 546.923 311.99 553.339 319.161 546.546C326.332 539.752 321.049 526.165 315.01 520.126C310.481 515.597 302.555 511.823 295.761 512.2L258.019 457.097L204.048 417.845C204.803 411.051 201.406 403.125 196.877 398.596C191.216 392.558 177.628 386.896 170.835 393.69C163.664 400.483 169.703 413.693 175.364 419.355C179.516 423.506 187.064 428.035 193.858 427.658L228.203 485.781L285.571 522.768Z" fill="#9D9D9D"/>
<path fill-rule="evenodd" clip-rule="evenodd" d="M232.731 482.384L196.876 421.619C193.479 423.506 185.553 421.996 179.892 415.958C173.853 409.541 172.343 400.861 174.985 398.219C178.005 395.577 187.063 396.332 193.479 402.748C199.14 408.787 200.273 417.09 198.385 420.487L254.621 461.626L293.873 518.994C297.27 517.107 305.573 518.239 311.612 524.278C317.651 530.694 318.406 540.129 315.764 542.771C312.744 545.413 304.063 543.903 298.025 537.487C292.363 531.449 290.476 523.523 292.741 520.126L232.731 482.384Z" fill="white"/>
<path fill-rule="evenodd" clip-rule="evenodd" d="M209.331 431.433C208.576 430.678 207.444 430.3 206.689 431.055C205.934 431.81 206.311 432.942 207.066 433.697L241.412 472.194L234.618 476.723C233.863 477.478 234.241 480.12 234.618 480.875C235.373 481.63 237.637 481.63 238.392 480.875L242.921 474.081L280.663 508.804C281.418 509.559 282.173 510.314 282.928 509.559C283.683 508.804 282.928 508.049 281.796 507.294L247.073 470.307L253.112 466.155C253.866 465.4 253.112 463.136 252.734 462.759C251.979 462.004 250.47 461.626 249.715 462.381L245.563 468.797L209.331 431.433Z" fill="#9D9D9D"/>
</g>
</svg>
