<svg width="598" height="501" viewBox="0 0 598 501" fill="none" xmlns="http://www.w3.org/2000/svg">
<g opacity="0.08">
<path fill-rule="evenodd" clip-rule="evenodd" d="M407.323 433.068C393.126 446.128 377.795 460.041 361.043 469.126C354.797 472.533 348.551 475.088 342.021 477.644C326.689 483.606 315.9 488.433 303.123 499.222C301.136 500.925 299.148 500.641 296.877 498.938C284.101 488.149 273.312 483.322 257.98 477.36C251.45 474.804 245.203 472.249 238.957 468.842C222.206 459.757 206.874 445.844 192.678 432.784L175.359 434.771L174.223 431.364C165.705 404.108 164.002 374.864 181.037 350.447L185.58 343.917L188.419 351.582C195.517 371.741 207.158 389.628 223.057 404.108L228.168 408.651L221.638 410.922C216.243 412.91 211.701 416.033 208.293 420.291L231.007 430.513C240.661 432.216 249.746 437.611 259.683 431.932C278.99 421.143 280.693 374.58 280.977 356.125L282.397 278.615L283.249 254.197L288.075 109.397H257.98C254.573 109.397 251.45 106.558 251.45 102.867V89.5227C251.45 86.1157 254.289 82.9925 257.98 82.9925H274.447C264.51 75.6106 258.264 63.9698 258.264 50.6255C258.264 28.1957 276.435 10.3086 298.581 10.3086C321.01 10.3086 338.897 28.4796 338.897 50.6255C338.897 63.9698 332.367 75.6106 322.714 82.9925H341.169C344.576 82.9925 347.699 85.8318 347.699 89.5227V103.151C347.699 106.558 344.86 109.681 341.169 109.681H311.357L317.035 279.182L318.455 356.693C318.739 374.864 320.443 421.711 339.749 432.5C349.686 438.179 358.772 432.5 368.425 431.081L391.139 420.859C387.732 416.601 383.189 413.477 377.795 411.49L371.265 409.219L376.375 404.676C392.275 390.196 403.632 372.309 411.014 352.15L413.853 344.484L418.396 351.015C435.431 375.432 433.727 404.676 425.21 431.932L424.074 435.339L407.323 433.068ZM299.148 33.3062C308.802 33.3062 316.752 41.2561 316.752 50.9094C316.752 60.5627 308.802 68.5125 299.148 68.5125C289.495 68.5125 281.545 60.5627 281.545 50.9094C281.545 41.2561 289.495 33.3062 299.148 33.3062Z" fill="#9D9D9D"/>
<path fill-rule="evenodd" clip-rule="evenodd" d="M300.284 102.3H307.666L312.493 254.482L313.345 278.899L314.764 356.409C316.468 461.744 357.068 436.759 370.129 434.488L397.953 421.995C393.694 415.181 387.732 410.071 379.782 407.231C396.25 391.9 408.174 373.729 415.556 353.002C429.185 372.593 431.74 398.43 421.803 430.229L405.903 428.242C390.003 443.006 374.956 456.35 359.056 465.151C339.749 475.657 323.85 475.94 300.568 495.531C300 495.815 300.284 495.815 299.716 495.247C276.435 475.657 260.535 475.373 241.228 464.868C225.329 456.066 210.281 442.722 194.381 427.958L178.482 429.945C168.544 398.146 171.1 372.309 184.728 352.718C192.11 373.161 203.751 391.616 220.502 406.948C212.552 409.787 206.306 415.181 202.331 421.711L230.155 434.204C243.216 436.191 283.817 461.177 285.52 356.126L286.94 278.615L287.792 254.198L292.618 102.016H300.284V102.3Z" fill="white"/>
<path fill-rule="evenodd" clip-rule="evenodd" d="M302.272 123.877V463.448C315.048 463.164 326.121 461.744 336.059 459.473C346.848 456.918 356.217 453.51 364.451 448.968C374.104 443.857 383.473 437.043 391.139 429.093C397.953 421.995 403.916 414.045 407.607 404.96C410.446 398.146 412.434 390.48 413.285 381.678C414.137 374.296 414.421 366.63 413.853 358.397C413.853 357.829 413.569 357.545 413.853 356.977L415.557 352.718L417.828 356.977C418.112 357.261 417.828 357.829 417.828 358.113C418.396 366.63 418.112 374.58 417.26 382.246C416.124 391.332 414.137 399.565 411.298 406.663C407.323 416.033 401.077 424.55 393.979 432.216C385.745 440.45 376.092 447.548 366.154 452.943C357.637 457.485 347.983 461.176 336.91 463.732C326.689 466.003 315.332 467.423 302.272 467.707V490.988H298.013V467.707C284.953 467.423 273.596 466.003 263.375 463.732C252.302 461.176 242.648 457.485 234.131 452.943C224.193 447.548 214.54 440.734 206.306 432.216C198.924 424.834 192.962 416.317 188.987 406.663C185.864 399.565 183.877 391.332 183.025 382.246C182.173 374.58 181.889 366.914 182.457 358.113C182.457 357.829 182.457 357.261 182.457 356.977L184.728 352.718L186.432 356.977C186.716 357.545 186.432 357.829 186.432 358.397C185.864 366.63 186.148 374.58 187 381.678C187.851 390.196 189.839 398.146 192.678 404.96C196.369 414.045 202.331 421.995 209.146 429.093C217.095 437.043 226.465 443.857 235.834 448.968C244.068 453.51 253.437 456.918 264.226 459.473C274.164 461.744 285.237 463.164 298.013 463.448V123.877H302.272Z" fill="#9D9D9D"/>
<path fill-rule="evenodd" clip-rule="evenodd" d="M300 87.2523H341.453C342.589 87.2523 343.724 88.388 343.724 89.5237V103.152C343.724 104.288 342.589 105.423 341.453 105.423H300H258.548C257.412 105.423 256.276 104.288 256.276 103.152V89.5237C256.276 88.388 257.412 87.2523 258.548 87.2523H300ZM299.149 14.5684C319.307 14.5684 335.491 30.7519 335.491 50.9103C335.491 71.0688 319.307 87.2523 299.149 87.2523C278.99 87.2523 262.807 71.0688 262.807 50.9103C262.807 30.7519 279.274 14.5684 299.149 14.5684ZM299.149 28.7644C311.357 28.7644 321.295 38.7017 321.295 50.9103C321.295 63.119 311.357 73.0562 299.149 73.0562C286.94 73.0562 277.003 63.119 277.003 50.9103C277.003 38.7017 286.94 28.7644 299.149 28.7644Z" fill="white"/>
<path fill-rule="evenodd" clip-rule="evenodd" d="M337.478 213.313L336.91 213.597L335.207 212.745C332.935 211.609 330.38 211.042 328.109 209.906L321.294 206.499L327.825 202.524C338.33 196.278 348.551 186.34 357.069 177.539C365.302 169.589 373.536 161.071 382.338 153.689C392.559 145.172 401.928 141.197 415.272 140.061C416.692 140.061 417.828 139.777 419.247 139.777C432.024 139.209 444.8 143.184 456.725 147.159C485.969 156.813 514.077 171.293 543.889 178.959C556.382 180.946 572.849 182.366 585.058 177.823C588.749 176.687 593.291 176.119 595.847 179.526C598.686 183.501 596.415 188.612 593.859 191.735C592.156 193.722 590.168 195.71 588.181 197.413L587.045 200.253C583.922 208.77 577.96 214.449 570.01 216.152C566.035 226.941 559.789 230.632 549.284 230.348C545.309 241.137 537.927 241.989 528.557 241.421L528.273 241.989C524.298 249.371 515.213 250.507 505.56 249.087C503.572 252.494 500.733 255.05 497.042 256.185C489.944 258.74 481.71 256.469 474.044 253.63C473.476 254.482 473.193 255.333 472.057 255.901C463.255 261.58 451.331 259.024 440.825 254.482C440.258 255.333 439.974 255.901 438.838 256.469C414.421 270.097 392.275 241.989 372.4 233.188C370.697 232.336 368.709 231.768 368.142 230.064C365.018 229.497 362.179 227.793 357.92 225.238L337.478 213.313Z" fill="#9D9D9D"/>
<path fill-rule="evenodd" clip-rule="evenodd" d="M336.627 209.054C334.355 207.919 331.8 207.351 329.529 206.215C347.416 195.426 367.858 171.009 384.894 157.097C394.263 149.147 403.065 145.456 415.273 144.32C416.409 144.32 417.828 144.036 418.964 144.036C431.173 143.468 443.665 147.443 455.022 151.134C484.266 160.504 512.942 175.551 542.754 182.933C562.628 186.057 576.541 185.205 586.194 181.514C597.835 177.539 592.724 191.735 579.38 197.413C570.578 201.104 561.209 199.401 552.123 197.697C533.101 194.29 514.078 187.76 494.487 179.526C477.736 172.428 462.12 163.059 444.517 157.664C427.766 152.554 413.57 151.418 401.645 156.813C382.906 165.33 366.155 194.006 336.627 209.054Z" fill="white"/>
<path fill-rule="evenodd" clip-rule="evenodd" d="M395.114 164.195C420.383 143.752 458.997 165.898 484.834 177.823C487.673 179.243 488.241 178.959 488.241 182.082C487.957 183.785 485.969 184.921 483.414 185.489C478.02 186.625 474.045 184.637 468.934 182.65C445.369 173.848 422.087 162.775 396.25 165.33C393.695 165.33 392.843 165.898 395.114 164.195Z" fill="white"/>
<path fill-rule="evenodd" clip-rule="evenodd" d="M479.723 188.328C486.821 187.476 491.08 185.205 491.364 180.946C511.806 190.315 539.347 199.685 564.9 202.24C572.282 202.808 576.825 201.388 582.787 199.401C579.38 209.338 571.43 213.881 561.493 213.313C534.804 211.326 510.671 204.795 479.723 188.328Z" fill="white"/>
<path fill-rule="evenodd" clip-rule="evenodd" d="M382.622 174.7C385.746 172.144 387.733 169.021 391.708 168.453C416.693 163.911 447.64 177.255 469.502 185.773C475.465 188.044 471.774 192.587 467.231 193.439C461.837 194.574 457.862 194.006 452.751 192.019C429.186 183.217 410.447 169.873 383.474 175.835C381.203 176.403 380.067 176.687 382.622 174.7Z" fill="white"/>
<path fill-rule="evenodd" clip-rule="evenodd" d="M462.404 196.278C469.786 195.994 474.897 193.722 475.181 189.463C494.203 197.981 530.261 217.288 566.319 215.016C562.912 224.954 557.518 227.225 547.581 226.657C536.792 225.805 526.287 222.966 515.214 219.275C498.746 214.165 480.859 206.215 462.404 196.278Z" fill="white"/>
<path fill-rule="evenodd" clip-rule="evenodd" d="M372.401 184.354C375.525 181.798 377.796 179.243 381.487 178.391C406.756 172.145 428.902 184.921 450.764 194.007C456.726 196.562 453.603 200.253 449.06 201.105C443.666 202.241 439.691 201.673 434.58 199.685C411.015 190.884 400.51 179.527 373.537 185.489C371.266 185.773 370.13 186.341 372.401 184.354Z" fill="white"/>
<path fill-rule="evenodd" clip-rule="evenodd" d="M443.949 203.944C451.331 203.66 456.441 201.389 456.725 197.13C469.786 202.524 509.819 224.954 545.309 228.929C541.902 238.866 534.804 238.015 524.866 237.447C505.844 236.311 460.7 213.03 443.949 203.944Z" fill="white"/>
<path fill-rule="evenodd" clip-rule="evenodd" d="M363.883 192.871C367.007 190.316 366.723 189.464 370.414 188.328C397.386 180.662 412.15 193.155 434.012 202.24C439.974 204.796 438.271 207.351 433.728 208.203C428.334 209.338 424.927 207.067 419.816 205.363C396.534 197.982 393.127 191.735 365.019 193.723C362.464 194.007 361.612 194.574 363.883 192.871Z" fill="white"/>
<path fill-rule="evenodd" clip-rule="evenodd" d="M428.618 211.325C435.716 211.041 439.975 209.054 440.258 204.795C450.196 209.054 476.317 224.386 503.289 234.323C510.103 236.878 517.485 239.718 524.299 240.285C512.942 261.579 443.098 216.152 428.618 211.325Z" fill="white"/>
<path fill-rule="evenodd" clip-rule="evenodd" d="M356.501 198.549C359.625 195.994 359.057 195.994 362.748 195.71C395.683 194.29 398.806 201.388 417.545 207.634C423.791 209.622 420.668 213.029 416.125 213.313C399.09 214.732 379.783 196.845 358.773 199.685C356.501 199.969 353.946 200.536 356.501 198.549Z" fill="white"/>
<path fill-rule="evenodd" clip-rule="evenodd" d="M412.718 216.72C419.816 216.437 423.223 215.301 423.223 211.042C447.357 220.695 477.452 242.273 502.153 246.532C500.734 249.371 498.462 251.359 495.623 252.495C486.822 255.902 474.329 249.371 466.663 245.68C445.085 235.743 420.668 219.276 412.718 216.72Z" fill="white"/>
<path fill-rule="evenodd" clip-rule="evenodd" d="M396.25 220.979C401.645 220.411 404.768 218.991 406.472 215.868C428.618 226.657 447.924 241.421 470.638 251.074C470.354 251.642 470.07 252.21 469.786 252.494C450.479 264.703 409.595 230.348 395.399 222.114C392.559 220.695 393.695 221.263 396.25 220.979Z" fill="white"/>
<path fill-rule="evenodd" clip-rule="evenodd" d="M374.104 228.077C379.499 227.509 384.609 224.954 386.881 222.399C387.165 221.831 387.449 221.547 387.733 220.979C388.868 221.547 390.004 222.115 390.856 222.966C408.459 233.472 415.841 242.841 437.703 251.643C437.419 252.21 437.135 252.778 436.851 253.062C414.989 265.271 392.559 237.73 374.104 229.497C371.265 228.361 370.981 228.361 374.104 228.077Z" fill="white"/>
<path fill-rule="evenodd" clip-rule="evenodd" d="M350.255 203.659C353.379 201.104 352.811 201.956 356.502 201.672C362.464 201.388 368.426 201.104 373.821 202.807C382.339 205.363 390.288 210.473 399.658 212.745C401.929 213.312 403.065 213.88 403.065 214.448C403.633 216.72 396.251 220.127 390.572 218.991C378.364 216.436 371.834 208.486 352.527 205.079C350.255 204.511 347.984 205.647 350.255 203.659Z" fill="white"/>
<path fill-rule="evenodd" clip-rule="evenodd" d="M359.909 221.831L340.602 210.474L347.132 206.215C349.971 206.215 356.218 207.634 363.032 210.474C369.562 213.313 377.512 215.868 381.203 219.275C384.61 222.398 381.203 223.818 375.24 225.521C367.859 227.225 366.439 225.522 359.909 221.831Z" fill="white"/>
<path fill-rule="evenodd" clip-rule="evenodd" d="M259.683 213.313L260.251 213.597L261.955 212.745C264.226 211.609 266.781 211.042 269.053 209.906L275.867 206.499L269.337 202.524C258.832 196.278 248.61 186.34 240.093 177.539C231.859 169.589 223.625 161.071 214.824 153.689C204.603 145.172 195.233 141.197 181.889 140.061C180.469 140.061 179.334 139.777 177.914 139.777C165.137 139.209 152.361 143.184 140.436 147.159C111.192 156.813 83.368 171.293 53.2723 178.959C40.7798 180.946 24.3123 182.366 12.1037 177.823C8.41269 176.687 3.86996 176.119 1.31467 179.526C-1.52455 183.501 0.746815 188.612 3.30211 191.735C5.00564 193.722 6.99309 195.71 8.98054 197.413L10.1162 200.253C13.2394 208.77 19.2017 214.449 27.1515 216.152C31.1264 226.941 37.3727 230.632 47.8778 230.348C51.8527 241.137 59.2347 241.989 68.6041 241.421L68.888 241.989C72.8629 249.371 81.9484 250.507 91.6017 249.087C93.5892 252.494 96.4284 255.05 100.119 256.185C107.217 258.74 115.451 256.469 123.117 253.63C123.685 254.482 123.969 255.333 125.104 255.901C133.906 261.58 145.831 259.024 156.336 254.482C156.904 255.333 157.188 255.901 158.323 256.469C182.741 270.097 204.886 241.989 224.761 233.188C226.465 232.336 228.452 231.768 229.02 230.064C232.143 229.497 234.982 227.793 239.241 225.238L259.683 213.313Z" fill="#9D9D9D"/>
<path fill-rule="evenodd" clip-rule="evenodd" d="M260.535 209.054C262.806 207.919 265.362 207.351 267.633 206.215C249.746 195.426 229.304 171.009 212.268 157.097C202.899 149.147 194.097 145.456 181.889 144.32C180.753 144.32 179.333 144.036 178.198 144.036C165.989 143.468 153.497 147.443 142.14 151.134C112.896 160.504 84.2197 175.551 54.4079 182.933C34.5334 186.057 20.6213 185.205 10.9679 181.514C-0.67286 177.539 4.43771 191.735 17.782 197.413C26.5836 201.104 35.953 199.401 45.0385 197.697C64.0613 194.29 83.084 187.76 102.675 179.526C119.426 172.428 135.042 163.059 152.645 157.664C169.396 152.554 183.592 151.418 195.517 156.813C214.256 165.33 231.007 194.006 260.535 209.054Z" fill="white"/>
<path fill-rule="evenodd" clip-rule="evenodd" d="M202.048 164.195C176.779 143.752 138.165 165.898 112.328 177.823C109.489 179.243 108.921 178.959 108.921 182.082C109.205 183.785 111.193 184.921 113.748 185.489C119.142 186.625 123.117 184.637 128.228 182.65C151.793 173.848 175.075 162.775 200.912 165.33C203.183 165.33 204.319 165.898 202.048 164.195Z" fill="white"/>
<path fill-rule="evenodd" clip-rule="evenodd" d="M117.155 188.328C110.057 187.476 105.798 185.205 105.514 180.946C85.0718 190.315 57.5314 199.685 31.9784 202.24C24.5965 202.808 20.0537 201.388 14.0914 199.401C17.4984 209.338 25.4482 213.881 35.3855 213.313C62.3581 211.326 86.4914 204.795 117.155 188.328Z" fill="white"/>
<path fill-rule="evenodd" clip-rule="evenodd" d="M214.54 174.7C211.417 172.144 209.43 169.021 205.455 168.453C180.47 163.911 149.522 177.255 127.66 185.773C121.698 188.044 125.389 192.587 129.931 193.439C135.326 194.574 139.301 194.006 144.411 192.019C167.977 183.217 186.716 169.873 213.688 175.835C215.676 176.403 216.811 176.687 214.54 174.7Z" fill="white"/>
<path fill-rule="evenodd" clip-rule="evenodd" d="M134.758 196.278C127.376 195.994 122.265 193.722 121.982 189.463C102.959 197.981 66.9008 217.288 30.8427 215.016C34.2498 224.954 39.6443 227.225 49.5815 226.657C60.3706 225.805 70.8757 222.966 81.9486 219.275C98.4161 214.165 116.303 206.215 134.758 196.278Z" fill="white"/>
<path fill-rule="evenodd" clip-rule="evenodd" d="M224.761 184.354C221.638 181.798 219.367 179.243 215.676 178.391C190.407 172.145 168.261 184.921 146.399 194.007C140.436 196.562 143.56 200.253 148.102 201.105C153.497 202.241 157.472 201.673 162.582 199.685C186.148 190.884 196.653 179.527 223.626 185.489C225.897 185.773 227.033 186.341 224.761 184.354Z" fill="white"/>
<path fill-rule="evenodd" clip-rule="evenodd" d="M152.929 203.944C145.547 203.66 140.436 201.389 140.152 197.13C127.092 202.524 87.059 224.954 51.5688 228.929C54.9758 238.866 62.0739 238.015 72.0112 237.447C91.3178 236.311 136.461 213.03 152.929 203.944Z" fill="white"/>
<path fill-rule="evenodd" clip-rule="evenodd" d="M233.279 192.871C230.156 190.316 230.439 189.464 226.748 188.328C199.776 180.662 185.012 193.155 163.15 202.24C157.188 204.796 158.891 207.351 163.434 208.203C168.828 209.338 172.236 207.067 177.346 205.363C200.628 197.982 204.035 191.735 232.143 193.723C234.414 194.007 235.55 194.574 233.279 192.871Z" fill="white"/>
<path fill-rule="evenodd" clip-rule="evenodd" d="M168.261 211.325C161.163 211.041 156.904 209.054 156.62 204.795C146.683 209.054 120.562 224.386 93.5893 234.323C86.7752 236.878 79.3932 239.718 72.5791 240.285C84.2199 261.579 154.065 216.152 168.261 211.325Z" fill="white"/>
<path fill-rule="evenodd" clip-rule="evenodd" d="M240.661 198.549C237.537 195.994 238.105 195.994 234.414 195.71C201.479 194.29 198.356 201.388 179.617 207.634C173.371 209.622 176.494 213.029 181.037 213.313C198.072 214.732 217.379 196.845 238.389 199.685C240.377 199.969 242.932 200.536 240.661 198.549Z" fill="white"/>
<path fill-rule="evenodd" clip-rule="evenodd" d="M184.444 216.72C177.346 216.437 173.939 215.301 173.939 211.042C149.806 220.695 119.71 242.273 95.0091 246.532C96.4287 249.371 98.7001 251.359 101.539 252.495C110.341 255.902 122.833 249.371 130.499 245.68C151.793 235.743 176.495 219.276 184.444 216.72Z" fill="white"/>
<path fill-rule="evenodd" clip-rule="evenodd" d="M200.912 220.979C195.517 220.411 192.394 218.991 190.691 215.868C168.545 226.657 149.238 241.421 126.524 251.074C126.808 251.642 127.092 252.21 127.376 252.494C146.683 264.703 187.567 230.348 201.764 222.114C204.603 220.695 203.467 221.263 200.912 220.979Z" fill="white"/>
<path fill-rule="evenodd" clip-rule="evenodd" d="M223.058 228.077C217.663 227.509 212.553 224.954 210.281 222.399C209.997 221.831 209.713 221.547 209.43 220.979C208.294 221.547 207.158 222.115 206.306 222.966C188.703 233.472 181.321 242.841 159.459 251.643C159.743 252.21 160.027 252.778 160.311 253.062C182.173 265.271 204.603 237.73 223.058 229.497C225.613 228.361 226.181 228.361 223.058 228.077Z" fill="white"/>
<path fill-rule="evenodd" clip-rule="evenodd" d="M246.907 203.659C243.784 201.104 244.352 201.956 240.661 201.672C234.698 201.388 228.736 201.104 223.342 202.807C214.824 205.363 206.874 210.473 197.505 212.745C195.233 213.312 194.098 213.88 194.098 214.448C193.53 216.72 200.912 220.127 206.59 218.991C218.799 216.436 225.329 208.486 244.636 205.079C246.907 204.511 249.178 205.647 246.907 203.659Z" fill="white"/>
<path fill-rule="evenodd" clip-rule="evenodd" d="M237.254 221.831L256.56 210.474L250.03 206.215C247.191 206.215 240.945 207.634 234.131 210.474C227.6 213.313 219.651 215.868 215.96 219.275C212.553 222.398 215.96 223.818 221.922 225.521C229.304 227.225 230.723 225.522 237.254 221.831Z" fill="white"/>
<path fill-rule="evenodd" clip-rule="evenodd" d="M405.619 339.658L108.069 34.7261C101.823 27.912 98.132 20.814 97.5641 11.7285C97.2802 9.45709 97.2802 7.75357 96.9963 5.19828L96.7123 0.939453L102.107 1.22337C104.662 1.22337 107.217 1.22337 109.773 1.50729C118.006 2.35905 124.537 6.05003 130.783 12.0124L435.715 309.562C415.272 331.992 420.099 318.364 405.619 339.658Z" fill="#9D9D9D"/>
<path fill-rule="evenodd" clip-rule="evenodd" d="M472.057 392.752C476.884 398.43 482.562 403.541 489.944 405.528C493.635 406.664 495.906 406.664 498.746 403.541C499.314 402.973 499.881 402.405 500.733 401.553C503.288 398.998 504.14 397.578 503.856 393.603C503.288 383.95 497.894 377.704 490.228 373.161C490.228 371.741 489.944 370.322 488.808 369.186L486.253 366.631C484.833 365.211 483.13 364.927 481.426 365.211L438.838 316.661L431.172 306.439L425.494 319.216L404.484 332.56L412.15 338.807L416.976 343.633L462.972 384.234C462.688 385.938 462.972 387.641 464.391 388.777L466.946 391.332C468.082 393.32 470.353 393.603 472.057 392.752Z" fill="#9D9D9D"/>
<path fill-rule="evenodd" clip-rule="evenodd" d="M426.345 323.759L424.358 345.053L419.815 340.794L414.989 335.967L411.581 333.412L426.345 323.759ZM478.019 375.716L478.587 368.335L481.71 372.026L478.019 375.716ZM476.032 365.779L474.896 378.84L468.934 384.802L468.082 383.95L470.353 359.249L476.032 365.779ZM468.082 356.41L465.81 381.679L460.132 376.568L462.687 349.88L468.082 356.41ZM460.132 347.324L457.577 374.581L451.898 369.47L454.738 341.078L460.132 347.324ZM451.898 337.955L449.059 366.915L443.381 361.804L446.22 331.425L451.898 337.955ZM443.949 328.869L441.109 359.817L435.431 354.706L438.554 322.339L443.949 328.869ZM435.715 319.5L432.592 352.151L426.913 347.04L429.468 320.636L432.308 314.673L435.715 319.5Z" fill="white"/>
<path fill-rule="evenodd" clip-rule="evenodd" d="M472.908 387.073L481.142 378.271L481.426 378.555C483.697 380.259 486.537 382.53 488.808 385.369C491.363 388.209 493.351 391.616 493.919 395.874C493.919 396.442 494.77 397.01 495.338 397.01C495.906 397.01 496.474 396.158 496.474 395.591C495.906 391.048 493.635 387.073 490.795 383.95C488.24 380.827 485.117 378.271 482.846 376.568L484.549 374.864C493.351 379.123 499.597 384.802 500.165 394.171C500.165 396.726 499.881 397.01 498.177 398.998C497.609 399.565 497.042 400.133 496.19 400.985C494.486 402.689 493.919 402.405 491.363 401.837C484.833 399.849 478.587 395.307 472.908 387.073Z" fill="white"/>
<path fill-rule="evenodd" clip-rule="evenodd" d="M485.685 366.347C483.698 364.36 480.29 364.644 478.303 366.915L464.107 382.815C462.119 384.802 462.403 388.209 464.391 390.197L466.946 392.468C468.934 394.456 472.341 394.172 474.328 391.9L488.524 376.001C490.512 374.013 490.228 370.606 488.24 368.619L485.685 366.347Z" fill="#9D9D9D"/>
<path fill-rule="evenodd" clip-rule="evenodd" d="M483.13 369.47L485.685 371.742C485.969 372.025 485.969 372.593 485.685 373.161L471.489 389.061C471.205 389.629 470.353 389.629 470.069 389.345L467.514 387.073C467.23 386.789 467.23 386.222 467.514 385.654L481.71 369.754C481.994 369.186 482.562 369.186 483.13 369.47Z" fill="white"/>
<path fill-rule="evenodd" clip-rule="evenodd" d="M420.099 330.005L316.468 224.102L101.539 8.88917C101.255 18.2586 104.378 25.0727 110.908 32.1708L407.039 335.683L420.099 330.005ZM425.778 324.326L319.875 220.695L104.946 5.76604C114.315 5.48211 121.13 8.60526 128.228 15.1355L431.74 311.266L425.778 324.326Z" fill="#EEF2F5"/>
<path fill-rule="evenodd" clip-rule="evenodd" d="M452.182 286.281C457.293 286.565 462.971 283.442 466.094 280.319C470.353 276.06 475.18 266.407 469.785 261.012C464.675 255.901 454.453 259.876 449.911 264.419C446.504 267.826 443.664 273.789 444.232 278.899L403.348 307.859L374.388 348.744C369.277 348.176 363.315 351.015 359.908 354.422C355.649 358.681 351.39 368.902 356.5 374.297C361.611 379.407 371.548 374.865 375.807 370.606C378.93 367.483 382.053 361.804 381.769 356.694L425.209 330.005L452.182 286.281Z" fill="#9D9D9D"/>
<path fill-rule="evenodd" clip-rule="evenodd" d="M422.655 326.597L377.511 354.422C379.215 356.977 377.795 362.939 373.252 367.482C368.426 372.309 361.895 373.444 359.908 371.173C357.92 369.186 358.488 362.088 363.315 357.261C367.574 353.002 373.82 351.866 376.659 353.57L406.755 310.982L449.627 280.886C448.208 278.331 449.059 272.084 453.318 267.542C458.145 262.715 465.243 262.147 467.23 264.135C469.218 266.122 468.082 272.652 463.539 277.479C458.997 282.022 453.034 283.157 450.479 281.738L422.655 326.597Z" fill="white"/>
<path fill-rule="evenodd" clip-rule="evenodd" d="M384.609 344.769C384.041 345.337 384.041 346.189 384.325 346.756C384.893 347.324 385.745 347.04 386.313 346.473L414.989 320.068L418.396 325.178C418.964 325.746 420.951 325.462 421.519 325.178C422.087 324.611 422.087 322.907 421.519 322.339L416.408 318.932L442.245 290.256C442.813 289.688 443.381 289.12 442.813 288.553C442.245 287.985 441.677 288.836 441.11 289.404L413.569 315.809L410.162 311.266C409.594 310.698 407.891 311.266 407.607 311.834C407.039 312.402 406.755 313.538 407.323 314.105L412.15 317.229L384.609 344.769Z" fill="#9D9D9D"/>
<path fill-rule="evenodd" clip-rule="evenodd" d="M125.956 392.183C121.13 397.862 115.167 402.688 107.785 404.676C103.81 405.528 101.823 405.812 98.9838 402.688C98.416 402.121 97.8481 401.553 96.9964 400.701C94.4411 397.862 93.5893 396.726 93.8732 392.751C94.4411 383.098 100.12 376.852 107.785 372.593C107.785 371.173 108.069 369.754 109.205 368.618L111.76 366.063C113.18 364.643 115.167 364.359 116.871 364.927L160.311 316.944L168.261 307.007L173.939 319.783L194.665 333.695L186.716 339.658L181.889 344.484L135.326 384.234C135.61 385.937 135.042 387.641 133.906 388.776L131.351 391.332C130.215 392.751 127.944 393.035 125.956 392.183Z" fill="#9D9D9D"/>
<path fill-rule="evenodd" clip-rule="evenodd" d="M173.087 324.042L174.791 345.336L179.617 341.361L184.444 336.535L187.851 333.979L173.087 324.042ZM120.562 375.148L119.994 367.766L116.871 371.173L120.562 375.148ZM122.549 364.927L123.685 377.987L129.647 383.95L130.499 383.098L128.511 358.397L122.549 364.927ZM130.783 355.841L132.77 381.11L138.733 376L136.745 349.311L130.783 355.841ZM139.017 347.04L141.004 374.296L146.966 369.186L144.695 340.793L139.017 347.04ZM147.25 337.954L149.522 366.914L155.484 361.804L153.213 331.424L147.25 337.954ZM155.484 328.869L157.755 359.816L163.718 354.706L161.162 322.339L155.484 328.869ZM163.718 319.783L166.273 352.718L172.235 347.608L170.248 321.203L167.693 314.957L163.718 319.783Z" fill="white"/>
<path fill-rule="evenodd" clip-rule="evenodd" d="M125.388 386.506L117.155 377.704L116.871 377.988C114.599 379.691 111.76 381.963 109.205 384.802C106.65 387.641 104.662 391.048 104.094 395.307C104.094 395.875 103.243 396.443 102.675 396.443C102.107 396.443 101.539 395.591 101.539 395.023C102.107 390.48 104.662 386.506 107.217 383.382C109.773 380.259 112.896 377.988 115.167 376.284L113.748 374.581C104.946 378.556 98.6998 384.234 97.8481 393.604C97.5641 396.159 97.8481 396.443 99.8355 398.43C100.403 398.998 100.971 399.566 101.823 400.418C103.527 402.121 104.094 402.121 106.65 401.269C113.18 398.998 119.426 394.455 125.388 386.506Z" fill="white"/>
<path fill-rule="evenodd" clip-rule="evenodd" d="M191.542 339.658L489.092 34.7261C495.338 27.912 499.029 20.814 499.597 11.7285C499.881 9.45709 499.881 7.75357 500.165 5.19828L500.449 0.939453L495.055 1.22337C492.499 1.22337 489.944 1.22337 487.389 1.50729C479.155 2.35905 472.625 6.05003 466.378 12.0124L161.447 309.562C181.889 331.992 176.778 318.364 191.542 339.658Z" fill="#9D9D9D"/>
<path fill-rule="evenodd" clip-rule="evenodd" d="M112.896 365.495C115.167 363.507 118.291 364.075 120.278 366.063L134.19 382.246C136.178 384.518 135.894 387.641 133.622 389.628L131.067 391.899C128.796 393.887 125.673 393.319 123.685 391.332L109.773 375.148C108.069 372.877 108.069 369.754 110.341 367.766L112.896 365.495Z" fill="#9D9D9D"/>
<path fill-rule="evenodd" clip-rule="evenodd" d="M115.451 368.618L112.896 370.89C112.612 371.173 112.612 371.741 112.896 372.309L126.808 388.493C127.092 389.061 127.944 389.06 128.228 388.777L130.783 386.505C131.067 386.221 131.067 385.653 130.783 385.086L116.871 368.902C116.587 368.334 116.019 368.334 115.451 368.618Z" fill="white"/>
<path fill-rule="evenodd" clip-rule="evenodd" d="M176.778 330.005L280.41 224.102L495.623 8.88917C495.906 18.2586 492.783 25.0727 486.253 32.1708L189.839 335.399L176.778 330.005ZM171.384 324.326L277.287 220.695L492.216 5.76604C482.846 5.48211 476.032 8.60526 468.934 15.1355L165.706 311.266L171.384 324.326Z" fill="#EEF2F5"/>
<path fill-rule="evenodd" clip-rule="evenodd" d="M214.824 357.261C214.54 362.372 217.663 368.05 220.787 371.173C225.045 375.432 234.699 380.259 240.093 375.148C245.488 370.038 241.513 359.816 236.97 355.274C233.563 351.867 227.601 349.027 222.49 349.311L194.098 307.859L153.497 278.331C154.065 273.22 151.51 267.258 148.103 263.851C143.844 259.308 133.623 255.049 128.512 260.16C123.118 265.27 127.66 275.208 131.919 279.466C135.042 282.59 140.721 285.997 145.831 285.713L171.668 329.437L214.824 357.261Z" fill="#9D9D9D"/>
<path fill-rule="evenodd" clip-rule="evenodd" d="M175.075 326.881L148.102 281.17C145.547 282.59 139.585 281.454 135.326 276.911C130.783 272.085 129.647 265.554 131.635 263.567C133.906 261.579 140.72 262.147 145.547 266.974C149.806 271.517 150.657 277.763 149.238 280.318L191.542 311.266L221.07 354.422C223.625 353.002 229.872 353.854 234.414 358.397C238.957 363.223 239.525 370.321 237.538 372.309C235.266 374.296 228.736 373.161 224.193 368.334C219.934 363.791 218.515 357.829 220.218 355.274L175.075 326.881Z" fill="white"/>
<path fill-rule="evenodd" clip-rule="evenodd" d="M157.472 288.552C156.904 287.985 156.052 287.701 155.484 288.269C154.917 288.836 155.201 289.688 155.768 290.256L181.605 319.216L176.495 322.623C175.927 323.191 176.211 325.178 176.495 325.746C177.062 326.314 178.766 326.314 179.334 325.746L182.741 320.636L211.133 346.756C211.701 347.324 212.269 347.892 212.837 347.324C213.404 346.756 212.837 346.189 211.985 345.621L185.864 317.796L190.407 314.673C190.975 314.105 190.407 312.402 190.123 312.118C189.555 311.55 188.419 311.266 187.852 311.834L184.728 316.661L157.472 288.552Z" fill="#9D9D9D"/>
</g>
</svg>
