<svg width="353" height="625" viewBox="0 0 353 625" fill="none" xmlns="http://www.w3.org/2000/svg">
<g opacity="0.08">
<path fill-rule="evenodd" clip-rule="evenodd" d="M474.151 546.027C457.625 561.23 439.778 577.425 420.279 588.001C413.008 591.967 405.736 594.941 398.135 597.916C380.288 604.856 367.728 610.475 352.856 623.034C350.542 625.017 348.229 624.687 345.585 622.704C330.712 610.144 318.153 604.526 300.306 597.585C292.704 594.611 285.433 591.636 278.162 587.67C258.662 577.094 240.815 560.899 224.29 545.696L204.129 548.01L202.807 544.044C192.892 512.315 190.909 478.273 210.739 449.85L216.027 442.249L219.332 451.172C227.595 474.638 241.145 495.46 259.654 512.315L265.603 517.603L258.001 520.247C251.722 522.561 246.434 526.196 242.468 531.154L268.908 543.052C280.145 545.035 290.721 551.315 302.289 544.705C324.763 532.146 326.746 477.943 327.076 456.46L328.729 366.233L329.721 337.809L335.339 169.252H300.306C296.34 169.252 292.704 165.947 292.704 161.651V146.117C292.704 142.151 296.009 138.515 300.306 138.515H319.475C307.907 129.922 300.636 116.372 300.636 100.838C300.636 74.7283 321.788 53.9065 347.568 53.9065C373.678 53.9065 394.499 75.0588 394.499 100.838C394.499 116.372 386.898 129.922 375.661 138.515H397.143C401.109 138.515 404.745 141.821 404.745 146.117V161.981C404.745 165.947 401.44 169.583 397.143 169.583H362.44L369.051 366.894L370.703 457.121C371.034 478.273 373.017 532.807 395.491 545.366C407.058 551.976 417.635 545.366 428.872 543.713L455.312 531.815C451.346 526.858 446.058 523.222 439.778 520.908L432.177 518.264L438.126 512.976C456.634 496.121 469.854 475.299 478.447 451.833L481.752 442.91L487.04 450.511C506.871 478.934 504.888 512.976 494.972 544.705L493.65 548.671L474.151 546.027ZM348.229 80.6773C359.466 80.6773 368.72 89.9314 368.72 101.169C368.72 112.406 359.466 121.66 348.229 121.66C336.992 121.66 327.738 112.406 327.738 101.169C327.738 89.9314 336.992 80.6773 348.229 80.6773Z" fill="#9D9D9D"/>
<path fill-rule="evenodd" clip-rule="evenodd" d="M349.551 160.99H358.144L363.762 338.14L364.754 366.564L366.407 456.791C368.39 579.408 415.652 550.324 430.855 547.68L463.244 533.138C458.287 525.206 451.346 519.256 442.092 515.951C461.261 498.104 475.142 476.952 483.735 452.825C499.6 475.63 502.574 505.706 491.006 542.722L472.498 540.409C453.99 557.595 436.473 573.129 417.965 583.374C395.491 595.603 376.983 595.933 349.881 618.738C349.22 619.069 349.551 619.069 348.89 618.408C321.788 595.603 303.28 595.272 280.806 583.044C262.298 572.798 244.781 557.264 226.273 540.078L207.765 542.392C196.197 505.375 199.172 475.299 215.036 452.495C223.629 476.291 237.18 497.774 256.679 515.621C247.425 518.926 240.154 525.206 235.527 532.807L267.916 547.349C283.12 549.663 330.382 578.747 332.365 456.461L334.017 366.233L335.009 337.81L340.627 160.66H349.551V160.99Z" fill="white"/>
<path fill-rule="evenodd" clip-rule="evenodd" d="M351.865 186.108V581.391C366.737 581.06 379.627 579.408 391.195 576.764C403.754 573.789 414.66 569.823 424.245 564.535C435.482 558.586 446.389 550.654 455.312 541.4C463.244 533.137 470.185 523.883 474.482 513.307C477.787 505.375 480.1 496.451 481.092 486.206C482.083 477.613 482.414 468.689 481.753 459.105C481.753 458.444 481.422 458.113 481.753 457.452L483.736 452.494L486.38 457.452C486.71 457.783 486.38 458.444 486.38 458.774C487.041 468.689 486.71 477.943 485.719 486.867C484.397 497.443 482.083 507.028 478.778 515.29C474.151 526.197 466.88 536.112 458.617 545.036C449.033 554.62 437.796 562.883 426.228 569.162C416.313 574.45 405.076 578.747 392.186 581.721C380.288 584.366 367.068 586.018 351.865 586.349V613.45H346.907V586.349C331.704 586.018 318.484 584.366 306.586 581.721C293.696 578.747 282.459 574.45 272.544 569.162C260.976 562.883 249.739 554.951 240.154 545.036C231.561 536.442 224.621 526.527 219.994 515.29C216.358 507.028 214.045 497.443 213.053 486.867C212.061 477.943 211.731 469.02 212.392 458.774C212.392 458.444 212.392 457.783 212.392 457.452L215.036 452.494L217.019 457.452C217.35 458.113 217.019 458.444 217.019 459.105C216.358 468.689 216.689 477.943 217.68 486.206C218.672 496.121 220.985 505.375 224.29 513.307C228.587 523.883 235.527 533.137 243.459 541.4C252.713 550.654 263.62 558.586 274.527 564.535C284.111 569.823 295.018 573.789 307.577 576.764C319.145 579.408 332.034 581.06 346.907 581.391V186.108H351.865Z" fill="#9D9D9D"/>
<path fill-rule="evenodd" clip-rule="evenodd" d="M349.221 143.474H397.474C398.796 143.474 400.118 144.796 400.118 146.118V161.982C400.118 163.304 398.796 164.626 397.474 164.626H349.221H300.967C299.645 164.626 298.323 163.304 298.323 161.982V146.118C298.323 144.796 299.645 143.474 300.967 143.474H349.221ZM348.229 58.865C371.695 58.865 390.534 77.7037 390.534 101.169C390.534 124.635 371.695 143.474 348.229 143.474C324.763 143.474 305.925 124.635 305.925 101.169C305.925 77.7037 325.094 58.865 348.229 58.865ZM348.229 75.3902C362.441 75.3902 374.008 86.9578 374.008 101.169C374.008 115.381 362.441 126.949 348.229 126.949C334.017 126.949 322.45 115.381 322.45 101.169C322.45 86.9578 334.017 75.3902 348.229 75.3902Z" fill="white"/>
<path fill-rule="evenodd" clip-rule="evenodd" d="M302.289 290.217L302.95 290.548L304.933 289.556C307.577 288.234 310.551 287.573 313.195 286.251L321.128 282.285L313.526 277.658C301.297 270.387 289.399 258.819 279.484 248.574C269.899 239.32 260.315 229.404 250.069 220.811C238.171 210.896 227.264 206.269 211.731 204.947C210.078 204.947 208.756 204.617 207.104 204.617C192.231 203.956 177.358 208.583 163.477 213.21C129.435 224.447 97.046 241.303 62.0125 250.226C47.4704 252.54 28.3012 254.192 14.0895 248.904C9.79294 247.582 4.50489 246.921 1.53036 250.887C-1.77468 255.514 0.869343 261.463 3.84388 265.099C5.8269 267.412 8.14043 269.726 10.454 271.709L11.776 275.014C15.4115 284.929 22.3521 291.539 31.6062 293.522C36.2333 306.081 43.5044 310.378 55.733 310.047C60.36 322.607 68.9531 323.598 79.8598 322.937L80.1903 323.598C84.8173 332.191 95.3934 333.513 106.631 331.861C108.944 335.827 112.249 338.801 116.546 340.123C124.808 343.098 134.393 340.454 143.317 337.149C143.978 338.14 144.308 339.132 145.63 339.793C155.876 346.403 169.757 343.428 181.985 338.14C182.646 339.132 182.977 339.793 184.299 340.454C212.722 356.318 238.502 323.598 261.637 313.352C263.62 312.361 265.933 311.7 266.594 309.717C270.23 309.056 273.535 307.073 278.493 304.098L302.289 290.217Z" fill="#9D9D9D"/>
<path fill-rule="evenodd" clip-rule="evenodd" d="M303.28 285.26C305.924 283.938 308.899 283.277 311.543 281.955C290.721 269.395 266.925 240.972 247.095 224.777C236.188 215.523 225.942 211.227 211.731 209.905C210.409 209.905 208.756 209.574 207.434 209.574C193.222 208.913 178.68 213.54 165.46 217.837C131.418 228.743 98.0373 246.26 63.3344 254.853C40.1992 258.489 24.0045 257.497 12.7674 253.201C-0.783301 248.574 5.16575 265.099 20.6994 271.709C30.945 276.005 41.8517 274.022 52.4278 272.039C74.5716 268.073 96.7153 260.472 119.52 250.887C139.02 242.625 157.198 231.718 177.689 225.438C197.188 219.489 213.714 218.167 227.595 224.447C249.408 234.362 268.908 267.743 303.28 285.26Z" fill="white"/>
<path fill-rule="evenodd" clip-rule="evenodd" d="M235.197 233.04C205.782 209.244 160.834 235.023 130.758 248.904C127.453 250.557 126.792 250.226 126.792 253.862C127.122 255.845 129.436 257.167 132.41 257.828C138.69 259.15 143.317 256.836 149.266 254.523C176.698 244.277 203.799 231.388 233.875 234.362C236.519 234.362 237.841 235.023 235.197 233.04Z" fill="white"/>
<path fill-rule="evenodd" clip-rule="evenodd" d="M136.376 261.133C128.113 260.141 123.156 257.497 122.825 252.54C99.0291 263.446 66.9703 274.353 37.2249 277.328C28.6318 277.989 23.3438 276.336 16.4032 274.023C20.3692 285.59 29.6234 290.878 41.191 290.217C72.5888 287.904 100.682 280.302 136.376 261.133Z" fill="white"/>
<path fill-rule="evenodd" clip-rule="evenodd" d="M249.739 245.269C246.103 242.294 243.79 238.658 239.163 237.997C210.079 232.709 174.054 248.243 148.605 258.158C141.664 260.802 145.961 266.09 151.249 267.082C157.528 268.404 162.155 267.743 168.105 265.429C195.536 255.184 217.35 239.65 248.747 246.591C251.061 247.252 252.383 247.582 249.739 245.269Z" fill="white"/>
<path fill-rule="evenodd" clip-rule="evenodd" d="M156.867 270.387C148.274 270.056 142.325 267.412 141.995 262.455C119.851 272.37 77.8768 294.844 35.9028 292.2C39.8689 303.768 46.1484 306.412 57.7161 305.751C70.2752 304.759 82.5039 301.454 95.3935 297.157C114.563 291.208 135.384 281.954 156.867 270.387Z" fill="white"/>
<path fill-rule="evenodd" clip-rule="evenodd" d="M261.637 256.506C258.001 253.532 255.357 250.557 251.061 249.566C221.646 242.295 195.867 257.167 170.418 267.744C163.477 270.718 167.113 275.015 172.401 276.006C178.681 277.328 183.308 276.667 189.257 274.354C216.688 264.108 228.917 250.888 260.315 257.828C262.959 258.159 264.281 258.82 261.637 256.506Z" fill="white"/>
<path fill-rule="evenodd" clip-rule="evenodd" d="M178.019 279.311C169.426 278.98 163.477 276.336 163.147 271.379C147.944 277.658 101.343 303.768 60.0295 308.395C63.9956 319.963 72.2582 318.971 83.8258 318.31C106.3 316.988 158.85 289.887 178.019 279.311Z" fill="white"/>
<path fill-rule="evenodd" clip-rule="evenodd" d="M271.552 266.421C267.916 263.446 268.247 262.455 263.95 261.133C232.552 252.209 215.366 266.751 189.917 277.328C182.977 280.302 184.96 283.277 190.248 284.268C196.528 285.59 200.494 282.946 206.443 280.963C233.544 272.37 237.51 265.099 270.23 267.413C272.874 267.743 274.196 268.404 271.552 266.421Z" fill="white"/>
<path fill-rule="evenodd" clip-rule="evenodd" d="M195.867 287.903C187.604 287.573 182.646 285.259 182.316 280.302C170.748 285.259 140.342 303.107 108.944 314.674C101.012 317.649 92.4189 320.954 84.4868 321.615C98.0375 346.403 179.341 293.522 195.867 287.903Z" fill="white"/>
<path fill-rule="evenodd" clip-rule="evenodd" d="M280.145 273.031C276.509 270.056 277.17 270.056 272.874 269.726C234.535 268.073 230.9 276.336 209.087 283.607C201.816 285.92 205.451 289.886 210.739 290.217C230.569 291.869 253.044 271.048 277.501 274.353C279.814 274.683 282.789 275.344 280.145 273.031Z" fill="white"/>
<path fill-rule="evenodd" clip-rule="evenodd" d="M214.705 294.184C206.443 293.853 202.477 292.531 202.477 287.573C174.384 298.811 139.351 323.929 110.597 328.886C112.249 332.192 114.893 334.505 118.198 335.827C128.444 339.793 142.986 332.191 151.91 327.895C176.698 316.327 205.451 297.158 214.705 294.184Z" fill="white"/>
<path fill-rule="evenodd" clip-rule="evenodd" d="M233.875 299.141C227.595 298.48 223.96 296.827 221.977 293.192C196.197 305.751 173.723 322.937 147.283 334.174C147.613 334.835 147.944 335.496 148.274 335.827C170.748 350.038 218.341 310.047 234.866 300.463C238.171 298.81 236.849 299.471 233.875 299.141Z" fill="white"/>
<path fill-rule="evenodd" clip-rule="evenodd" d="M259.654 307.403C253.375 306.742 247.425 303.768 244.781 300.793C244.451 300.132 244.12 299.802 243.79 299.141C242.468 299.802 241.146 300.463 240.154 301.454C219.663 313.683 211.07 324.589 185.621 334.835C185.952 335.496 186.282 336.157 186.613 336.488C212.062 350.699 238.171 318.64 259.654 309.056C262.629 307.734 263.29 307.734 259.654 307.403Z" fill="white"/>
<path fill-rule="evenodd" clip-rule="evenodd" d="M287.416 278.979C283.781 276.005 284.442 276.996 280.145 276.666C273.205 276.335 266.264 276.005 259.984 277.988C250.069 280.962 240.815 286.911 229.909 289.555C227.265 290.216 225.943 290.878 225.943 291.539C225.282 294.183 233.875 298.149 240.485 296.827C254.696 293.852 262.298 284.598 284.772 280.632C287.416 279.971 290.06 281.293 287.416 278.979Z" fill="white"/>
<path fill-rule="evenodd" clip-rule="evenodd" d="M276.179 300.132L298.653 286.912L291.052 281.954C287.747 281.954 280.476 283.607 272.543 286.912C264.942 290.217 255.688 293.191 251.391 297.157C247.425 300.793 251.391 302.445 258.332 304.428C266.925 306.411 268.577 304.428 276.179 300.132Z" fill="white"/>
<path fill-rule="evenodd" clip-rule="evenodd" d="M472.168 437.291L125.8 82.3299C118.529 74.3978 114.232 66.1353 113.571 55.5591C113.241 52.9151 113.241 50.9321 112.91 47.9576L112.58 43L118.859 43.3305C121.834 43.3305 124.808 43.3305 127.783 43.661C137.367 44.6525 144.969 48.949 152.24 55.8896L507.201 402.258C483.405 428.367 489.024 412.503 472.168 437.291Z" fill="#9D9D9D"/>
<path fill-rule="evenodd" clip-rule="evenodd" d="M489.024 426.054L368.39 302.776L118.198 52.254C117.868 63.1606 121.503 71.0927 129.105 79.3553L473.82 432.664L489.024 426.054ZM495.634 419.444L372.356 298.81L122.164 48.6184C133.071 48.2879 141.003 51.9235 149.266 59.5251L502.574 404.241L495.634 419.444Z" fill="#EEF2F5"/>
<path fill-rule="evenodd" clip-rule="evenodd" d="M146.622 498.434C141.003 505.044 134.063 510.663 125.469 512.976C120.842 513.968 118.529 514.298 115.224 510.663C114.563 510.002 113.902 509.341 112.91 508.349C109.936 505.044 108.944 503.722 109.275 499.095C109.936 487.858 116.546 480.587 125.469 475.629C125.469 473.977 125.8 472.324 127.122 471.002L130.096 468.028C131.749 466.375 134.063 466.045 136.046 466.706L186.613 410.851L195.867 399.283L202.477 414.156L226.604 430.35L217.349 437.291L211.731 442.91L157.528 489.18C157.859 491.163 157.198 493.146 155.876 494.468L152.901 497.443C151.579 499.095 148.935 499.426 146.622 498.434Z" fill="#9D9D9D"/>
<path fill-rule="evenodd" clip-rule="evenodd" d="M201.485 419.113L203.468 443.901L209.087 439.274L214.705 433.655L218.671 430.681L201.485 419.113ZM140.342 478.604L139.681 470.011L136.045 473.977L140.342 478.604ZM142.655 466.706L143.977 481.909L150.918 488.849L151.909 487.858L149.596 459.104L142.655 466.706ZM152.24 456.13L154.553 485.544L161.494 479.595L159.181 448.528L152.24 456.13ZM161.825 445.884L164.138 477.612L171.079 471.663L168.435 438.613L161.825 445.884ZM171.409 435.308L174.053 469.019L180.994 463.07L178.35 427.706L171.409 435.308ZM180.994 424.732L183.638 460.757L190.578 454.808L187.604 417.13L180.994 424.732ZM190.578 414.156L193.553 452.494L200.494 446.545L198.18 415.808L195.205 408.537L190.578 414.156Z" fill="white"/>
<path fill-rule="evenodd" clip-rule="evenodd" d="M145.961 491.825L136.376 481.579L136.046 481.91C133.401 483.893 130.096 486.537 127.122 489.842C124.147 493.147 121.834 497.113 121.173 502.07C121.173 502.731 120.181 503.392 119.52 503.392C118.859 503.392 118.198 502.401 118.198 501.74C118.859 496.452 121.834 491.825 124.808 488.189C127.783 484.554 131.418 481.91 134.062 479.927L132.41 477.944C122.164 482.571 114.893 489.181 113.902 500.087C113.571 503.062 113.902 503.392 116.215 505.706C116.876 506.367 117.537 507.028 118.529 508.019C120.512 510.002 121.173 510.003 124.147 509.011C131.749 506.367 139.02 501.079 145.961 491.825Z" fill="white"/>
<path fill-rule="evenodd" clip-rule="evenodd" d="M222.968 437.291L569.336 82.3299C576.607 74.3978 580.904 66.1353 581.565 55.5591C581.895 52.9151 581.895 50.9321 582.226 47.9576L582.556 43L576.277 43.3305C573.302 43.3305 570.328 43.3305 567.353 43.661C557.768 44.6525 550.167 48.949 542.896 55.8896L187.935 402.258C211.731 428.367 205.782 412.503 222.968 437.291Z" fill="#9D9D9D"/>
<path fill-rule="evenodd" clip-rule="evenodd" d="M131.419 467.367C134.063 465.053 137.698 465.714 140.012 468.028L156.206 486.867C158.52 489.511 158.189 493.146 155.545 495.46L152.571 498.104C149.927 500.417 146.291 499.756 143.978 497.443L127.783 478.604C125.8 475.96 125.8 472.324 128.444 470.011L131.419 467.367Z" fill="#9D9D9D"/>
<path fill-rule="evenodd" clip-rule="evenodd" d="M134.393 471.003L131.419 473.647C131.088 473.977 131.088 474.638 131.419 475.299L147.613 494.138C147.944 494.799 148.935 494.799 149.266 494.468L152.24 491.824C152.571 491.494 152.571 490.833 152.24 490.172L136.046 471.333C135.715 470.672 135.054 470.672 134.393 471.003Z" fill="white"/>
<path fill-rule="evenodd" clip-rule="evenodd" d="M205.782 426.054L326.416 302.776L576.938 52.254C577.268 63.1606 573.633 71.0927 566.031 79.3553L220.985 432.333L205.782 426.054ZM199.502 419.444L322.78 298.81L572.972 48.6184C562.065 48.2879 554.133 51.9235 545.87 59.5251L192.892 404.241L199.502 419.444Z" fill="#EEF2F5"/>
<path fill-rule="evenodd" clip-rule="evenodd" d="M250.07 457.782C249.739 463.731 253.375 470.341 257.01 473.977C261.968 478.934 273.205 484.553 279.485 478.604C285.764 472.655 281.137 460.757 275.849 455.469C271.883 451.503 264.942 448.198 258.993 448.528L225.943 400.275L178.681 365.902C179.342 359.953 176.367 353.012 172.401 349.046C167.444 343.758 155.546 338.801 149.597 344.75C143.317 350.699 148.605 362.267 153.563 367.224C157.198 370.86 163.808 374.826 169.757 374.495L199.833 425.393L250.07 457.782Z" fill="#9D9D9D"/>
<path fill-rule="evenodd" clip-rule="evenodd" d="M203.799 422.418L172.401 369.207C169.426 370.86 162.486 369.538 157.528 364.25C152.24 358.631 150.918 351.029 153.232 348.716C155.876 346.402 163.808 347.063 169.426 352.682C174.384 357.97 175.375 365.241 173.723 368.216L222.968 404.241L257.34 454.477C260.315 452.825 267.586 453.816 272.874 459.104C278.162 464.723 278.823 472.985 276.51 475.299C273.866 477.612 266.264 476.29 260.976 470.672C256.018 465.384 254.366 458.443 256.349 455.469L203.799 422.418Z" fill="white"/>
<path fill-rule="evenodd" clip-rule="evenodd" d="M183.308 377.801C182.647 377.14 181.655 376.809 180.994 377.47C180.333 378.131 180.664 379.123 181.325 379.784L211.401 413.495L205.451 417.461C204.79 418.122 205.121 420.436 205.451 421.097C206.113 421.758 208.096 421.758 208.757 421.097L212.723 415.148L245.773 445.554C246.434 446.215 247.095 446.876 247.756 446.215C248.417 445.554 247.756 444.893 246.764 444.232L216.358 411.843L221.646 408.207C222.307 407.546 221.646 405.563 221.316 405.233C220.655 404.572 219.333 404.241 218.672 404.902L215.036 410.521L183.308 377.801Z" fill="#9D9D9D"/>
</g>
</svg>
