<svg width="146" height="70" viewBox="0 0 146 70" fill="none" xmlns="http://www.w3.org/2000/svg">
<path d="M38.5437 12.571C37.0605 6.11085 33.353 0.857872 32.8531 0C32.0473 1.20535 29.0973 5.84365 27.5818 10.9905C25.9535 16.7264 25.712 21.8168 26.2761 26.8303C26.8404 31.8433 28.9521 36.9902 28.9521 36.9902C30.0805 39.6956 31.7732 42.5908 32.8695 44.0135C34.4814 41.9214 38.1891 35.6769 39.3498 27.5269C39.9944 22.9983 40.0106 19.031 38.5437 12.571ZM32.8531 42.4043C32.1278 41.0378 30.9994 38.4355 30.8866 34.4151C30.8542 30.5301 32.4179 27.205 32.8693 26.5083C33.2724 27.205 34.6264 30.1003 34.7876 34.0675C34.8843 37.9542 33.5947 41.0105 32.8531 42.4043ZM38.1087 23.534C38.0602 25.9981 37.7702 28.5988 37.3832 30.1536C37.5282 27.4739 37.2059 23.6951 36.5773 20.7451C35.9646 17.7967 34.2236 12.8655 32.8212 10.5866C31.5314 12.7576 29.9516 17.0209 29.1135 20.7176C28.2913 24.4192 28.2591 28.8933 28.2591 30.2355C28.0334 29.1042 27.4852 25.0711 27.6466 21.0137C27.7754 17.6678 28.5492 14.2318 28.9844 12.6513C30.6288 7.37099 32.4827 3.99448 32.821 3.45861C33.1758 3.99448 35.5132 8.14841 36.7224 12.5179C37.9313 16.8857 38.1731 21.0669 38.1087 23.534Z" fill="#0079C1"/>
<path d="M35.3518 45.5181H24.116V53.0453C24.1322 53.0356 24.1482 53.0244 24.1482 53.0147C26.7919 50.372 31.0962 50.372 33.7398 53.0147C36.3835 55.6588 36.3835 59.9447 33.7398 62.5872C33.7238 62.5986 33.7238 62.6083 33.7076 62.6179V62.6212C33.6915 62.634 33.6753 62.6437 33.6592 62.6565C31.0316 65.2736 27.5658 66.5834 24.116 66.5834C20.6503 66.5834 17.1843 65.2639 14.5406 62.6243C9.88164 57.9717 9.33369 50.7744 12.8802 45.5181C13.3637 44.8083 13.9119 44.1325 14.5406 43.5048C17.1843 40.8639 20.6501 39.5442 24.116 39.5442V21.4417C10.8006 21.4417 0 32.2214 0 45.5181C0 58.8134 10.8006 69.593 24.116 69.593C31.0639 69.593 37.3186 66.6607 41.7194 61.9726V45.5181H35.3518ZM55.9698 65.2992C55.9698 66.9842 55.7602 69.5978 52.375 69.5978H48.3771C45.0079 69.5978 44.7984 66.9842 44.7984 65.2992V49.8233C44.7984 48.1367 45.0079 45.5229 48.3771 45.5229H52.375C55.7602 45.5229 55.9698 48.1367 55.9698 49.8233V53.2271H51.1337V49.3019C51.1337 48.8899 50.8273 48.5116 50.3759 48.5116C50.1019 48.5116 49.6184 48.6821 49.6184 49.3019V65.7193C49.6184 66.3373 50.1019 66.5093 50.3759 66.5093C50.8275 66.5093 51.1337 66.1313 51.1337 65.7193V60.45H50.4083V57.8011H55.9698V65.2992ZM63.2239 60.553L64.0461 48.5213H64.3201L65.1583 60.553H63.2239ZM57.8881 69.5978H62.6113L63.0465 63.2021H65.3195L65.771 69.5978H70.4942L67.9794 45.5229H60.403L57.8881 69.5978ZM72.2835 66.5722L76.9101 48.5213H72.767V45.5231H81.8591V48.5149L77.2486 66.511H82.1491V69.5978H72.2835V66.572M89.242 58.4077V48.5083H89.8546C90.3866 48.5083 90.7574 48.9542 90.7574 49.7124V57.204C90.7574 57.9603 90.3866 58.4077 89.8546 58.4077H89.242ZM84.4059 69.5979H89.242V61.4125H91.9987C95.3679 61.4125 95.5773 58.7988 95.5773 57.1138V49.8233C95.5773 48.1367 95.3679 45.5229 91.9987 45.5229H84.4059V69.5979ZM102.88 57.6883V48.51H103.509C104.024 48.51 104.395 48.9559 104.395 49.7122V56.4845C104.395 57.241 104.024 57.6883 103.509 57.6883H102.88ZM109.844 69.5978L107.474 60.2086C109.183 59.5214 109.215 57.938 109.215 57.2861V49.8233C109.215 48.1367 109.022 45.5229 105.636 45.5229H98.0599V69.5978H102.88V60.6899H103.234L104.879 69.5978H109.844ZM118.775 65.7193C118.775 66.1327 118.468 66.511 118.017 66.511C117.743 66.511 117.259 66.3387 117.259 65.7193V49.3019C117.259 48.6822 117.743 48.5116 118.017 48.5116C118.468 48.5116 118.775 48.8899 118.775 49.3019V65.7193ZM112.439 65.2992C112.439 66.9842 112.649 69.5978 116.034 69.5978H120.016C123.401 69.5978 123.611 66.9842 123.611 65.2992V49.8233C123.611 48.1367 123.401 45.5229 120.016 45.5229H116.034C112.649 45.5229 112.439 48.1367 112.439 49.8233V65.2992ZM138.748 45.5229H145.018V69.5978H140.198V54.4984H140.021L137.539 69.5978H133.686L131.203 54.4984H131.026V69.5978H126.206V45.5229H132.477L135.604 62.4439L138.748 45.5229Z" fill="#0079C1"/>
</svg>
