<svg width="82" height="112" viewBox="0 0 82 112" fill="none" xmlns="http://www.w3.org/2000/svg">
<path fill-rule="evenodd" clip-rule="evenodd" d="M60.9956 74.8326C61.1277 74.4033 61.2268 74.2052 61.3259 73.6768C61.458 74.5024 61.5901 75.0968 61.8212 75.8234C61.524 75.3941 61.3919 75.1959 60.9956 74.8326ZM60.5003 86.292C59.3444 86.325 58.2546 86.292 58.2216 86.1599C58.0895 85.8297 58.4198 85.4994 58.684 85.1362C58.8491 84.905 59.3444 84.5747 59.3444 84.5747L60.7975 85.1692C60.8635 85.4003 60.8635 85.4664 60.9626 85.6976C60.8305 85.8297 60.6324 86.0939 60.5003 86.292ZM57.8914 70.7707C58.1226 71.7284 58.3537 72.4549 58.684 73.3796C57.9905 73.0824 57.2309 72.8512 56.4383 72.6861C56.7025 72.3889 57.4621 71.7944 57.8914 70.7707ZM52.5085 72.1907C53.6313 71.266 54.1927 70.0772 53.9945 68.1287C54.688 69.5488 55.1834 71.1009 55.5467 72.521C54.7211 72.3889 53.3341 72.2568 52.5085 72.1907ZM41.5775 31.1748C41.5445 31.3069 42.337 31.9674 43.5259 31.9013L41.7756 35.3028L41.0821 31.8683L40.2895 35.3028L38.242 31.8683C38.242 31.8683 39.6951 32.0334 40.4547 31.1748C39.7942 30.6794 37.1523 29.1603 37.1523 29.1603L37.9779 28.4338C37.9779 28.4338 42.7663 28.6319 44.1864 28.4338L44.979 29.1603C44.979 29.1603 41.9407 31.0427 41.5775 31.1748ZM26.4524 72.521C26.8157 71.1009 27.278 69.5488 27.9716 68.1287H28.0046C27.7734 70.0772 28.4339 71.5633 29.6228 72.1907C28.7641 72.2568 27.245 72.3889 26.4524 72.521ZM23.3152 73.3796C23.6124 72.4549 23.8766 71.7284 24.0747 70.7707C24.537 71.7944 25.2966 72.3889 25.5608 72.6861C24.7682 72.8512 24.0087 73.0824 23.3152 73.3796ZM23.8105 86.1599C23.7114 86.4571 19.3192 86.259 18.5597 86.1599C17.7671 86.0608 14.927 85.6976 14.927 85.6976L15.0922 84.6078L16.8755 78.8616C16.8755 78.8616 17.2717 79.7532 17.5029 80.1495C17.8662 80.81 18.3946 81.5696 18.3946 81.5696L17.8332 81.9989C17.8332 81.9989 18.6588 82.3621 19.3853 82.4612C20.2109 82.5603 20.7723 82.4282 20.7723 82.4282L20.343 85.4994L22.6877 84.5747C22.6877 84.5747 23.1831 84.905 23.3482 85.1362C23.6124 85.4994 23.9426 85.8297 23.8105 86.1599ZM20.6732 73.6768C20.7723 74.2052 20.8384 74.4033 20.9704 74.8326C20.6072 75.1959 20.4751 75.3941 20.1779 75.8234C20.376 75.0968 20.5081 74.5024 20.6732 73.6768ZM81.9329 76.9792C81.9329 68.1287 80.0175 63.1091 78.1351 59.3443C77.7719 56.4052 76.7812 53.6642 74.8658 50.3288C74.8988 50.3288 75.196 50.2957 75.2951 50.2297C75.4602 50.1636 75.5923 50.0976 75.5923 49.7674C74.7667 44.7477 67.3363 40.4215 63.5715 39.4969C62.6469 39.2987 61.491 39.4308 60.8966 39.5629C60.3021 39.695 59.5096 40.0913 58.9482 40.5536C57.1979 41.9737 57.396 43.9221 56.9667 44.9458C56.5374 45.9696 55.6127 47.0594 54.8201 47.5217C54.4899 47.7199 54.1927 47.852 53.9615 47.918C53.6973 47.9841 53.4992 48.0171 53.301 48.0171C53.0038 48.0171 52.6736 47.918 52.5415 47.852C52.5415 47.852 54.3578 47.4226 54.8532 46.6631C54.8532 46.6631 52.7066 46.498 51.1545 44.5826C49.8005 42.9314 49.8665 41.016 49.9656 40.0583C50.0316 39.0345 50.527 37.4163 51.0554 36.4917C51.8149 35.7651 52.9708 35.3358 54.2257 35.3358C55.7448 35.3358 56.5374 36.0624 57.363 38.1429L57.5611 38.6382L57.8253 38.1429C58.4198 36.954 58.5849 35.7651 58.3207 34.5102C62.1515 34.4442 64.8925 32.9581 66.2795 30.1841L66.6097 29.5566L65.9493 29.8538C64.3971 30.6464 62.9771 31.1087 61.8543 31.505C60.4012 31.472 57.8584 31.505 56.9007 31.3729C57.1649 31.2739 57.396 31.1748 57.6272 31.0427C58.3537 30.7125 59.0802 30.3492 60.137 30.3162C60.5333 30.3162 61.0617 30.4152 61.2929 30.6134C61.5571 30.8445 61.7552 31.2078 61.8543 31.505C62.911 29.5566 62.6799 26.7826 60.5994 26.0561C59.1463 25.5607 57.396 25.6928 57.396 25.6928C57.2639 24.8011 55.976 23.6783 55.3485 23.6783C55.1504 23.7113 54.3578 24.0086 53.3671 24.4049L48.5786 26.3533L48.5456 25.5277C50.2298 23.4141 51.947 20.8713 51.947 17.8991C51.9801 17.3377 52.0131 16.8093 51.9801 16.3139C51.9801 16.2149 51.9801 16.0828 51.947 15.9837C51.848 14.5306 51.3856 13.4078 50.5931 12.5162C49.3381 11.1622 47.3567 10.5347 44.5166 10.5347H44.3185L43.1296 14.6627L43.0966 14.7618L41.7426 19.8475L43.9552 8.0249H38.0439L40.2565 19.8475L38.9025 14.7618L38.8695 14.6627L37.6806 10.5347H37.4825C34.6424 10.5347 32.661 11.1622 31.4391 12.5162C30.6135 13.4078 30.1842 14.5306 30.0521 15.9837C30.0521 16.0828 30.019 16.2149 30.019 16.3139C29.986 16.8093 29.986 17.3047 29.986 17.8991C29.986 20.9043 31.7693 23.4141 33.4536 25.5277V26.3202L28.566 24.3388C27.6083 23.9425 26.8157 23.6123 26.4524 23.6453C25.5278 23.6783 24.7352 24.8011 24.6031 25.6928C24.6031 25.6928 22.9849 25.4286 21.4328 26.0561C19.6495 26.7826 19.2202 28.3017 19.4844 29.9859C19.5504 30.4483 19.7816 30.9436 20.2109 31.505C20.2769 31.3729 20.4421 31.1418 20.4751 31.0757C20.5081 31.0097 20.7063 30.7455 20.8053 30.6464C21.0035 30.4483 21.3667 30.3162 21.796 30.3162C21.8291 30.3162 21.8291 30.3162 21.8621 30.3162C22.9519 30.3492 23.6454 30.7125 24.405 31.0427C24.6361 31.1748 24.8673 31.2739 25.0985 31.3729C24.1408 31.505 21.664 31.505 20.2109 31.505C19.1211 31.1418 17.602 30.6464 16.0499 29.8538L15.4224 29.5566L15.7526 30.1841C17.1397 32.9581 19.8807 34.4442 23.6784 34.5102C23.4142 35.7651 23.6124 36.954 24.2068 38.1429L24.438 38.6382L24.6361 38.1429C25.4947 36.0624 26.2873 35.3689 27.7734 35.3358H27.8064C29.0613 35.3358 30.2172 35.7651 30.9767 36.4917C31.4721 37.4163 31.9675 39.0345 32.0665 40.0583C32.1326 41.049 32.0996 42.9974 30.9107 44.5495C29.3586 46.564 27.179 46.6631 27.179 46.6631C27.6413 47.4226 29.4576 47.852 29.4576 47.852C29.3255 47.918 28.9953 48.0171 28.6981 48.0171C28.533 48.0171 28.3018 47.9841 28.0706 47.918C27.8064 47.852 27.5422 47.7199 27.179 47.5217C26.4194 47.0594 25.4617 45.9696 25.0324 44.9458C24.6031 43.9221 24.8012 41.9737 23.084 40.5536C22.5226 40.0913 21.73 39.695 21.1356 39.5629C20.5411 39.4308 19.3853 39.2987 18.4276 39.4969C14.6959 40.4215 7.26545 44.7477 6.40682 49.7674C6.40682 50.0976 6.57194 50.1636 6.73706 50.2297C6.83614 50.2957 7.13335 50.3288 7.13335 50.3288C5.25098 53.6642 4.26026 56.4052 3.86397 59.3443C1.98159 63.1091 0.0661973 68.1287 0.0661973 76.9792C-0.39614 84.1785 1.65135 90.8823 3.46768 95.935L3.7649 96.7606L5.48215 88.6367L7.59569 92.8308L8.94968 86.4901L9.27992 84.872L10.8981 87.9762L11.3604 86.1269C11.7567 86.4901 12.4833 86.7874 12.4833 86.7874C12.4833 86.7874 12.2521 87.5469 12.2851 88.0093C12.2851 88.4716 12.6814 88.9339 12.6814 88.9339C12.6814 88.9339 12.2191 89.5614 12.3181 89.9907C12.4502 90.42 13.1107 90.6512 13.1107 90.6512C13.1107 90.6512 12.7805 91.2126 12.8135 91.741C12.8795 92.4015 13.6721 92.6987 13.6721 92.6987C13.6721 92.6987 13.7712 93.128 14.1675 93.3922C14.5638 93.6233 16.182 93.5903 16.182 93.5903C16.182 93.5903 16.3801 95.4066 16.9085 96.2322C17.5359 97.223 19.5834 98.0155 19.7155 97.9165C19.8807 97.8504 20.4751 97.5532 20.6402 97.4872C20.8053 97.3881 20.9704 95.2746 20.5742 94.3169C20.343 93.7554 18.7578 92.4345 18.7578 92.4345C18.7578 92.4345 18.989 91.8731 18.989 91.4768C19.022 90.6842 18.7578 90.0567 18.7578 90.0567C19.9467 88.9339 21.5649 88.2074 22.3244 88.1413C23.117 88.0753 26.5845 88.6367 27.146 88.7358C27.7074 88.8349 28.3678 87.8772 28.1697 87.2167C27.9385 86.5562 27.6083 85.3013 27.6083 85.3013C27.4432 84.2445 27.5753 83.4189 28.0706 82.8575C28.632 82.197 29.6888 81.8668 31.1749 81.8668C31.6703 81.8668 32.1326 81.9989 32.628 82.131C33.2554 82.2961 33.7508 82.4612 34.4773 82.3952C34.6094 82.3621 34.7745 82.3621 34.9727 82.2961C35.6662 82.131 36.1285 81.6356 36.5578 81.0081C36.2936 82.3952 32.9582 86.8204 30.6795 86.8204C30.6795 86.8204 30.1181 87.2167 29.1274 88.2074C28.3348 89.033 27.4762 89.9247 26.4855 90.1558C25.5938 90.354 24.6031 89.4953 24.6031 89.4953C24.6031 89.4953 23.9756 90.387 23.9756 91.9721C23.9756 93.4252 25.4287 94.2838 26.2543 94.7462C26.0892 97.0248 26.5185 98.7421 27.5092 99.8319C28.2688 100.657 29.3255 101.087 30.5805 101.12C31.6703 103.894 33.2554 106.503 37.4825 106.998C37.7137 107.262 38.242 108.088 38.8035 108.748C39.3649 109.442 39.8602 109.937 40.2235 110.301C40.7189 110.829 40.983 111.027 41.0161 111.027C41.0161 111.027 41.3133 110.829 41.8086 110.301C42.1719 109.937 42.6343 109.442 43.1957 108.748C43.7901 108.088 44.3185 107.262 44.5496 106.998C48.7437 106.503 50.3619 103.894 51.4187 101.12C52.6736 101.087 53.7303 100.657 54.4899 99.8319C55.5136 98.7421 55.943 97.0248 55.7448 94.7462C56.5704 94.2838 58.0565 93.4252 58.0565 91.9721C58.0565 90.387 57.396 89.4953 57.396 89.4953C57.396 89.4953 56.4053 90.354 55.5136 90.1558C54.5229 89.9247 53.6973 89.033 52.8717 88.2074C51.914 87.2167 51.3196 86.8204 51.3196 86.8204C49.0409 86.8204 45.7385 82.3952 45.4743 81.0081C45.8706 81.6356 46.333 82.131 47.0265 82.2961C47.1916 82.3291 47.3567 82.3621 47.4888 82.3952C48.2153 82.4612 48.6777 82.2961 49.3051 82.131C49.8335 81.9989 50.2958 81.8668 50.7912 81.8668C52.2773 81.8668 53.3341 82.197 53.8955 82.8575C54.3578 83.4189 54.5229 84.2445 54.3578 85.3013C54.3578 85.3013 54.0276 86.5562 53.7964 87.2167C53.5652 87.8772 54.2587 88.8349 54.8201 88.7358C55.3815 88.6367 58.8491 88.0753 59.6086 88.1413C60.2691 88.2074 65.9823 90.6842 67.3032 90.5521C68.0958 90.453 69.4498 90.0567 70.3415 89.4953C71.6294 88.6697 72.0917 87.1506 72.0917 87.1506C72.389 86.8204 72.7852 86.0608 72.8843 85.5985L73.0825 86.4901L74.4034 92.8308L76.55 88.6367L78.2672 96.7606L78.5645 95.935C80.3808 90.8823 82.3953 84.1785 81.9329 76.9792Z" fill="#665F5F"/>
<path fill-rule="evenodd" clip-rule="evenodd" d="M38.0769 7.52949H43.9883L42.8654 5.51502L44.8139 6.67087V0.825602L42.8654 1.98145L43.9883 0H38.11L39.1998 1.98145L37.2513 0.825602V6.67087L39.1998 5.51502L38.0769 7.52949Z" fill="#665F5F"/>
<path fill-rule="evenodd" clip-rule="evenodd" d="M39.8933 44.6486V44.8467L38.11 56.5703C38.143 56.5703 38.2091 56.5373 38.2421 56.5373V56.5042L38.3742 56.4712C40.0914 55.9759 41.8747 55.9759 43.559 56.4712C43.6911 56.5042 43.7901 56.5373 43.9222 56.5703L41.0161 37.3833L39.8933 44.6486Z" fill="white"/>
<path fill-rule="evenodd" clip-rule="evenodd" d="M45.1111 57.0657C46.9935 58.0564 48.4795 59.5756 49.3382 61.3589L53.8625 52.7065C50.9563 54.1596 46.399 56.4052 45.1111 57.0657Z" fill="white"/>
<path fill-rule="evenodd" clip-rule="evenodd" d="M49.6685 62.3496C49.9987 63.3403 50.1638 64.3641 50.1638 65.2227C50.1638 66.3125 49.9987 67.3362 49.6685 68.2609C51.5178 67.9307 60.2031 66.4116 65.7182 65.4539C60.1701 64.3641 51.4848 62.6799 49.6685 62.3496Z" fill="white"/>
<path fill-rule="evenodd" clip-rule="evenodd" d="M16.3141 65.4208C21.8291 66.4116 30.4814 67.9307 32.3308 68.2609C32.0005 67.3362 31.8354 66.3125 31.8354 65.2227C31.8354 64.3641 32.0336 63.3403 32.3308 62.3496C30.5144 62.6799 21.8291 64.3641 16.3141 65.4208Z" fill="white"/>
<path fill-rule="evenodd" clip-rule="evenodd" d="M28.1367 52.7065L32.694 61.3589C33.5196 59.5756 35.0388 58.0564 36.9211 57.0657C35.5671 56.4052 30.6796 53.9945 28.1367 52.7065Z" fill="white"/>
<path fill-rule="evenodd" clip-rule="evenodd" d="M32.7931 69.3176C32.5289 69.846 31.8684 71.1009 30.3163 74.1061L28.1367 77.9699L37.0532 73.4787C35.8974 72.9173 34.8076 72.0586 33.949 71.0349C33.4866 70.5065 33.1234 69.9451 32.7931 69.3176Z" fill="white"/>
<path fill-rule="evenodd" clip-rule="evenodd" d="M34.3452 69.3178L41.0161 57.6603L47.6209 69.3178H34.3452ZM47.3237 70.1104C48.3804 68.7564 49.0079 67.0721 49.0079 65.2228C49.0079 61.6232 46.5971 58.5519 43.2947 57.5612C42.5682 57.3631 41.7756 57.231 40.983 57.231C40.2235 57.231 39.4639 57.3631 38.7374 57.5612C35.402 58.5519 32.9912 61.6232 32.9912 65.2228C32.9912 67.0721 33.6187 68.7564 34.7085 70.1104C36.1615 71.9927 38.4402 73.2146 40.983 73.2146C43.5589 73.2146 45.8376 71.9927 47.3237 70.1104Z" fill="#FF6600"/>
<path fill-rule="evenodd" clip-rule="evenodd" d="M41.016 59.8066L36.2936 68.2938H45.7054L41.016 59.8066Z" fill="#0B4DA0"/>
<path fill-rule="evenodd" clip-rule="evenodd" d="M38.0769 73.875L41.016 93.9206L43.8891 73.875C42.0068 74.5025 39.9263 74.5025 38.0769 73.875Z" fill="white"/>
<path fill-rule="evenodd" clip-rule="evenodd" d="M45.078 73.3796L48.0171 74.9647L53.7964 77.9699L51.6498 74.1061C51.0554 72.9503 50.4609 71.7944 49.9986 70.8698C49.6684 70.2423 49.3711 69.6809 49.206 69.3176C48.8758 69.9451 48.5125 70.5065 48.0832 71.0349C47.2576 72.0256 46.2338 72.8182 45.078 73.3796Z" fill="white"/>
<path fill-rule="evenodd" clip-rule="evenodd" d="M34.6425 21.1355C34.1471 21.1355 33.7509 21.5318 33.7509 22.0271C33.7509 22.5225 34.1471 22.9188 34.6425 22.9188C35.1379 22.9188 35.5672 22.5225 35.5672 22.0271C35.5672 21.5318 35.1379 21.1355 34.6425 21.1355Z" fill="#FFDB00"/>
<path fill-rule="evenodd" clip-rule="evenodd" d="M40.7518 18.6257L41.016 21.763L41.2472 18.6257H40.7518Z" fill="#FFDB00"/>
<path fill-rule="evenodd" clip-rule="evenodd" d="M40.785 17.9321H41.2473L41.5775 16.6441L41.2473 15.3562H40.785L40.4547 16.6441L40.785 17.9321Z" fill="#FFDB00"/>
<path fill-rule="evenodd" clip-rule="evenodd" d="M47.4888 24.9994C48.0832 24.9994 48.5455 24.537 48.5455 23.9756C48.5455 23.6784 48.3804 23.4142 48.1823 23.2161C47.9511 23.3812 47.6539 23.4803 47.3567 23.4803C47.1585 23.4803 46.9274 23.4142 46.7292 23.3151C46.5641 23.5133 46.498 23.7444 46.498 23.9756C46.498 24.537 46.9274 24.9994 47.4888 24.9994Z" fill="#FFDB00"/>
<path fill-rule="evenodd" clip-rule="evenodd" d="M40.2896 23.216C40.0914 23.4472 39.9594 23.7113 39.9594 24.0086C39.9594 24.603 40.4877 25.0984 41.0822 25.0984C41.7096 25.0984 42.205 24.603 42.205 24.0086C42.205 23.3811 41.7096 22.8857 41.0822 22.8857C40.785 22.8857 40.4877 23.0178 40.2896 23.216Z" fill="#FFDB00"/>
<path fill-rule="evenodd" clip-rule="evenodd" d="M35.9303 27.1791L36.3926 27.3772C37.7136 27.5423 39.0346 27.5423 40.8839 27.5423H41.1481C42.9644 27.5423 44.3845 27.5423 45.8045 27.3442L46.1678 27.1791C44.4835 26.9809 42.7993 26.8818 41.1151 26.8818H40.95C39.2988 26.8818 37.5815 26.9809 35.9303 27.1791Z" fill="#FFDB00"/>
<path fill-rule="evenodd" clip-rule="evenodd" d="M44.0873 23.9756C44.0873 24.471 44.4836 24.9003 44.9789 24.9003C45.4743 24.9003 45.9036 24.471 45.9036 23.9756C45.9036 23.4803 45.4743 23.084 44.9789 23.084C44.4836 23.084 44.0873 23.4803 44.0873 23.9756Z" fill="#FFDB00"/>
<path fill-rule="evenodd" clip-rule="evenodd" d="M34.6094 24.8672C35.1708 24.9002 35.6661 24.4709 35.6661 23.9095C35.6992 23.6453 35.6001 23.4141 35.435 23.249C35.2038 23.3811 34.9396 23.4802 34.6424 23.4802C34.3452 23.4802 34.081 23.3811 33.8498 23.249C33.7177 23.3811 33.6517 23.6123 33.6187 23.8435C33.6187 24.4049 34.048 24.8672 34.6094 24.8672Z" fill="#FFDB00"/>
<path fill-rule="evenodd" clip-rule="evenodd" d="M45.5404 22.4895C45.6725 22.5556 45.8046 22.6216 45.9037 22.6876C45.8707 22.6216 45.8707 22.5556 45.8376 22.4895C45.7386 22.4895 45.6395 22.4895 45.5404 22.4895ZM36.0295 22.8528C36.0625 22.8858 36.0955 22.9518 36.1285 22.9849C36.2937 22.7867 36.4918 22.6216 36.723 22.5225C36.5579 22.4895 36.3597 22.4895 36.1946 22.4895C36.1616 22.6216 36.0955 22.7207 36.0295 22.8528ZM41.1482 26.0891C43.2948 26.0891 45.4744 26.2542 47.5879 26.5845L47.9181 26.4524V26.3863C47.9181 26.1552 47.9181 25.8249 47.9181 25.6268C47.2907 25.7919 46.5972 25.5607 46.1679 25.0654C45.8707 25.3956 45.4413 25.5607 44.979 25.5607C44.0874 25.5607 43.3938 24.8672 43.3938 23.9756C43.3938 23.5132 43.592 23.117 43.8892 22.8197C43.5259 22.9518 43.1297 23.117 42.7664 23.3151C42.8655 23.5463 42.8985 23.7774 42.8985 24.0086C42.8985 24.9993 42.0729 25.7919 41.0822 25.7919C40.0914 25.7919 39.2658 24.9993 39.2658 24.0086C39.2658 23.8105 39.3319 23.5793 39.3979 23.4142C39.1337 23.2491 38.8695 23.117 38.6054 23.0179C38.8365 23.2821 38.9356 23.6123 38.9356 23.9756C38.9356 24.8672 38.2421 25.5607 37.3504 25.5607C36.8221 25.5607 36.3267 25.2965 36.0295 24.8672C35.6992 25.3296 35.1708 25.5938 34.6094 25.5607C34.3783 25.5607 34.2132 25.5277 34.0811 25.4617V26.4194L34.4773 26.5845C36.5909 26.2542 38.8365 26.0891 41.0161 26.0891H41.0491H41.1482Z" fill="#FFDB00"/>
<path fill-rule="evenodd" clip-rule="evenodd" d="M38.2421 23.9756C38.2421 23.4803 37.8458 23.084 37.3505 23.084C36.8551 23.084 36.4258 23.4803 36.4258 23.9756C36.4258 24.471 36.8551 24.9003 37.3505 24.9003C37.8458 24.9003 38.2421 24.471 38.2421 23.9756Z" fill="#FFDB00"/>
<path fill-rule="evenodd" clip-rule="evenodd" d="M32.7931 16.2479C32.9912 16.3139 33.2224 16.38 33.4536 16.446L33.8168 16.0827L33.2224 14.7288L32.4298 15.4553L32.7931 16.2479Z" fill="#FFDB00"/>
<path fill-rule="evenodd" clip-rule="evenodd" d="M47.0925 14.9599L47.753 15.6204L48.3144 14.2664L47.6209 13.6389L47.0925 14.9599Z" fill="#FFDB00"/>
<path fill-rule="evenodd" clip-rule="evenodd" d="M48.2153 16.0827L48.5786 16.446C48.8098 16.38 49.0079 16.3139 49.2391 16.2479L49.5693 15.4553L48.7767 14.7288L48.2153 16.0827Z" fill="#FFDB00"/>
<path fill-rule="evenodd" clip-rule="evenodd" d="M33.7178 14.2664L34.2792 15.6204L34.9397 14.9599L34.3783 13.6389L33.7178 14.2664Z" fill="#FFDB00"/>
<path fill-rule="evenodd" clip-rule="evenodd" d="M34.8736 17.0735H34.9066C35.0057 17.1065 35.1047 17.1726 35.2038 17.2056L35.6992 16.8093L35.2038 15.5874L34.5433 16.2479L34.8736 17.0735Z" fill="#FFDB00"/>
<path fill-rule="evenodd" clip-rule="evenodd" d="M34.1801 16.8093L34.0811 16.5781L33.949 16.7102C34.048 16.7432 34.1141 16.7763 34.1801 16.8093Z" fill="#FFDB00"/>
<path fill-rule="evenodd" clip-rule="evenodd" d="M47.8521 16.8093C47.9181 16.7763 47.9841 16.7432 48.0502 16.7102L47.9181 16.5781L47.8521 16.8093Z" fill="#FFDB00"/>
<path fill-rule="evenodd" clip-rule="evenodd" d="M44.5497 17.9323L44.979 18.3616C45.012 18.3616 45.012 18.3616 45.012 18.3616L45.6065 16.9746L45.045 16.4792L44.5497 17.9323Z" fill="#FFDB00"/>
<path fill-rule="evenodd" clip-rule="evenodd" d="M44.0543 20.0127H44.5497C44.5827 20.0127 47.6539 20.1118 48.2484 20.0127C48.4135 19.9797 48.5456 19.9467 48.6446 19.9137L46.0027 19.3522L50.0977 16.7764C48.0832 17.1396 46.0357 18.2625 44.0543 20.0127ZM41.7756 22.3574C41.9738 22.4235 42.1389 22.5556 42.304 22.6877C43.3938 22.0602 44.5166 21.763 45.8046 21.697C45.8376 21.5649 45.9036 21.3997 45.9697 21.2676L44.0543 20.0127C43.2617 20.7062 42.5022 21.4658 41.7756 22.3574Z" fill="#FFDB00"/>
<path fill-rule="evenodd" clip-rule="evenodd" d="M49.8666 16.1819C50.0317 16.1489 50.1968 16.1159 50.3619 16.0829L50.0317 15.7856L49.8666 16.1819Z" fill="#FFDB00"/>
<path fill-rule="evenodd" clip-rule="evenodd" d="M44.0873 19.1542C44.2524 18.9891 44.4175 18.857 44.5826 18.7249L44.3184 18.4607L44.0873 19.1542Z" fill="#FFDB00"/>
<path fill-rule="evenodd" clip-rule="evenodd" d="M47.3567 22.9188C47.8851 22.9188 48.2814 22.5225 48.2814 22.0271C48.2814 21.5318 47.8851 21.1355 47.3567 21.1355C46.8614 21.1355 46.4651 21.5318 46.4651 22.0271C46.4651 22.5225 46.8614 22.9188 47.3567 22.9188Z" fill="#FFDB00"/>
<path fill-rule="evenodd" clip-rule="evenodd" d="M45.8046 17.8661C46.0027 17.767 46.1678 17.6349 46.333 17.5359L46.0357 17.3047L45.8046 17.8661Z" fill="#FFDB00"/>
<path fill-rule="evenodd" clip-rule="evenodd" d="M45.2432 15.8516L45.8376 16.38L46.366 15.1251L45.7055 14.4646L45.2432 15.8516Z" fill="#FFDB00"/>
<path fill-rule="evenodd" clip-rule="evenodd" d="M46.3329 16.8093L46.8282 17.2386C46.8943 17.1726 46.9934 17.1395 47.0924 17.0735H47.1255L47.4887 16.2479L46.8282 15.5874L46.3329 16.8093Z" fill="#FFDB00"/>
<path fill-rule="evenodd" clip-rule="evenodd" d="M61.8212 63.6706L64.8594 64.232C64.3971 62.0194 63.8027 60.2691 63.3403 59.8068C62.7129 59.7737 62.0854 59.6747 61.5901 59.3774L61.557 59.5426H61.3589C61.1608 59.5426 60.9956 59.5426 60.7975 59.5095C61.2268 61.0617 61.5901 62.5147 61.8212 63.6706Z" fill="#FFDB00"/>
<path fill-rule="evenodd" clip-rule="evenodd" d="M58.4858 70.2753C58.717 71.4641 59.6087 74.073 60.071 75.4601C60.5333 74.5684 60.8305 73.2805 61.0287 72.1907C61.1278 71.7614 61.2929 68.7231 61.3259 67.2371L58.717 67.7324C58.651 68.6241 58.5189 70.0441 58.4858 70.2753Z" fill="#FFDB00"/>
<path fill-rule="evenodd" clip-rule="evenodd" d="M62.2176 67.0721C62.2506 68.327 62.1515 69.747 62.0524 71.002C62.0194 71.1671 62.0194 71.3982 61.9864 71.6294C61.9203 72.1578 61.8543 72.7853 61.8873 73.0164C62.1185 74.6676 62.4487 76.0546 63.0101 77.8379C63.0762 77.97 63.1092 78.1021 63.1422 78.2673C63.7036 77.871 64.2651 77.6068 64.8925 77.3756C64.9916 77.0454 65.0907 76.6491 65.1897 76.2198C65.7181 73.5448 65.7511 70.1764 65.2888 66.7088L65.2558 66.5437L62.2176 67.0721Z" fill="#FFDB00"/>
<path fill-rule="evenodd" clip-rule="evenodd" d="M55.2495 73.3796C56.8016 74.1062 58.1226 74.8987 59.2454 75.7904C59.0473 75.229 58.8161 74.6015 58.7501 74.3704C57.7924 73.908 56.6695 73.6108 55.2495 73.3796Z" fill="#FFDB00"/>
<path fill-rule="evenodd" clip-rule="evenodd" d="M50.494 69.2186L51.881 71.9926C52.6736 71.5963 53.4662 70.5395 53.3341 68.6902L50.494 69.2186Z" fill="#FFDB00"/>
<path fill-rule="evenodd" clip-rule="evenodd" d="M54.8201 68.4261C55.4475 69.8131 55.8768 71.2662 56.141 72.356C56.5703 71.8936 57.2308 70.9689 57.5941 70.1103C57.6601 69.4829 57.7262 68.6573 57.7922 67.8977L54.8201 68.4261Z" fill="#FFDB00"/>
<path fill-rule="evenodd" clip-rule="evenodd" d="M65.8172 64.4302L69.0205 65.0246C68.6573 63.5385 67.9968 61.1608 67.0391 59.7407C66.2795 59.6417 65.553 59.4435 64.8265 59.1133C64.8595 59.3444 64.8595 59.5756 64.8595 59.6086L64.8925 59.8068H64.6613C64.6613 59.8068 64.5623 59.8068 64.4302 59.8068C64.9255 60.7315 65.4209 62.3827 65.8172 64.4302Z" fill="#FFDB00"/>
<path fill-rule="evenodd" clip-rule="evenodd" d="M66.1804 66.3785C67.9307 68.327 69.1856 68.5912 69.6479 68.6242C69.6149 68.2279 69.4828 67.4353 69.4168 67.1051C69.4168 67.1051 69.3177 66.5106 69.1856 65.8171L66.1804 66.3785Z" fill="#FFDB00"/>
<path fill-rule="evenodd" clip-rule="evenodd" d="M66.3456 67.7324C66.6428 70.8037 66.6098 73.5116 66.1474 75.9884C66.0814 76.3847 66.0153 76.781 65.9163 77.1443C66.1144 77.1113 66.2795 77.1113 66.4446 77.0782L66.7749 75.7573L66.8409 75.6582L66.4446 75.8233L67.1382 72.0586L67.4684 72.3558L67.3363 71.9595L69.5489 72.3558C69.5489 72.2237 69.5489 72.1246 69.5489 71.9925C69.5159 70.9027 69.4498 70.3083 69.3838 69.5818V69.4827C68.3931 69.3176 67.6665 68.9213 66.3456 67.7324Z" fill="#FFDB00"/>
<path fill-rule="evenodd" clip-rule="evenodd" d="M58.5849 63.0432L60.8635 63.4725C60.5993 62.3497 60.2691 60.9297 59.8398 59.4106C59.3774 59.3445 59.0142 59.2454 58.6839 59.0803V59.3115L58.4858 59.3445C58.3537 59.3445 58.0565 59.3775 57.8253 59.4106C58.1556 60.4673 58.4198 61.7553 58.5849 63.0432Z" fill="#FFDB00"/>
<path fill-rule="evenodd" clip-rule="evenodd" d="M50.494 61.524L52.9048 61.9863C52.8718 61.2598 52.7727 60.137 52.5415 59.3774C52.3103 59.3444 51.9801 59.2453 51.7489 59.1462L50.494 61.524Z" fill="#FFDB00"/>
<path fill-rule="evenodd" clip-rule="evenodd" d="M53.8295 62.1516L55.0844 62.3827C54.9853 61.5241 54.7872 59.9389 54.6881 59.3445C54.4239 59.3115 54.1927 59.2454 53.8955 59.0803V59.1794L53.7964 59.2454C53.6974 59.3115 53.5983 59.3445 53.4662 59.3445C53.6974 60.2692 53.7964 61.425 53.8295 62.1516Z" fill="#FFDB00"/>
<path fill-rule="evenodd" clip-rule="evenodd" d="M35.6661 17.5359C35.8643 17.6349 36.0294 17.767 36.2275 17.8661L35.9634 17.3047L35.6661 17.5359Z" fill="#FFDB00"/>
<path fill-rule="evenodd" clip-rule="evenodd" d="M31.6703 16.0829C31.8354 16.1159 32.0005 16.1489 32.1326 16.1819L31.9675 15.7856L31.6703 16.0829Z" fill="#FFDB00"/>
<path fill-rule="evenodd" clip-rule="evenodd" d="M19.1871 81.6026C19.2532 81.6357 19.3523 81.6357 19.4513 81.6687C19.7485 81.7347 20.4751 81.7347 20.8714 81.6026C21.2016 81.4705 21.697 81.2063 21.9612 80.9091C22.6877 80.1826 23.117 79.324 23.5793 78.4323C23.7775 78.1021 23.9426 77.7718 24.1407 77.4416C24.6361 76.583 25.1315 75.7243 25.792 74.8657C23.6784 75.9885 22.0602 77.1774 21.0695 78.9937C21.0035 79.0928 20.9374 79.2249 20.8714 79.357C20.6732 79.7203 20.409 80.2156 20.2109 80.5128C20.0127 80.8101 19.4844 81.3054 19.1871 81.6026Z" fill="#FFDB00"/>
<path fill-rule="evenodd" clip-rule="evenodd" d="M23.2822 74.3704L23.2161 74.5685C23.117 74.8327 22.9519 75.295 22.8198 75.6913C23.7445 74.9318 25.0655 74.1392 26.7497 73.3796C25.3297 73.6108 24.2068 73.941 23.2822 74.3704Z" fill="#FFDB00"/>
<path fill-rule="evenodd" clip-rule="evenodd" d="M20.7063 67.2371C20.7063 68.6571 20.9044 71.7614 20.9705 72.1907C21.2017 73.2805 21.4989 74.5684 21.9282 75.4601C22.7868 73.0493 23.3482 71.1669 23.5464 70.2753C23.5133 70.0441 23.3812 68.6241 23.3152 67.7324L20.7063 67.2371Z" fill="#FFDB00"/>
<path fill-rule="evenodd" clip-rule="evenodd" d="M28.8302 68.9543C28.7971 70.4074 29.3916 71.2991 30.0521 71.6953L31.2079 69.3837L28.8302 68.9543Z" fill="#FFDB00"/>
<path fill-rule="evenodd" clip-rule="evenodd" d="M21.1025 75.9226C20.5081 76.5501 20.0788 77.3757 19.7155 78.4985C19.6495 78.7627 19.3192 79.7534 19.1211 80.4469C19.2532 80.2818 19.4183 80.1167 19.5174 79.9515C19.6165 79.7534 19.8146 79.4232 19.9797 79.0929C20.1118 78.8287 20.2439 78.5976 20.343 78.4324C20.7393 77.7389 21.0035 77.3757 21.5649 76.8143C21.4328 76.6161 21.2346 76.2859 21.1025 75.9226Z" fill="#FFDB00"/>
<path fill-rule="evenodd" clip-rule="evenodd" d="M25.1314 59.4766C24.8342 60.4343 24.57 61.6562 24.4049 62.8781L26.0231 62.5809C26.0561 61.9534 26.2212 60.8966 26.3203 60.071C26.3864 59.8068 26.4194 59.5757 26.4194 59.3775C26.3203 59.3775 26.1552 59.3445 25.9901 59.3115L25.8249 59.2785V59.2124C25.6268 59.3115 25.3956 59.4105 25.1314 59.4766Z" fill="#FFDB00"/>
<path fill-rule="evenodd" clip-rule="evenodd" d="M29.4907 59.3774C29.2926 60.1039 29.1935 61.1607 29.1274 61.9863L31.5052 61.524L30.2833 59.1462C30.0191 59.2453 29.7219 59.3444 29.4907 59.3774Z" fill="#FFDB00"/>
<path fill-rule="evenodd" clip-rule="evenodd" d="M24.438 70.1103C24.7683 70.9689 25.4287 71.8936 25.8911 72.356C26.1553 71.2662 26.5846 69.7801 27.212 68.4261L24.2399 67.8977C24.2729 68.6242 24.3389 69.4498 24.438 70.1103Z" fill="#FFDB00"/>
<path fill-rule="evenodd" clip-rule="evenodd" d="M22.1923 59.4106C21.7299 61.0948 21.3667 62.4488 21.1355 63.4725L23.4472 63.0432C23.6123 61.7883 23.8765 60.5004 24.2067 59.4106C23.9756 59.3775 23.6784 59.3445 23.5463 59.3445L23.3151 59.3115L23.3481 59.0803C23.0179 59.2454 22.6216 59.3445 22.1923 59.4106Z" fill="#FFDB00"/>
<path fill-rule="evenodd" clip-rule="evenodd" d="M56.2402 74.8657C56.9007 75.7243 57.4291 76.616 57.8914 77.4416C58.0896 77.8049 58.2877 78.1681 58.4859 78.5314C58.9152 79.39 59.3115 80.2156 60.005 80.9091C60.1701 81.1073 60.4673 81.3054 60.7315 81.4375C60.8966 81.0412 61.1938 80.4798 61.458 80.0505C61.3259 79.8193 61.1938 79.5551 61.0948 79.357C61.0287 79.2249 60.9627 79.0928 60.8966 78.9937C59.8729 77.1444 58.2877 75.9555 56.2402 74.8657Z" fill="#FFDB00"/>
<path fill-rule="evenodd" clip-rule="evenodd" d="M64.8264 87.1507C65.4208 87.0516 65.4538 86.0939 65.0906 85.3674C64.8264 84.839 64.0668 83.7162 64.0668 83.7162L61.1607 83.0227C61.1607 83.1878 61.1277 83.386 61.1277 83.5511C61.1277 84.1125 61.2598 84.839 61.4249 85.3674C62.6468 85.3344 64.265 87.2828 64.8264 87.1507Z" fill="#FFDB00"/>
<path fill-rule="evenodd" clip-rule="evenodd" d="M68.1949 72.7192L68.6572 74.1063L67.5674 73.1816L67.2372 74.8988L68.5912 74.4365L67.6665 75.6254L69.4498 75.9556L69.0205 74.5356L70.1103 75.4272L70.4075 73.71L69.0865 74.2053L69.9782 73.0495L68.1949 72.7192Z" fill="#FFDB00"/>
<path fill-rule="evenodd" clip-rule="evenodd" d="M72.455 59.8728C74.4694 62.7459 75.196 65.7511 75.6583 67.7986C75.7574 68.1288 75.8234 68.4591 75.8895 68.7233C76.0876 69.4498 76.5169 69.8461 76.9462 70.2424L77.1114 70.3745C78.1351 71.3982 79.4891 71.9266 80.4468 72.1908C80.6119 72.2238 80.8431 72.2569 81.0412 72.2899C80.8431 70.0112 80.4798 67.9307 79.9514 65.9493L79.8854 65.7511C79.8524 65.619 79.8193 65.5199 79.7863 65.4209C79.357 63.8687 78.7956 62.4157 78.1021 60.8966C78.036 60.7975 77.9039 60.5333 77.5737 59.9058C77.0783 60.0049 76.649 60.071 76.2197 60.071C75.196 60.071 74.2383 59.7737 73.2806 59.2454C73.2806 59.3775 73.3136 59.4765 73.3136 59.5096L73.3466 59.7407L73.1485 59.7737C73.1154 59.7737 72.7522 59.8398 72.455 59.8728Z" fill="#FFDB00"/>
<path fill-rule="evenodd" clip-rule="evenodd" d="M16.7433 66.5437V66.7088C16.248 70.1764 16.281 73.5448 16.8424 76.2198L16.8754 76.3519C16.9745 76.7812 17.0736 77.3756 17.2717 77.904C17.5029 78.5975 18.0313 79.5552 18.3285 80.1166C18.3615 79.9515 18.3945 79.8194 18.4275 79.6543C18.5927 79.0268 18.7908 78.3333 18.9559 77.8379C19.4513 76.2858 19.8806 74.8658 20.1448 73.0164C20.1448 72.7853 20.0788 72.1578 20.0457 71.6624C20.0127 71.3982 19.9797 71.1671 19.9797 71.002C19.8476 69.4498 19.7815 68.1949 19.8146 67.0721L16.7433 66.5437Z" fill="#FFDB00"/>
<path fill-rule="evenodd" clip-rule="evenodd" d="M5.48208 70.5066L5.61418 70.8368C5.68023 70.9359 6.47281 71.5304 6.67095 71.5964C6.83607 71.5304 7.43051 71.2992 7.5626 71.2331C7.62865 71.101 7.79377 70.1103 7.76075 69.9452L7.62865 69.615L7.95889 69.648C8.12401 69.648 8.91659 69.615 9.08171 69.5489H9.11473C9.11473 69.5159 9.21381 69.4829 9.18078 69.1856C9.11473 68.9215 8.98264 68.4921 8.91659 68.294C8.55332 67.4023 7.89284 66.8409 7.66167 66.6428C7.52958 66.5437 7.29841 66.4446 7.23236 66.4446C7.13329 66.4116 7.00119 66.4116 6.90212 66.4446C6.80305 66.4777 6.77002 66.5107 6.737 66.5767C6.737 66.6098 6.70398 66.7088 6.70398 66.7749C6.6049 67.0061 6.57188 67.1712 6.47281 67.2372C6.43978 67.3033 6.37373 67.3363 6.34071 67.3363C6.24164 67.3693 6.14257 67.3693 6.04349 67.3033C5.9114 67.2042 5.81233 66.973 5.81233 66.4777L5.7793 66.3786L5.87837 66.3125C5.9114 66.2795 5.97745 66.2465 6.04349 66.2135C6.14257 66.1474 6.24164 66.0814 6.30769 66.0153C6.53886 65.7181 6.57188 65.586 6.57188 65.586C6.53886 65.553 6.37373 65.52 6.20861 65.586L6.04349 65.6521L5.94442 65.52C5.94442 65.52 5.9114 65.4869 5.87837 65.4869C5.84535 65.52 5.74628 65.6521 5.64721 65.7511L5.28394 65.52C5.38301 65.3218 5.34999 65.1237 5.25092 64.9916C5.18487 64.9255 5.05277 64.8265 4.85463 64.9255L4.65648 64.9916L4.42531 64.4302L4.1281 64.5623L4.35927 65.0907L4.16112 65.1897C3.96298 65.2888 3.92995 65.4209 3.92995 65.52C3.96298 65.6851 4.06205 65.8502 4.29322 65.9493L4.16112 66.3456C4.02902 66.3125 3.8639 66.3125 3.83088 66.3456C3.79786 66.3456 3.79786 66.3456 3.79786 66.3786L3.83088 66.5437L3.69878 66.6098C3.50064 66.6758 3.40157 66.8079 3.40157 66.8409C3.40157 66.874 3.50064 66.907 3.8639 66.973C3.96298 67.0061 4.1281 66.973 4.19415 66.94C4.29322 66.907 4.35927 66.907 4.42531 66.907H4.52439L4.59043 67.0061C4.92068 67.3363 5.01975 67.5675 4.98672 67.7326C4.9537 67.8317 4.88765 67.9307 4.78858 67.9638C4.75555 67.9638 4.68951 67.9968 4.62346 67.9968C4.49136 67.9968 4.35927 67.9307 4.16112 67.7986C4.06205 67.7656 4.02902 67.6996 3.96298 67.6996C3.89693 67.6665 3.8639 67.6665 3.79786 67.6996C3.66576 67.7656 3.56669 67.8317 3.53366 67.9307C3.46762 67.9968 3.36854 68.2279 3.36854 68.36C3.33552 68.6903 3.26947 69.5489 3.63274 70.4075C3.69878 70.6057 3.89693 71.002 4.06205 71.2331C4.22717 71.4973 4.32624 71.4643 4.35927 71.4313C4.55741 71.3652 5.15184 70.8368 5.25092 70.7378L5.48208 70.5066Z" fill="#FFDB00"/>
<path fill-rule="evenodd" clip-rule="evenodd" d="M21.4658 82.2632L21.1686 84.2777C22.1263 83.9805 23.4142 83.386 23.5463 82.8246C24.2398 79.5882 26.0231 76.7482 28.8962 74.4365L29.5237 73.2146C29.0283 73.4127 28.599 73.5779 28.1697 73.743C26.6176 74.9319 25.792 76.3519 24.9333 77.871C24.7682 78.1352 24.6031 78.4324 24.471 78.6966C23.9426 79.6873 23.3812 80.7111 22.4895 81.5697C22.2254 81.8669 21.8951 82.032 21.4658 82.2632Z" fill="#FFDB00"/>
<path fill-rule="evenodd" clip-rule="evenodd" d="M8.48737 72.1577C8.58644 72.2568 8.61947 72.3558 8.68551 72.4549L8.75156 72.554L12.0209 78.5644C11.7237 76.8471 11.5916 74.8657 11.5916 72.8182C11.5916 72.554 11.5916 72.2898 11.5916 72.0586L11.6247 71.3981C11.6577 70.7376 11.6907 70.1102 11.7237 69.4497L11.4265 69.3837V69.2185C11.4265 69.1195 11.4265 69.0534 11.4595 68.9543C10.8321 69.4827 10.3697 69.813 9.90741 70.0772C9.80833 70.2423 9.64321 70.3414 9.54414 70.3744L9.44507 70.4074C9.27995 70.4735 9.01576 70.5065 8.65249 70.5395C8.65249 70.8037 8.58644 71.167 8.45435 71.5632L8.48737 72.1577Z" fill="#FFDB00"/>
<path fill-rule="evenodd" clip-rule="evenodd" d="M12.6484 69.4827L12.6154 69.6148C12.5493 70.3413 12.5163 70.9027 12.4833 71.9925C12.4833 72.2237 12.4833 72.4879 12.4833 72.7521C12.4833 76.4508 12.9786 79.7532 13.8373 81.8337L14.7619 83.2537L16.3141 77.9369C16.149 77.3094 15.9838 76.6819 15.8517 76.0215C15.4224 73.5116 15.3564 70.8037 15.6866 67.7324C14.3656 68.9213 13.6391 69.3176 12.6484 69.4827Z" fill="#FFDB00"/>
<path fill-rule="evenodd" clip-rule="evenodd" d="M37.7137 18.4607L37.4165 18.7249C37.6146 18.857 37.7798 18.9891 37.9449 19.1542L37.7137 18.4607Z" fill="#FFDB00"/>
<path fill-rule="evenodd" clip-rule="evenodd" d="M37.0202 18.3286V18.3616L37.4826 17.9323L36.9872 16.4792L36.4258 16.9746L37.0202 18.3286Z" fill="#FFDB00"/>
<path fill-rule="evenodd" clip-rule="evenodd" d="M27.344 59.3445C27.245 59.9389 27.0468 61.5241 26.9478 62.3827L28.2027 62.1516C28.2357 61.425 28.3348 60.2362 28.5659 59.3445C28.4338 59.3445 28.3348 59.3115 28.2357 59.2454L28.1366 59.1794V59.0803C27.8394 59.2454 27.6082 59.3115 27.344 59.3445Z" fill="#FFDB00"/>
<path fill-rule="evenodd" clip-rule="evenodd" d="M7.89294 65.6851C8.02504 65.7511 8.15714 65.8172 8.25621 65.9162H8.28923C8.58645 66.1804 9.346 66.8409 9.80834 67.9307C9.87439 68.1289 10.0065 68.5251 10.0725 68.8554C10.5349 68.5582 11.0302 68.1289 11.6247 67.5674C12.054 64.5623 12.8466 61.8213 13.9033 59.8398C13.7712 59.8398 13.6391 59.8398 13.6391 59.8398H13.408L13.441 59.5756C13.441 59.5756 13.441 59.3444 13.507 59.1133C12.7475 59.5426 11.8558 59.9059 10.6339 59.9389C10.5349 60.104 10.4028 60.3021 10.3037 60.4673C9.4781 61.7552 8.71855 62.9441 7.89294 65.6851Z" fill="#FFDB00"/>
<path fill-rule="evenodd" clip-rule="evenodd" d="M33.4206 19.9137C33.5197 19.9467 33.6187 19.9797 33.7508 20.0127C34.1471 20.0788 36.5579 20.0458 37.4495 20.0127H37.9779C35.9965 18.2625 33.916 17.1396 31.9015 16.7764L36.0295 19.3522L33.4206 19.9137ZM36.2276 21.697C37.5486 21.763 38.7045 22.0932 39.7942 22.7537C39.9594 22.5886 40.1245 22.4895 40.2896 22.3905C39.5301 21.4988 38.7705 20.7062 37.9779 20.0127L36.0625 21.2676C36.1286 21.3997 36.1946 21.5649 36.2276 21.697Z" fill="#FFDB00"/>
<path fill-rule="evenodd" clip-rule="evenodd" d="M12.8466 65.8171C12.7145 66.5106 12.6154 67.1051 12.6154 67.1051C12.5493 67.4353 12.4172 68.2279 12.3512 68.6242C12.8135 68.5912 14.0684 68.327 15.8517 66.3785L12.8466 65.8171Z" fill="#FFDB00"/>
<path fill-rule="evenodd" clip-rule="evenodd" d="M14.96 59.7407C14.0353 61.1608 13.3749 63.5385 13.0116 65.0246L16.1819 64.4302C16.5452 62.4157 17.0736 60.7645 17.5689 59.8068C17.4698 59.8068 17.3708 59.8068 17.3708 59.8068H17.1396V59.6086C17.1396 59.5756 17.1726 59.3444 17.1726 59.1133C16.4791 59.4435 15.7526 59.6417 14.96 59.7407Z" fill="#FFDB00"/>
<path fill-rule="evenodd" clip-rule="evenodd" d="M18.6918 59.8068C18.1964 60.2691 17.635 61.9863 17.1396 64.232L20.2109 63.6706C20.4421 62.5147 20.8053 61.0617 21.2016 59.5095C21.0365 59.5426 20.8383 59.5426 20.6402 59.5426H20.4421V59.3774C19.9137 59.6747 19.3192 59.7737 18.6918 59.8068Z" fill="#FFDB00"/>
<path fill-rule="evenodd" clip-rule="evenodd" d="M35.6661 15.1251L36.1945 16.38L36.789 15.8516L36.3266 14.4646L35.6661 15.1251Z" fill="#FFDB00"/>
<path fill-rule="evenodd" clip-rule="evenodd" d="M56.009 62.5809L57.6602 62.8781C57.4621 61.6892 57.1979 60.4673 56.9007 59.4766C56.6365 59.4105 56.4053 59.3115 56.2072 59.2124V59.2785L56.042 59.3115C55.8769 59.3445 55.7118 59.3775 55.5797 59.3775C55.6127 59.5757 55.6458 59.8068 55.6788 60.1041C55.8109 60.8966 55.943 61.9534 56.009 62.5809Z" fill="#FFDB00"/>
<path fill-rule="evenodd" clip-rule="evenodd" d="M0.891787 73.2145C0.825739 74.4694 0.759691 75.7244 0.759691 77.0123C0.363402 83.6171 2.11368 89.8587 3.59976 94.1848L4.92073 87.9433C3.86395 84.1125 3.59976 79.324 3.99605 72.3559C3.93 72.3229 3.86395 72.2899 3.79791 72.2568C3.03835 72.6861 2.2788 72.9503 1.58529 73.1155C1.4532 73.1485 1.12296 73.1815 0.891787 73.2145Z" fill="#FFDB00"/>
<path fill-rule="evenodd" clip-rule="evenodd" d="M80.3807 73.1155C79.6872 72.9503 78.9277 72.6861 78.1681 72.2568C78.1021 72.2899 78.036 72.3229 77.97 72.3559C78.3663 79.324 78.1021 84.1125 77.0453 87.9433L78.3663 94.1848C79.8523 89.8587 81.6026 83.6171 81.2063 77.0123C81.2063 75.7244 81.1733 74.4694 81.0742 73.2145C80.8431 73.1815 80.5128 73.1485 80.3807 73.1155Z" fill="#FFDB00"/>
<path fill-rule="evenodd" clip-rule="evenodd" d="M3.89703 60.8966C3.20352 62.4157 2.67514 63.8687 2.2128 65.4209C2.17978 65.5199 2.14675 65.619 2.14675 65.7511L2.0807 65.9493C1.55232 67.9307 1.18905 70.0112 0.957886 72.2899C1.15603 72.2569 1.42022 72.2238 1.55232 72.1908C2.11373 72.0257 2.67514 71.8275 3.1705 71.5964C2.97236 71.2992 2.80723 70.9689 2.74119 70.7708C2.27885 69.681 2.37792 68.6572 2.41095 68.2609C2.44397 67.9307 2.60909 67.5674 2.67514 67.4684C2.47699 67.2372 2.37792 66.907 2.47699 66.6097C2.54304 66.2795 2.77421 66.0813 2.93933 65.9162C2.97236 65.8832 3.00538 65.8502 3.00538 65.8172C3.00538 65.7181 3.00538 65.652 2.97236 65.553C2.97236 65.2888 3.0384 65.0246 3.20352 64.7934L2.90631 64.0008L4.92078 63.2083L5.25102 63.9678C5.51521 64.0339 5.7794 64.166 5.94452 64.3641C6.01057 64.4301 6.07662 64.4962 6.10964 64.5622C6.14267 64.5953 6.20872 64.5953 6.24174 64.5953C6.53896 64.5622 6.83617 64.6283 7.06734 64.7604C7.10037 64.7934 7.13339 64.7934 7.16641 64.8264C7.79387 62.911 8.58645 61.2929 9.57717 59.8728C9.27996 59.8398 8.88367 59.7737 8.88367 59.7737L8.68552 59.7407L8.71855 59.5096C8.71855 59.4765 8.71855 59.3775 8.75157 59.2454C7.79387 59.7737 6.83617 60.071 5.81243 60.071C5.38311 60.071 4.9538 60.0049 4.42542 59.9058C4.1282 60.5333 3.9961 60.7975 3.89703 60.8966Z" fill="#FFDB00"/>
<path fill-rule="evenodd" clip-rule="evenodd" d="M29.0944 58.4859C29.2925 58.5189 29.5567 58.4859 29.8539 58.3208L29.3255 57.3301C29.2265 57.6603 29.1274 58.0896 29.0944 58.4859Z" fill="#FFDB00"/>
<path fill-rule="evenodd" clip-rule="evenodd" d="M19.0551 50.4939C16.0499 52.7065 14.861 57.3959 14.6298 58.3536C14.5968 58.6178 14.5308 58.7829 14.5308 58.915C15.5875 58.849 16.4131 58.5848 17.3708 57.9904L17.4039 57.8913C17.9983 55.2824 19.2202 52.7726 20.7063 51.0883C20.277 51.1874 19.8807 51.1544 19.5504 50.9893C19.3853 50.9232 19.1872 50.7581 19.0551 50.4939Z" fill="#FFDB00"/>
<path fill-rule="evenodd" clip-rule="evenodd" d="M26.5845 58.4857C27.1789 58.5517 27.9054 58.3866 28.1696 58.0894C28.3347 57.528 28.5329 56.7684 28.731 56.174L27.9715 54.7209C27.5422 55.7117 26.9477 57.0326 26.5845 58.4857Z" fill="#FFDB00"/>
<path fill-rule="evenodd" clip-rule="evenodd" d="M16.8094 49.7013V49.7343C16.8094 49.8334 16.8425 49.8334 16.8755 49.8334C17.0736 49.9655 17.8332 49.9655 19.0551 49.371C19.4514 48.8096 20.6072 47.4226 21.3007 46.597C21.3668 46.531 21.3998 46.4979 21.4658 46.4319C20.6733 46.564 19.6495 46.564 19.2202 46.4649C17.8662 47.8849 17.0076 49.0408 16.8094 49.7013Z" fill="#FFDB00"/>
<path fill-rule="evenodd" clip-rule="evenodd" d="M10.5018 49.3052C10.4688 49.4703 10.667 49.6024 10.766 49.6354C11.0632 49.7675 11.8558 49.3713 12.6484 48.975C13.3089 47.7201 14.795 46.0358 16.5452 44.4176C15.7857 44.4837 15.1582 44.4507 14.6629 44.0874C12.4172 45.8047 10.733 47.8852 10.5018 49.3052Z" fill="#FFDB00"/>
<path fill-rule="evenodd" clip-rule="evenodd" d="M18.0643 44.4507C18.4606 44.4837 19.3523 44.4507 20.4421 44.0213C20.9374 43.559 21.3667 43.1957 21.697 42.9315C21.6309 42.7994 21.5649 42.6674 21.4658 42.5683C21.3667 42.4362 21.2346 42.3371 21.1025 42.238C20.5411 42.5022 19.7486 43.0306 18.8239 43.7241C18.8239 43.7241 18.3615 44.1534 18.0643 44.4507Z" fill="#FFDB00"/>
<path fill-rule="evenodd" clip-rule="evenodd" d="M24.3389 58.5848C25.0654 58.6839 25.5608 58.3537 25.7259 58.1886C26.1552 56.7355 26.7496 55.1173 27.4431 53.6643L26.8487 52.5745C26.0561 53.9945 24.9993 56.1741 24.4379 58.1886L24.3389 58.5848Z" fill="#FFDB00"/>
<path fill-rule="evenodd" clip-rule="evenodd" d="M9.74231 58.9812C11.5917 59.1794 12.6154 58.651 13.7712 57.8914C14.0685 56.6035 14.7289 54.6551 15.4555 53.3341L15.6206 53.0369C15.9839 52.4094 16.3802 51.6829 17.2718 50.8243C16.9085 50.8243 16.6113 50.7582 16.3802 50.6261C16.2481 50.5271 16.149 50.428 16.0829 50.2959C15.0262 50.6261 14.3657 50.7582 13.8703 50.7582C12.3512 52.3764 11.2614 54.9853 10.0395 58.2547C9.97348 58.4198 9.84138 58.7501 9.74231 58.9812Z" fill="#FFDB00"/>
<path fill-rule="evenodd" clip-rule="evenodd" d="M24.4711 50.7911C24.5371 50.8571 24.7353 50.9232 25.0985 50.9232C25.2306 50.9232 25.3957 50.9232 25.5278 50.8901C25.4618 50.8571 24.9995 50.5269 24.8674 50.3948C24.8013 50.4278 24.7353 50.4938 24.6692 50.5929C24.6032 50.659 24.5041 50.758 24.4711 50.7911Z" fill="#FFDB00"/>
<path fill-rule="evenodd" clip-rule="evenodd" d="M22.0272 50.9231C20.6732 52.2441 19.3192 54.0604 18.2625 57.9572C18.1964 58.2544 18.1634 58.6177 18.1304 58.9149C19.2532 58.9149 20.31 58.7828 20.5742 57.9572C21.3667 55.3153 22.1593 52.9376 23.8766 51.2203C23.8435 51.1873 23.8105 51.1543 23.8105 51.1212C23.2821 51.1873 22.4896 51.2203 22.0272 50.9231Z" fill="#FFDB00"/>
<path fill-rule="evenodd" clip-rule="evenodd" d="M24.7682 51.5839C23.0179 53.136 22.2914 55.3156 21.4658 58.1887C21.4327 58.3208 21.3997 58.4859 21.3667 58.618C22.3244 58.585 23.084 58.3208 23.5793 57.8584C24.2398 55.6128 25.2305 53.3341 26.2873 51.6499L26.0231 51.5178C25.5277 51.6499 25.0324 51.5839 24.7682 51.5839Z" fill="#FFDB00"/>
<path fill-rule="evenodd" clip-rule="evenodd" d="M15.5215 43.5258C16.0829 43.6579 17.3378 43.5258 17.8001 43.3607C18.5927 42.7333 19.3193 42.2379 19.9467 41.8416C19.7486 41.8416 19.5834 41.8086 19.3853 41.8086C18.3285 41.9407 16.9415 42.5681 15.5215 43.5258Z" fill="#FFDB00"/>
<path fill-rule="evenodd" clip-rule="evenodd" d="M23.1171 49.074C22.7208 49.5363 22.5227 49.9326 22.4236 50.1638C22.4236 50.1968 22.6878 50.3289 22.9189 50.3619C23.2822 50.3949 23.9097 50.3619 24.0748 50.1968C24.1078 50.1638 24.1408 50.1638 24.1739 50.1307C23.9757 49.9326 23.7776 49.7345 23.5464 49.5033C23.4143 49.3712 23.2822 49.2061 23.1171 49.074Z" fill="#FFDB00"/>
<path fill-rule="evenodd" clip-rule="evenodd" d="M17.2387 45.0779C16.4131 45.8044 13.54 48.5124 13.4409 49.404C13.4079 49.6352 13.54 49.7673 13.573 49.8003C13.9033 50.0315 15.3563 49.6022 15.9508 49.404C16.248 48.4794 17.3708 46.9933 18.9229 45.3751L18.9559 45.3421C18.3615 45.4081 17.635 45.4081 17.2387 45.0779Z" fill="#FFDB00"/>
<path fill-rule="evenodd" clip-rule="evenodd" d="M20.0787 45.6394C20.5411 45.6725 21.4327 45.6064 21.9611 45.3752C22.0272 44.8138 22.0272 44.3185 21.9611 43.8892C21.4657 44.3185 20.5741 45.1441 20.0787 45.6394Z" fill="#FFDB00"/>
<path fill-rule="evenodd" clip-rule="evenodd" d="M19.7816 49.9326C19.7816 49.9987 19.7816 50.0317 19.7816 50.0647C19.8477 50.1638 19.9467 50.2298 20.0128 50.2298C20.244 50.2629 20.6402 50.3619 21.697 49.6024C21.7631 49.5033 21.8621 49.3712 21.9612 49.2391C22.1594 48.9749 22.3575 48.7107 22.5226 48.4465C22.1924 48.0502 22.0273 47.72 21.9282 47.4558C21.0365 48.2814 20.0458 49.4042 19.7816 49.9326Z" fill="#FFDB00"/>
<path fill-rule="evenodd" clip-rule="evenodd" d="M4.68958 59.0473C5.87844 59.2784 7.36453 59.2784 9.21388 57.8254C10.3697 54.8202 11.4265 52.2113 12.9456 50.461C12.8135 50.3289 12.7144 50.1968 12.6154 49.9987C11.6907 50.461 10.9972 50.7252 10.4027 50.461C10.1716 50.3619 9.97343 50.1968 9.80831 49.9326L9.74226 49.9656C9.2469 50.2298 8.75154 50.5271 7.85989 50.5931C6.07659 53.6974 5.08586 56.3393 4.68958 59.0473Z" fill="#FFDB00"/>
<path fill-rule="evenodd" clip-rule="evenodd" d="M7.19934 49.6352C7.26539 49.6682 7.39749 49.7012 7.56261 49.7012C8.38821 49.7012 8.81752 49.4701 9.31288 49.1729C9.41195 49.1398 9.51103 49.0738 9.6101 49.0077C9.94034 47.6207 11.2283 45.8044 13.1107 44.1862C12.5162 44.1532 12.0539 44.0211 11.7236 43.7239C9.90732 45.0779 7.72773 47.1914 7.19934 49.6352Z" fill="#FFDB00"/>
<path fill-rule="evenodd" clip-rule="evenodd" d="M12.5162 43.1626C13.0116 43.3938 13.8702 43.2617 14.5637 43.0305L14.6958 42.9975C16.0168 42.0398 17.3708 41.3793 18.5596 41.0821C18.3615 40.8179 18.2294 40.5537 18.1634 40.3225C16.8424 40.7188 14.6628 41.6765 12.5162 43.1626Z" fill="#FFDB00"/>
<path fill-rule="evenodd" clip-rule="evenodd" d="M4.8877 72.2238C4.35932 80.0505 5.11887 86.0609 5.77935 87.6791C6.27472 88.7689 6.9352 90.0568 7.33149 90.7503L8.7185 84.1785C8.09104 82.4943 7.7608 80.0835 7.72778 77.0453L7.69475 76.7811C7.69475 76.55 7.69475 76.2527 7.69475 76.1537L6.43984 72.488C6.24169 72.455 5.94448 72.2898 5.54819 72.0257C5.48214 71.9596 5.44911 71.9266 5.38307 71.8936C5.25097 72.0257 5.05282 72.1247 4.8877 72.2238Z" fill="#FFDB00"/>
<path fill-rule="evenodd" clip-rule="evenodd" d="M14.927 92.963C15.2572 93.0621 15.5545 93.2933 16.6112 93.0621C17.701 92.8309 17.7671 92.5007 18.0313 92.2695C17.2057 92.6328 16.0828 92.897 14.927 92.963Z" fill="#FFDB00"/>
<path fill-rule="evenodd" clip-rule="evenodd" d="M13.6722 91.0805C13.5731 91.2787 13.474 91.5429 13.5401 91.741C13.6061 92.0052 14.0354 92.1043 14.0684 92.1043C16.1159 92.1043 18.2625 91.4438 18.3616 91.1466C18.4276 90.9815 18.3946 90.8824 18.3946 90.8494C16.7764 91.1466 15.7857 91.2126 14.4978 91.2457C14.2666 91.2126 13.9364 91.1796 13.6722 91.0805Z" fill="#FFDB00"/>
<path fill-rule="evenodd" clip-rule="evenodd" d="M16.9415 93.7225C17.0076 94.1518 17.2387 95.3407 17.536 95.836C17.8662 96.3974 19.4514 97.19 19.7156 97.157C19.7816 97.124 19.8476 97.091 19.9137 97.0579C19.9797 97.0249 20.0458 96.9919 20.0788 96.9919C20.2109 96.7277 20.2109 95.2086 19.8807 94.6141C19.6165 94.0858 18.7579 93.3592 18.4606 93.062C18.0313 93.3592 17.5029 93.5574 16.9415 93.7225Z" fill="#FFDB00"/>
<path fill-rule="evenodd" clip-rule="evenodd" d="M8.91665 80.9092C9.04875 82.0981 9.27992 83.0888 9.57713 83.9144L10.733 86.1601C10.766 85.9289 10.799 85.7638 10.832 85.6977C10.6339 85.1033 10.1055 83.0888 10.0725 82.9237L8.71851 79.0269C8.75153 79.6213 8.81758 80.2487 8.88363 80.8102L8.91665 80.9092Z" fill="#FFDB00"/>
<path fill-rule="evenodd" clip-rule="evenodd" d="M14.4316 88.0753C14.9931 88.3395 15.7196 88.6367 15.9177 88.6367C16.0498 88.6367 16.1489 88.6036 16.2149 88.5706C15.6205 88.1083 14.9931 87.6459 14.7949 87.5469C14.7289 87.6129 14.5968 87.8441 14.4316 88.0753Z" fill="#FFDB00"/>
<path fill-rule="evenodd" clip-rule="evenodd" d="M7.33154 72.3559C8.65251 76.1207 10.7991 82.2301 10.8981 82.6594C10.9642 82.8245 10.9972 83.0557 11.0633 83.3529C11.2284 83.9804 11.5586 85.3014 11.6577 85.4995C11.7898 85.6646 12.3842 86.0279 12.8135 86.0939C13.2098 86.127 14.0685 85.6976 14.1675 85.4995C14.3326 85.2353 14.4647 84.5418 14.3987 84.3106C14.3326 84.1125 13.7052 83.1878 13.3089 82.5934C13.1108 82.2962 12.9456 82.032 12.8135 81.8668C12.5163 81.3715 9.11484 75.1299 7.59574 72.2568C7.49666 72.2899 7.39759 72.3229 7.33154 72.3559Z" fill="#FFDB00"/>
<path fill-rule="evenodd" clip-rule="evenodd" d="M13.3418 89.066C13.1767 89.2972 13.0116 89.6604 13.0777 89.7925C13.1437 89.9907 14.0684 90.3209 14.2995 90.3209C15.6205 90.3209 17.668 90.1558 17.9652 90.0237C18.0313 89.9907 18.0643 89.8256 18.0313 89.5614C17.9652 89.2972 17.8661 89.1321 17.8001 89.1321H17.0405C16.9085 89.2972 16.5122 89.5944 15.9508 89.5944C15.3563 89.5944 14.2005 89 13.8372 88.7688L13.3418 89.066Z" fill="#FFDB00"/>
<path fill-rule="evenodd" clip-rule="evenodd" d="M18.3945 90.1559V89.6275C18.4276 89.3963 18.3615 89.2312 18.2294 89.0661L17.8992 88.7358H20.0127L19.5174 89.0991C19.2201 89.3303 19.1211 89.4293 18.8569 89.6935L18.3945 90.1559Z" fill="#FFDB00"/>
<path fill-rule="evenodd" clip-rule="evenodd" d="M32.5288 22.2254C32.9251 22.2254 33.2554 21.9282 33.2554 21.5319C33.2554 21.1356 32.9251 20.8384 32.5288 20.8384C32.1325 20.8384 31.8353 21.1356 31.8353 21.5319C31.8353 21.9282 32.1325 22.2254 32.5288 22.2254Z" fill="#FFDB00"/>
<path fill-rule="evenodd" clip-rule="evenodd" d="M31.5051 13.3088L32.1656 14.8609L32.9912 14.1344L32.2977 12.4832C32.0996 12.6153 31.9675 12.7473 31.8354 12.8794C31.7033 13.0115 31.6042 13.1436 31.5051 13.3088Z" fill="#FFDB00"/>
<path fill-rule="evenodd" clip-rule="evenodd" d="M32.3638 22.8858C32.5289 23.183 32.727 23.4803 32.9252 23.7775C32.9582 23.4472 33.0573 23.117 33.2884 22.8528C33.2554 22.8198 33.2554 22.7868 33.2224 22.7207C32.9582 22.8858 32.661 22.9519 32.3638 22.8858Z" fill="#FFDB00"/>
<path fill-rule="evenodd" clip-rule="evenodd" d="M30.6135 15.9177C30.7456 15.9177 30.8777 15.9507 31.0098 15.9507L31.7033 15.2903L31.1089 13.9363C30.8447 14.4977 30.6796 15.1582 30.6135 15.9177Z" fill="#FFDB00"/>
<path fill-rule="evenodd" clip-rule="evenodd" d="M31.406 19.3852L32.0335 20.2108C32.0996 20.2108 32.1656 20.1778 32.2316 20.1778C32.1326 20.0457 31.9675 19.8476 31.8354 19.7155L31.6702 19.5503L33.9819 18.9889L31.0758 17.1726L33.2884 18.9229L31.406 19.3852Z" fill="#FFDB00"/>
<path fill-rule="evenodd" clip-rule="evenodd" d="M30.7125 17.8662C30.7125 18.1634 30.7125 18.4606 30.7455 18.7579L31.5712 18.5267L30.7125 17.8662Z" fill="#FFDB00"/>
<path fill-rule="evenodd" clip-rule="evenodd" d="M69.7141 86.6882C69.7471 86.0938 68.4261 84.7728 68.4261 84.7728L67.2042 84.4756C67.2042 84.4756 67.7326 85.2682 67.7656 86.1268C67.7656 86.9524 67.4684 87.811 67.4684 87.811C68.0628 87.745 69.648 87.2496 69.7141 86.6882Z" fill="#FFDB00"/>
<path fill-rule="evenodd" clip-rule="evenodd" d="M59.4435 87.4479C59.5425 87.4479 59.6086 87.4479 59.6746 87.4479C60.0379 87.4809 60.9296 87.8111 62.3826 88.3395C64.0999 88.967 66.5106 89.8586 67.2702 89.8586C67.8316 89.8256 69.3837 89.2972 69.8791 88.9339C70.4735 88.5046 71.3652 87.613 71.3321 86.9855C71.2661 86.292 70.5065 85.3343 70.5065 85.3343C70.3744 85.0701 69.813 84.905 69.2847 84.8389C69.78 85.3343 70.5065 86.226 70.4075 86.7543C70.2754 87.4148 69.6809 87.9102 68.5581 88.2404C67.8316 88.4716 66.9399 88.5376 66.9069 88.5376H66.6097L66.7088 88.2735C66.7088 88.2404 67.072 87.0516 67.1051 86.1599C67.1381 85.4334 66.5437 84.5417 66.2464 84.2115C66.0813 84.0133 65.586 83.8482 65.0245 83.8482C65.3218 84.2445 65.7841 84.938 65.9162 85.4664C66.1804 86.6222 65.8501 87.5799 65.1236 87.8441C64.6943 87.9762 64.0338 87.5799 62.9771 86.8534C62.4817 86.5232 61.8212 86.0278 61.6231 86.0608C61.557 86.0939 61.4579 86.0939 61.4249 86.1269L61.2598 86.292C61.2268 86.325 61.1607 86.3581 61.1277 86.4241C61.0617 86.5232 61.0286 86.6222 61.0286 86.6553L60.9956 86.8204H60.8305C57.8583 86.9525 57.5941 86.7213 57.4951 86.6222C57.363 86.4902 57.2639 86.325 57.2639 86.1599C57.2309 85.4994 57.9244 84.7399 57.9904 84.6738C58.1555 84.4757 58.3207 84.3106 58.4858 84.2115C58.2546 84.0464 58.0895 83.9143 57.9244 83.6831C57.7592 84.0794 57.462 84.6078 56.8676 85.0041C55.9759 85.5985 55.2824 85.6646 54.9852 85.6646C54.8201 86.1269 54.5229 86.9855 54.4899 87.2827C54.4568 87.4479 54.5229 87.679 54.655 87.8441C54.721 87.9102 54.8201 88.0093 54.9852 88.0423C55.1503 88.0423 55.8769 87.9432 56.5704 87.8111C57.6271 87.646 58.783 87.4479 59.4435 87.4479Z" fill="#FFDB00"/>
<path fill-rule="evenodd" clip-rule="evenodd" d="M38.9356 7.00129H43.0636L41.4784 4.12819L44.2855 5.7794V1.75046L41.4784 3.40166L43.0636 0.528564H38.9686L40.5538 3.40166L37.7467 1.75046V5.7794L40.5538 4.12819L38.9356 7.00129Z" fill="#FFDB00"/>
<path fill-rule="evenodd" clip-rule="evenodd" d="M71.8936 86.4573C72.0257 86.2261 72.1578 85.9619 72.2899 85.6977L71.3652 85.4666C71.5634 85.6647 71.8936 86.4573 71.8936 86.4573Z" fill="#FFDB00"/>
<path fill-rule="evenodd" clip-rule="evenodd" d="M62.1185 80.3477C61.6891 81.0081 61.3919 81.7347 61.2268 82.5603L63.8357 83.1877C64.7934 83.0556 65.8502 83.2538 66.4116 83.551C66.94 83.8152 66.973 83.9143 66.973 83.9143L68.1288 84.1785C69.2186 84.0133 70.5726 84.4426 71.035 84.905L72.455 85.2352C72.6201 84.7068 72.6862 84.1454 72.6862 83.551C72.6862 83.3198 72.6862 83.0887 72.6531 82.8575L62.1185 80.3477Z" fill="#FFDB00"/>
<path fill-rule="evenodd" clip-rule="evenodd" d="M70.1104 77.9039C71.4974 78.6634 72.5211 79.8853 73.0495 81.3384C73.0825 81.1733 73.1155 80.9751 73.1155 80.81C73.2476 79.7862 73.3137 78.5974 73.3467 77.2434C73.3467 77.0452 73.3137 75.2289 73.2807 73.4456C73.2476 72.2237 73.2146 71.0018 73.2146 70.3083C72.2899 70.1102 71.5964 69.813 70.5727 68.9543C70.5727 69.0534 70.6057 69.1195 70.6057 69.2185V69.3837L70.2755 69.4497C70.3415 70.1102 70.3745 70.7376 70.4076 71.3981L70.4406 72.0586C70.4406 72.1907 70.4406 72.3558 70.4406 72.5209L71.0681 72.62L70.8039 72.9503L71.2332 72.7851L70.5397 76.5499L70.2755 76.3187C70.2094 77.0452 70.1434 77.5736 70.1104 77.9039Z" fill="#FFDB00"/>
<path fill-rule="evenodd" clip-rule="evenodd" d="M73.3796 84.5418L74.7006 90.7503C75.0639 90.0568 75.7574 88.7689 76.2197 87.6791C76.7811 86.3581 77.8049 80.4468 77.0783 71.5303L77.0453 71.4973C76.682 71.2331 76.4179 71.0349 75.7904 70.2754C75.3941 70.3745 74.7006 70.4075 74.1722 70.4075C74.1722 71.3982 74.2383 73.875 74.2383 75.0969C74.2713 75.4932 74.2713 75.7904 74.2713 75.7904C74.2713 77.3756 74.2383 79.4891 73.9741 81.3715C73.842 82.2631 73.6769 83.0557 73.4457 83.7492C73.4457 84.0134 73.4127 84.2776 73.3796 84.5418Z" fill="#FFDB00"/>
<path fill-rule="evenodd" clip-rule="evenodd" d="M14.729 86.6222C15.1583 86.6222 15.7527 87.0846 16.5453 87.679C16.8756 87.9102 17.1728 88.1083 17.3049 88.1744C17.7012 88.3725 19.7156 88.4056 20.211 88.2404C20.3761 88.2074 20.5743 88.1083 20.8054 87.9762C21.2017 87.7781 21.6971 87.5139 22.2915 87.4479C22.8529 87.3818 24.2069 87.613 25.3958 87.8111C26.0893 87.9432 26.8158 88.0423 26.9809 88.0423C27.146 88.0093 27.2451 87.9102 27.3112 87.8441C27.4433 87.679 27.5093 87.4479 27.4763 87.2827C27.4433 86.9855 27.146 86.1269 26.9809 85.6646C26.6837 85.6646 25.9902 85.5985 25.0986 85.0041C24.5041 84.6078 24.2069 84.0794 24.0418 83.6831C23.9097 83.9143 23.7115 84.0464 23.4804 84.2115C23.6455 84.3106 23.8106 84.4757 23.9757 84.6738C24.0748 84.7399 24.7353 85.4994 24.7023 86.1599C24.7023 86.325 24.6032 86.4902 24.4711 86.6222C23.9097 87.1176 18.9891 86.7213 18.4277 86.6553C18.0314 86.6222 17.3709 86.5232 16.7104 86.4241C15.9839 86.325 15.0923 86.1929 14.9271 86.1929C14.5969 86.226 13.7383 86.5892 13.309 86.9525C12.9127 87.2497 12.8466 87.8772 12.9457 88.1083C12.9787 88.2404 13.0117 88.2735 13.0117 88.2735C13.0117 88.2735 13.0448 88.2735 13.1438 88.2404C13.309 88.1744 13.441 88.0423 13.4741 87.9762C13.6062 87.712 14.1346 86.7543 14.6299 86.6553C14.6629 86.6553 14.696 86.6222 14.729 86.6222Z" fill="#FFDB00"/>
<path fill-rule="evenodd" clip-rule="evenodd" d="M27.3772 77.1772C26.3534 78.3991 25.2636 79.9843 24.8673 81.3713C24.372 83.1546 25.2306 84.0132 25.5278 84.2114C25.825 84.4756 26.2213 84.5746 26.5185 84.6407C26.2874 84.1784 25.9902 83.5509 25.825 82.8904V82.8244C25.6599 82.1969 25.4948 81.5364 25.825 80.3806C25.9902 79.8192 26.7497 78.3331 27.3772 77.1772Z" fill="#FFDB00"/>
<path fill-rule="evenodd" clip-rule="evenodd" d="M24.7022 91.2788C24.6692 91.51 24.6692 91.6751 24.6692 91.8732C24.7022 93.0291 25.9902 93.8877 26.7167 94.1849L27.0139 94.35L26.9809 94.6473C26.7827 96.7938 27.146 98.379 28.0376 99.3697C28.4339 99.799 29.0284 100.096 29.6889 100.294C28.6321 98.6102 27.0799 95.9352 28.4009 92.3356C27.9056 92.5667 27.4102 92.5667 26.9479 92.5667C26.4855 92.5337 25.2966 92.1705 24.7022 91.2788Z" fill="#FFDB00"/>
<path fill-rule="evenodd" clip-rule="evenodd" d="M37.0201 84.6738C35.9633 85.5655 34.8405 86.5892 33.5856 87.7451C33.2223 88.1083 32.8261 88.4056 32.4628 88.7358C31.6372 89.4293 30.7786 90.1558 29.9199 91.1796C29.2595 91.9722 28.7971 93.8215 28.7971 94.9773C28.7971 96.7276 29.5567 98.1477 30.3162 99.5347C30.6465 92.0382 34.081 87.2167 37.0862 85.3013L37.0201 84.6738Z" fill="#FFDB00"/>
<path fill-rule="evenodd" clip-rule="evenodd" d="M31.2079 100.756C31.8023 102.309 32.3968 103.398 33.1563 104.224C31.2409 96.001 33.7177 89.6934 37.2513 87.5468L37.1522 86.325C34.3452 88.4055 31.2079 93.3261 31.2079 100.756Z" fill="#FFDB00"/>
<path fill-rule="evenodd" clip-rule="evenodd" d="M31.307 77.5737C30.8777 78.4653 30.1181 80.3477 29.953 81.2393C30.2172 81.2063 30.4814 81.2063 30.7456 81.1733C31.0758 79.39 33.2224 77.3095 37.3834 76.5169L37.1192 74.6345L31.307 77.5737Z" fill="#FFDB00"/>
<path fill-rule="evenodd" clip-rule="evenodd" d="M27.1459 79.6872C26.9478 79.9514 26.5515 80.777 26.5515 81.6026C26.5845 82.3291 26.7827 82.9896 26.9808 83.4519C27.1129 83.0556 27.278 82.6924 27.5422 82.3952C28.0046 81.8338 28.7311 81.5696 29.0283 81.4705C29.0944 80.744 29.5897 79.2909 30.0521 78.2341L27.1459 79.6872Z" fill="#FFDB00"/>
<path fill-rule="evenodd" clip-rule="evenodd" d="M34.3453 105.248C35.0718 105.71 35.8974 106.008 36.8221 106.206C36.756 105.908 36.6569 105.644 36.5579 105.38C31.5712 102.573 34.6755 93.5905 37.3174 88.6699V88.5708C34.1141 90.8495 32.0996 97.1571 34.3453 105.248Z" fill="#FFDB00"/>
<path fill-rule="evenodd" clip-rule="evenodd" d="M25.3297 90.7172C25.5279 90.9814 25.8581 91.3117 26.3204 91.5428C26.8488 91.8401 27.7074 92.0052 28.6651 91.1796C29.821 89.9577 31.0099 88.8679 32.1657 87.8441C32.4299 87.5799 32.7271 87.3158 32.9913 87.0846C34.3123 85.8627 35.6663 84.6078 36.9542 83.551L36.8551 82.197C35.8974 84.1124 33.1894 87.4148 30.9438 87.4809C30.5145 87.7781 30.0852 88.2074 29.6559 88.6697C28.7972 89.5614 27.8395 90.5521 26.6507 90.8493H26.5516C26.1223 90.9154 25.66 90.8493 25.3297 90.7172Z" fill="#FFDB00"/>
<path fill-rule="evenodd" clip-rule="evenodd" d="M39.9593 94.1519C38.1099 98.7422 38.275 102.804 40.5207 106.899V97.7845L39.9593 94.1519Z" fill="#FFDB00"/>
<path fill-rule="evenodd" clip-rule="evenodd" d="M31.6703 81.2064C32.0666 81.2394 32.4298 81.3385 32.8261 81.4376L32.9252 81.4706C33.5196 81.6357 34.081 81.7678 34.6094 81.7018C34.7085 81.7018 34.7746 81.6687 34.8736 81.6357C35.5671 81.4376 36.2606 80.2817 36.6899 79.357L37.3835 77.4747C34.1471 78.1682 32.0336 79.5222 31.6703 81.2064ZM37.4495 77.4747L38.3742 90.8825L38.3081 91.0146C35.0387 96.6947 36.2606 102.012 37.9118 106.47C38.0109 106.668 38.143 106.833 38.4072 107.163C38.6384 107.428 38.9356 107.824 39.3649 108.418C39.6621 108.815 40.1245 109.277 40.4877 109.673L40.5207 109.706V108.649C36.0955 101.946 37.9449 96.2324 39.7282 92.4676L37.5156 77.4417C37.4825 77.4747 37.4495 77.4747 37.4495 77.4747Z" fill="#FFDB00"/>
<path fill-rule="evenodd" clip-rule="evenodd" d="M37.4494 90.4199C36.5908 90.7502 32.9251 100.789 36.1284 103.927C35.2037 100.591 35.3689 95.9349 37.4494 90.6841V90.4199Z" fill="#FFDB00"/>
<path fill-rule="evenodd" clip-rule="evenodd" d="M56.2402 80.3147C56.5374 81.5035 56.3723 82.131 56.2402 82.7584L56.2072 82.8245C56.042 83.485 55.7448 84.1124 55.5467 84.5748C55.8109 84.5417 56.2072 84.4097 56.5374 84.1785C56.8016 83.9473 57.6602 83.1217 57.1649 81.3384C56.8016 79.9184 55.6788 78.3332 54.655 77.1113C55.2825 78.2672 56.0751 79.7533 56.2402 80.3147Z" fill="#FFDB00"/>
<path fill-rule="evenodd" clip-rule="evenodd" d="M55.0844 92.5005C54.622 92.5335 54.1597 92.5005 53.6313 92.3024C54.9523 95.869 53.4332 98.5439 52.3434 100.228C53.0369 100.063 53.6313 99.7328 53.9946 99.3035C54.9193 98.3458 55.2495 96.7606 55.0514 94.581V94.2838L55.3156 94.1517C56.0751 93.8215 57.33 92.9959 57.363 91.84C57.3961 91.6419 57.3961 91.4438 57.363 91.2456C56.7686 92.1042 55.5467 92.4675 55.0844 92.5005Z" fill="#FFDB00"/>
<path fill-rule="evenodd" clip-rule="evenodd" d="M44.979 85.2354C47.9512 87.1508 51.4187 91.9723 51.7489 99.4688C52.5085 98.1148 53.235 96.6617 53.2681 94.9114C53.2681 93.7886 52.7727 91.9062 52.1122 91.1137C51.2866 90.0899 50.428 89.3634 49.6024 88.6699C49.2061 88.3727 48.8428 88.0424 48.4465 87.6792C47.1916 86.5563 46.0688 85.5326 45.012 84.6079L44.979 85.2354Z" fill="#FFDB00"/>
<path fill-rule="evenodd" clip-rule="evenodd" d="M44.9129 86.292L44.8138 87.4809C48.3474 89.6274 50.7912 95.935 48.9088 104.191C49.6354 103.365 50.2628 102.243 50.8573 100.69C50.8242 93.2601 47.6869 88.3395 44.9129 86.292Z" fill="#FFDB00"/>
<path fill-rule="evenodd" clip-rule="evenodd" d="M44.946 74.6016L44.6818 76.4509C48.8098 77.2765 50.9563 79.324 51.2866 81.1403C51.5838 81.1403 51.848 81.1734 52.0792 81.2064C51.914 80.3147 51.1545 78.3993 50.7252 77.5077L44.946 74.6016Z" fill="#FFDB00"/>
<path fill-rule="evenodd" clip-rule="evenodd" d="M52.0131 78.1682C52.4424 79.258 52.9708 80.678 53.0368 81.4046C53.334 81.5036 54.0275 81.8009 54.5229 82.3623C54.7541 82.6595 54.9522 82.9897 55.0513 83.386C55.2824 82.9567 55.4806 82.2962 55.4806 81.5367C55.5136 80.7111 55.1173 79.8855 54.9192 79.6543L52.0131 78.1682Z" fill="#FFDB00"/>
<path fill-rule="evenodd" clip-rule="evenodd" d="M44.7477 88.5046L44.7147 88.6037C47.3897 93.5243 50.4609 102.507 45.4743 105.314C45.4082 105.611 45.3092 105.875 45.2101 106.14C46.1678 105.941 46.9934 105.644 47.6869 105.182C49.9656 97.0909 47.9511 90.7833 44.7477 88.5046Z" fill="#FFDB00"/>
<path fill-rule="evenodd" clip-rule="evenodd" d="M55.4806 90.8164L55.4146 90.7833C54.2257 90.4861 53.268 89.4954 52.4094 88.6368C51.9471 88.1744 51.5178 87.7121 51.1215 87.4479C48.8758 87.3819 46.1679 84.0464 45.1771 82.1641L45.1111 83.485C46.366 84.5748 47.753 85.8297 49.074 87.0186C49.3382 87.2828 49.6024 87.514 49.8996 87.7782C51.0224 88.8349 52.2443 89.8917 53.3671 91.1136C54.3248 91.9392 55.1834 91.7741 55.7448 91.5099C56.1742 91.2787 56.5044 90.9485 56.7356 90.6513C56.3723 90.7833 55.943 90.8494 55.4806 90.8164Z" fill="#FFDB00"/>
<path fill-rule="evenodd" clip-rule="evenodd" d="M41.5444 97.7183V106.833C43.7901 102.771 43.9552 98.676 42.0728 94.0857L41.5444 97.7183Z" fill="#FFDB00"/>
<path fill-rule="evenodd" clip-rule="evenodd" d="M44.6817 77.4415L45.3752 79.2908C45.7715 80.2485 46.498 81.4044 47.1585 81.6025C47.2576 81.6355 47.3567 81.6355 47.4557 81.6355C47.9841 81.7346 48.5455 81.5695 49.107 81.4374L49.239 81.4044C49.6023 81.3053 49.9986 81.2062 50.3619 81.1402C49.9986 79.489 47.9181 78.102 44.6817 77.4415ZM44.5166 77.4084L42.337 92.4344C44.1203 96.1661 45.9366 101.879 41.5444 108.583V109.64L41.5775 109.607C41.9407 109.211 42.37 108.748 42.6673 108.352C43.1296 107.758 43.4268 107.394 43.625 107.13C43.9222 106.8 44.0212 106.635 44.1533 106.437C45.7715 101.978 46.9934 96.6285 43.724 90.9483L43.658 90.8493L44.6157 77.4084C44.5826 77.4084 44.5496 77.4084 44.5166 77.4084Z" fill="#FFDB00"/>
<path fill-rule="evenodd" clip-rule="evenodd" d="M44.5826 90.6182C46.6962 95.869 46.8283 100.525 45.9366 103.861C49.1069 100.724 45.4743 90.7173 44.6157 90.354L44.5826 90.6182Z" fill="#FFDB00"/>
<path fill-rule="evenodd" clip-rule="evenodd" d="M37.5486 38.7045C37.7798 39.1007 38.7375 40.6199 39.3319 41.4785L40.0914 36.4918C39.6951 36.3267 39.0677 36.0295 38.7705 35.8974C38.3742 35.6993 37.9449 35.4681 37.5486 35.303V38.7045Z" fill="#FFDB00"/>
<path fill-rule="evenodd" clip-rule="evenodd" d="M32.0665 53.5322L33.6187 54.3248L33.5856 52.4094L32.0665 53.5322Z" fill="#FFDB00"/>
<path fill-rule="evenodd" clip-rule="evenodd" d="M35.2699 55.1505L36.822 55.9431L36.1615 53.7305L35.2699 55.1505Z" fill="#FFDB00"/>
<path fill-rule="evenodd" clip-rule="evenodd" d="M31.5381 28.6979V28.731C31.5381 28.764 31.5711 28.8631 31.7032 29.0282C32.4958 29.9198 35.8312 30.9106 38.9025 31.1417C37.4824 30.4152 36.4257 29.7877 35.7652 29.3254L35.1377 29.2263C33.8167 28.9952 32.6609 28.83 31.5711 28.5989C31.5711 28.6319 31.5381 28.6649 31.5381 28.6979Z" fill="#FFDB00"/>
<path fill-rule="evenodd" clip-rule="evenodd" d="M36.5908 52.079L37.3834 54.5889L37.9448 50.7581C37.5485 51.1874 36.9541 51.8148 36.5908 52.079Z" fill="#FFDB00"/>
<path fill-rule="evenodd" clip-rule="evenodd" d="M34.5764 50.362V54.5891L36.1285 52.0132L35.8313 47.0596C34.9396 48.6447 33.7508 49.8006 32.3307 50.4941C31.5382 50.8904 30.2832 51.1215 30.2502 51.1215L29.7879 51.2206L30.0191 50.8243C30.4814 50.0648 31.5051 48.4796 32.0665 47.5549C31.1088 48.0173 29.92 48.4466 29.3586 48.5787C28.9293 48.6778 28.3018 48.7438 27.6743 48.5457C27.6743 48.5457 26.5185 48.1494 25.4287 46.9275C24.9003 46.3 24.2729 45.2432 24.1408 44.3846C23.9426 42.9646 23.4473 41.9078 22.5886 41.0492C22.0602 40.5208 21.3337 40.2896 21.0365 40.2236H21.0035L20.8384 40.1575C20.31 40.0585 19.7155 40.0254 19.0551 40.1245C19.1541 40.3557 19.3523 40.6859 19.5834 40.9171C20.6732 40.9501 21.5649 41.3134 22.1593 41.9739C23.084 42.9976 22.8858 44.7809 22.7207 45.9368C22.6877 46.3661 22.6217 46.7624 22.6547 46.9275C22.8858 47.8522 24.1077 48.9089 25.0985 49.7345C25.4287 50.0317 26.7497 50.9234 27.7404 51.4188L31.0098 53.0039L34.5764 50.362Z" fill="#FFDB00"/>
<path fill-rule="evenodd" clip-rule="evenodd" d="M28.8962 46.9273C29.2595 47.0264 29.7879 47.1585 30.3493 47.1255C30.5805 47.1255 31.5051 46.9934 33.0243 46.0027L34.3452 44.7808C34.3452 44.7808 34.7745 43.5258 34.6424 41.9077C34.6094 41.6104 34.5764 41.2472 34.5434 40.8839C34.015 42.7993 33.1563 43.9882 32.0005 44.3845C31.8354 44.6156 31.6042 44.9459 31.307 45.3091L31.2079 45.4082C30.8777 45.7054 29.986 46.465 28.8962 46.9273ZM36.6569 43.1296L37.0202 50.2958C37.1192 50.1967 37.2183 50.0976 37.3174 49.9986C37.6146 49.7014 37.9118 49.4041 38.176 49.1399L39.1007 42.9314C38.6714 42.304 37.9118 41.049 37.4495 40.3225C37.2183 42.304 33.3215 45.3091 33.3215 45.3091C33.2554 45.4412 32.5619 48.5125 31.8024 49.7674C33.5196 49.0078 34.9066 47.3236 35.7983 44.9789L36.6569 43.1296Z" fill="#FFDB00"/>
<path fill-rule="evenodd" clip-rule="evenodd" d="M31.6703 36.2937C31.9344 36.8221 32.3968 37.8128 32.661 38.9357C32.8591 38.4733 32.9912 37.9119 33.0242 37.2845C33.1233 36.0956 32.727 34.2793 32.727 34.2462L32.628 33.85L33.4866 34.2462C34.6424 34.8407 35.6992 35.7984 36.6239 37.1524V34.0151L37.2183 34.2132C37.8458 34.4114 38.4402 34.7086 39.0346 35.0058C38.3081 33.916 37.2183 32.1657 36.9871 31.7364C35.435 31.5052 32.0335 30.8778 30.9767 29.6559C30.9437 29.6229 30.9437 29.5898 30.9107 29.5898C30.6465 29.821 30.3163 29.9531 29.953 30.0192C30.0521 30.8117 30.4153 31.7364 30.7126 32.3639L30.7786 32.4629V33.6518L30.8447 33.7509C31.4061 34.5435 32.0005 35.3691 31.6703 36.2937Z" fill="#FFDB00"/>
<path fill-rule="evenodd" clip-rule="evenodd" d="M32.8261 40.3224V40.6857C32.8261 41.4783 32.7931 42.1388 32.5289 42.9974C34.5434 40.8838 34.4774 37.053 34.4774 37.053C34.4774 37.053 36.0295 40.0252 35.369 42.3039C36.0295 41.3462 36.6239 40.7187 36.6239 38.9354C36.0625 37.8786 35.1709 36.4916 33.8829 35.5339C33.982 36.2935 33.982 36.987 33.9159 37.6145C33.8169 38.7373 33.4536 39.6289 32.8261 40.3224Z" fill="#FFDB00"/>
<path fill-rule="evenodd" clip-rule="evenodd" d="M28.0707 27.6743C28.533 28.632 29.1274 29.1604 29.4577 29.1604C30.0191 29.1604 30.5805 28.8632 30.6796 28.3678L28.0707 27.6743Z" fill="#FFDB00"/>
<path fill-rule="evenodd" clip-rule="evenodd" d="M25.6599 26.7827L29.6228 32.0996C29.3586 31.4391 29.0944 30.6796 29.0284 29.9861C28.1367 29.6888 27.3441 28.4669 26.9148 27.2781C26.4525 27.146 26.0232 26.9478 25.6599 26.7827Z" fill="#FFDB00"/>
<path fill-rule="evenodd" clip-rule="evenodd" d="M21.796 29.6229C21.8291 29.6229 21.8621 29.6229 21.8951 29.6229C23.117 29.6559 23.9426 30.0522 24.7022 30.4485C25.0984 30.6136 25.4287 30.7787 25.7919 30.9108C25.858 30.9108 27.212 31.3401 28.1697 31.6704L24.2068 26.3865C24.0086 26.3205 23.084 26.1553 21.6309 26.7498C21.0035 26.9809 20.5411 27.4102 20.3099 28.0047C20.0127 28.6652 20.0127 29.4908 20.2439 30.3164C20.2769 30.2503 20.3099 30.2173 20.343 30.1843C20.7062 29.821 21.2016 29.6229 21.796 29.6229Z" fill="#FFDB00"/>
<path fill-rule="evenodd" clip-rule="evenodd" d="M17.2057 31.1748C18.5927 32.859 20.7723 33.7507 23.6784 33.8167C24.0747 32.859 25.0984 32.2976 26.5845 32.0995C26.2873 32.0004 25.9901 31.9013 25.858 31.8683C24.9994 32.1986 20.9044 32.2976 19.9467 32.1325C18.956 32.0004 18.1634 31.6371 17.2057 31.1748Z" fill="#FFDB00"/>
<path fill-rule="evenodd" clip-rule="evenodd" d="M25.3297 25.6267C27.3112 26.7165 30.1843 27.5091 34.8407 28.3017C35.6332 28.4007 36.3267 28.4668 36.8551 28.4338C35.5011 27.9054 33.4536 27.0798 31.5052 26.2542C29.2926 25.3295 26.8158 24.3058 26.5186 24.2727C26.0232 24.2397 25.4948 25.0323 25.3297 25.6267Z" fill="#FFDB00"/>
<path fill-rule="evenodd" clip-rule="evenodd" d="M27.5753 32.9583C26.0892 32.9583 24.7022 33.3215 24.438 34.3783C24.2069 35.2369 24.2069 36.0625 24.438 36.8881C25.1315 35.5341 26.0232 34.6755 27.8065 34.6755C28.9293 34.6755 29.9861 34.9397 30.8117 35.5011C30.7126 35.1709 30.4484 34.8076 30.1182 34.2792L29.953 34.0811L29.2265 33.0903C28.6981 33.0243 28.1367 32.9583 27.5753 32.9583Z" fill="#FFDB00"/>
<path fill-rule="evenodd" clip-rule="evenodd" d="M49.4702 20.8384C49.107 20.8384 48.7767 21.1356 48.7767 21.5319C48.7767 21.9282 49.107 22.2254 49.4702 22.2254C49.8665 22.2254 50.1968 21.9282 50.1968 21.5319C50.1968 21.1356 49.8665 20.8384 49.4702 20.8384Z" fill="#FFDB00"/>
<path fill-rule="evenodd" clip-rule="evenodd" d="M50.4609 18.5267L51.2535 18.7579C51.2865 18.4606 51.3196 18.1634 51.3196 17.8662L50.4609 18.5267Z" fill="#FFDB00"/>
<path fill-rule="evenodd" clip-rule="evenodd" d="M48.7438 22.8197C48.9749 23.0509 49.107 23.3481 49.1731 23.6453C49.3712 23.3811 49.5033 23.15 49.6684 22.9188C49.3712 22.9518 49.074 22.8858 48.8098 22.7537C48.7768 22.7537 48.7768 22.7867 48.7438 22.8197Z" fill="#FFDB00"/>
<path fill-rule="evenodd" clip-rule="evenodd" d="M60.2031 84.0135L60.4012 84.1125C60.4012 83.9144 60.4012 83.7163 60.4012 83.5511C60.4012 83.1879 60.4343 82.7586 60.5003 82.3292V82.2632C60.071 82.032 59.7408 81.8669 59.4766 81.5697C58.6179 80.7441 58.1226 79.7534 57.6272 78.8287C57.4291 78.4985 57.264 78.2012 57.0988 77.871C56.2402 76.3519 55.3816 74.9319 53.8295 73.743C53.4332 73.5779 52.9708 73.3797 52.4755 73.2146L52.7397 73.776L53.0699 74.4365C55.943 76.7482 57.7263 79.5882 58.4198 82.8246C58.5189 83.2209 59.1794 83.6832 60.2361 84.0795L60.2031 84.0135Z" fill="#FFDB00"/>
<path fill-rule="evenodd" clip-rule="evenodd" d="M48.0172 19.022L50.461 19.6164L50.6261 19.3852L48.7437 18.9229L50.9233 17.1726L48.0172 19.022ZM49.8335 20.1778C49.8666 20.1778 49.9326 20.2108 49.9656 20.2108L50.3949 19.6494L50.2629 19.7815C50.1308 19.9136 49.9656 20.0457 49.8335 20.1778Z" fill="#FFDB00"/>
<path fill-rule="evenodd" clip-rule="evenodd" d="M32.7931 12.1199L33.4536 13.7051L34.1471 13.0446L33.5857 11.7236C33.2885 11.8557 33.0243 11.9548 32.7931 12.1199Z" fill="#FFDB00"/>
<path fill-rule="evenodd" clip-rule="evenodd" d="M66.907 77.8379C65.1237 77.8379 63.5055 78.6305 62.4487 79.9184L72.5541 82.3292C71.9927 79.7533 69.681 77.8379 66.907 77.8379Z" fill="#FFDB00"/>
<path fill-rule="evenodd" clip-rule="evenodd" d="M70.4076 67.5674C71.4643 68.5912 72.2239 69.1526 72.8514 69.3507C73.0165 69.4168 73.5118 69.5159 73.6439 69.5159C74.4035 69.5819 74.8988 69.5819 75.13 69.5489C75.097 69.3177 75.0309 68.9875 74.9979 68.8554L74.9649 68.8224C73.776 63.7036 72.7853 62.1515 71.7285 60.5003C71.6295 60.3021 71.4974 60.104 71.3653 59.9389C70.1764 59.9059 69.2517 59.5426 68.5252 59.1133C68.5582 59.3444 68.5912 59.5756 68.5912 59.5756L68.6243 59.8398H68.3931C68.3931 59.8398 68.261 59.8398 68.1289 59.8398C69.1857 61.8213 69.9783 64.5623 70.4076 67.5674Z" fill="#FFDB00"/>
<path fill-rule="evenodd" clip-rule="evenodd" d="M60.4342 76.8473C60.9626 77.3757 61.2268 77.7059 61.6231 78.4324C61.7221 78.5976 61.8542 78.8618 61.9863 79.1259L62.0524 79.225C62.1515 79.159 62.2505 79.0269 62.3826 78.9278L62.2505 78.4985C62.0194 77.4747 61.59 76.6491 60.9296 75.9226C60.7644 76.2859 60.5663 76.6491 60.4342 76.8473Z" fill="#FFDB00"/>
<path fill-rule="evenodd" clip-rule="evenodd" d="M67.1382 77.2766C67.9308 77.3096 68.7233 77.5077 69.4168 77.805C69.4499 77.4417 69.5489 76.7482 69.582 76.418L67.4024 76.0547L67.1382 77.2766Z" fill="#FFDB00"/>
<path fill-rule="evenodd" clip-rule="evenodd" d="M39.2988 12.186L39.497 13.3089L39.7612 12.5163L39.2988 12.186Z" fill="#FFDB00"/>
<path fill-rule="evenodd" clip-rule="evenodd" d="M39.9593 15.9507L40.1905 14.993L39.6621 14.2004L39.9593 15.9507Z" fill="#FFDB00"/>
<path fill-rule="evenodd" clip-rule="evenodd" d="M40.6858 14.5637H41.3463L41.9737 13.639L41.7096 12.8464H40.3225L40.0583 13.639L40.6858 14.5637Z" fill="#FFDB00"/>
<path fill-rule="evenodd" clip-rule="evenodd" d="M40.1575 9.97331H41.8748L42.7004 9.4119L42.205 8.65234H39.8273L39.3319 9.4119L40.1575 9.97331Z" fill="#FFDB00"/>
<path fill-rule="evenodd" clip-rule="evenodd" d="M38.6714 19.6824C39.1998 20.1447 39.6951 20.6731 40.2235 21.2345L39.53 18.8237L38.6714 19.6824Z" fill="#FFDB00"/>
<path fill-rule="evenodd" clip-rule="evenodd" d="M38.8695 9.87427L39.1007 11.0962L39.6291 10.3696L38.8695 9.87427Z" fill="#FFDB00"/>
<path fill-rule="evenodd" clip-rule="evenodd" d="M36.4257 11.0632C36.1946 11.0632 35.9634 11.0963 35.7653 11.1293L35.8974 11.5256L36.4257 11.0632Z" fill="#FFDB00"/>
<path fill-rule="evenodd" clip-rule="evenodd" d="M34.8735 13.2097L35.4019 14.4976L36.0954 13.8371L35.6661 12.4832L34.8735 13.2097Z" fill="#FFDB00"/>
<path fill-rule="evenodd" clip-rule="evenodd" d="M34.147 11.4924L34.6093 12.6152L35.4349 11.8557L35.2368 11.2612C34.8405 11.3273 34.4772 11.3933 34.147 11.4924Z" fill="#FFDB00"/>
<path fill-rule="evenodd" clip-rule="evenodd" d="M38.176 18.0642L38.4732 19.0219L39.3319 18.1633L39.0347 17.2056L38.176 18.0642Z" fill="#FFDB00"/>
<path fill-rule="evenodd" clip-rule="evenodd" d="M37.4825 16.0498L37.9449 17.4368L38.8696 16.5451L38.4733 15.1912L37.4825 16.0498Z" fill="#FFDB00"/>
<path fill-rule="evenodd" clip-rule="evenodd" d="M36.7889 14.0023L37.2843 15.4223L38.275 14.5637L37.8127 12.9785L36.7889 14.0023Z" fill="#FFDB00"/>
<path fill-rule="evenodd" clip-rule="evenodd" d="M36.1284 12.054L36.5908 13.3419L37.6145 12.3181L37.2843 11.0632C37.2512 11.0632 37.2512 11.0632 37.2512 11.0632C37.2182 11.0632 37.2182 11.0632 37.1852 11.0632L36.1284 12.054Z" fill="#FFDB00"/>
<path fill-rule="evenodd" clip-rule="evenodd" d="M43.1626 16.5451L44.0542 17.4368L44.5166 16.0498L43.5589 15.1912L43.1626 16.5451Z" fill="#FFDB00"/>
<path fill-rule="evenodd" clip-rule="evenodd" d="M45.9366 13.8371L46.5971 14.4976L47.1585 13.2097L46.366 12.4832L45.9366 13.8371Z" fill="#FFDB00"/>
<path fill-rule="evenodd" clip-rule="evenodd" d="M46.2669 11.1293C46.0358 11.0963 45.8376 11.0632 45.6064 11.0632L46.1018 11.5256L46.2669 11.1293Z" fill="#FFDB00"/>
<path fill-rule="evenodd" clip-rule="evenodd" d="M44.3845 12.3181L45.4413 13.3419L45.8706 12.054L44.8138 11.0632H44.7808H44.7478L44.3845 12.3181Z" fill="#FFDB00"/>
<path fill-rule="evenodd" clip-rule="evenodd" d="M43.724 14.5637L44.7477 15.4223L45.2101 14.0023L44.1863 12.9785L43.724 14.5637Z" fill="#FFDB00"/>
<path fill-rule="evenodd" clip-rule="evenodd" d="M49.0409 14.1344L49.8335 14.8609L50.527 13.3088C50.4279 13.1436 50.2958 13.0115 50.1637 12.8794C50.0646 12.7473 49.8995 12.6153 49.7344 12.4832L49.0409 14.1344Z" fill="#FFDB00"/>
<path fill-rule="evenodd" clip-rule="evenodd" d="M47.8851 13.0446L48.5456 13.7051L49.2391 12.1199C49.008 11.9548 48.7438 11.8557 48.4465 11.7236L47.8851 13.0446Z" fill="#FFDB00"/>
<path fill-rule="evenodd" clip-rule="evenodd" d="M46.5641 11.8557L47.3897 12.6152L47.852 11.4924C47.5548 11.3933 47.1915 11.3273 46.7953 11.2612L46.5641 11.8557Z" fill="#FFDB00"/>
<path fill-rule="evenodd" clip-rule="evenodd" d="M40.1904 12.0541H41.8417L42.4691 11.5917L41.8086 10.7661H41.016H40.1904L39.563 11.5917L40.1904 12.0541Z" fill="#FFDB00"/>
<path fill-rule="evenodd" clip-rule="evenodd" d="M42.5352 13.3089L42.7333 12.186L42.271 12.5163L42.5352 13.3089Z" fill="#FFDB00"/>
<path fill-rule="evenodd" clip-rule="evenodd" d="M50.3289 15.2903L51.0224 15.9507C51.1545 15.9507 51.2866 15.9177 51.4187 15.9177C51.3196 15.1582 51.1545 14.4977 50.8903 13.9363L50.3289 15.2903Z" fill="#FFDB00"/>
<path fill-rule="evenodd" clip-rule="evenodd" d="M42.0728 15.9507L42.37 14.2004L41.8086 14.993L42.0728 15.9507Z" fill="#FFDB00"/>
<path fill-rule="evenodd" clip-rule="evenodd" d="M42.9315 11.0962L43.1296 9.87427L42.4031 10.3696L42.9315 11.0962Z" fill="#FFDB00"/>
<path fill-rule="evenodd" clip-rule="evenodd" d="M42.5021 18.8237L41.8086 21.2675C42.1388 20.9042 42.6672 20.3759 43.3277 19.7154L43.3607 19.6824L42.5021 18.8237Z" fill="#FFDB00"/>
<path fill-rule="evenodd" clip-rule="evenodd" d="M42.7003 18.1633L43.5259 19.0219L43.8562 18.0642L42.9645 17.2056L42.7003 18.1633Z" fill="#FFDB00"/>
<path fill-rule="evenodd" clip-rule="evenodd" d="M46.2339 29.3254C45.5073 29.8208 44.4836 30.4152 43.0305 31.1748C46.366 31.0427 49.5363 29.9529 50.3288 29.0282C50.4279 28.8961 50.4609 28.764 50.4609 28.6649C50.4609 28.6649 50.4609 28.6319 50.4609 28.5989C49.3711 28.83 48.2483 28.9952 46.9274 29.2263L46.2339 29.3254Z" fill="#FFDB00"/>
<path fill-rule="evenodd" clip-rule="evenodd" d="M48.4465 52.4094L48.4135 54.3248L49.9656 53.5322L48.4465 52.4094Z" fill="#FFDB00"/>
<path fill-rule="evenodd" clip-rule="evenodd" d="M41.9407 36.4918L42.7002 41.4785C43.2947 40.6199 44.2524 39.1007 44.4835 38.7045V35.303C44.0542 35.4681 43.6579 35.6993 43.2286 35.8974C42.9314 36.0625 42.337 36.3267 41.9407 36.4918Z" fill="#FFDB00"/>
<path fill-rule="evenodd" clip-rule="evenodd" d="M45.8706 53.7305L45.1771 55.9431L46.7623 55.1505L45.8706 53.7305Z" fill="#FFDB00"/>
<path fill-rule="evenodd" clip-rule="evenodd" d="M51.3196 28.4008C51.4517 28.8632 52.0131 29.1604 52.5415 29.1604C52.9047 29.1604 53.4661 28.665 53.9285 27.6743C53.1689 27.9385 52.2773 28.1697 51.3196 28.4008Z" fill="#FFDB00"/>
<path fill-rule="evenodd" clip-rule="evenodd" d="M54.2257 34.6754C56.009 34.6754 56.9006 35.534 57.5611 36.888C57.7923 36.0624 57.7923 35.2368 57.5941 34.3782C57.2308 32.9581 54.8201 32.793 52.8056 33.0902L51.98 34.213L51.914 34.2791C51.5507 34.8075 51.3195 35.1707 51.2205 35.501C52.013 34.9726 53.0368 34.6754 54.1266 34.6754H54.2257Z" fill="#FFDB00"/>
<path fill-rule="evenodd" clip-rule="evenodd" d="M49.3712 33.85L49.2061 34.7416C49.0079 35.6993 48.9749 36.5579 49.0079 37.2845C49.0079 37.8789 49.14 38.4403 49.3712 38.9357C49.6024 37.8128 50.0977 36.8551 50.3619 36.2937C50.0977 35.5342 50.428 34.8407 50.9564 34.1141H50.9233L51.2536 33.6518V32.4629L51.2866 32.3639C51.6168 31.7364 51.9471 30.8117 52.0792 30.0192C51.7159 29.9531 51.3857 29.821 51.1215 29.5898C51.0885 29.6229 51.0885 29.6229 51.0554 29.6559C49.9987 30.8778 46.5642 31.5052 45.0451 31.7364C44.7809 32.1657 43.7241 33.916 42.9976 35.0058C43.592 34.7086 44.1864 34.4114 44.7809 34.2132L45.4083 34.0151V37.1524C46.3 35.7984 47.3567 34.8407 48.5456 34.2462L49.3712 33.85Z" fill="#FFDB00"/>
<path fill-rule="evenodd" clip-rule="evenodd" d="M47.6538 36.1944L47.819 37.1521C47.819 37.1851 47.852 37.4824 47.885 37.7796C47.918 38.0768 47.9511 38.407 47.9511 38.4401C48.2153 40.2564 48.6446 42.3369 49.6023 43.1625C49.272 42.1718 49.239 41.3462 49.206 40.3224C48.5785 39.6289 48.1822 38.5061 48.1162 37.8126H48.1492C48.0501 37.3833 48.0832 36.2935 48.1492 35.5339C46.8613 36.4586 45.9366 37.8786 45.4082 38.9354C45.4082 40.7187 45.7715 42.0727 46.4319 43.0304C46.4319 42.3369 46.531 41.5113 46.564 41.148C46.7622 39.6619 47.1255 38.0768 47.3896 37.1191L47.6538 36.1944Z" fill="#FFDB00"/>
<path fill-rule="evenodd" clip-rule="evenodd" d="M44.0543 50.7251L44.6488 54.5889C44.979 53.6312 45.3423 52.4754 45.4744 52.1121C45.3092 51.947 45.1111 51.7819 44.9129 51.5837C44.6488 51.2865 44.3185 50.9893 44.0543 50.7251Z" fill="#FFDB00"/>
<path fill-rule="evenodd" clip-rule="evenodd" d="M55.4146 32.0995C56.9337 32.2976 57.9574 32.859 58.3537 33.8167C61.2598 33.7507 63.4394 32.859 64.8264 31.1748C63.8357 31.6371 63.0761 32.0004 62.0854 32.1325C61.0947 32.2976 57.0327 32.1986 56.1741 31.8683C56.042 31.9013 55.7448 32.0004 55.4146 32.0995Z" fill="#FFDB00"/>
<path fill-rule="evenodd" clip-rule="evenodd" d="M47.8521 45.2431L49.0079 46.0027C50.494 46.9934 51.4187 47.1255 51.6828 47.1255C52.2112 47.1585 52.7066 47.0594 53.0699 46.9273C51.7819 46.498 50.9893 45.6394 50.494 45.0119C50.4279 44.9129 50.3289 44.7477 50.2298 44.5826C50.1968 44.5496 50.1637 44.4835 50.1307 44.4505C48.6116 44.0542 47.9181 42.6012 47.4888 40.9169C47.4558 41.2802 47.3897 41.5774 47.3897 41.8746C47.2576 43.8891 47.6539 44.8138 47.6539 44.8138L47.8521 45.2431ZM43.8561 49.1399C44.0873 49.4041 44.3845 49.6683 44.6817 49.9655C44.8138 50.0646 44.9129 50.1637 45.045 50.2958L45.3752 43.1296L46.2008 44.9459C47.0925 47.3236 48.5125 49.0078 50.2298 49.7674C49.4702 48.5125 48.0172 45.9036 47.9511 45.7715L47.6869 45.3091L46.7953 44.6487C45.5404 43.724 44.8138 42.304 44.5827 40.3225C44.1203 41.049 43.3278 42.337 42.8984 42.9314L43.8561 49.1399Z" fill="#FFDB00"/>
<path fill-rule="evenodd" clip-rule="evenodd" d="M45.9037 52.0132L47.4558 54.556V50.362L50.9894 53.0039L54.2918 51.4188C55.2495 50.9234 56.6035 50.0317 56.9007 49.7345C57.8584 48.9419 59.1463 47.8522 59.3445 46.9275C59.3775 46.7624 59.3445 46.3661 59.2784 45.9368C59.1463 44.7809 58.9482 42.9976 59.8729 41.9739C60.4673 41.3134 61.3259 40.9501 62.4488 40.9171C62.6799 40.6859 62.8781 40.3557 62.9771 40.1245C62.3167 40.0254 61.7222 40.0585 61.1938 40.1575L60.9957 40.2236C60.6655 40.2896 59.9719 40.5208 59.4436 41.0492C58.5849 41.9078 58.0896 42.9646 57.8914 44.3846C57.7593 45.2433 57.0989 46.3 56.6035 46.9275C55.5137 48.1163 54.3579 48.5457 54.3579 48.5457C53.7304 48.7438 53.1029 48.6778 52.6736 48.6117C52.1122 48.4466 50.8903 48.0173 49.9326 47.5549C50.494 48.4796 51.5178 50.0648 51.9801 50.8243L52.2443 51.2206L51.782 51.1215C51.7159 51.1215 50.494 50.8904 49.6684 50.4941C48.2814 49.8006 47.0926 48.6447 46.2009 47.0596L45.9037 52.0132Z" fill="#FFDB00"/>
<path fill-rule="evenodd" clip-rule="evenodd" d="M45.1771 28.4339C45.7385 28.4669 46.432 28.4339 47.1916 28.3018C51.848 27.5092 54.7211 26.7167 56.6695 25.6269C56.5044 25.0655 55.6788 24.3059 55.4146 24.3059C55.1834 24.3389 53.1029 25.1976 51.0554 26.0232C48.9749 26.9148 46.6302 27.8725 45.1771 28.4339Z" fill="#FFDB00"/>
<path fill-rule="evenodd" clip-rule="evenodd" d="M52.9708 29.9861C52.9048 30.7126 52.6736 31.4721 52.4094 32.0996L56.3723 26.7827C55.976 26.9478 55.5797 27.146 55.1174 27.2781C54.6881 28.4669 53.8625 29.6888 52.9708 29.9861Z" fill="#FFDB00"/>
<path fill-rule="evenodd" clip-rule="evenodd" d="M57.7923 26.3863L53.8624 31.6702C54.7871 31.3399 56.1411 30.9436 56.2402 30.9106C56.6034 30.7785 56.9337 30.6134 57.2969 30.4483C58.0895 30.052 58.9151 29.6557 60.137 29.6227C60.7645 29.6227 61.2928 29.7548 61.6891 30.118C61.7222 30.118 61.7552 30.151 61.7552 30.151C61.9864 28.9622 62.0194 27.278 60.4012 26.7496C59.0802 26.2872 58.0895 26.3533 57.7923 26.3863Z" fill="#FFDB00"/>
<path fill-rule="evenodd" clip-rule="evenodd" d="M52.7396 57.3301L52.2443 58.3208C52.5085 58.4859 52.8057 58.5189 53.0038 58.4859C52.9378 58.0896 52.8387 57.6603 52.7396 57.3301Z" fill="#FFDB00"/>
<path fill-rule="evenodd" clip-rule="evenodd" d="M62.5478 50.9893C62.2176 51.1544 61.8213 51.1874 61.392 51.0883C62.8781 52.7726 64.0999 55.2824 64.6614 57.8913L64.6944 57.9904C65.6521 58.5848 66.5107 58.849 67.5675 58.915C67.5344 58.7829 67.5014 58.6178 67.4354 58.3536C67.2372 57.3959 66.0484 52.7065 63.0432 50.4939C62.9111 50.7581 62.7129 50.9232 62.5478 50.9893Z" fill="#FFDB00"/>
<path fill-rule="evenodd" clip-rule="evenodd" d="M54.0936 54.7209L53.3671 56.174C53.5652 56.7684 53.7634 57.528 53.9285 58.0894C54.1927 58.3866 54.8862 58.5517 55.4806 58.4857C55.1173 57.0326 54.5559 55.7117 54.0936 54.7209Z" fill="#FFDB00"/>
<path fill-rule="evenodd" clip-rule="evenodd" d="M62.878 46.4649C62.4156 46.564 61.4249 46.564 60.6323 46.4319C60.6653 46.4979 60.7314 46.531 60.7974 46.597C61.4579 47.4226 62.6138 48.8096 63.0431 49.371C64.265 49.9655 64.9915 49.9655 65.2227 49.8334C65.2557 49.8334 65.2557 49.8334 65.2557 49.7343V49.7013C65.0906 49.0408 64.1989 47.8849 62.878 46.4649Z" fill="#FFDB00"/>
<path fill-rule="evenodd" clip-rule="evenodd" d="M67.4023 44.0874C66.94 44.4507 66.2795 44.4837 65.553 44.4176C67.3033 46.0358 68.7563 47.7201 69.4498 48.975C70.2094 49.3713 71.035 49.7675 71.3322 49.6354C71.4313 49.6024 71.5964 49.4703 71.5964 49.3052C71.3652 47.8852 69.681 45.8047 67.4023 44.0874Z" fill="#FFDB00"/>
<path fill-rule="evenodd" clip-rule="evenodd" d="M63.2413 43.7241C62.3496 43.0306 61.557 42.5022 60.9626 42.238C60.8305 42.3371 60.7314 42.4362 60.6324 42.5683C60.5333 42.6674 60.4672 42.7994 60.3682 42.9315C60.6984 43.1957 61.1607 43.559 61.6561 44.0213C62.7459 44.4507 63.6045 44.4837 64.0338 44.4507C63.7366 44.1534 63.2413 43.7241 63.2413 43.7241Z" fill="#FFDB00"/>
<path fill-rule="evenodd" clip-rule="evenodd" d="M57.6602 58.1886C57.0658 56.1741 56.042 53.9945 55.2495 52.5745L54.655 53.6643C55.3155 55.1173 55.943 56.7355 56.3723 58.1886C56.5374 58.3537 57.0328 58.6839 57.7263 58.5848L57.6602 58.1886Z" fill="#FFDB00"/>
<path fill-rule="evenodd" clip-rule="evenodd" d="M72.0587 58.2547C70.8038 54.9853 69.747 52.3764 68.2279 50.7582C67.6995 50.7582 67.0721 50.6261 66.0153 50.2959C65.9492 50.428 65.8171 50.5271 65.685 50.6261C65.4539 50.7582 65.1897 50.8243 64.8264 50.8243C65.685 51.6829 66.1144 52.4094 66.4446 53.0369L66.6097 53.3341C67.3693 54.6551 67.9967 56.6035 68.327 57.8914C69.4498 58.651 70.5066 59.1794 72.3229 58.9812C72.2568 58.7501 72.1247 58.4198 72.0587 58.2547Z" fill="#FFDB00"/>
<path fill-rule="evenodd" clip-rule="evenodd" d="M57.396 50.5929C57.3299 50.4938 57.2639 50.4278 57.2309 50.3948C57.0988 50.5269 56.6034 50.8571 56.5704 50.8901H56.5374C56.7025 50.9232 56.8346 50.9232 56.9997 50.9232C57.3299 50.9232 57.5611 50.8571 57.6271 50.7911C57.5611 50.758 57.4951 50.659 57.396 50.5929Z" fill="#FFDB00"/>
<path fill-rule="evenodd" clip-rule="evenodd" d="M58.2877 51.1212C58.2547 51.1543 58.2547 51.1873 58.2217 51.2203C59.9389 52.9376 60.7315 55.3153 61.4911 57.9572C61.7553 58.7828 62.8451 58.9149 63.9679 58.9149C63.9348 58.6177 63.9018 58.2544 63.8358 57.9572C62.779 54.0604 61.425 52.2441 60.071 50.9231C59.6087 51.2203 58.8161 51.1873 58.2877 51.1212Z" fill="#FFDB00"/>
<path fill-rule="evenodd" clip-rule="evenodd" d="M57.2969 51.5839C57.0657 51.5839 56.5703 51.6499 56.042 51.5178L55.8108 51.6499C56.8345 53.3341 57.8583 55.6128 58.5188 57.8584C59.0141 58.3208 59.7407 58.585 60.7314 58.618C60.6984 58.4859 60.6323 58.3208 60.6323 58.1887C59.7737 55.3156 59.0472 53.136 57.3299 51.5839C57.3299 51.5839 57.3299 51.5839 57.2969 51.5839Z" fill="#FFDB00"/>
<path fill-rule="evenodd" clip-rule="evenodd" d="M62.7129 41.8086C62.5148 41.8086 62.3166 41.8416 62.1515 41.8416C62.7789 42.2049 63.5055 42.7333 64.265 43.3607C64.7604 43.5258 66.0153 43.6579 66.5767 43.5258C65.1567 42.5681 63.7697 41.9407 62.7129 41.8086Z" fill="#FFDB00"/>
<path fill-rule="evenodd" clip-rule="evenodd" d="M58.5519 49.5033C58.3207 49.7345 58.1226 49.9326 57.9244 50.1307C57.9575 50.1638 57.9575 50.1638 58.0235 50.1968C58.1886 50.3619 58.7831 50.3949 59.1463 50.3619C59.4105 50.3289 59.6417 50.1968 59.6747 50.1638C59.5756 49.9326 59.3775 49.5363 58.9812 49.074C58.8161 49.2061 58.684 49.3712 58.5519 49.5033Z" fill="#FFDB00"/>
<path fill-rule="evenodd" clip-rule="evenodd" d="M63.1091 45.3421L63.1752 45.3751C64.7273 46.9933 65.8171 48.4794 66.1143 49.404C66.7418 49.6022 68.1948 50.0315 68.5251 49.8003C68.5581 49.7673 68.6572 49.6352 68.6572 49.404C68.5581 48.5124 65.652 45.8044 64.8594 45.0779C64.4631 45.4081 63.7036 45.4081 63.1091 45.3421Z" fill="#FFDB00"/>
<path fill-rule="evenodd" clip-rule="evenodd" d="M60.104 43.8892C60.0709 44.3185 60.0709 44.8138 60.137 45.3752C60.6654 45.6064 61.557 45.6725 62.0194 45.6394C61.524 45.1441 60.5993 44.3185 60.104 43.8892Z" fill="#FFDB00"/>
<path fill-rule="evenodd" clip-rule="evenodd" d="M60.1701 47.4558C60.071 47.72 59.9059 48.0502 59.5426 48.4465C59.7407 48.7107 59.9389 48.9749 60.137 49.2391C60.2361 49.3712 60.3352 49.5033 60.4012 49.6024C61.458 50.3619 61.8543 50.2629 62.0524 50.2298C62.1185 50.2298 62.2506 50.1638 62.2836 50.0647C62.3166 50.0317 62.3166 49.9987 62.3166 49.9326C62.0524 49.4042 61.0287 48.2814 60.1701 47.4558Z" fill="#FFDB00"/>
<path fill-rule="evenodd" clip-rule="evenodd" d="M74.2383 50.5931C73.3466 50.5271 72.8183 50.2298 72.3229 49.9656L72.2899 49.9326C72.1248 50.1968 71.9266 50.3619 71.6624 50.461C71.101 50.7252 70.4075 50.461 69.4498 49.9987C69.3838 50.1638 69.2847 50.3289 69.1526 50.461C70.6387 52.2113 71.7285 54.8202 72.8513 57.8254C74.7006 59.2784 76.1867 59.2784 77.4086 59.0473C77.0123 56.3393 76.0216 53.6974 74.2383 50.5931Z" fill="#FFDB00"/>
<path fill-rule="evenodd" clip-rule="evenodd" d="M70.3745 43.7239C70.0443 44.0211 69.5489 44.1532 68.9545 44.1862C70.8368 45.8044 72.1578 47.6207 72.455 49.0077C72.5871 49.0738 72.6862 49.1398 72.7853 49.1729C73.2806 49.4701 73.6769 49.7012 74.5355 49.7012C74.6676 49.7012 74.7997 49.6682 74.8988 49.6352C74.3704 47.1914 72.1908 45.0779 70.3745 43.7239Z" fill="#FFDB00"/>
<path fill-rule="evenodd" clip-rule="evenodd" d="M63.9349 40.3225C63.8358 40.5537 63.7037 40.8179 63.5386 41.0821C64.6944 41.3793 66.0484 42.0398 67.4024 42.9975L67.5345 43.0305C68.228 43.2617 69.0866 43.3938 69.582 43.1626C67.4354 41.6765 65.2558 40.7188 63.9349 40.3225Z" fill="#FFDB00"/>
</svg>
