<svg width="118" height="53" viewBox="0 0 118 53" fill="none" xmlns="http://www.w3.org/2000/svg">
<path d="M83.2481 4.66285V6.56008H99.6004C100.691 6.56008 102.326 6.56008 103.399 7.64515C104.473 8.73022 104.49 10.3578 104.49 11.4265V27.7025C104.49 28.7876 104.49 30.4152 103.399 31.4838C102.309 32.5689 100.674 32.5689 99.6004 32.5689H91.7051C90.344 32.5689 88.5701 32.5689 87.9061 31.0761C87.2255 29.5833 88.1783 28.2286 88.9962 27.1304L99.6335 13.0245H83.2812L76.7402 21.705C75.6435 23.1584 74.6954 24.4177 74.6954 26.0453C74.6954 27.6729 75.5774 28.8435 76.7402 30.3856L78.3755 32.5557C80.0107 34.7259 81.6459 36.896 83.8262 37.9811C86.0066 39.0662 88.5833 39.0662 92.1511 39.0662H99.2205C103.317 39.0662 109.428 39.0662 113.525 34.9889C117.621 30.9117 117.621 24.9602 117.621 22.7901V16.2797C117.621 14.1095 117.621 8.1581 113.525 4.08086C109.428 0.00362777 103.317 0.00362777 99.2205 0.00362777L87.9226 1.08749e-05C86.8324 -0.000317934 85.4714 1.08968e-05 84.3878 1.08508C83.2977 2.17015 83.2977 3.52485 83.2977 4.60334" fill="#C4151C"/>
<path d="M63.7575 13.0803H79.9447L60.454 39.1878H44.2669L63.7575 13.0803Z" fill="#C4151C"/>
<path d="M0 17.6837C0 16.5986 0 15.2439 1.09015 14.1654C2.18031 13.0869 3.54135 13.0803 4.6249 13.0803H32.0109C35.5456 13.0803 38.1554 13.0803 40.3357 14.1654C42.516 15.2505 44.1347 17.4206 45.7865 19.5907L47.4217 21.7609C48.5812 23.2997 49.4666 24.4736 49.4666 26.1012C49.4666 27.7288 48.5185 28.9881 47.4217 30.4415L40.8808 39.122H24.5285L35.1657 25.0161C35.9817 23.931 36.9364 22.5763 36.2559 21.0704C35.5754 19.5776 33.8047 19.5776 32.4569 19.5776H19.6393V52.1297H6.55744V19.5776H0.0165175V17.6771" fill="#C4151C"/>
</svg>
