<svg width="200" height="20" viewBox="0 0 200 20" fill="none" xmlns="http://www.w3.org/2000/svg">
<path d="M12.2529 15.8223C13.4854 14.9242 16.3638 11.0003 16.3638 11.0003C16.3638 11.0003 14.1548 9.84169 12.1491 11.0003C10.1421 12.1663 10.2024 12.461 8.21026 14.1012C6.22189 15.7446 4.73263 15.928 3.63561 15.8434C3.5747 15.8413 3.51441 15.8285 3.45349 15.8235C6.32506 17.158 10.0608 17.3772 12.2529 15.8223Z" fill="#E41B13"/>
<path d="M16.3924 0.166836C16.3924 0.166836 13.276 -0.688429 10.7709 1.47394C8.97215 3.0303 5.09616 13.4685 2.04711 14.0592C1.456 14.1754 0.980521 14.1879 0.592041 14.1406C0.598209 14.1467 0.603316 14.1517 0.609484 14.1549C1.12227 14.2021 1.71645 14.1841 2.40266 14.0511C5.44953 13.4612 9.4805 3.82477 11.3471 2.34726C13.2149 0.877293 15.4481 1.24154 15.4481 1.24154L13.5306 4.56875L16.3924 0.166836Z" fill="#005597"/>
<path d="M185.648 1.66927L183.529 19.0082H194.833C195.768 19.0082 196.701 18.6537 197.392 18.0371C198.001 17.4939 198.386 16.7853 198.477 16.0375L199.476 8.2386C199.672 6.60077 198.369 5.269 196.572 5.269H191.055L191.546 1.66895L185.648 1.66927ZM25.1375 1.67139L22.17 6.24365H27.9693L26.4027 19.0104H32.153L33.7196 6.24365H38.4372L38.9986 1.67139H25.1375ZM75.704 1.67139L73.5771 19.0103H79.3252L80.1031 12.6699H83.3795L82.6005 19.0103H88.3497L90.4776 1.67139H84.7295L83.9431 8.07976H80.6667L81.4532 1.67139H75.704ZM108.977 1.67139L106.849 19.0103H112.597L113.376 12.6699H116.652L115.873 19.0103H121.622L123.749 1.67139H118.001L117.216 8.07976H113.939L114.726 1.67139H108.977ZM166.735 1.67139L166.17 6.24365H171.221L169.655 19.0104H175.404L176.972 6.24365H181.136L184.104 1.67139H166.735ZM40.8392 1.67246L38.7133 19.0114H44.6283L45.0305 15.7435H50.539C52.3384 15.7435 53.9849 14.4101 54.2081 12.7761L55.2078 4.64944C55.3079 3.90482 55.1059 3.19654 54.6379 2.6552C54.1053 2.03925 53.2638 1.6862 52.3295 1.6862L40.8392 1.67246ZM60.7827 1.67246C60.2083 1.67246 59.6412 2.04085 59.4634 2.53L53.449 19.0115H59.3162L60.3032 16.062L65.9052 15.9941L66.2172 19.0115H72.0919L70.2601 2.51533C70.224 2.01994 69.783 1.67262 69.1882 1.67262H60.7833L60.7827 1.67246ZM125.584 1.67246L123.455 19.0114H137.612L138.173 14.4391H129.802L130.065 12.3027H138.435L138.916 8.38529H130.545L130.808 6.24564H139.175L139.741 1.67235L125.584 1.67246ZM144.845 1.67246C143.91 1.67246 142.977 2.02744 142.285 2.64466C141.677 3.18725 141.291 3.89601 141.201 4.64314L140.207 12.7719C140.011 14.4091 141.262 15.7426 143.059 15.7426H148.624L148.223 19.0115H154.019L154.421 15.7426H159.874C161.673 15.7426 163.32 14.4102 163.543 12.7762L164.542 4.65064C164.642 3.90601 164.44 3.1967 163.972 2.65531C163.439 2.03936 162.598 1.68631 161.662 1.68631L159.323 1.67252L144.845 1.67246ZM96.6153 1.68413C95.397 1.68413 94.1743 2.15268 93.2593 2.96939C92.4587 3.68353 91.9547 4.60982 91.8371 5.58132L90.6697 15.1056C90.5404 16.0702 90.7519 17.0017 91.3797 17.7271C92.0926 18.5506 93.1923 19.023 94.3981 19.023H100.651C102.996 19.023 105.209 17.2617 105.498 15.1024L105.828 12.3631H99.9927L99.738 14.4348H96.5115L97.5177 6.24139H100.744L100.532 7.96393H106.371L106.738 4.96249C107.03 2.54282 104.836 1.68402 102.868 1.68402L96.6153 1.68413ZM146.758 6.24574H149.79L149.188 11.1438H146.156L146.758 6.24574ZM155.587 6.24574H158.626L158.072 10.7575C158.039 10.9738 157.84 11.1438 157.622 11.1438H154.986L155.587 6.24574ZM46.2542 6.25529H49.2907L48.6719 10.7002C48.6396 10.9469 48.4083 11.1481 48.1572 11.1481H45.5973L46.1375 7.11497L46.2542 6.25529ZM63.7442 6.88357H64.8979L65.4285 11.667H61.9537L63.7442 6.88357ZM190.45 9.86485H193.422L192.952 13.6931C192.901 14.1164 192.541 14.4349 192.115 14.4349H189.889L190.45 9.86485Z" fill="#005597"/>
</svg>
