<svg width="206" height="111" viewBox="0 0 206 111" fill="none" xmlns="http://www.w3.org/2000/svg">
<path d="M128.248 33.6629V35.5601H144.6C145.691 35.5601 147.326 35.5601 148.399 36.6452C149.473 37.7302 149.49 39.3578 149.49 40.4265V56.7025C149.49 57.7876 149.49 59.4152 148.399 60.4838C147.309 61.5689 145.674 61.5689 144.6 61.5689H136.705C135.344 61.5689 133.57 61.5689 132.906 60.0761C132.226 58.5833 133.178 57.2286 133.996 56.1304L144.633 42.0245H128.281L121.74 50.705C120.643 52.1584 119.695 53.4177 119.695 55.0453C119.695 56.6729 120.577 57.8435 121.74 59.3856L123.375 61.5557C125.011 63.7259 126.646 65.896 128.826 66.9811C131.007 68.0662 133.583 68.0662 137.151 68.0662H144.221C148.317 68.0662 154.428 68.0662 158.525 63.9889C162.621 59.9117 162.621 53.9602 162.621 51.7901V45.2797C162.621 43.1095 162.621 37.1581 158.525 33.0809C154.428 29.0036 148.317 29.0036 144.221 29.0036L132.923 29C131.832 28.9997 130.471 29 129.388 30.0851C128.298 31.1702 128.298 32.5248 128.298 33.6033" fill="#C4151C"/>
<path d="M108.758 42.0801H124.945L105.454 68.1875H89.2669L108.758 42.0801Z" fill="#C4151C"/>
<path d="M45 46.6834C45 45.5983 45 44.2436 46.0902 43.1651C47.1803 42.0867 48.5413 42.0801 49.6249 42.0801H77.0109C80.5456 42.0801 83.1554 42.0801 85.3357 43.1651C87.516 44.2502 89.1347 46.4204 90.7865 48.5905L92.4217 50.7606C93.5812 52.2995 94.4666 53.4733 94.4666 55.1009C94.4666 56.7285 93.5185 57.9879 92.4217 59.4412L85.8808 68.1218H69.5285L80.1657 54.0159C80.9817 52.9308 81.9364 51.5761 81.2559 50.0701C80.5754 48.5773 78.8047 48.5773 77.4569 48.5773H64.6393V81.1295H51.5574V48.5773H45.0165V46.6768" fill="#C4151C"/>
</svg>
