<svg width="206" height="111" viewBox="0 0 206 111" fill="none" xmlns="http://www.w3.org/2000/svg">
<path fill-rule="evenodd" clip-rule="evenodd" d="M121.879 74.0089C122.004 73.6016 122.098 73.4135 122.192 72.9122C122.318 73.6956 122.443 74.2596 122.662 74.949C122.38 74.5417 122.255 74.3536 121.879 74.0089ZM121.409 84.8828C120.312 84.9141 119.278 84.8828 119.247 84.7574C119.121 84.4441 119.435 84.1307 119.686 83.786C119.842 83.5666 120.312 83.2533 120.312 83.2533L121.691 83.8173C121.754 84.0367 121.754 84.0994 121.848 84.3187C121.722 84.4441 121.534 84.6948 121.409 84.8828ZM118.933 70.1545C119.153 71.0633 119.372 71.7527 119.686 72.6301C119.027 72.3481 118.307 72.1287 117.555 71.9721C117.805 71.69 118.526 71.126 118.933 70.1545ZM113.826 71.502C114.891 70.6246 115.424 69.4965 115.236 67.6476C115.894 68.9951 116.364 70.4679 116.709 71.8154C115.925 71.69 114.609 71.5647 113.826 71.502ZM103.453 32.5818C103.422 32.7071 104.174 33.3339 105.302 33.2712L103.641 36.4989L102.983 33.2399L102.231 36.4989L100.288 33.2399C100.288 33.2399 101.667 33.3965 102.388 32.5818C101.761 32.1117 99.254 30.6702 99.254 30.6702L100.037 29.9808C100.037 29.9808 104.581 30.1689 105.929 29.9808L106.681 30.6702C106.681 30.6702 103.798 32.4564 103.453 32.5818ZM89.1009 71.8154C89.4456 70.4679 89.8843 68.9951 90.5424 67.6476H90.5737C90.3543 69.4965 90.9811 70.9066 92.1092 71.502C91.2944 71.5647 89.8529 71.69 89.1009 71.8154ZM86.1239 72.6301C86.4059 71.7527 86.6566 71.0633 86.8446 70.1545C87.2833 71.126 88.0041 71.69 88.2548 71.9721C87.5027 72.1287 86.7819 72.3481 86.1239 72.6301ZM86.5939 84.7574C86.4999 85.0395 82.3321 84.8514 81.6114 84.7574C80.8593 84.6634 78.1643 84.3187 78.1643 84.3187L78.321 83.2846L80.0132 77.832C80.0132 77.832 80.3892 78.6781 80.6086 79.0542C80.9533 79.6809 81.4547 80.4016 81.4547 80.4016L80.922 80.809C80.922 80.809 81.7054 81.1537 82.3948 81.2477C83.1782 81.3417 83.7109 81.2164 83.7109 81.2164L83.3036 84.1307L85.5285 83.2533C85.5285 83.2533 85.9985 83.5666 86.1552 83.786C86.4059 84.1307 86.7193 84.4441 86.5939 84.7574ZM83.6169 72.9122C83.7109 73.4135 83.7736 73.6016 83.899 74.0089C83.5543 74.3536 83.4289 74.5417 83.1469 74.949C83.3349 74.2596 83.4603 73.6956 83.6169 72.9122ZM141.747 76.0458C141.747 67.6476 139.929 62.8844 138.143 59.312C137.798 56.523 136.858 53.9221 135.041 50.7571C135.072 50.7571 135.354 50.7258 135.448 50.6631C135.605 50.6004 135.73 50.5377 135.73 50.2244C134.946 45.4612 127.896 41.3561 124.323 40.4786C123.446 40.2906 122.349 40.416 121.785 40.5413C121.221 40.6667 120.469 41.0427 119.936 41.4814C118.275 42.8289 118.463 44.6778 118.056 45.6492C117.649 46.6206 116.771 47.6548 116.019 48.0935C115.706 48.2815 115.424 48.4068 115.204 48.4695C114.954 48.5322 114.766 48.5635 114.578 48.5635C114.296 48.5635 113.982 48.4695 113.857 48.4068C113.857 48.4068 115.58 47.9995 116.05 47.2787C116.05 47.2787 114.014 47.122 112.541 45.3045C111.256 43.7377 111.319 41.9201 111.413 41.0114C111.475 40.0399 111.945 38.5044 112.447 37.627C113.167 36.9376 114.264 36.5302 115.455 36.5302C116.897 36.5302 117.649 37.2196 118.432 39.1938L118.62 39.6639L118.871 39.1938C119.435 38.0657 119.591 36.9376 119.341 35.7468C122.976 35.6841 125.577 34.274 126.893 31.6417L127.206 31.0463L126.58 31.3283C125.107 32.0804 123.759 32.5191 122.694 32.8952C121.315 32.8638 118.902 32.8952 117.993 32.7698C118.244 32.6758 118.463 32.5818 118.683 32.4564C119.372 32.1431 120.062 31.7984 121.064 31.767C121.44 31.767 121.942 31.861 122.161 32.0491C122.412 32.2684 122.6 32.6131 122.694 32.8952C123.697 31.0463 123.477 28.414 121.503 27.7246C120.124 27.2545 118.463 27.3799 118.463 27.3799C118.338 26.5338 117.116 25.4684 116.521 25.4684C116.332 25.4997 115.58 25.7817 114.64 26.1578L110.096 28.0066L110.065 27.2232C111.663 25.2177 113.293 22.8047 113.293 19.9844C113.324 19.4517 113.355 18.9503 113.324 18.4803C113.324 18.3863 113.324 18.2609 113.293 18.1669C113.199 16.7881 112.76 15.7226 112.008 14.8765C110.817 13.5917 108.937 12.9963 106.242 12.9963H106.054L104.926 16.9134L104.895 17.0074L103.61 21.8333L105.709 10.6147H100.1L102.2 21.8333L100.915 17.0074L100.883 16.9134L99.7553 12.9963H99.5673C96.8724 12.9963 94.9922 13.5917 93.8327 14.8765C93.0493 15.7226 92.6419 16.7881 92.5166 18.1669C92.5166 18.2609 92.4852 18.3863 92.4852 18.4803C92.4539 18.9503 92.4539 19.4204 92.4539 19.9844C92.4539 22.8361 94.1461 25.2177 95.7442 27.2232V27.9753L91.1064 26.0951C90.1976 25.719 89.4456 25.4057 89.1009 25.437C88.2234 25.4684 87.4714 26.5338 87.346 27.3799C87.346 27.3799 85.8105 27.1292 84.3377 27.7246C82.6455 28.414 82.2381 29.8555 82.4888 31.4537C82.5515 31.8924 82.7708 32.3624 83.1782 32.8952C83.2409 32.7698 83.3976 32.5505 83.4289 32.4878C83.4603 32.4251 83.6483 32.1744 83.7423 32.0804C83.9303 31.8924 84.275 31.767 84.6824 31.767C84.7137 31.767 84.7137 31.767 84.7451 31.767C85.7792 31.7984 86.4372 32.1431 87.158 32.4564C87.3773 32.5818 87.5967 32.6758 87.8161 32.7698C86.9073 32.8952 84.557 32.8952 83.1782 32.8952C82.1441 32.5505 80.7026 32.0804 79.2298 31.3283L78.6344 31.0463L78.9478 31.6417C80.2639 34.274 82.8649 35.6841 86.4686 35.7468C86.2179 36.9376 86.4059 38.0657 86.97 39.1938L87.1893 39.6639L87.3773 39.1938C88.1921 37.2196 88.9442 36.5616 90.3543 36.5302H90.3857C91.5765 36.5302 92.6732 36.9376 93.394 37.627C93.864 38.5044 94.3341 40.0399 94.4281 41.0114C94.4908 41.9515 94.4594 43.8003 93.3313 45.2732C91.8585 47.1847 89.7903 47.2787 89.7903 47.2787C90.229 47.9995 91.9525 48.4068 91.9525 48.4068C91.8272 48.4695 91.5138 48.5635 91.2318 48.5635C91.0751 48.5635 90.8557 48.5322 90.6364 48.4695C90.3857 48.4068 90.135 48.2815 89.7903 48.0935C89.0695 47.6548 88.1608 46.6206 87.7534 45.6492C87.346 44.6778 87.534 42.8289 85.9045 41.4814C85.3718 41.0427 84.6197 40.6667 84.0556 40.5413C83.4916 40.416 82.3948 40.2906 81.486 40.4786C77.945 41.3561 70.8942 45.4612 70.0795 50.2244C70.0795 50.5377 70.2362 50.6004 70.3928 50.6631C70.4868 50.7258 70.7689 50.7571 70.7689 50.7571C68.9827 53.9221 68.0426 56.523 67.6665 59.312C65.8803 62.8844 64.0628 67.6476 64.0628 76.0458C63.6241 82.8772 65.567 89.2386 67.2905 94.0331L67.5725 94.8165L69.202 87.1077L71.2076 91.0875L72.4924 85.0708L72.8058 83.5353L74.3413 86.481L74.78 84.7261C75.156 85.0708 75.8454 85.3528 75.8454 85.3528C75.8454 85.3528 75.6261 86.0736 75.6574 86.5123C75.6574 86.951 76.0334 87.3897 76.0334 87.3897C76.0334 87.3897 75.5947 87.9851 75.6887 88.3925C75.8141 88.7999 76.4408 89.0192 76.4408 89.0192C76.4408 89.0192 76.1275 89.552 76.1588 90.0533C76.2215 90.6801 76.9735 90.9621 76.9735 90.9621C76.9735 90.9621 77.0676 91.3695 77.4436 91.6202C77.8196 91.8395 79.3551 91.8082 79.3551 91.8082C79.3551 91.8082 79.5432 93.5317 80.0445 94.3151C80.6399 95.2552 82.5828 96.0073 82.7082 95.9133C82.8649 95.8506 83.4289 95.5686 83.5856 95.5059C83.7423 95.4119 83.899 93.4064 83.5229 92.4976C83.3036 91.9649 81.7994 90.7114 81.7994 90.7114C81.7994 90.7114 82.0188 90.1787 82.0188 89.8027C82.0501 89.0506 81.7994 88.4552 81.7994 88.4552C82.9275 87.3897 84.463 86.7003 85.1838 86.6376C85.9359 86.575 89.2262 87.1077 89.7589 87.2017C90.2917 87.2957 90.9184 86.3869 90.7304 85.7602C90.511 85.1335 90.1976 83.9427 90.1976 83.9427C90.041 82.9399 90.1663 82.1565 90.6364 81.6238C91.1691 80.997 92.1719 80.6837 93.582 80.6837C94.0521 80.6837 94.4908 80.809 94.9608 80.9344C95.5562 81.091 96.0263 81.2477 96.7157 81.1851C96.841 81.1537 96.9977 81.1537 97.1857 81.091C97.8438 80.9344 98.2825 80.4643 98.6899 79.8689C98.4392 81.1851 95.2742 85.3842 93.112 85.3842C93.112 85.3842 92.5792 85.7602 91.6391 86.7003C90.8871 87.4837 90.0723 88.3298 89.1322 88.5492C88.2861 88.7372 87.346 87.9224 87.346 87.9224C87.346 87.9224 86.7506 88.7685 86.7506 90.2727C86.7506 91.6515 88.1294 92.4663 88.9128 92.905C88.7562 95.0672 89.1635 96.6967 90.1036 97.7308C90.8244 98.5143 91.8272 98.9216 93.018 98.953C94.0521 101.585 95.5562 104.061 99.5673 104.531C99.7867 104.782 100.288 105.565 100.821 106.192C101.354 106.85 101.824 107.32 102.168 107.665C102.638 108.166 102.889 108.354 102.92 108.354C102.92 108.354 103.202 108.166 103.672 107.665C104.017 107.32 104.456 106.85 104.989 106.192C105.553 105.565 106.054 104.782 106.273 104.531C110.253 104.061 111.789 101.585 112.791 98.953C113.982 98.9216 114.985 98.5143 115.706 97.7308C116.677 96.6967 117.085 95.0672 116.897 92.905C117.68 92.4663 119.09 91.6515 119.09 90.2727C119.09 88.7685 118.463 87.9224 118.463 87.9224C118.463 87.9224 117.523 88.7372 116.677 88.5492C115.737 88.3298 114.954 87.4837 114.17 86.7003C113.261 85.7602 112.697 85.3842 112.697 85.3842C110.535 85.3842 107.402 81.1851 107.151 79.8689C107.527 80.4643 107.966 80.9344 108.624 81.091C108.78 81.1224 108.937 81.1537 109.062 81.1851C109.752 81.2477 110.19 81.091 110.786 80.9344C111.287 80.809 111.726 80.6837 112.196 80.6837C113.606 80.6837 114.609 80.997 115.142 81.6238C115.58 82.1565 115.737 82.9399 115.58 83.9427C115.58 83.9427 115.267 85.1335 115.048 85.7602C114.828 86.3869 115.486 87.2957 116.019 87.2017C116.552 87.1077 119.842 86.575 120.563 86.6376C121.19 86.7003 126.611 89.0506 127.864 88.9252C128.616 88.8312 129.901 88.4552 130.747 87.9224C131.97 87.139 132.408 85.6975 132.408 85.6975C132.69 85.3842 133.066 84.6634 133.16 84.2247L133.348 85.0708L134.602 91.0875L136.639 87.1077L138.268 94.8165L138.55 94.0331C140.274 89.2386 142.185 82.8772 141.747 76.0458Z" fill="#665F5F"/>
<path fill-rule="evenodd" clip-rule="evenodd" d="M100.131 10.1448H105.741L104.675 8.23323L106.524 9.33002V3.78342L104.675 4.8802L105.741 3H100.163L101.197 4.8802L99.348 3.78342V9.33002L101.197 8.23323L100.131 10.1448Z" fill="#665F5F"/>
<path fill-rule="evenodd" clip-rule="evenodd" d="M101.855 45.3672V45.5552L100.163 56.6798C100.194 56.6798 100.257 56.6484 100.288 56.6484V56.6171L100.413 56.5858C102.043 56.1157 103.735 56.1157 105.333 56.5858C105.459 56.6171 105.553 56.6484 105.678 56.6798L102.92 38.4731L101.855 45.3672Z" fill="white"/>
<path fill-rule="evenodd" clip-rule="evenodd" d="M106.806 57.1501C108.592 58.0902 110.002 59.5317 110.817 61.2239L115.11 53.0137C112.353 54.3925 108.028 56.5234 106.806 57.1501Z" fill="white"/>
<path fill-rule="evenodd" clip-rule="evenodd" d="M111.131 62.1641C111.444 63.1042 111.601 64.0756 111.601 64.8904C111.601 65.9245 111.444 66.8959 111.131 67.7733C112.885 67.46 121.127 66.0185 126.36 65.1097C121.096 64.0756 112.854 62.4774 111.131 62.1641Z" fill="white"/>
<path fill-rule="evenodd" clip-rule="evenodd" d="M79.4805 65.0784C84.7137 66.0185 92.9239 67.46 94.6788 67.7733C94.3654 66.8959 94.2087 65.9245 94.2087 64.8904C94.2087 64.0756 94.3968 63.1042 94.6788 62.1641C92.9553 62.4774 84.7137 64.0756 79.4805 65.0784Z" fill="white"/>
<path fill-rule="evenodd" clip-rule="evenodd" d="M90.699 53.0137L95.0235 61.2239C95.8069 59.5317 97.2484 58.0902 99.0346 57.1501C97.7498 56.5234 93.112 54.2358 90.699 53.0137Z" fill="white"/>
<path fill-rule="evenodd" clip-rule="evenodd" d="M95.1175 68.7759C94.8668 69.2773 94.2401 70.4681 92.7673 73.3197L90.699 76.9861L99.16 72.7243C98.0632 72.1916 97.0291 71.3768 96.2143 70.4054C95.7756 69.904 95.4309 69.3713 95.1175 68.7759Z" fill="white"/>
<path fill-rule="evenodd" clip-rule="evenodd" d="M96.5903 68.7759L102.92 57.714L109.188 68.7759H96.5903ZM108.906 69.528C109.908 68.2432 110.504 66.645 110.504 64.8901C110.504 61.4744 108.216 58.5601 105.083 57.62C104.393 57.432 103.641 57.3066 102.889 57.3066C102.168 57.3066 101.448 57.432 100.758 57.62C97.5931 58.5601 95.3055 61.4744 95.3055 64.8901C95.3055 66.645 95.9009 68.2432 96.9351 69.528C98.3139 71.3142 100.476 72.4736 102.889 72.4736C105.333 72.4736 107.496 71.3142 108.906 69.528Z" fill="#FF6600"/>
<path fill-rule="evenodd" clip-rule="evenodd" d="M102.92 59.751L98.4392 67.8045H107.37L102.92 59.751Z" fill="#0B4DA0"/>
<path fill-rule="evenodd" clip-rule="evenodd" d="M100.131 73.1006L102.92 92.122L105.647 73.1006C103.86 73.696 101.886 73.696 100.131 73.1006Z" fill="white"/>
<path fill-rule="evenodd" clip-rule="evenodd" d="M106.775 72.6303L109.564 74.1345L115.048 76.9861L113.011 73.3197C112.447 72.2229 111.883 71.1261 111.444 70.2487C111.131 69.6533 110.849 69.1206 110.692 68.7759C110.379 69.3713 110.034 69.904 109.626 70.4054C108.843 71.3455 107.872 72.0976 106.775 72.6303Z" fill="white"/>
<path fill-rule="evenodd" clip-rule="evenodd" d="M96.8725 23.0557C96.4024 23.0557 96.0264 23.4317 96.0264 23.9018C96.0264 24.3718 96.4024 24.7478 96.8725 24.7478C97.3425 24.7478 97.7499 24.3718 97.7499 23.9018C97.7499 23.4317 97.3425 23.0557 96.8725 23.0557Z" fill="#FFDB00"/>
<path fill-rule="evenodd" clip-rule="evenodd" d="M102.67 20.6738L102.92 23.6508L103.14 20.6738H102.67Z" fill="#FFDB00"/>
<path fill-rule="evenodd" clip-rule="evenodd" d="M102.701 20.016H103.14L103.453 18.7939L103.14 17.5718H102.701L102.388 18.7939L102.701 20.016Z" fill="#FFDB00"/>
<path fill-rule="evenodd" clip-rule="evenodd" d="M109.062 26.722C109.626 26.722 110.065 26.2833 110.065 25.7505C110.065 25.4685 109.908 25.2178 109.72 25.0298C109.501 25.1865 109.219 25.2805 108.937 25.2805C108.749 25.2805 108.53 25.2178 108.342 25.1238C108.185 25.3118 108.122 25.5312 108.122 25.7505C108.122 26.2833 108.53 26.722 109.062 26.722Z" fill="#FFDB00"/>
<path fill-rule="evenodd" clip-rule="evenodd" d="M102.231 25.0297C102.043 25.249 101.918 25.4997 101.918 25.7818C101.918 26.3458 102.419 26.8159 102.983 26.8159C103.578 26.8159 104.049 26.3458 104.049 25.7818C104.049 25.1864 103.578 24.7163 102.983 24.7163C102.701 24.7163 102.419 24.8417 102.231 25.0297Z" fill="#FFDB00"/>
<path fill-rule="evenodd" clip-rule="evenodd" d="M98.0945 28.7903L98.5332 28.9784C99.7867 29.135 101.04 29.135 102.795 29.135H103.046C104.769 29.135 106.117 29.135 107.464 28.947L107.809 28.7903C106.211 28.6023 104.613 28.5083 103.014 28.5083H102.858C101.291 28.5083 99.6613 28.6023 98.0945 28.7903Z" fill="#FFDB00"/>
<path fill-rule="evenodd" clip-rule="evenodd" d="M105.835 25.7504C105.835 26.2204 106.211 26.6278 106.681 26.6278C107.151 26.6278 107.558 26.2204 107.558 25.7504C107.558 25.2803 107.151 24.9043 106.681 24.9043C106.211 24.9043 105.835 25.2803 105.835 25.7504Z" fill="#FFDB00"/>
<path fill-rule="evenodd" clip-rule="evenodd" d="M96.841 26.5965C97.3737 26.6279 97.8438 26.2205 97.8438 25.6878C97.8751 25.4371 97.7811 25.2177 97.6244 25.061C97.405 25.1864 97.1543 25.2804 96.8723 25.2804C96.5903 25.2804 96.3396 25.1864 96.1202 25.061C95.9949 25.1864 95.9322 25.4057 95.9009 25.6251C95.9009 26.1578 96.3083 26.5965 96.841 26.5965Z" fill="#FFDB00"/>
<path fill-rule="evenodd" clip-rule="evenodd" d="M107.214 24.3408C107.339 24.4035 107.464 24.4662 107.558 24.5288C107.527 24.4662 107.527 24.4035 107.496 24.3408C107.402 24.3408 107.308 24.3408 107.214 24.3408ZM98.1886 24.6855C98.2199 24.7169 98.2513 24.7795 98.2826 24.8109C98.4393 24.6229 98.6273 24.4662 98.8467 24.3722C98.69 24.3408 98.502 24.3408 98.3453 24.3408C98.3139 24.4662 98.2513 24.5602 98.1886 24.6855ZM103.046 27.7565C105.083 27.7565 107.151 27.9132 109.156 28.2266L109.47 28.1012V28.0386C109.47 27.8192 109.47 27.5058 109.47 27.3178C108.874 27.4745 108.216 27.2551 107.809 26.7851C107.527 27.0985 107.12 27.2551 106.681 27.2551C105.835 27.2551 105.177 26.5971 105.177 25.751C105.177 25.3123 105.365 24.9362 105.647 24.6542C105.302 24.7795 104.926 24.9362 104.581 25.1242C104.675 25.3436 104.707 25.563 104.707 25.7823C104.707 26.7224 103.923 27.4745 102.983 27.4745C102.043 27.4745 101.26 26.7224 101.26 25.7823C101.26 25.5943 101.322 25.3749 101.385 25.2182C101.134 25.0616 100.884 24.9362 100.633 24.8422C100.852 25.0929 100.946 25.4063 100.946 25.751C100.946 26.5971 100.288 27.2551 99.4421 27.2551C98.9407 27.2551 98.4706 27.0044 98.1886 26.5971C97.8752 27.0358 97.3738 27.2865 96.8411 27.2551C96.6218 27.2551 96.4651 27.2238 96.3397 27.1611V28.0699L96.7158 28.2266C98.7213 27.9132 100.852 27.7565 102.92 27.7565H102.952H103.046Z" fill="#FFDB00"/>
<path fill-rule="evenodd" clip-rule="evenodd" d="M100.288 25.7504C100.288 25.2803 99.9121 24.9043 99.442 24.9043C98.972 24.9043 98.5646 25.2803 98.5646 25.7504C98.5646 26.2204 98.972 26.6278 99.442 26.6278C99.9121 26.6278 100.288 26.2204 100.288 25.7504Z" fill="#FFDB00"/>
<path fill-rule="evenodd" clip-rule="evenodd" d="M95.1175 18.4181C95.3056 18.4807 95.5249 18.5434 95.7443 18.6061L96.089 18.2614L95.5249 16.9766L94.7728 17.666L95.1175 18.4181Z" fill="#FFDB00"/>
<path fill-rule="evenodd" clip-rule="evenodd" d="M108.686 17.1959L109.313 17.8226L109.846 16.5378L109.188 15.9424L108.686 17.1959Z" fill="#FFDB00"/>
<path fill-rule="evenodd" clip-rule="evenodd" d="M109.752 18.2614L110.097 18.6061C110.316 18.5434 110.504 18.4807 110.723 18.4181L111.037 17.666L110.285 16.9766L109.752 18.2614Z" fill="#FFDB00"/>
<path fill-rule="evenodd" clip-rule="evenodd" d="M95.995 16.5378L96.5277 17.8226L97.1545 17.1959L96.6217 15.9424L95.995 16.5378Z" fill="#FFDB00"/>
<path fill-rule="evenodd" clip-rule="evenodd" d="M97.0917 19.2012H97.123C97.217 19.2325 97.311 19.2952 97.4051 19.3265L97.8751 18.9505L97.4051 17.791L96.7783 18.4178L97.0917 19.2012Z" fill="#FFDB00"/>
<path fill-rule="evenodd" clip-rule="evenodd" d="M96.4344 18.951L96.3401 18.731L96.2144 18.8567C96.3086 18.8881 96.3715 18.9195 96.4344 18.951Z" fill="#FFDB00"/>
<path fill-rule="evenodd" clip-rule="evenodd" d="M109.407 18.951C109.47 18.9195 109.533 18.8881 109.596 18.8567L109.47 18.731L109.407 18.951Z" fill="#FFDB00"/>
<path fill-rule="evenodd" clip-rule="evenodd" d="M106.273 20.016L106.681 20.4234C106.712 20.4234 106.712 20.4234 106.712 20.4234L107.276 19.1073L106.743 18.6372L106.273 20.016Z" fill="#FFDB00"/>
<path fill-rule="evenodd" clip-rule="evenodd" d="M105.803 21.9899H106.273C106.305 21.9899 109.219 22.084 109.783 21.9899C109.94 21.9586 110.065 21.9273 110.159 21.8959L107.652 21.3632L111.538 18.9189C109.626 19.2636 107.684 20.3291 105.803 21.9899ZM103.641 24.2149C103.829 24.2775 103.986 24.4029 104.143 24.5282C105.177 23.9328 106.242 23.6508 107.464 23.5881C107.496 23.4628 107.558 23.3061 107.621 23.1807L105.803 21.9899C105.051 22.648 104.331 23.3688 103.641 24.2149Z" fill="#FFDB00"/>
<path fill-rule="evenodd" clip-rule="evenodd" d="M111.319 18.355C111.475 18.3237 111.632 18.2924 111.789 18.261L111.475 17.979L111.319 18.355Z" fill="#FFDB00"/>
<path fill-rule="evenodd" clip-rule="evenodd" d="M105.835 21.1752C105.991 21.0185 106.148 20.8931 106.305 20.7678L106.054 20.5171L105.835 21.1752Z" fill="#FFDB00"/>
<path fill-rule="evenodd" clip-rule="evenodd" d="M108.937 24.7478C109.438 24.7478 109.814 24.3718 109.814 23.9018C109.814 23.4317 109.438 23.0557 108.937 23.0557C108.467 23.0557 108.091 23.4317 108.091 23.9018C108.091 24.3718 108.467 24.7478 108.937 24.7478Z" fill="#FFDB00"/>
<path fill-rule="evenodd" clip-rule="evenodd" d="M107.464 19.9531C107.652 19.8591 107.809 19.7338 107.966 19.6398L107.684 19.4204L107.464 19.9531Z" fill="#FFDB00"/>
<path fill-rule="evenodd" clip-rule="evenodd" d="M106.932 18.0412L107.496 18.5426L107.997 17.3518L107.37 16.7251L106.932 18.0412Z" fill="#FFDB00"/>
<path fill-rule="evenodd" clip-rule="evenodd" d="M107.965 18.9505L108.436 19.3579C108.498 19.2952 108.592 19.2638 108.686 19.2012H108.718L109.062 18.4178L108.436 17.791L107.965 18.9505Z" fill="#FFDB00"/>
<path fill-rule="evenodd" clip-rule="evenodd" d="M122.662 63.4175L125.545 63.9502C125.107 61.8507 124.543 60.1898 124.104 59.7511C123.509 59.7198 122.913 59.6258 122.443 59.3438L122.412 59.5004H122.224C122.036 59.5004 121.879 59.5004 121.691 59.4691C122.098 60.9419 122.443 62.3207 122.662 63.4175Z" fill="#FFDB00"/>
<path fill-rule="evenodd" clip-rule="evenodd" d="M119.498 69.6847C119.717 70.8129 120.563 73.2885 121.002 74.6046C121.44 73.7585 121.722 72.5364 121.91 71.5023C122.004 71.0949 122.161 68.2119 122.193 66.8018L119.717 67.2718C119.654 68.1179 119.529 69.4654 119.498 69.6847Z" fill="#FFDB00"/>
<path fill-rule="evenodd" clip-rule="evenodd" d="M123.039 66.6449C123.07 67.8357 122.976 69.1832 122.882 70.374C122.851 70.5307 122.851 70.7501 122.819 70.9694C122.757 71.4708 122.694 72.0662 122.725 72.2856C122.945 73.8524 123.258 75.1685 123.791 76.8607C123.853 76.9861 123.885 77.1114 123.916 77.2681C124.449 76.8921 124.981 76.6414 125.577 76.422C125.671 76.1086 125.765 75.7326 125.859 75.3252C126.36 72.7869 126.392 69.5906 125.953 66.3002L125.922 66.1436L123.039 66.6449Z" fill="#FFDB00"/>
<path fill-rule="evenodd" clip-rule="evenodd" d="M116.427 72.6304C117.899 73.3198 119.153 74.0719 120.218 74.918C120.03 74.3852 119.811 73.7898 119.748 73.5705C118.839 73.1318 117.774 72.8497 116.427 72.6304Z" fill="#FFDB00"/>
<path fill-rule="evenodd" clip-rule="evenodd" d="M111.914 68.6816L113.23 71.3138C113.982 70.9378 114.734 69.935 114.609 68.1802L111.914 68.6816Z" fill="#FFDB00"/>
<path fill-rule="evenodd" clip-rule="evenodd" d="M116.019 67.9296C116.614 69.2458 117.022 70.6246 117.273 71.6587C117.68 71.22 118.307 70.3425 118.651 69.5278C118.714 68.9324 118.777 68.149 118.839 67.4282L116.019 67.9296Z" fill="#FFDB00"/>
<path fill-rule="evenodd" clip-rule="evenodd" d="M126.454 64.138L129.494 64.702C129.149 63.2919 128.523 61.0357 127.614 59.6882C126.893 59.5942 126.204 59.4061 125.514 59.0928C125.546 59.3121 125.546 59.5315 125.546 59.5628L125.577 59.7508H125.358C125.358 59.7508 125.264 59.7508 125.138 59.7508C125.608 60.6283 126.078 62.1951 126.454 64.138Z" fill="#FFDB00"/>
<path fill-rule="evenodd" clip-rule="evenodd" d="M126.799 65.9873C128.46 67.8362 129.651 68.0869 130.089 68.1182C130.058 67.7422 129.933 66.9901 129.87 66.6767C129.87 66.6767 129.776 66.1127 129.651 65.4546L126.799 65.9873Z" fill="#FFDB00"/>
<path fill-rule="evenodd" clip-rule="evenodd" d="M126.956 67.2715C127.238 70.1858 127.206 72.7554 126.768 75.1057C126.705 75.4817 126.642 75.8577 126.548 76.2025C126.736 76.1711 126.893 76.1711 127.05 76.1398L127.363 74.8863L127.426 74.7923L127.05 74.949L127.708 71.3766L128.021 71.6586L127.896 71.2826L129.995 71.6586C129.995 71.5333 129.995 71.4393 129.995 71.3139C129.964 70.2798 129.901 69.7157 129.839 69.0263V68.9323C128.898 68.7756 128.209 68.3996 126.956 67.2715Z" fill="#FFDB00"/>
<path fill-rule="evenodd" clip-rule="evenodd" d="M119.591 62.8219L121.754 63.2293C121.503 62.1639 121.19 60.8164 120.782 59.3749C120.344 59.3122 119.999 59.2182 119.685 59.0615V59.2809L119.497 59.3122C119.372 59.3122 119.09 59.3436 118.871 59.3749C119.184 60.3777 119.435 61.5998 119.591 62.8219Z" fill="#FFDB00"/>
<path fill-rule="evenodd" clip-rule="evenodd" d="M111.914 61.3803L114.202 61.819C114.17 61.1296 114.076 60.0641 113.857 59.3434C113.638 59.312 113.324 59.218 113.105 59.124L111.914 61.3803Z" fill="#FFDB00"/>
<path fill-rule="evenodd" clip-rule="evenodd" d="M115.079 61.9758L116.27 62.1952C116.176 61.3804 115.988 59.8763 115.894 59.3122C115.643 59.2809 115.424 59.2182 115.142 59.0615V59.1555L115.048 59.2182C114.954 59.2809 114.86 59.3122 114.734 59.3122C114.954 60.1896 115.048 61.2864 115.079 61.9758Z" fill="#FFDB00"/>
<path fill-rule="evenodd" clip-rule="evenodd" d="M97.8438 19.6398C98.0318 19.7338 98.1885 19.8591 98.3765 19.9531L98.1258 19.4204L97.8438 19.6398Z" fill="#FFDB00"/>
<path fill-rule="evenodd" clip-rule="evenodd" d="M94.0521 18.261C94.2088 18.2924 94.3655 18.3237 94.4908 18.355L94.3342 17.979L94.0521 18.261Z" fill="#FFDB00"/>
<path fill-rule="evenodd" clip-rule="evenodd" d="M82.2068 80.4332C82.2695 80.4646 82.3635 80.4646 82.4575 80.4959C82.7395 80.5586 83.4289 80.5586 83.805 80.4332C84.1183 80.3079 84.5884 80.0572 84.8391 79.7751C85.5285 79.0857 85.9359 78.271 86.3746 77.4249C86.5626 77.1115 86.7193 76.7982 86.9073 76.4848C87.3773 75.67 87.8474 74.8553 88.4741 74.0405C86.4686 75.106 84.9331 76.2341 83.993 77.9576C83.9303 78.0516 83.8676 78.177 83.805 78.3023C83.6169 78.647 83.3662 79.1171 83.1782 79.3991C82.9902 79.6811 82.4888 80.1512 82.2068 80.4332Z" fill="#FFDB00"/>
<path fill-rule="evenodd" clip-rule="evenodd" d="M86.0925 73.5705L86.0298 73.7585C85.9358 74.0092 85.7792 74.4479 85.6538 74.8239C86.5312 74.1032 87.7847 73.3511 89.3829 72.6304C88.0354 72.8497 86.97 73.1631 86.0925 73.5705Z" fill="#FFDB00"/>
<path fill-rule="evenodd" clip-rule="evenodd" d="M83.6483 66.8018C83.6483 68.1492 83.8363 71.0949 83.8989 71.5023C84.1183 72.5364 84.4003 73.7585 84.8077 74.6046C85.6225 72.317 86.1552 70.5308 86.3432 69.6847C86.3119 69.4654 86.1865 68.1179 86.1239 67.2718L83.6483 66.8018Z" fill="#FFDB00"/>
<path fill-rule="evenodd" clip-rule="evenodd" d="M91.3571 68.4312C91.3257 69.81 91.8898 70.6561 92.5165 71.0321L93.6133 68.8385L91.3571 68.4312Z" fill="#FFDB00"/>
<path fill-rule="evenodd" clip-rule="evenodd" d="M84.0243 75.043C83.4602 75.6384 83.0529 76.4218 82.7082 77.4872C82.6455 77.7379 82.3321 78.678 82.1441 79.3361C82.2695 79.1794 82.4261 79.0227 82.5201 78.866C82.6142 78.678 82.8022 78.3647 82.9589 78.0513C83.0842 77.8006 83.2096 77.5812 83.3036 77.4246C83.6796 76.7665 83.9303 76.4218 84.463 75.8891C84.3377 75.701 84.1497 75.3877 84.0243 75.043Z" fill="#FFDB00"/>
<path fill-rule="evenodd" clip-rule="evenodd" d="M87.8474 59.4377C87.5653 60.3465 87.3146 61.5059 87.158 62.6654L88.6935 62.3834C88.7248 61.788 88.8815 60.7852 88.9755 60.0018C89.0382 59.7511 89.0695 59.5317 89.0695 59.3437C88.9755 59.3437 88.8188 59.3124 88.6621 59.281L88.5054 59.2497V59.187C88.3174 59.281 88.0981 59.375 87.8474 59.4377Z" fill="#FFDB00"/>
<path fill-rule="evenodd" clip-rule="evenodd" d="M91.9838 59.3434C91.7958 60.0328 91.7018 61.0356 91.6391 61.819L93.8953 61.3803L92.7359 59.124C92.4852 59.218 92.2032 59.312 91.9838 59.3434Z" fill="#FFDB00"/>
<path fill-rule="evenodd" clip-rule="evenodd" d="M87.1894 69.5278C87.5027 70.3425 88.1295 71.22 88.5682 71.6587C88.8189 70.6246 89.2263 69.2144 89.8216 67.9296L87.0013 67.4282C87.0327 68.1176 87.0954 68.901 87.1894 69.5278Z" fill="#FFDB00"/>
<path fill-rule="evenodd" clip-rule="evenodd" d="M85.0584 59.3749C84.6197 60.9731 84.275 62.2579 84.0557 63.2293L86.2492 62.8219C86.4059 61.6311 86.6566 60.409 86.97 59.3749C86.7506 59.3436 86.4686 59.3122 86.3432 59.3122L86.1239 59.2809L86.1552 59.0615C85.8419 59.2182 85.4658 59.3122 85.0584 59.3749Z" fill="#FFDB00"/>
<path fill-rule="evenodd" clip-rule="evenodd" d="M117.367 74.0405C117.993 74.8553 118.495 75.7014 118.934 76.4848C119.122 76.8295 119.31 77.1742 119.498 77.5189C119.905 78.3337 120.281 79.1171 120.939 79.7751C121.096 79.9632 121.378 80.1512 121.628 80.2765C121.785 79.9005 122.067 79.3678 122.318 78.9604C122.193 78.741 122.067 78.4903 121.973 78.3023C121.911 78.177 121.848 78.0516 121.785 77.9576C120.814 76.2028 119.31 75.0746 117.367 74.0405Z" fill="#FFDB00"/>
<path fill-rule="evenodd" clip-rule="evenodd" d="M125.514 85.6974C126.078 85.6034 126.11 84.6946 125.765 84.0052C125.514 83.5038 124.793 82.4383 124.793 82.4383L122.036 81.7803C122.036 81.937 122.004 82.125 122.004 82.2817C122.004 82.8144 122.13 83.5038 122.286 84.0052C123.446 83.9738 124.981 85.8227 125.514 85.6974Z" fill="#FFDB00"/>
<path fill-rule="evenodd" clip-rule="evenodd" d="M128.711 72.0034L129.149 73.3196L128.115 72.4421L127.802 74.0716L129.087 73.6329L128.209 74.761L129.901 75.0744L129.494 73.7269L130.528 74.573L130.81 72.9435L129.557 73.4136L130.403 72.3168L128.711 72.0034Z" fill="#FFDB00"/>
<path fill-rule="evenodd" clip-rule="evenodd" d="M132.753 59.8132C134.664 62.5395 135.354 65.3911 135.793 67.334C135.887 67.6474 135.949 67.9607 136.012 68.2114C136.2 68.9008 136.607 69.2769 137.015 69.6529L137.171 69.7783C138.143 70.7497 139.428 71.2511 140.336 71.5018C140.493 71.5331 140.712 71.5644 140.9 71.5958C140.712 69.4335 140.368 67.4593 139.866 65.5791L139.804 65.3911C139.772 65.2658 139.741 65.1718 139.71 65.0777C139.302 63.6049 138.77 62.2261 138.112 60.7846C138.049 60.6906 137.923 60.4399 137.61 59.8445C137.14 59.9385 136.733 60.0012 136.325 60.0012C135.354 60.0012 134.445 59.7192 133.536 59.2178C133.536 59.3431 133.568 59.4371 133.568 59.4685L133.599 59.6878L133.411 59.7192C133.38 59.7192 133.035 59.7818 132.753 59.8132Z" fill="#FFDB00"/>
<path fill-rule="evenodd" clip-rule="evenodd" d="M79.8878 66.1436V66.3002C79.4178 69.5906 79.4491 72.7869 79.9818 75.3252L80.0132 75.4506C80.1072 75.8579 80.2012 76.422 80.3892 76.9234C80.6086 77.5815 81.1099 78.4902 81.392 79.0229C81.4233 78.8663 81.4547 78.7409 81.486 78.5842C81.6427 77.9888 81.8307 77.3308 81.9874 76.8607C82.4574 75.3879 82.8648 74.0404 83.1155 72.2856C83.1155 72.0662 83.0528 71.4708 83.0215 71.0007C82.9902 70.7501 82.9588 70.5307 82.9588 70.374C82.8335 68.9012 82.7708 67.7104 82.8021 66.6449L79.8878 66.1436Z" fill="#FFDB00"/>
<path fill-rule="evenodd" clip-rule="evenodd" d="M69.2021 69.9041L69.3274 70.2175C69.3901 70.3115 70.1422 70.8756 70.3302 70.9383C70.4869 70.8756 71.0509 70.6562 71.1763 70.5935C71.2389 70.4682 71.3956 69.5281 71.3643 69.3714L71.2389 69.0581L71.5523 69.0894C71.709 69.0894 72.4611 69.0581 72.6178 68.9954H72.6491C72.6491 68.964 72.7431 68.9327 72.7118 68.6507C72.6491 68.4 72.5238 67.9926 72.4611 67.8046C72.1164 66.9585 71.4896 66.4258 71.2703 66.2377C71.1449 66.1437 70.9256 66.0497 70.8629 66.0497C70.7689 66.0184 70.6435 66.0184 70.5495 66.0497C70.4555 66.0811 70.4242 66.1124 70.3929 66.1751C70.3929 66.2064 70.3615 66.3004 70.3615 66.3631C70.2675 66.5824 70.2362 66.7391 70.1422 66.8018C70.1108 66.8645 70.0482 66.8958 70.0168 66.8958C69.9228 66.9272 69.8288 66.9272 69.7348 66.8645C69.6094 66.7705 69.5154 66.5511 69.5154 66.0811L69.4841 65.9871L69.5781 65.9244C69.6094 65.893 69.6721 65.8617 69.7348 65.8304C69.8288 65.7677 69.9228 65.705 69.9855 65.6423C70.2048 65.3603 70.2362 65.235 70.2362 65.235C70.2048 65.2036 70.0482 65.1723 69.8915 65.235L69.7348 65.2976L69.6408 65.1723C69.6408 65.1723 69.6094 65.141 69.5781 65.141C69.5468 65.1723 69.4528 65.2976 69.3587 65.3917L69.014 65.1723C69.108 64.9843 69.0767 64.7963 68.9827 64.6709C68.92 64.6082 68.7947 64.5142 68.6067 64.6082L68.4186 64.6709L68.1993 64.1382L67.9173 64.2635L68.1366 64.7649L67.9486 64.8589C67.7606 64.9529 67.7292 65.0783 67.7292 65.1723C67.7606 65.329 67.8546 65.4857 68.0739 65.5797L67.9486 65.9557C67.8232 65.9244 67.6666 65.9244 67.6352 65.9557C67.6039 65.9557 67.6039 65.9557 67.6039 65.9871L67.6352 66.1437L67.5099 66.2064C67.3219 66.2691 67.2278 66.3944 67.2278 66.4258C67.2278 66.4571 67.3219 66.4884 67.6666 66.5511C67.7606 66.5824 67.9173 66.5511 67.9799 66.5198C68.0739 66.4884 68.1366 66.4884 68.1993 66.4884H68.2933L68.356 66.5824C68.6693 66.8958 68.7633 67.1152 68.732 67.2719C68.7007 67.3659 68.638 67.4599 68.544 67.4912C68.5127 67.4912 68.45 67.5226 68.3873 67.5226C68.262 67.5226 68.1366 67.4599 67.9486 67.3345C67.8546 67.3032 67.8232 67.2405 67.7606 67.2405C67.6979 67.2092 67.6666 67.2092 67.6039 67.2405C67.4785 67.3032 67.3845 67.3659 67.3532 67.4599C67.2905 67.5226 67.1965 67.7419 67.1965 67.8673C67.1652 68.1806 67.1025 68.9954 67.4472 69.8101C67.5099 69.9982 67.6979 70.3742 67.8546 70.5935C68.0113 70.8442 68.1053 70.8129 68.1366 70.7816C68.3246 70.7189 68.8887 70.2175 68.9827 70.1235L69.2021 69.9041Z" fill="#FFDB00"/>
<path fill-rule="evenodd" clip-rule="evenodd" d="M84.369 81.0599L84.087 82.9714C84.9957 82.6894 86.2179 82.1253 86.3432 81.5926C87.0013 78.5216 88.6935 75.8267 91.4198 73.6331L92.0152 72.4736C91.5451 72.6617 91.1377 72.8183 90.7304 72.975C89.2575 74.1031 88.4741 75.4506 87.6594 76.8921C87.5027 77.1428 87.346 77.4248 87.2206 77.6755C86.7193 78.6156 86.1865 79.5871 85.3404 80.4018C85.0898 80.6839 84.7764 80.8405 84.369 81.0599Z" fill="#FFDB00"/>
<path fill-rule="evenodd" clip-rule="evenodd" d="M72.0537 71.4708C72.1477 71.5648 72.1791 71.6588 72.2418 71.7528L72.3044 71.8469L75.4068 77.5501C75.1247 75.9206 74.9994 74.0404 74.9994 72.0975C74.9994 71.8469 74.9994 71.5962 74.9994 71.3768L75.0307 70.7501C75.0621 70.1233 75.0934 69.5279 75.1247 68.9012L74.8427 68.8385V68.6818C74.8427 68.5878 74.8427 68.5252 74.874 68.4312C74.2786 68.9325 73.8399 69.2459 73.4012 69.4966C73.3072 69.6533 73.1505 69.7473 73.0565 69.7786L72.9625 69.81C72.8058 69.8726 72.5551 69.904 72.2104 69.9353C72.2104 70.186 72.1477 70.5307 72.0224 70.9068L72.0537 71.4708Z" fill="#FFDB00"/>
<path fill-rule="evenodd" clip-rule="evenodd" d="M76.0021 68.9323L75.9707 69.0577C75.9081 69.7471 75.8767 70.2798 75.8454 71.3139C75.8454 71.5333 75.8454 71.784 75.8454 72.0347C75.8454 75.5444 76.3154 78.6781 77.1302 80.6523L78.0076 81.9997L79.4805 76.9545C79.3238 76.3591 79.1671 75.7637 79.0417 75.137C78.6344 72.7554 78.5717 70.1858 78.8851 67.2715C77.6316 68.3996 76.9422 68.7756 76.0021 68.9323Z" fill="#FFDB00"/>
<path fill-rule="evenodd" clip-rule="evenodd" d="M99.7868 20.5171L99.5048 20.7678C99.6928 20.8931 99.8495 21.0185 100.006 21.1752L99.7868 20.5171Z" fill="#FFDB00"/>
<path fill-rule="evenodd" clip-rule="evenodd" d="M99.1286 20.3921V20.4234L99.5674 20.016L99.0973 18.6372L98.5646 19.1073L99.1286 20.3921Z" fill="#FFDB00"/>
<path fill-rule="evenodd" clip-rule="evenodd" d="M89.9469 59.3122C89.8529 59.8763 89.6649 61.3804 89.5709 62.1952L90.7617 61.9758C90.793 61.2864 90.887 60.1583 91.1064 59.3122C90.981 59.3122 90.887 59.2809 90.793 59.2182L90.699 59.1555V59.0615C90.417 59.2182 90.1976 59.2809 89.9469 59.3122Z" fill="#FFDB00"/>
<path fill-rule="evenodd" clip-rule="evenodd" d="M71.4896 65.3288C71.615 65.3915 71.7403 65.4541 71.8343 65.5481H71.8657C72.1477 65.7988 72.8684 66.4256 73.3072 67.4597C73.3698 67.6477 73.4952 68.0237 73.5578 68.3371C73.9966 68.0551 74.4666 67.6477 75.0307 67.115C75.4381 64.2633 76.1901 61.6624 77.1929 59.7822C77.0676 59.7822 76.9422 59.7822 76.9422 59.7822H76.7229L76.7542 59.5315C76.7542 59.5315 76.7542 59.3121 76.8169 59.0928C76.0961 59.5002 75.25 59.8449 74.0906 59.8762C73.9966 60.0329 73.8712 60.2209 73.7772 60.3776C72.9938 61.5997 72.273 62.7278 71.4896 65.3288Z" fill="#FFDB00"/>
<path fill-rule="evenodd" clip-rule="evenodd" d="M95.7129 21.8959C95.8069 21.9273 95.9009 21.9586 96.0263 21.9899C96.4023 22.0526 98.6899 22.0213 99.536 21.9899H100.037C98.1572 20.3291 96.183 19.2636 94.2714 18.9189L98.1885 21.3632L95.7129 21.8959ZM98.3765 23.5881C99.63 23.6508 100.727 23.9642 101.761 24.5909C101.918 24.4342 102.074 24.3402 102.231 24.2462C101.51 23.4001 100.789 22.648 100.037 21.9899L98.2199 23.1807C98.2825 23.3061 98.3452 23.4628 98.3765 23.5881Z" fill="#FFDB00"/>
<path fill-rule="evenodd" clip-rule="evenodd" d="M76.1901 65.4546C76.0647 66.1127 75.9707 66.6767 75.9707 66.6767C75.9081 66.9901 75.7827 67.7422 75.72 68.1182C76.1587 68.0869 77.3495 67.8362 79.0417 65.9873L76.1901 65.4546Z" fill="#FFDB00"/>
<path fill-rule="evenodd" clip-rule="evenodd" d="M78.1956 59.6882C77.3182 61.0357 76.6914 63.2919 76.3467 64.702L79.3551 64.138C79.6998 62.2264 80.2012 60.6596 80.6712 59.7508C80.5772 59.7508 80.4832 59.7508 80.4832 59.7508H80.2638V59.5628C80.2638 59.5315 80.2952 59.3121 80.2952 59.0928C79.6371 59.4061 78.9477 59.5942 78.1956 59.6882Z" fill="#FFDB00"/>
<path fill-rule="evenodd" clip-rule="evenodd" d="M81.7367 59.7511C81.2667 60.1898 80.734 61.8194 80.2639 63.9502L83.1782 63.4175C83.3976 62.3207 83.7423 60.9419 84.1183 59.4691C83.9616 59.5004 83.7736 59.5004 83.5856 59.5004H83.3976V59.3438C82.8962 59.6258 82.3321 59.7198 81.7367 59.7511Z" fill="#FFDB00"/>
<path fill-rule="evenodd" clip-rule="evenodd" d="M97.8438 17.3518L98.3451 18.5426L98.9092 18.0412L98.4705 16.7251L97.8438 17.3518Z" fill="#FFDB00"/>
<path fill-rule="evenodd" clip-rule="evenodd" d="M117.147 62.3834L118.714 62.6654C118.526 61.5373 118.275 60.3778 117.993 59.4377C117.743 59.375 117.523 59.281 117.335 59.187V59.2497L117.179 59.281C117.022 59.3124 116.865 59.3437 116.74 59.3437C116.771 59.5317 116.803 59.7511 116.834 60.0331C116.959 60.7852 117.085 61.788 117.147 62.3834Z" fill="#FFDB00"/>
<path fill-rule="evenodd" clip-rule="evenodd" d="M64.8462 72.4737C64.7836 73.6645 64.7209 74.8553 64.7209 76.0774C64.3449 82.3448 66.0057 88.2674 67.4159 92.3725L68.6693 86.4499C67.6665 82.8148 67.4159 78.271 67.7919 71.659C67.7292 71.6276 67.6665 71.5963 67.6039 71.5649C66.8831 71.9723 66.1624 72.223 65.5043 72.3797C65.379 72.411 65.0656 72.4424 64.8462 72.4737Z" fill="#FFDB00"/>
<path fill-rule="evenodd" clip-rule="evenodd" d="M140.274 72.3797C139.616 72.223 138.895 71.9723 138.174 71.5649C138.111 71.5963 138.049 71.6276 137.986 71.659C138.362 78.271 138.111 82.8148 137.109 86.4499L138.362 92.3725C139.772 88.2674 141.433 82.3448 141.057 76.0774C141.057 74.8553 141.026 73.6645 140.932 72.4737C140.712 72.4424 140.399 72.411 140.274 72.3797Z" fill="#FFDB00"/>
<path fill-rule="evenodd" clip-rule="evenodd" d="M67.6979 60.7846C67.0398 62.2261 66.5384 63.6049 66.0997 65.0777C66.0684 65.1718 66.0371 65.2658 66.0371 65.3911L65.9744 65.5791C65.473 67.4593 65.1283 69.4335 64.9089 71.5958C65.097 71.5644 65.3476 71.5331 65.473 71.5018C66.0057 71.3451 66.5384 71.1571 67.0085 70.9377C66.8205 70.6557 66.6638 70.3423 66.6011 70.1543C66.1624 69.1202 66.2564 68.1487 66.2878 67.7727C66.3191 67.4593 66.4758 67.1146 66.5384 67.0206C66.3504 66.8013 66.2564 66.4879 66.3504 66.2059C66.4131 65.8925 66.6325 65.7045 66.7891 65.5478C66.8205 65.5165 66.8518 65.4851 66.8518 65.4538C66.8518 65.3598 66.8518 65.2971 66.8205 65.2031C66.8205 64.9524 66.8831 64.7017 67.0398 64.4823L66.7578 63.7303L68.6693 62.9782L68.9827 63.6989C69.2334 63.7616 69.4841 63.8869 69.6408 64.075C69.7035 64.1376 69.7661 64.2003 69.7975 64.263C69.8288 64.2943 69.8915 64.2943 69.9228 64.2943C70.2048 64.263 70.4869 64.3257 70.7062 64.451C70.7376 64.4823 70.7689 64.4823 70.8002 64.5137C71.3956 62.6962 72.1477 61.1607 73.0878 59.8132C72.8058 59.7818 72.4298 59.7192 72.4298 59.7192L72.2417 59.6878L72.2731 59.4685C72.2731 59.4371 72.2731 59.3431 72.3044 59.2178C71.3956 59.7192 70.4869 60.0012 69.5154 60.0012C69.1081 60.0012 68.7007 59.9385 68.1993 59.8445C67.9173 60.4399 67.7919 60.6906 67.6979 60.7846Z" fill="#FFDB00"/>
<path fill-rule="evenodd" clip-rule="evenodd" d="M91.6078 58.4977C91.7958 58.529 92.0465 58.4977 92.3285 58.341L91.8271 57.4009C91.7331 57.7142 91.6391 58.1216 91.6078 58.4977Z" fill="#FFDB00"/>
<path fill-rule="evenodd" clip-rule="evenodd" d="M82.0815 50.9141C79.2298 53.0136 78.1017 57.4634 77.8823 58.3722C77.851 58.6229 77.7883 58.7796 77.7883 58.9049C78.7911 58.8423 79.5745 58.5916 80.4833 58.0275L80.5146 57.9335C81.0787 55.4579 82.2381 53.0763 83.6483 51.4781C83.2409 51.5721 82.8649 51.5408 82.5515 51.3841C82.3948 51.3214 82.2068 51.1648 82.0815 50.9141Z" fill="#FFDB00"/>
<path fill-rule="evenodd" clip-rule="evenodd" d="M89.2262 58.4977C89.7903 58.5604 90.4797 58.4037 90.7304 58.1216C90.887 57.5889 91.0751 56.8682 91.2631 56.3041L90.5423 54.9253C90.135 55.8654 89.5709 57.1189 89.2262 58.4977Z" fill="#FFDB00"/>
<path fill-rule="evenodd" clip-rule="evenodd" d="M79.9506 50.1619V50.1932C79.9506 50.2873 79.9819 50.2873 80.0132 50.2873C80.2013 50.4126 80.922 50.4126 82.0815 49.8485C82.4575 49.3158 83.5543 47.9997 84.2124 47.2163C84.275 47.1536 84.3064 47.1222 84.369 47.0596C83.617 47.1849 82.6455 47.1849 82.2381 47.0909C80.9533 48.4384 80.1386 49.5352 79.9506 50.1619Z" fill="#FFDB00"/>
<path fill-rule="evenodd" clip-rule="evenodd" d="M73.9653 49.7862C73.9339 49.9428 74.122 50.0682 74.216 50.0995C74.498 50.2249 75.2501 49.8488 76.0022 49.4728C76.6289 48.282 78.039 46.6838 79.6999 45.1483C78.9791 45.211 78.3838 45.1797 77.9137 44.835C75.7828 46.4645 74.1846 48.4387 73.9653 49.7862Z" fill="#FFDB00"/>
<path fill-rule="evenodd" clip-rule="evenodd" d="M81.1414 45.1792C81.5175 45.2105 82.3636 45.1792 83.3977 44.7718C83.8677 44.3331 84.2751 43.9884 84.5885 43.7377C84.5258 43.6123 84.4631 43.487 84.3691 43.393C84.2751 43.2676 84.1497 43.1736 84.0244 43.0796C83.4917 43.3303 82.7396 43.8317 81.8622 44.4897C81.8622 44.4897 81.4234 44.8971 81.1414 45.1792Z" fill="#FFDB00"/>
<path fill-rule="evenodd" clip-rule="evenodd" d="M87.0953 58.5915C87.7847 58.6855 88.2547 58.3721 88.4114 58.2154C88.8188 56.8366 89.3829 55.3011 90.0409 53.9223L89.4769 52.8882C88.7248 54.2357 87.722 56.3039 87.1893 58.2154L87.0953 58.5915Z" fill="#FFDB00"/>
<path fill-rule="evenodd" clip-rule="evenodd" d="M73.2444 58.9676C74.9993 59.1557 75.9707 58.6543 77.0675 57.9335C77.3496 56.7114 77.9763 54.8625 78.6657 53.6091L78.8224 53.327C79.1671 52.7316 79.5431 52.0422 80.3892 51.2275C80.0445 51.2275 79.7625 51.1648 79.5431 51.0394C79.4178 50.9454 79.3238 50.8514 79.2611 50.7261C78.2583 51.0394 77.6316 51.1648 77.1615 51.1648C75.72 52.7003 74.6859 55.1759 73.5265 58.2782C73.4638 58.4349 73.3385 58.7483 73.2444 58.9676Z" fill="#FFDB00"/>
<path fill-rule="evenodd" clip-rule="evenodd" d="M87.2206 51.1964C87.2833 51.259 87.4713 51.3217 87.816 51.3217C87.9414 51.3217 88.0981 51.3217 88.2234 51.2904C88.1607 51.259 87.722 50.9457 87.5967 50.8203C87.534 50.8516 87.4713 50.9143 87.4087 51.0083C87.346 51.071 87.252 51.165 87.2206 51.1964Z" fill="#FFDB00"/>
<path fill-rule="evenodd" clip-rule="evenodd" d="M84.9018 51.3213C83.617 52.5748 82.3322 54.2983 81.3294 57.996C81.2667 58.278 81.2354 58.6227 81.204 58.9048C82.2695 58.9048 83.2723 58.7794 83.523 57.996C84.275 55.4891 85.0271 53.2328 86.6566 51.6033C86.6253 51.572 86.594 51.5406 86.594 51.5093C86.0926 51.572 85.3405 51.6033 84.9018 51.3213Z" fill="#FFDB00"/>
<path fill-rule="evenodd" clip-rule="evenodd" d="M87.5026 51.9479C85.8418 53.4208 85.1524 55.489 84.369 58.2153C84.3376 58.3406 84.3063 58.4973 84.275 58.6227C85.1837 58.5913 85.9045 58.3406 86.3745 57.9019C87.0013 55.771 87.9414 53.6088 88.9441 52.0106L88.6934 51.8853C88.2234 52.0106 87.7533 51.9479 87.5026 51.9479Z" fill="#FFDB00"/>
<path fill-rule="evenodd" clip-rule="evenodd" d="M78.7284 44.3019C79.2611 44.4272 80.4519 44.3019 80.8906 44.1452C81.6427 43.5498 82.3321 43.0797 82.9275 42.7037C82.7395 42.7037 82.5828 42.6724 82.3948 42.6724C81.392 42.7977 80.0759 43.3931 78.7284 44.3019Z" fill="#FFDB00"/>
<path fill-rule="evenodd" clip-rule="evenodd" d="M85.9358 49.5664C85.5598 50.0051 85.3718 50.3812 85.2778 50.6005C85.2778 50.6319 85.5285 50.7572 85.7478 50.7885C86.0925 50.8199 86.6879 50.7885 86.8446 50.6319C86.8759 50.6005 86.9073 50.6005 86.9386 50.5692C86.7506 50.3812 86.5626 50.1931 86.3432 49.9738C86.2179 49.8484 86.0925 49.6918 85.9358 49.5664Z" fill="#FFDB00"/>
<path fill-rule="evenodd" clip-rule="evenodd" d="M80.3579 45.7749C79.5744 46.4643 76.8481 49.0339 76.7541 49.88C76.7228 50.0994 76.8481 50.2247 76.8795 50.2561C77.1928 50.4754 78.5717 50.068 79.1357 49.88C79.4178 49.0026 80.4832 47.5924 81.956 46.0569L81.9874 46.0256C81.4233 46.0883 80.7339 46.0883 80.3579 45.7749Z" fill="#FFDB00"/>
<path fill-rule="evenodd" clip-rule="evenodd" d="M83.0529 46.3073C83.4916 46.3387 84.3377 46.276 84.839 46.0566C84.9017 45.5239 84.9017 45.0539 84.839 44.6465C84.369 45.0539 83.5229 45.8373 83.0529 46.3073Z" fill="#FFDB00"/>
<path fill-rule="evenodd" clip-rule="evenodd" d="M82.7708 50.381C82.7708 50.4437 82.7708 50.475 82.7708 50.5064C82.8335 50.6004 82.9275 50.663 82.9902 50.663C83.2095 50.6944 83.5856 50.7884 84.5883 50.0676C84.651 49.9736 84.745 49.8483 84.839 49.7229C85.0271 49.4723 85.2151 49.2216 85.3718 48.9709C85.0584 48.5948 84.9017 48.2815 84.8077 48.0308C83.9616 48.8142 83.0215 49.8796 82.7708 50.381Z" fill="#FFDB00"/>
<path fill-rule="evenodd" clip-rule="evenodd" d="M68.45 59.0303C69.5781 59.2496 70.9882 59.2496 72.7431 57.8708C73.8399 55.0192 74.8426 52.5436 76.2841 50.8827C76.1588 50.7574 76.0648 50.632 75.9708 50.444C75.0933 50.8827 74.4353 51.1334 73.8712 50.8827C73.6518 50.7887 73.4638 50.632 73.3071 50.3813L73.2445 50.4127C72.7744 50.6634 72.3044 50.9454 71.4583 51.0081C69.7661 53.9537 68.826 56.4607 68.45 59.0303Z" fill="#FFDB00"/>
<path fill-rule="evenodd" clip-rule="evenodd" d="M70.8315 50.0995C70.8942 50.1308 71.0196 50.1622 71.1762 50.1622C71.9597 50.1622 72.367 49.9428 72.8371 49.6608C72.9311 49.6295 73.0251 49.5668 73.1191 49.5041C73.4325 48.188 74.6546 46.4644 76.4408 44.9289C75.8768 44.8976 75.438 44.7723 75.1247 44.4902C73.4012 45.775 71.3329 47.7806 70.8315 50.0995Z" fill="#FFDB00"/>
<path fill-rule="evenodd" clip-rule="evenodd" d="M75.8768 43.9572C76.3468 44.1765 77.1616 44.0512 77.8196 43.8318L77.945 43.8005C79.1985 42.8917 80.4833 42.265 81.6114 41.983C81.4234 41.7323 81.298 41.4816 81.2354 41.2622C79.9819 41.6382 77.9137 42.547 75.8768 43.9572Z" fill="#FFDB00"/>
<path fill-rule="evenodd" clip-rule="evenodd" d="M68.638 71.5336C68.1366 78.9604 68.8573 84.6637 69.4841 86.1992C69.9541 87.2333 70.5809 88.4554 70.9569 89.1135L72.2731 82.8775C71.6777 81.2793 71.3643 78.9917 71.333 76.1087L71.3016 75.8581C71.3016 75.6387 71.3016 75.3567 71.3016 75.2627L70.1108 71.7843C69.9228 71.7529 69.6408 71.5963 69.2647 71.3456C69.2021 71.2829 69.1707 71.2516 69.108 71.2202C68.9827 71.3456 68.7947 71.4396 68.638 71.5336Z" fill="#FFDB00"/>
<path fill-rule="evenodd" clip-rule="evenodd" d="M78.1643 91.2132C78.4777 91.3073 78.7597 91.5266 79.7625 91.3073C80.7966 91.0879 80.8593 90.7745 81.11 90.5552C80.3265 90.8999 79.2611 91.1506 78.1643 91.2132Z" fill="#FFDB00"/>
<path fill-rule="evenodd" clip-rule="evenodd" d="M76.9735 89.4264C76.8795 89.6144 76.7855 89.8651 76.8482 90.0531C76.9108 90.3038 77.3182 90.3978 77.3496 90.3978C79.2924 90.3978 81.3293 89.7711 81.4233 89.4891C81.486 89.3324 81.4547 89.2384 81.4547 89.207C79.9192 89.4891 78.9791 89.5517 77.7569 89.5831C77.5376 89.5517 77.2242 89.5204 76.9735 89.4264Z" fill="#FFDB00"/>
<path fill-rule="evenodd" clip-rule="evenodd" d="M80.0759 91.9339C80.1386 92.3412 80.358 93.4694 80.64 93.9394C80.9534 94.4721 82.4575 95.2242 82.7082 95.1929C82.7709 95.1615 82.8336 95.1302 82.8962 95.0989C82.9589 95.0675 83.0216 95.0362 83.0529 95.0362C83.1783 94.7855 83.1783 93.344 82.8649 92.78C82.6142 92.2786 81.7994 91.5892 81.5174 91.3071C81.11 91.5892 80.6087 91.7772 80.0759 91.9339Z" fill="#FFDB00"/>
<path fill-rule="evenodd" clip-rule="evenodd" d="M72.461 79.775C72.5864 80.9031 72.8057 81.8432 73.0878 82.6266L74.1846 84.7575C74.2159 84.5381 74.2472 84.3815 74.2786 84.3188C74.0905 83.7547 73.5892 81.8432 73.5578 81.6865L72.273 77.9888C72.3043 78.5528 72.367 79.1482 72.4297 79.681L72.461 79.775Z" fill="#FFDB00"/>
<path fill-rule="evenodd" clip-rule="evenodd" d="M77.6943 86.5751C78.2271 86.8258 78.9165 87.1078 79.1045 87.1078C79.2298 87.1078 79.3238 87.0765 79.3865 87.0452C78.8225 86.6065 78.2271 86.1677 78.039 86.0737C77.9764 86.1364 77.851 86.3558 77.6943 86.5751Z" fill="#FFDB00"/>
<path fill-rule="evenodd" clip-rule="evenodd" d="M70.9569 71.659C72.2104 75.2313 74.2473 81.0286 74.3413 81.436C74.4039 81.5927 74.4353 81.8121 74.498 82.0941C74.6546 82.6895 74.968 83.9429 75.062 84.131C75.1874 84.2877 75.7514 84.6324 76.1588 84.695C76.5348 84.7264 77.3496 84.319 77.4436 84.131C77.6003 83.8803 77.7256 83.2222 77.663 83.0028C77.6003 82.8148 77.0049 81.9374 76.6289 81.3733C76.4408 81.0913 76.2842 80.8406 76.1588 80.6839C75.8768 80.2139 72.6491 74.2912 71.2076 71.5649C71.1136 71.5963 71.0196 71.6276 70.9569 71.659Z" fill="#FFDB00"/>
<path fill-rule="evenodd" clip-rule="evenodd" d="M76.6602 87.5154C76.5035 87.7348 76.3468 88.0795 76.4095 88.2048C76.4721 88.3929 77.3496 88.7062 77.5689 88.7062C78.8224 88.7062 80.7653 88.5495 81.0473 88.4242C81.11 88.3929 81.1413 88.2362 81.11 87.9855C81.0473 87.7348 80.9533 87.5781 80.8906 87.5781H80.1699C80.0445 87.7348 79.6685 88.0168 79.1358 88.0168C78.5717 88.0168 77.4749 87.4528 77.1302 87.2334L76.6602 87.5154Z" fill="#FFDB00"/>
<path fill-rule="evenodd" clip-rule="evenodd" d="M81.4547 88.5491V88.0478C81.486 87.8284 81.4233 87.6717 81.298 87.515L80.9846 87.2017H82.9902L82.5201 87.5464C82.2381 87.7657 82.1441 87.8597 81.8934 88.1104L81.4547 88.5491Z" fill="#FFDB00"/>
<path fill-rule="evenodd" clip-rule="evenodd" d="M94.8668 24.0896C95.2428 24.0896 95.5562 23.8075 95.5562 23.4315C95.5562 23.0555 95.2428 22.7734 94.8668 22.7734C94.4907 22.7734 94.2087 23.0555 94.2087 23.4315C94.2087 23.8075 94.4907 24.0896 94.8668 24.0896Z" fill="#FFDB00"/>
<path fill-rule="evenodd" clip-rule="evenodd" d="M93.8954 15.6286L94.5221 17.1015L95.3055 16.4121L94.6475 14.8452C94.4594 14.9706 94.3341 15.0959 94.2088 15.2213C94.0834 15.3466 93.9894 15.4719 93.8954 15.6286Z" fill="#FFDB00"/>
<path fill-rule="evenodd" clip-rule="evenodd" d="M94.7101 24.7163C94.8668 24.9983 95.0548 25.2803 95.2429 25.5623C95.2742 25.249 95.3682 24.9356 95.5876 24.6849C95.5562 24.6536 95.5562 24.6222 95.5249 24.5596C95.2742 24.7163 94.9922 24.7789 94.7101 24.7163Z" fill="#FFDB00"/>
<path fill-rule="evenodd" clip-rule="evenodd" d="M93.0493 18.1043C93.1747 18.1043 93.3 18.1357 93.4254 18.1357L94.0834 17.5089L93.5194 16.2241C93.2687 16.7568 93.112 17.3836 93.0493 18.1043Z" fill="#FFDB00"/>
<path fill-rule="evenodd" clip-rule="evenodd" d="M93.8013 21.395L94.3967 22.1784C94.4594 22.1784 94.5221 22.1471 94.5848 22.1471C94.4908 22.0217 94.3341 21.8337 94.2087 21.7083L94.052 21.5517L96.2456 21.0189L93.488 19.2954L95.5875 20.9563L93.8013 21.395Z" fill="#FFDB00"/>
<path fill-rule="evenodd" clip-rule="evenodd" d="M93.1432 19.9531C93.1432 20.2352 93.1432 20.5172 93.1746 20.7992L93.958 20.5799L93.1432 19.9531Z" fill="#FFDB00"/>
<path fill-rule="evenodd" clip-rule="evenodd" d="M130.152 85.2587C130.183 84.6947 128.93 83.4412 128.93 83.4412L127.77 83.1592C127.77 83.1592 128.272 83.9113 128.303 84.726C128.303 85.5094 128.021 86.3242 128.021 86.3242C128.585 86.2615 130.089 85.7915 130.152 85.2587Z" fill="#FFDB00"/>
<path fill-rule="evenodd" clip-rule="evenodd" d="M120.406 85.9796C120.5 85.9796 120.563 85.9796 120.626 85.9796C120.97 86.011 121.816 86.3243 123.195 86.8257C124.825 87.4211 127.112 88.2672 127.833 88.2672C128.366 88.2359 129.839 87.7345 130.309 87.3898C130.873 86.9824 131.719 86.1363 131.687 85.5409C131.625 84.8828 130.904 83.9741 130.904 83.9741C130.779 83.7234 130.246 83.5667 129.745 83.504C130.215 83.9741 130.904 84.8202 130.81 85.3215C130.685 85.9483 130.121 86.4183 129.055 86.7317C128.366 86.9511 127.52 87.0137 127.488 87.0137H127.206L127.3 86.763C127.3 86.7317 127.645 85.6036 127.676 84.7575C127.708 84.0681 127.144 83.222 126.862 82.9086C126.705 82.7206 126.235 82.5639 125.702 82.5639C125.984 82.94 126.423 83.598 126.548 84.0994C126.799 85.1962 126.486 86.105 125.796 86.3557C125.389 86.481 124.762 86.105 123.759 85.4156C123.289 85.1022 122.662 84.6321 122.474 84.6635C122.412 84.6948 122.318 84.6948 122.286 84.7261L122.13 84.8828C122.098 84.9142 122.036 84.9455 122.004 85.0082C121.942 85.1022 121.91 85.1962 121.91 85.2275L121.879 85.3842H121.722C118.902 85.5096 118.651 85.2902 118.557 85.1962C118.432 85.0708 118.338 84.9142 118.338 84.7575C118.307 84.1307 118.965 83.41 119.027 83.3473C119.184 83.1593 119.341 83.0026 119.497 82.9086C119.278 82.7519 119.121 82.6266 118.965 82.4072C118.808 82.7833 118.526 83.2847 117.962 83.6607C117.116 84.2248 116.458 84.2874 116.176 84.2874C116.019 84.7261 115.737 85.5409 115.706 85.8229C115.674 85.9796 115.737 86.199 115.862 86.3557C115.925 86.4183 116.019 86.5123 116.176 86.5437C116.332 86.5437 117.022 86.4497 117.68 86.3243C118.683 86.1676 119.78 85.9796 120.406 85.9796Z" fill="#FFDB00"/>
<path fill-rule="evenodd" clip-rule="evenodd" d="M100.946 9.64346H104.863L103.359 6.91717L106.023 8.484V4.66092L103.359 6.22776L104.863 3.50146H100.977L102.482 6.22776L99.818 4.66092V8.484L102.482 6.91717L100.946 9.64346Z" fill="#FFDB00"/>
<path fill-rule="evenodd" clip-rule="evenodd" d="M132.22 85.0397C132.346 84.8204 132.471 84.5697 132.596 84.319L131.719 84.0996C131.907 84.2876 132.22 85.0397 132.22 85.0397Z" fill="#FFDB00"/>
<path fill-rule="evenodd" clip-rule="evenodd" d="M122.944 79.2422C122.537 79.8689 122.255 80.5583 122.098 81.3417L124.574 81.9371C125.483 81.8118 126.486 81.9998 127.018 82.2818C127.52 82.5325 127.551 82.6266 127.551 82.6266L128.648 82.8772C129.682 82.7206 130.967 83.1279 131.405 83.5667L132.753 83.88C132.91 83.3786 132.972 82.8459 132.972 82.2818C132.972 82.0625 132.972 81.8431 132.941 81.6238L122.944 79.2422Z" fill="#FFDB00"/>
<path fill-rule="evenodd" clip-rule="evenodd" d="M130.528 76.9234C131.844 77.6442 132.816 78.8036 133.317 80.1824C133.348 80.0257 133.38 79.8377 133.38 79.681C133.505 78.7096 133.568 77.5815 133.599 76.2967C133.599 76.1087 133.568 74.3851 133.536 72.6929C133.505 71.5335 133.474 70.374 133.474 69.716C132.596 69.5279 131.938 69.2459 130.967 68.4312C130.967 68.5252 130.998 68.5878 130.998 68.6818V68.8385L130.685 68.9012C130.747 69.5279 130.779 70.1233 130.81 70.7501L130.841 71.3768C130.841 71.5022 130.841 71.6588 130.841 71.8155L131.437 71.9095L131.186 72.2229L131.594 72.0662L130.935 75.6386L130.685 75.4192C130.622 76.1087 130.559 76.61 130.528 76.9234Z" fill="#FFDB00"/>
<path fill-rule="evenodd" clip-rule="evenodd" d="M133.63 83.222L134.884 89.1133C135.229 88.4553 135.887 87.2331 136.325 86.199C136.858 84.9456 137.829 79.3363 137.14 70.8754L137.109 70.844C136.764 70.5933 136.513 70.4053 135.918 69.6846C135.542 69.7786 134.884 69.8099 134.382 69.8099C134.382 70.75 134.445 73.1003 134.445 74.2597C134.476 74.6358 134.476 74.9178 134.476 74.9178C134.476 76.422 134.445 78.4275 134.194 80.2137C134.069 81.0598 133.912 81.8119 133.693 82.47C133.693 82.7206 133.662 82.9713 133.63 83.222Z" fill="#FFDB00"/>
<path fill-rule="evenodd" clip-rule="evenodd" d="M77.9764 85.1962C78.3837 85.1962 78.9478 85.6349 79.6999 86.199C80.0132 86.4183 80.2953 86.6063 80.4206 86.669C80.7967 86.857 82.7082 86.8884 83.1783 86.7317C83.3349 86.7004 83.523 86.6063 83.7423 86.481C84.1184 86.293 84.5884 86.0423 85.1525 85.9796C85.6852 85.9169 86.97 86.1363 88.0981 86.3243C88.7562 86.4497 89.4456 86.5437 89.6023 86.5437C89.759 86.5123 89.853 86.4183 89.9157 86.3557C90.041 86.199 90.1037 85.9796 90.0723 85.8229C90.041 85.5409 89.759 84.7261 89.6023 84.2874C89.3203 84.2874 88.6622 84.2248 87.8161 83.6607C87.252 83.2847 86.97 82.7833 86.8133 82.4072C86.688 82.6266 86.4999 82.7519 86.2806 82.9086C86.4373 83.0026 86.594 83.1593 86.7506 83.3473C86.8447 83.41 87.4714 84.1307 87.4401 84.7575C87.4401 84.9142 87.346 85.0708 87.2207 85.1962C86.688 85.6662 82.0188 85.2902 81.4861 85.2275C81.11 85.1962 80.4833 85.1022 79.8566 85.0082C79.1672 84.9142 78.3211 84.7888 78.1644 84.7888C77.851 84.8202 77.0363 85.1649 76.6289 85.5096C76.2528 85.7916 76.1902 86.387 76.2842 86.6063C76.3155 86.7317 76.3468 86.763 76.3468 86.763C76.3468 86.763 76.3782 86.763 76.4722 86.7317C76.6289 86.669 76.7542 86.5437 76.7856 86.481C76.9109 86.2303 77.4123 85.3215 77.8823 85.2275C77.9137 85.2275 77.945 85.1962 77.9764 85.1962Z" fill="#FFDB00"/>
<path fill-rule="evenodd" clip-rule="evenodd" d="M89.9783 76.2339C89.0068 77.3933 87.9727 78.8975 87.5967 80.2137C87.1266 81.9058 87.9414 82.7206 88.2234 82.9086C88.5055 83.1593 88.8815 83.2533 89.1635 83.316C88.9442 82.8773 88.6621 82.2819 88.5055 81.6551V81.5925C88.3488 80.9971 88.1921 80.3703 88.5055 79.2735C88.6621 78.7408 89.3829 77.3307 89.9783 76.2339Z" fill="#FFDB00"/>
<path fill-rule="evenodd" clip-rule="evenodd" d="M87.44 89.6147C87.4087 89.8341 87.4087 89.9908 87.4087 90.1788C87.44 91.2756 88.6622 92.0903 89.3516 92.3724L89.6336 92.5291L89.6023 92.8111C89.4142 94.848 89.7589 96.3521 90.605 97.2922C90.9811 97.6996 91.5451 97.9817 92.1719 98.1697C91.1691 96.5715 89.6963 94.0332 90.9497 90.6175C90.4797 90.8369 90.0096 90.8369 89.5709 90.8369C89.1322 90.8055 88.0041 90.4608 87.44 89.6147Z" fill="#FFDB00"/>
<path fill-rule="evenodd" clip-rule="evenodd" d="M99.1286 83.3477C98.1258 84.1937 97.0604 85.1652 95.8696 86.262C95.5249 86.6067 95.1488 86.8887 94.8041 87.2021C94.0207 87.8601 93.2059 88.5496 92.3912 89.521C91.7645 90.2731 91.3257 92.0279 91.3257 93.1247C91.3257 94.7856 92.0465 96.133 92.7672 97.4492C93.0806 90.3357 96.3396 85.7606 99.1913 83.9431L99.1286 83.3477Z" fill="#FFDB00"/>
<path fill-rule="evenodd" clip-rule="evenodd" d="M93.6134 98.6087C94.1775 100.082 94.7415 101.116 95.4623 101.899C93.6447 94.0962 95.995 88.1109 99.348 86.074L99.254 84.9146C96.5904 86.8888 93.6134 91.5579 93.6134 98.6087Z" fill="#FFDB00"/>
<path fill-rule="evenodd" clip-rule="evenodd" d="M93.7074 76.6098C93.3 77.4559 92.5792 79.2421 92.4225 80.0881C92.6732 80.0568 92.9239 80.0568 93.1746 80.0255C93.488 78.3333 95.5249 76.3591 99.4733 75.607L99.2226 73.8208L93.7074 76.6098Z" fill="#FFDB00"/>
<path fill-rule="evenodd" clip-rule="evenodd" d="M89.7589 78.6156C89.5709 78.8663 89.1948 79.6497 89.1948 80.4332C89.2262 81.1226 89.4142 81.7493 89.6022 82.188C89.7275 81.812 89.8842 81.4673 90.1349 81.1852C90.5736 80.6525 91.263 80.4018 91.5451 80.3078C91.6078 79.6184 92.0778 78.2396 92.5165 77.2368L89.7589 78.6156Z" fill="#FFDB00"/>
<path fill-rule="evenodd" clip-rule="evenodd" d="M96.5903 102.87C97.2797 103.309 98.0632 103.591 98.9406 103.779C98.8779 103.497 98.7839 103.247 98.6899 102.996C93.9581 100.332 96.9037 91.8086 99.4106 87.1394V87.0454C96.371 89.2076 94.4594 95.193 96.5903 102.87Z" fill="#FFDB00"/>
<path fill-rule="evenodd" clip-rule="evenodd" d="M88.0355 89.0824C88.2235 89.3331 88.5368 89.6465 88.9756 89.8659C89.477 90.1479 90.2917 90.3046 91.2005 89.5211C92.2973 88.3617 93.4254 87.3276 94.5222 86.3561C94.7729 86.1054 95.0549 85.8548 95.3056 85.6354C96.5591 84.4759 97.8439 83.2851 99.066 82.2824L98.972 80.9976C98.0632 82.8151 95.4936 85.9488 93.3627 86.0114C92.9553 86.2935 92.548 86.7008 92.1406 87.1396C91.3258 87.9857 90.4171 88.9258 89.2889 89.2078H89.1949C88.7875 89.2705 88.3488 89.2078 88.0355 89.0824Z" fill="#FFDB00"/>
<path fill-rule="evenodd" clip-rule="evenodd" d="M101.918 92.3413C100.163 96.6971 100.319 100.552 102.45 104.437V95.7883L101.918 92.3413Z" fill="#FFDB00"/>
<path fill-rule="evenodd" clip-rule="evenodd" d="M94.0521 80.0568C94.4282 80.0881 94.7729 80.1821 95.1489 80.2761L95.2429 80.3075C95.807 80.4641 96.3397 80.5895 96.8411 80.5268C96.9351 80.5268 96.9978 80.4955 97.0918 80.4641C97.7499 80.2761 98.4079 79.1793 98.8153 78.3019L99.4734 76.5157C96.4024 77.1738 94.3968 78.4586 94.0521 80.0568ZM99.5361 76.5157L100.413 89.2384L100.351 89.3638C97.2485 94.7537 98.4079 99.7989 99.9748 104.029C100.069 104.217 100.194 104.374 100.445 104.687C100.664 104.938 100.946 105.314 101.354 105.878C101.636 106.254 102.074 106.693 102.419 107.069L102.45 107.1V106.098C98.2512 99.7362 100.006 94.315 101.698 90.7426L99.5987 76.4844C99.5674 76.5157 99.5361 76.5157 99.5361 76.5157Z" fill="#FFDB00"/>
<path fill-rule="evenodd" clip-rule="evenodd" d="M99.5359 88.7998C98.7212 89.1132 95.2428 98.6395 98.2825 101.617C97.4051 98.4515 97.5617 94.033 99.5359 89.0505V88.7998Z" fill="#FFDB00"/>
<path fill-rule="evenodd" clip-rule="evenodd" d="M117.367 79.211C117.649 80.3392 117.492 80.9346 117.367 81.53L117.335 81.5926C117.179 82.2194 116.897 82.8148 116.709 83.2535C116.959 83.2222 117.335 83.0968 117.649 82.8774C117.899 82.6581 118.714 81.8747 118.244 80.1825C117.899 78.835 116.834 77.3308 115.862 76.1714C116.458 77.2682 117.21 78.6783 117.367 79.211Z" fill="#FFDB00"/>
<path fill-rule="evenodd" clip-rule="evenodd" d="M116.27 90.7743C115.831 90.8056 115.392 90.7743 114.891 90.5863C116.145 93.9706 114.703 96.5089 113.669 98.1071C114.327 97.9504 114.891 97.637 115.236 97.2297C116.113 96.3209 116.427 94.8167 116.239 92.7485V92.4665L116.489 92.3411C117.21 92.0278 118.401 91.2443 118.432 90.1476C118.463 89.9595 118.463 89.7715 118.432 89.5835C117.868 90.3983 116.709 90.743 116.27 90.7743Z" fill="#FFDB00"/>
<path fill-rule="evenodd" clip-rule="evenodd" d="M106.681 83.8801C109.501 85.6976 112.791 90.2728 113.105 97.3862C113.826 96.1014 114.515 94.7226 114.546 93.0617C114.546 91.9963 114.076 90.2101 113.45 89.458C112.666 88.4866 111.851 87.7972 111.068 87.1391C110.692 86.8571 110.347 86.5437 109.971 86.199C108.78 85.1335 107.715 84.1621 106.712 83.2847L106.681 83.8801Z" fill="#FFDB00"/>
<path fill-rule="evenodd" clip-rule="evenodd" d="M106.618 84.8828L106.524 86.0109C109.877 88.0478 112.196 94.0331 110.41 101.867C111.099 101.084 111.695 100.018 112.259 98.5456C112.227 91.4949 109.25 86.8257 106.618 84.8828Z" fill="#FFDB00"/>
<path fill-rule="evenodd" clip-rule="evenodd" d="M106.649 73.79L106.399 75.5449C110.316 76.3283 112.353 78.2712 112.666 79.9947C112.948 79.9947 113.199 80.026 113.418 80.0574C113.262 79.2113 112.541 77.3938 112.133 76.5477L106.649 73.79Z" fill="#FFDB00"/>
<path fill-rule="evenodd" clip-rule="evenodd" d="M113.355 77.1738C113.763 78.2079 114.264 79.5554 114.327 80.2448C114.609 80.3388 115.267 80.6209 115.737 81.1536C115.956 81.4356 116.144 81.749 116.238 82.125C116.458 81.7177 116.646 81.0909 116.646 80.3702C116.677 79.5868 116.301 78.8033 116.113 78.584L113.355 77.1738Z" fill="#FFDB00"/>
<path fill-rule="evenodd" clip-rule="evenodd" d="M106.461 86.9829L106.43 87.0769C108.968 91.7461 111.883 100.27 107.151 102.933C107.088 103.215 106.994 103.466 106.9 103.717C107.809 103.529 108.592 103.247 109.25 102.808C111.413 95.1305 109.501 89.1451 106.461 86.9829Z" fill="#FFDB00"/>
<path fill-rule="evenodd" clip-rule="evenodd" d="M116.646 89.176L116.583 89.1447C115.455 88.8627 114.546 87.9226 113.732 87.1078C113.293 86.6691 112.885 86.2304 112.509 85.9797C110.379 85.917 107.809 82.752 106.869 80.9658L106.806 82.2193C107.997 83.2534 109.313 84.4442 110.567 85.5723C110.817 85.823 111.068 86.0424 111.35 86.2931C112.415 87.2958 113.575 88.2986 114.64 89.4581C115.549 90.2415 116.364 90.0848 116.897 89.8341C117.304 89.6148 117.617 89.3014 117.837 89.0194C117.492 89.1447 117.085 89.2074 116.646 89.176Z" fill="#FFDB00"/>
<path fill-rule="evenodd" clip-rule="evenodd" d="M103.422 95.7258V104.375C105.553 100.52 105.709 96.6346 103.923 92.2788L103.422 95.7258Z" fill="#FFDB00"/>
<path fill-rule="evenodd" clip-rule="evenodd" d="M106.399 76.485L107.057 78.2398C107.433 79.1486 108.122 80.2454 108.749 80.4334C108.843 80.4647 108.937 80.4647 109.031 80.4647C109.532 80.5587 110.065 80.402 110.598 80.2767L110.723 80.2454C111.068 80.1513 111.444 80.0573 111.789 79.9947C111.444 78.4278 109.47 77.1117 106.399 76.485ZM106.242 76.4536L104.174 90.7118C105.866 94.2529 107.59 99.6741 103.422 106.035V107.038L103.453 107.007C103.798 106.631 104.205 106.192 104.487 105.816C104.926 105.252 105.208 104.907 105.396 104.657C105.678 104.343 105.772 104.187 105.897 103.999C107.433 99.7681 108.592 94.6916 105.49 89.3017L105.427 89.2077L106.336 76.4536C106.305 76.4536 106.273 76.4536 106.242 76.4536Z" fill="#FFDB00"/>
<path fill-rule="evenodd" clip-rule="evenodd" d="M106.305 88.988C108.31 93.9705 108.436 98.389 107.589 101.554C110.598 98.577 107.151 89.082 106.336 88.7373L106.305 88.988Z" fill="#FFDB00"/>
<path fill-rule="evenodd" clip-rule="evenodd" d="M99.63 39.7267C99.8494 40.1027 100.758 41.5442 101.322 42.359L102.043 37.6271C101.667 37.4705 101.071 37.1884 100.789 37.0631C100.413 36.8751 100.006 36.6557 99.63 36.499V39.7267Z" fill="#FFDB00"/>
<path fill-rule="evenodd" clip-rule="evenodd" d="M94.4282 53.7969L95.901 54.549L95.8697 52.7314L94.4282 53.7969Z" fill="#FFDB00"/>
<path fill-rule="evenodd" clip-rule="evenodd" d="M97.4678 55.3328L98.9406 56.0849L98.3139 53.9854L97.4678 55.3328Z" fill="#FFDB00"/>
<path fill-rule="evenodd" clip-rule="evenodd" d="M93.9267 30.2317V30.263C93.9267 30.2944 93.958 30.3884 94.0834 30.5451C94.8355 31.3912 98.0005 32.3313 100.915 32.5506C99.5673 31.8612 98.5645 31.2658 97.9378 30.8271L97.3424 30.7331C96.0889 30.5137 94.9921 30.3571 93.958 30.1377C93.958 30.169 93.9267 30.2004 93.9267 30.2317Z" fill="#FFDB00"/>
<path fill-rule="evenodd" clip-rule="evenodd" d="M98.7212 52.4185L99.4733 54.8001L100.006 51.165C99.63 51.5724 99.0659 52.1678 98.7212 52.4185Z" fill="#FFDB00"/>
<path fill-rule="evenodd" clip-rule="evenodd" d="M96.8096 50.7887V54.7998L98.2824 52.3556L98.0004 47.6551C97.1543 49.1592 96.0262 50.256 94.6787 50.9141C93.9266 51.2901 92.7358 51.5095 92.7045 51.5095L92.2658 51.6035L92.4852 51.2274C92.9239 50.5067 93.8953 49.0025 94.428 48.1251C93.5193 48.5638 92.3911 48.9712 91.8584 49.0965C91.451 49.1906 90.8556 49.2532 90.2602 49.0652C90.2602 49.0652 89.1635 48.6892 88.1293 47.5297C87.628 46.9343 87.0326 45.9315 86.9072 45.1168C86.7192 43.7693 86.2491 42.7665 85.4344 41.9518C84.933 41.4504 84.2436 41.231 83.9616 41.1684H83.9302L83.7735 41.1057C83.2722 41.0117 82.7081 40.9803 82.0814 41.0743C82.1754 41.2937 82.3634 41.6071 82.5827 41.8264C83.6169 41.8578 84.463 42.2025 85.027 42.8292C85.9044 43.8006 85.7164 45.4928 85.5597 46.5896C85.5284 46.997 85.4657 47.373 85.4971 47.5297C85.7164 48.4071 86.8759 49.4099 87.816 50.1933C88.1293 50.4754 89.3828 51.3215 90.3229 51.7915L93.4253 53.2957L96.8096 50.7887Z" fill="#FFDB00"/>
<path fill-rule="evenodd" clip-rule="evenodd" d="M91.4198 47.5296C91.7645 47.6236 92.2659 47.7489 92.7986 47.7176C93.018 47.7176 93.8954 47.5922 95.3369 46.6521L96.5904 45.4927C96.5904 45.4927 96.9977 44.3019 96.8724 42.7664C96.8411 42.4843 96.8097 42.1396 96.7784 41.7949C96.277 43.6125 95.4622 44.7406 94.3655 45.1166C94.2088 45.336 93.9894 45.6493 93.7074 45.9941L93.6134 46.0881C93.3 46.3701 92.4539 47.0908 91.4198 47.5296ZM98.7839 43.9258L99.1286 50.7259C99.2226 50.6319 99.3167 50.5379 99.4107 50.4439C99.6927 50.1618 99.9747 49.8798 100.225 49.6291L101.103 43.7378C100.695 43.1424 99.9747 41.9516 99.536 41.2622C99.3167 43.1424 95.6189 45.9941 95.6189 45.9941C95.5562 46.1194 94.8982 49.0337 94.1774 50.2245C95.8069 49.5038 97.1231 47.9056 97.9692 45.6807L98.7839 43.9258Z" fill="#FFDB00"/>
<path fill-rule="evenodd" clip-rule="evenodd" d="M94.0521 37.4395C94.3028 37.9409 94.7415 38.881 94.9922 39.9464C95.1802 39.5077 95.3055 38.975 95.3369 38.3796C95.4309 37.2515 95.0548 35.5279 95.0548 35.4966L94.9608 35.1206L95.7756 35.4966C96.8724 36.0607 97.8751 36.9694 98.7526 38.2542V35.2772L99.3166 35.4653C99.912 35.6533 100.476 35.9353 101.04 36.2173C100.351 35.1832 99.3166 33.5224 99.0973 33.115C97.6244 32.8957 94.3968 32.3003 93.394 31.1408C93.3626 31.1095 93.3626 31.0781 93.3313 31.0781C93.0806 31.2975 92.7673 31.4228 92.4225 31.4855C92.5166 32.2376 92.8613 33.115 93.1433 33.7104L93.206 33.8044V34.9325L93.2686 35.0266C93.8014 35.7786 94.3654 36.5621 94.0521 37.4395Z" fill="#FFDB00"/>
<path fill-rule="evenodd" clip-rule="evenodd" d="M95.1489 41.2626V41.6073C95.1489 42.3594 95.1176 42.9861 94.8669 43.8009C96.7784 41.7953 96.7157 38.1602 96.7157 38.1602C96.7157 38.1602 98.1886 40.9805 97.5618 43.1428C98.1886 42.234 98.7526 41.6386 98.7526 39.9464C98.2199 38.9437 97.3738 37.6275 96.1517 36.7188C96.2457 37.4395 96.2457 38.0976 96.183 38.693C96.089 39.7584 95.7443 40.6045 95.1489 41.2626Z" fill="#FFDB00"/>
<path fill-rule="evenodd" clip-rule="evenodd" d="M90.6364 29.2603C91.0751 30.169 91.6391 30.6704 91.9525 30.6704C92.4852 30.6704 93.0179 30.3884 93.112 29.9183L90.6364 29.2603Z" fill="#FFDB00"/>
<path fill-rule="evenodd" clip-rule="evenodd" d="M88.3488 28.4141L92.1092 33.4593C91.8585 32.8325 91.6078 32.1118 91.5451 31.4537C90.699 31.1717 89.9469 30.0122 89.5396 28.8841C89.1008 28.7588 88.6935 28.5707 88.3488 28.4141Z" fill="#FFDB00"/>
<path fill-rule="evenodd" clip-rule="evenodd" d="M84.6824 31.1091C84.7137 31.1091 84.745 31.1091 84.7764 31.1091C85.9358 31.1404 86.7193 31.5165 87.44 31.8925C87.816 32.0492 88.1294 32.2059 88.4741 32.3312C88.5368 32.3312 89.8216 32.7386 90.7304 33.052L86.97 28.0381C86.7819 27.9754 85.9045 27.8187 84.5257 28.3828C83.9303 28.6022 83.4916 29.0095 83.2722 29.5736C82.9902 30.2003 82.9902 30.9837 83.2095 31.7672C83.2409 31.7045 83.2722 31.6732 83.3036 31.6418C83.6483 31.2971 84.1183 31.1091 84.6824 31.1091Z" fill="#FFDB00"/>
<path fill-rule="evenodd" clip-rule="evenodd" d="M80.3265 32.582C81.6427 34.1802 83.7109 35.0263 86.4685 35.089C86.8446 34.1802 87.816 33.6475 89.2262 33.4595C88.9441 33.3654 88.6621 33.2714 88.5368 33.2401C87.722 33.5535 83.8363 33.6475 82.9275 33.4908C81.9874 33.3654 81.2353 33.0207 80.3265 32.582Z" fill="#FFDB00"/>
<path fill-rule="evenodd" clip-rule="evenodd" d="M88.0355 27.3175C89.9157 28.3516 92.642 29.1037 97.0604 29.8558C97.8125 29.9498 98.4706 30.0125 98.972 29.9811C97.6872 29.4797 95.7443 28.6963 93.8954 27.9129C91.7959 27.0355 89.4456 26.064 89.1636 26.0327C88.6935 26.0013 88.1921 26.7534 88.0355 27.3175Z" fill="#FFDB00"/>
<path fill-rule="evenodd" clip-rule="evenodd" d="M90.1663 34.2739C88.7561 34.2739 87.44 34.6186 87.1893 35.6214C86.9699 36.4362 86.9699 37.2196 87.1893 38.003C87.8474 36.7182 88.6935 35.9034 90.3856 35.9034C91.4511 35.9034 92.4539 36.1541 93.2373 36.6869C93.1433 36.3735 92.8926 36.0288 92.5792 35.5274L92.4225 35.3394L91.7331 34.3993C91.2317 34.3366 90.699 34.2739 90.1663 34.2739Z" fill="#FFDB00"/>
<path fill-rule="evenodd" clip-rule="evenodd" d="M110.943 22.7734C110.598 22.7734 110.285 23.0555 110.285 23.4315C110.285 23.8075 110.598 24.0896 110.943 24.0896C111.319 24.0896 111.632 23.8075 111.632 23.4315C111.632 23.0555 111.319 22.7734 110.943 22.7734Z" fill="#FFDB00"/>
<path fill-rule="evenodd" clip-rule="evenodd" d="M111.883 20.5799L112.635 20.7992C112.666 20.5172 112.697 20.2352 112.697 19.9531L111.883 20.5799Z" fill="#FFDB00"/>
<path fill-rule="evenodd" clip-rule="evenodd" d="M110.253 24.654C110.473 24.8733 110.598 25.1554 110.661 25.4374C110.849 25.1867 110.974 24.9673 111.131 24.748C110.849 24.7793 110.567 24.7167 110.316 24.5913C110.285 24.5913 110.285 24.6226 110.253 24.654Z" fill="#FFDB00"/>
<path fill-rule="evenodd" clip-rule="evenodd" d="M121.127 82.7207L121.315 82.8148C121.315 82.6267 121.315 82.4387 121.315 82.282C121.315 81.9373 121.346 81.5299 121.409 81.1226V81.0599C121.002 80.8405 120.688 80.6839 120.438 80.4018C119.623 79.6184 119.153 78.6783 118.683 77.8009C118.495 77.4875 118.338 77.2055 118.181 76.8921C117.367 75.4506 116.552 74.1031 115.079 72.975C114.703 72.8183 114.264 72.6303 113.794 72.4736L114.045 73.0064L114.358 73.6331C117.085 75.8267 118.777 78.5216 119.435 81.5926C119.529 81.9687 120.156 82.4074 121.158 82.7834L121.127 82.7207Z" fill="#FFDB00"/>
<path fill-rule="evenodd" clip-rule="evenodd" d="M109.564 21.0503L111.883 21.6143L112.039 21.395L110.253 20.9563L112.321 19.2954L109.564 21.0503ZM111.287 22.1471C111.319 22.1471 111.381 22.1784 111.413 22.1784L111.82 21.6457L111.695 21.771C111.569 21.8964 111.413 22.0217 111.287 22.1471Z" fill="#FFDB00"/>
<path fill-rule="evenodd" clip-rule="evenodd" d="M95.1176 14.5006L95.7443 16.0047L96.4024 15.378L95.8696 14.1245C95.5876 14.2499 95.3369 14.3439 95.1176 14.5006Z" fill="#FFDB00"/>
<path fill-rule="evenodd" clip-rule="evenodd" d="M127.488 76.8608C125.796 76.8608 124.261 77.6129 123.258 78.8351L132.847 81.1226C132.314 78.6784 130.121 76.8608 127.488 76.8608Z" fill="#FFDB00"/>
<path fill-rule="evenodd" clip-rule="evenodd" d="M130.81 67.115C131.813 68.0864 132.534 68.6191 133.129 68.8072C133.286 68.8698 133.756 68.9638 133.881 68.9638C134.602 69.0265 135.072 69.0265 135.291 68.9952C135.26 68.7758 135.197 68.4625 135.166 68.3371L135.135 68.3058C134.006 63.4486 133.066 61.9758 132.064 60.4089C131.97 60.2209 131.844 60.0329 131.719 59.8762C130.591 59.8449 129.713 59.5002 129.024 59.0928C129.055 59.3121 129.087 59.5315 129.087 59.5315L129.118 59.7822H128.899C128.899 59.7822 128.773 59.7822 128.648 59.7822C129.651 61.6624 130.403 64.2633 130.81 67.115Z" fill="#FFDB00"/>
<path fill-rule="evenodd" clip-rule="evenodd" d="M121.346 75.9204C121.848 76.4218 122.098 76.7352 122.474 77.4246C122.568 77.5812 122.694 77.8319 122.819 78.0826L122.882 78.1766C122.976 78.114 123.07 77.9886 123.195 77.8946L123.07 77.4872C122.85 76.5158 122.443 75.7324 121.816 75.043C121.66 75.3877 121.472 75.7324 121.346 75.9204Z" fill="#FFDB00"/>
<path fill-rule="evenodd" clip-rule="evenodd" d="M127.708 76.3279C128.46 76.3593 129.212 76.5473 129.87 76.8293C129.901 76.4846 129.995 75.8265 130.027 75.5132L127.958 75.1685L127.708 76.3279Z" fill="#FFDB00"/>
<path fill-rule="evenodd" clip-rule="evenodd" d="M101.291 14.5635L101.479 15.6289L101.73 14.8768L101.291 14.5635Z" fill="#FFDB00"/>
<path fill-rule="evenodd" clip-rule="evenodd" d="M101.918 18.1355L102.137 17.2267L101.636 16.4746L101.918 18.1355Z" fill="#FFDB00"/>
<path fill-rule="evenodd" clip-rule="evenodd" d="M102.607 16.8199H103.234L103.829 15.9425L103.578 15.1904H102.262L102.012 15.9425L102.607 16.8199Z" fill="#FFDB00"/>
<path fill-rule="evenodd" clip-rule="evenodd" d="M102.106 12.4639H103.735L104.519 11.9312L104.049 11.2104H101.792L101.322 11.9312L102.106 12.4639Z" fill="#FFDB00"/>
<path fill-rule="evenodd" clip-rule="evenodd" d="M100.695 21.6766C101.197 22.1153 101.667 22.6167 102.168 23.1494L101.51 20.8618L100.695 21.6766Z" fill="#FFDB00"/>
<path fill-rule="evenodd" clip-rule="evenodd" d="M100.883 12.3701L101.103 13.5296L101.604 12.8402L100.883 12.3701Z" fill="#FFDB00"/>
<path fill-rule="evenodd" clip-rule="evenodd" d="M98.5646 13.4976C98.3452 13.4976 98.1259 13.5289 97.9379 13.5602L98.0632 13.9363L98.5646 13.4976Z" fill="#FFDB00"/>
<path fill-rule="evenodd" clip-rule="evenodd" d="M97.0917 15.5346L97.5931 16.7568L98.2511 16.13L97.8438 14.8452L97.0917 15.5346Z" fill="#FFDB00"/>
<path fill-rule="evenodd" clip-rule="evenodd" d="M96.4022 13.9054L96.8409 14.9708L97.6244 14.2501L97.4363 13.686C97.0603 13.7487 96.7156 13.8114 96.4022 13.9054Z" fill="#FFDB00"/>
<path fill-rule="evenodd" clip-rule="evenodd" d="M100.225 20.1414L100.507 21.0502L101.322 20.2354L101.04 19.3267L100.225 20.1414Z" fill="#FFDB00"/>
<path fill-rule="evenodd" clip-rule="evenodd" d="M99.5674 18.2298L100.006 19.5459L100.884 18.6998L100.507 17.415L99.5674 18.2298Z" fill="#FFDB00"/>
<path fill-rule="evenodd" clip-rule="evenodd" d="M98.9092 16.2869L99.3792 17.6343L100.319 16.8196L99.8806 15.3154L98.9092 16.2869Z" fill="#FFDB00"/>
<path fill-rule="evenodd" clip-rule="evenodd" d="M98.2825 14.4377L98.7212 15.6598L99.6926 14.6884L99.3793 13.4976C99.3479 13.4976 99.3479 13.4976 99.3479 13.4976C99.3166 13.4976 99.3166 13.4976 99.2852 13.4976L98.2825 14.4377Z" fill="#FFDB00"/>
<path fill-rule="evenodd" clip-rule="evenodd" d="M104.957 18.6998L105.803 19.5459L106.242 18.2298L105.333 17.415L104.957 18.6998Z" fill="#FFDB00"/>
<path fill-rule="evenodd" clip-rule="evenodd" d="M107.589 16.13L108.216 16.7568L108.749 15.5346L107.997 14.8452L107.589 16.13Z" fill="#FFDB00"/>
<path fill-rule="evenodd" clip-rule="evenodd" d="M107.903 13.5602C107.684 13.5289 107.496 13.4976 107.276 13.4976L107.746 13.9363L107.903 13.5602Z" fill="#FFDB00"/>
<path fill-rule="evenodd" clip-rule="evenodd" d="M106.117 14.6884L107.119 15.6598L107.527 14.4377L106.524 13.4976H106.493H106.461L106.117 14.6884Z" fill="#FFDB00"/>
<path fill-rule="evenodd" clip-rule="evenodd" d="M105.49 16.8196L106.461 17.6343L106.9 16.2869L105.929 15.3154L105.49 16.8196Z" fill="#FFDB00"/>
<path fill-rule="evenodd" clip-rule="evenodd" d="M110.535 16.4121L111.287 17.1015L111.945 15.6286C111.851 15.4719 111.726 15.3466 111.601 15.2213C111.507 15.0959 111.35 14.9706 111.193 14.8452L110.535 16.4121Z" fill="#FFDB00"/>
<path fill-rule="evenodd" clip-rule="evenodd" d="M109.438 15.378L110.065 16.0047L110.723 14.5006C110.504 14.3439 110.253 14.2499 109.971 14.1245L109.438 15.378Z" fill="#FFDB00"/>
<path fill-rule="evenodd" clip-rule="evenodd" d="M108.185 14.2501L108.968 14.9708L109.407 13.9054C109.125 13.8114 108.78 13.7487 108.404 13.686L108.185 14.2501Z" fill="#FFDB00"/>
<path fill-rule="evenodd" clip-rule="evenodd" d="M102.137 14.438H103.704L104.299 13.9992L103.672 13.2158H102.92H102.137L101.542 13.9992L102.137 14.438Z" fill="#FFDB00"/>
<path fill-rule="evenodd" clip-rule="evenodd" d="M104.362 15.6289L104.55 14.5635L104.111 14.8768L104.362 15.6289Z" fill="#FFDB00"/>
<path fill-rule="evenodd" clip-rule="evenodd" d="M111.757 17.5089L112.415 18.1357C112.541 18.1357 112.666 18.1043 112.791 18.1043C112.697 17.3836 112.541 16.7568 112.29 16.2241L111.757 17.5089Z" fill="#FFDB00"/>
<path fill-rule="evenodd" clip-rule="evenodd" d="M103.923 18.1355L104.205 16.4746L103.672 17.2267L103.923 18.1355Z" fill="#FFDB00"/>
<path fill-rule="evenodd" clip-rule="evenodd" d="M104.738 13.5296L104.926 12.3701L104.236 12.8402L104.738 13.5296Z" fill="#FFDB00"/>
<path fill-rule="evenodd" clip-rule="evenodd" d="M104.33 20.8618L103.672 23.1807C103.986 22.836 104.487 22.3346 105.114 21.7079L105.145 21.6766L104.33 20.8618Z" fill="#FFDB00"/>
<path fill-rule="evenodd" clip-rule="evenodd" d="M104.519 20.2354L105.302 21.0502L105.615 20.1414L104.769 19.3267L104.519 20.2354Z" fill="#FFDB00"/>
<path fill-rule="evenodd" clip-rule="evenodd" d="M107.872 30.8271C107.182 31.2972 106.211 31.8612 104.832 32.582C107.997 32.4566 111.005 31.4225 111.757 30.5451C111.851 30.4197 111.883 30.2944 111.883 30.2004C111.883 30.2004 111.883 30.169 111.883 30.1377C110.849 30.3571 109.783 30.5137 108.53 30.7331L107.872 30.8271Z" fill="#FFDB00"/>
<path fill-rule="evenodd" clip-rule="evenodd" d="M109.971 52.7314L109.94 54.549L111.413 53.7969L109.971 52.7314Z" fill="#FFDB00"/>
<path fill-rule="evenodd" clip-rule="evenodd" d="M103.798 37.6271L104.518 42.359C105.083 41.5442 105.991 40.1027 106.211 39.7267V36.499C105.803 36.6557 105.427 36.8751 105.02 37.0631C104.738 37.2198 104.174 37.4705 103.798 37.6271Z" fill="#FFDB00"/>
<path fill-rule="evenodd" clip-rule="evenodd" d="M107.527 53.9854L106.869 56.0849L108.373 55.3328L107.527 53.9854Z" fill="#FFDB00"/>
<path fill-rule="evenodd" clip-rule="evenodd" d="M112.697 29.9497C112.823 30.3884 113.355 30.6704 113.857 30.6704C114.202 30.6704 114.734 30.2004 115.173 29.2603C114.452 29.5109 113.606 29.7303 112.697 29.9497Z" fill="#FFDB00"/>
<path fill-rule="evenodd" clip-rule="evenodd" d="M115.455 35.9037C117.147 35.9037 117.993 36.7185 118.62 38.0033C118.839 37.2198 118.839 36.4364 118.651 35.6217C118.307 34.2742 116.019 34.1175 114.108 34.3995L113.324 35.465L113.261 35.5277C112.917 36.0291 112.697 36.3738 112.603 36.6871C113.355 36.1857 114.327 35.9037 115.361 35.9037H115.455Z" fill="#FFDB00"/>
<path fill-rule="evenodd" clip-rule="evenodd" d="M110.849 35.1206L110.692 35.9667C110.504 36.8754 110.473 37.6902 110.504 38.3796C110.504 38.9436 110.629 39.4764 110.849 39.9464C111.068 38.881 111.538 37.9722 111.789 37.4395C111.538 36.7187 111.851 36.0607 112.353 35.3713H112.321L112.635 34.9325V33.8044L112.666 33.7104C112.98 33.115 113.293 32.2376 113.418 31.4855C113.074 31.4228 112.76 31.2975 112.509 31.0781C112.478 31.1095 112.478 31.1095 112.447 31.1408C111.444 32.3003 108.185 32.8957 106.744 33.115C106.493 33.5224 105.49 35.1832 104.801 36.2173C105.365 35.9353 105.929 35.6533 106.493 35.4653L107.088 35.2772V38.2542C107.934 36.9694 108.937 36.0607 110.065 35.4966L110.849 35.1206Z" fill="#FFDB00"/>
<path fill-rule="evenodd" clip-rule="evenodd" d="M109.219 37.3455L109.376 38.2542C109.376 38.2856 109.407 38.5676 109.438 38.8496C109.47 39.1317 109.501 39.445 109.501 39.4764C109.752 41.1999 110.159 43.1741 111.068 43.9575C110.755 43.0174 110.723 42.234 110.692 41.2626C110.096 40.6045 109.72 39.5391 109.658 38.881H109.689C109.595 38.4736 109.626 37.4395 109.689 36.7188C108.467 37.5962 107.59 38.9437 107.088 39.9464C107.088 41.6386 107.433 42.9234 108.06 43.8322C108.06 43.1741 108.154 42.3907 108.185 42.046C108.373 40.6358 108.718 39.1317 108.968 38.2229L109.219 37.3455Z" fill="#FFDB00"/>
<path fill-rule="evenodd" clip-rule="evenodd" d="M105.803 51.1333L106.367 54.7997C106.681 53.8909 107.025 52.7941 107.151 52.4494C106.994 52.2928 106.806 52.1361 106.618 51.9481C106.367 51.666 106.054 51.384 105.803 51.1333Z" fill="#FFDB00"/>
<path fill-rule="evenodd" clip-rule="evenodd" d="M116.583 33.4595C118.025 33.6475 118.996 34.1802 119.372 35.089C122.13 35.0263 124.198 34.1802 125.514 32.582C124.574 33.0207 123.853 33.3654 122.913 33.4908C121.973 33.6475 118.119 33.5535 117.304 33.2401C117.179 33.2714 116.896 33.3654 116.583 33.4595Z" fill="#FFDB00"/>
<path fill-rule="evenodd" clip-rule="evenodd" d="M109.407 45.9314L110.504 46.6521C111.914 47.5922 112.791 47.7176 113.042 47.7176C113.543 47.7489 114.014 47.6549 114.358 47.5296C113.136 47.1222 112.384 46.3074 111.914 45.712C111.851 45.618 111.757 45.4613 111.663 45.3046C111.632 45.2733 111.601 45.2106 111.569 45.1793C110.128 44.8033 109.47 43.4244 109.062 41.8263C109.031 42.171 108.968 42.453 108.968 42.735C108.843 44.6466 109.219 45.524 109.219 45.524L109.407 45.9314ZM105.615 49.6291C105.835 49.8798 106.117 50.1305 106.399 50.4125C106.524 50.5065 106.618 50.6006 106.743 50.7259L107.057 43.9258L107.84 45.6493C108.686 47.9056 110.034 49.5038 111.663 50.2245C110.943 49.0337 109.564 46.5581 109.501 46.4328L109.25 45.9941L108.404 45.3673C107.213 44.4899 106.524 43.1424 106.305 41.2622C105.866 41.9516 105.114 43.1737 104.707 43.7378L105.615 49.6291Z" fill="#FFDB00"/>
<path fill-rule="evenodd" clip-rule="evenodd" d="M107.558 52.3556L109.031 54.7685V50.7887L112.384 53.2957L115.518 51.7915C116.427 51.3215 117.711 50.4754 117.993 50.1933C118.902 49.4412 120.124 48.4071 120.312 47.5297C120.344 47.373 120.312 46.997 120.25 46.5896C120.124 45.4928 119.936 43.8006 120.814 42.8292C121.378 42.2025 122.192 41.8578 123.258 41.8264C123.477 41.6071 123.665 41.2937 123.759 41.0743C123.133 40.9803 122.569 41.0117 122.067 41.1057L121.879 41.1684C121.566 41.231 120.908 41.4504 120.406 41.9518C119.592 42.7665 119.121 43.7693 118.933 45.1168C118.808 45.9315 118.181 46.9343 117.711 47.5297C116.677 48.6578 115.58 49.0652 115.58 49.0652C114.985 49.2532 114.39 49.1906 113.982 49.1279C113.45 48.9712 112.29 48.5638 111.381 48.1251C111.914 49.0025 112.885 50.5067 113.324 51.2274L113.575 51.6035L113.136 51.5095C113.073 51.5095 111.914 51.2901 111.131 50.9141C109.814 50.256 108.686 49.1592 107.84 47.6551L107.558 52.3556Z" fill="#FFDB00"/>
<path fill-rule="evenodd" clip-rule="evenodd" d="M106.869 29.9811C107.401 30.0124 108.06 29.9811 108.78 29.8557C113.199 29.1036 115.925 28.3515 117.774 27.3174C117.617 26.7847 116.834 26.064 116.583 26.064C116.364 26.0953 114.39 26.9101 112.447 27.6935C110.472 28.5396 108.248 29.4483 106.869 29.9811Z" fill="#FFDB00"/>
<path fill-rule="evenodd" clip-rule="evenodd" d="M114.264 31.4537C114.202 32.1431 113.982 32.8639 113.732 33.4593L117.492 28.4141C117.116 28.5707 116.74 28.7588 116.301 28.8841C115.894 30.0122 115.11 31.1717 114.264 31.4537Z" fill="#FFDB00"/>
<path fill-rule="evenodd" clip-rule="evenodd" d="M118.839 28.0379L115.11 33.0518C115.988 32.7384 117.273 32.3624 117.367 32.3311C117.711 32.2057 118.025 32.049 118.369 31.8924C119.121 31.5163 119.905 31.1403 121.064 31.1089C121.66 31.1089 122.161 31.2343 122.537 31.579C122.568 31.579 122.6 31.6103 122.6 31.6103C122.819 30.4822 122.851 28.884 121.315 28.3826C120.062 27.9439 119.121 28.0066 118.839 28.0379Z" fill="#FFDB00"/>
<path fill-rule="evenodd" clip-rule="evenodd" d="M114.045 57.4009L113.575 58.341C113.826 58.4977 114.108 58.529 114.296 58.4977C114.233 58.1216 114.139 57.7142 114.045 57.4009Z" fill="#FFDB00"/>
<path fill-rule="evenodd" clip-rule="evenodd" d="M123.352 51.3841C123.039 51.5408 122.663 51.5721 122.255 51.4781C123.665 53.0763 124.825 55.4579 125.357 57.9335L125.389 58.0275C126.298 58.5916 127.112 58.8423 128.115 58.9049C128.084 58.7796 128.052 58.6229 127.99 58.3722C127.802 57.4634 126.674 53.0136 123.822 50.9141C123.697 51.1648 123.509 51.3214 123.352 51.3841Z" fill="#FFDB00"/>
<path fill-rule="evenodd" clip-rule="evenodd" d="M115.33 54.9253L114.64 56.3041C114.828 56.8682 115.016 57.5889 115.173 58.1216C115.424 58.4037 116.082 58.5604 116.646 58.4977C116.301 57.1189 115.768 55.8654 115.33 54.9253Z" fill="#FFDB00"/>
<path fill-rule="evenodd" clip-rule="evenodd" d="M123.665 47.0909C123.226 47.1849 122.286 47.1849 121.534 47.0596C121.566 47.1222 121.628 47.1536 121.691 47.2163C122.318 47.9997 123.415 49.3158 123.822 49.8485C124.981 50.4126 125.671 50.4126 125.89 50.2873C125.921 50.2873 125.921 50.2873 125.921 50.1932V50.1619C125.765 49.5352 124.919 48.4384 123.665 47.0909Z" fill="#FFDB00"/>
<path fill-rule="evenodd" clip-rule="evenodd" d="M127.958 44.835C127.52 45.1797 126.893 45.211 126.204 45.1483C127.864 46.6838 129.243 48.282 129.901 49.4728C130.622 49.8488 131.406 50.2249 131.688 50.0995C131.782 50.0682 131.938 49.9428 131.938 49.7862C131.719 48.4387 130.121 46.4645 127.958 44.835Z" fill="#FFDB00"/>
<path fill-rule="evenodd" clip-rule="evenodd" d="M124.01 44.4897C123.164 43.8317 122.412 43.3303 121.848 43.0796C121.722 43.1736 121.628 43.2676 121.534 43.393C121.44 43.487 121.378 43.6123 121.284 43.7377C121.597 43.9884 122.036 44.3331 122.506 44.7718C123.54 45.1792 124.355 45.2105 124.762 45.1792C124.48 44.8971 124.01 44.4897 124.01 44.4897Z" fill="#FFDB00"/>
<path fill-rule="evenodd" clip-rule="evenodd" d="M118.714 58.2154C118.15 56.3039 117.179 54.2357 116.426 52.8882L115.862 53.9223C116.489 55.3011 117.085 56.8366 117.492 58.2154C117.649 58.3721 118.119 58.6855 118.777 58.5915L118.714 58.2154Z" fill="#FFDB00"/>
<path fill-rule="evenodd" clip-rule="evenodd" d="M132.377 58.2782C131.186 55.1759 130.183 52.7003 128.742 51.1648C128.24 51.1648 127.645 51.0394 126.642 50.7261C126.58 50.8514 126.454 50.9454 126.329 51.0394C126.11 51.1648 125.859 51.2275 125.514 51.2275C126.329 52.0422 126.736 52.7316 127.05 53.327L127.206 53.6091C127.927 54.8625 128.522 56.7114 128.836 57.9335C129.901 58.6543 130.904 59.1557 132.628 58.9676C132.565 58.7483 132.44 58.4349 132.377 58.2782Z" fill="#FFDB00"/>
<path fill-rule="evenodd" clip-rule="evenodd" d="M118.463 51.0083C118.401 50.9143 118.338 50.8516 118.307 50.8203C118.181 50.9457 117.711 51.259 117.68 51.2904H117.649C117.805 51.3217 117.931 51.3217 118.087 51.3217C118.401 51.3217 118.62 51.259 118.683 51.1964C118.62 51.165 118.557 51.071 118.463 51.0083Z" fill="#FFDB00"/>
<path fill-rule="evenodd" clip-rule="evenodd" d="M119.309 51.5093C119.278 51.5406 119.278 51.572 119.247 51.6033C120.876 53.2328 121.628 55.4891 122.349 57.996C122.6 58.7794 123.634 58.9048 124.699 58.9048C124.668 58.6227 124.637 58.278 124.574 57.996C123.571 54.2983 122.286 52.5748 121.002 51.3213C120.563 51.6033 119.811 51.572 119.309 51.5093Z" fill="#FFDB00"/>
<path fill-rule="evenodd" clip-rule="evenodd" d="M118.369 51.9479C118.15 51.9479 117.68 52.0106 117.178 51.8853L116.959 52.0106C117.931 53.6088 118.902 55.771 119.529 57.9019C119.999 58.3406 120.688 58.5913 121.628 58.6227C121.597 58.4973 121.534 58.3406 121.534 58.2153C120.72 55.489 120.03 53.4208 118.401 51.9479C118.401 51.9479 118.401 51.9479 118.369 51.9479Z" fill="#FFDB00"/>
<path fill-rule="evenodd" clip-rule="evenodd" d="M123.509 42.6724C123.321 42.6724 123.133 42.7037 122.976 42.7037C123.571 43.0484 124.261 43.5498 124.981 44.1452C125.451 44.3019 126.642 44.4272 127.175 44.3019C125.827 43.3931 124.511 42.7977 123.509 42.6724Z" fill="#FFDB00"/>
<path fill-rule="evenodd" clip-rule="evenodd" d="M119.56 49.9738C119.341 50.1931 119.153 50.3812 118.965 50.5692C118.996 50.6005 118.996 50.6005 119.059 50.6319C119.216 50.7885 119.78 50.8199 120.124 50.7885C120.375 50.7572 120.594 50.6319 120.626 50.6005C120.532 50.3812 120.344 50.0051 119.968 49.5664C119.811 49.6918 119.686 49.8484 119.56 49.9738Z" fill="#FFDB00"/>
<path fill-rule="evenodd" clip-rule="evenodd" d="M123.885 46.0256L123.947 46.0569C125.42 47.5924 126.454 49.0026 126.736 49.88C127.332 50.068 128.71 50.4754 129.024 50.2561C129.055 50.2247 129.149 50.0994 129.149 49.88C129.055 49.0339 126.297 46.4643 125.545 45.7749C125.169 46.0883 124.449 46.0883 123.885 46.0256Z" fill="#FFDB00"/>
<path fill-rule="evenodd" clip-rule="evenodd" d="M121.033 44.6465C121.002 45.0539 121.002 45.5239 121.064 46.0566C121.566 46.276 122.412 46.3387 122.85 46.3073C122.38 45.8373 121.503 45.0539 121.033 44.6465Z" fill="#FFDB00"/>
<path fill-rule="evenodd" clip-rule="evenodd" d="M121.096 48.0308C121.002 48.2815 120.845 48.5948 120.5 48.9709C120.688 49.2216 120.876 49.4723 121.064 49.7229C121.158 49.8483 121.252 49.9736 121.315 50.0676C122.318 50.7884 122.694 50.6944 122.882 50.663C122.945 50.663 123.07 50.6004 123.101 50.5064C123.133 50.475 123.133 50.4437 123.133 50.381C122.882 49.8796 121.91 48.8142 121.096 48.0308Z" fill="#FFDB00"/>
<path fill-rule="evenodd" clip-rule="evenodd" d="M134.445 51.0081C133.599 50.9454 133.098 50.6634 132.628 50.4127L132.596 50.3813C132.44 50.632 132.252 50.7887 132.001 50.8827C131.468 51.1334 130.81 50.8827 129.901 50.444C129.839 50.6007 129.745 50.7574 129.619 50.8827C131.029 52.5436 132.064 55.0192 133.129 57.8708C134.884 59.2496 136.294 59.2496 137.453 59.0303C137.077 56.4607 136.137 53.9537 134.445 51.0081Z" fill="#FFDB00"/>
<path fill-rule="evenodd" clip-rule="evenodd" d="M130.779 44.4902C130.465 44.7723 129.995 44.8976 129.431 44.9289C131.217 46.4644 132.471 48.188 132.753 49.5041C132.878 49.5668 132.972 49.6295 133.066 49.6608C133.536 49.9428 133.912 50.1622 134.727 50.1622C134.853 50.1622 134.978 50.1308 135.072 50.0995C134.57 47.7806 132.502 45.775 130.779 44.4902Z" fill="#FFDB00"/>
<path fill-rule="evenodd" clip-rule="evenodd" d="M124.668 41.2622C124.574 41.4816 124.449 41.7323 124.292 41.983C125.389 42.265 126.674 42.8917 127.959 43.8005L128.084 43.8318C128.742 44.0512 129.557 44.1765 130.027 43.9572C127.99 42.547 125.922 41.6382 124.668 41.2622Z" fill="#FFDB00"/>
</svg>
