<svg width="206" height="111" viewBox="0 0 206 111" fill="none" xmlns="http://www.w3.org/2000/svg">
<path d="M65.5437 23.571C64.0605 17.1108 60.353 11.8579 59.8531 11C59.0473 12.2053 56.0973 16.8436 54.5818 21.9905C52.9535 27.7264 52.712 32.8168 53.2761 37.8303C53.8404 42.8433 55.9521 47.9902 55.9521 47.9902C57.0805 50.6956 58.7732 53.5908 59.8695 55.0135C61.4814 52.9214 65.1891 46.6769 66.3498 38.5269C66.9944 33.9983 67.0106 30.031 65.5437 23.571ZM59.8531 53.4043C59.1278 52.0378 57.9994 49.4355 57.8866 45.4151C57.8542 41.5301 59.4179 38.205 59.8693 37.5083C60.2724 38.205 61.6264 41.1003 61.7876 45.0675C61.8843 48.9542 60.5947 52.0105 59.8531 53.4043ZM65.1087 34.534C65.0602 36.9981 64.7702 39.5988 64.3832 41.1536C64.5282 38.4739 64.2059 34.6951 63.5773 31.7451C62.9646 28.7967 61.2236 23.8655 59.8212 21.5866C58.5314 23.7576 56.9516 28.0209 56.1135 31.7176C55.2913 35.4192 55.2591 39.8933 55.2591 41.2355C55.0334 40.1042 54.4852 36.0711 54.6466 32.0137C54.7754 28.6678 55.5492 25.2318 55.9844 23.6513C57.6288 18.371 59.4827 14.9945 59.821 14.4586C60.1758 14.9945 62.5132 19.1484 63.7224 23.5179C64.9313 27.8857 65.1731 32.0669 65.1087 34.534Z" fill="#0079C1"/>
<path d="M62.3518 56.5184H51.116V64.0455C51.1322 64.0358 51.1482 64.0246 51.1482 64.0149C53.7919 61.3722 58.0962 61.3722 60.7398 64.0149C63.3835 66.6591 63.3835 70.945 60.7398 73.5875C60.7238 73.5989 60.7238 73.6086 60.7076 73.6181V73.6214C60.6915 73.6342 60.6753 73.6439 60.6592 73.6568C58.0316 76.2738 54.5658 77.5836 51.116 77.5836C47.6503 77.5836 44.1843 76.2641 41.5406 73.6245C36.8816 68.9719 36.3337 61.7747 39.8802 56.5184C40.3637 55.8086 40.9119 55.1327 41.5406 54.505C44.1843 51.8641 47.6501 50.5444 51.116 50.5444V32.4419C37.8006 32.4419 27 43.2216 27 56.5184C27 69.8137 37.8006 80.5932 51.116 80.5932C58.0639 80.5932 64.3186 77.661 68.7194 72.9728V56.5184H62.3518ZM82.9698 76.2995C82.9698 77.9844 82.7602 80.598 79.375 80.598H75.3771C72.0079 80.598 71.7984 77.9844 71.7984 76.2995V60.8235C71.7984 59.1369 72.0079 56.5232 75.3771 56.5232H79.375C82.7602 56.5232 82.9698 59.1369 82.9698 60.8235V64.2273H78.1337V60.3021C78.1337 59.8901 77.8273 59.5119 77.3759 59.5119C77.1019 59.5119 76.6184 59.6823 76.6184 60.3021V76.7195C76.6184 77.3375 77.1019 77.5096 77.3759 77.5096C77.8275 77.5096 78.1337 77.1315 78.1337 76.7195V71.4502H77.4083V68.8013H82.9698V76.2995ZM90.2239 71.5532L91.0461 59.5216H91.3201L92.1583 71.5532H90.2239ZM84.8881 80.598H89.6113L90.0465 74.2024H92.3195L92.771 80.598H97.4942L94.9794 56.5232H87.403L84.8881 80.598ZM99.2835 77.5724L103.91 59.5216H99.767V56.5233H108.859V59.5152L104.249 77.5112H109.149V80.598H99.2835V77.5723M116.242 69.4079V59.5086H116.855C117.387 59.5086 117.757 59.9545 117.757 60.7126V68.2042C117.757 68.9606 117.387 69.4079 116.855 69.4079H116.242ZM111.406 80.5982H116.242V72.4128H118.999C122.368 72.4128 122.577 69.799 122.577 68.114V60.8235C122.577 59.1369 122.368 56.5232 118.999 56.5232H111.406V80.5982ZM129.88 68.6886V59.5102H130.509C131.024 59.5102 131.395 59.9561 131.395 60.7124V67.4847C131.395 68.2412 131.024 68.6886 130.509 68.6886H129.88ZM136.844 80.598L134.474 71.2089C136.183 70.5216 136.215 68.9382 136.215 68.2863V60.8235C136.215 59.1369 136.022 56.5232 132.636 56.5232H125.06V80.598H129.88V71.6901H130.234L131.879 80.598H136.844ZM145.775 76.7195C145.775 77.133 145.468 77.5112 145.017 77.5112C144.743 77.5112 144.259 77.339 144.259 76.7195V60.3021C144.259 59.6825 144.743 59.5119 145.017 59.5119C145.468 59.5119 145.775 59.8901 145.775 60.3021V76.7195ZM139.439 76.2995C139.439 77.9844 139.649 80.598 143.034 80.598H147.016C150.401 80.598 150.611 77.9844 150.611 76.2995V60.8235C150.611 59.1369 150.401 56.5232 147.016 56.5232H143.034C139.649 56.5232 139.439 59.1369 139.439 60.8235V76.2995ZM165.748 56.5232H172.018V80.598H167.198V65.4986H167.021L164.539 80.598H160.686L158.203 65.4986H158.026V80.598H153.206V56.5232H159.477L162.604 73.4442L165.748 56.5232Z" fill="#0079C1"/>
</svg>
