<svg width="206" height="111" viewBox="0 0 206 111" fill="none" xmlns="http://www.w3.org/2000/svg">
<path d="M12.3584 62.14C7.30029 60.1215 5.77524 55.739 5.95945 53.8948C6.14427 52.0514 6.9106 51.5572 7.49097 51.3911C7.49097 51.3911 4.87704 50.1467 3.76573 52.1888C3.27269 53.3626 3 54.6522 3 56.0055C3 61.4507 7.41271 65.8649 12.8552 65.8649C16.0043 65.8649 18.8083 64.3869 20.6125 62.0873C20.6082 62.0894 17.4123 64.1569 12.3578 62.1396" fill="#005597"/>
<path d="M12.8553 46.1511C9.39434 46.1511 6.35005 47.9367 4.59216 50.6367C4.80467 50.5458 5.66616 50.2147 6.57578 50.373C6.57936 50.3735 6.58482 50.3746 6.58909 50.3746C8.29639 48.1851 10.9578 46.777 13.9485 46.777C15.7016 46.777 17.342 47.2616 18.7435 48.1032C17.1006 46.8769 15.063 46.1511 12.8553 46.1511Z" fill="#005597"/>
<path d="M12.4368 60.9717C13.6878 61.6869 15.0639 62.0836 16.4257 62.2119C16.9975 62.071 17.5442 61.8621 18.0276 61.5882C19.9564 60.3842 25.6549 52.4767 25.6549 52.4767C25.6549 52.4767 22.5528 51.8386 21.2067 52.8264C19.857 53.8101 18.8486 55.3747 17.3556 57.0609C15.8614 58.7478 15.2053 59.8091 13.8863 60.1426C12.9068 60.3924 11.9773 60.3509 11.1442 60.1643C11.5445 60.437 11.9708 60.705 12.4368 60.9717Z" fill="#005597"/>
<path d="M21.6473 61.3249C22.8411 60.455 25.6289 56.6545 25.6289 56.6545C25.6289 56.6545 23.4894 55.5323 21.5468 56.6545C19.6029 57.7839 19.6613 58.0692 17.7318 59.6579C15.806 61.2496 14.3636 61.4272 13.3011 61.3453C13.2421 61.3432 13.1837 61.3308 13.1247 61.326C15.9059 62.6186 19.5241 62.8309 21.6473 61.3249Z" fill="#E41B13"/>
<path d="M25.6567 46.1616C25.6567 46.1616 22.6382 45.3332 20.212 47.4276C18.4698 48.935 14.7157 59.0449 11.7626 59.617C11.1901 59.7295 10.7295 59.7416 10.3533 59.6958C10.3592 59.7018 10.3642 59.7066 10.3702 59.7097C10.8668 59.7554 11.4423 59.738 12.1069 59.6091C15.058 59.0378 18.9622 49.7045 20.77 48.2734C22.5791 46.8497 24.7421 47.2025 24.7421 47.2025L22.8849 50.425L25.6567 46.1616Z" fill="#005597"/>
<path d="M189.589 47.6165L187.536 64.4101H198.485C199.39 64.4101 200.294 64.0667 200.963 63.4695C201.553 62.9434 201.926 62.2571 202.014 61.5329L202.981 53.9792C203.171 52.3929 201.909 51.103 200.169 51.103H194.825L195.301 47.6162L189.589 47.6165ZM34.1267 47.6186L31.2526 52.047H36.8694L35.3521 64.4122H40.9215L42.4388 52.047H47.008L47.5518 47.6186H34.1267ZM83.1027 47.6186L81.0426 64.4121H86.61L87.3634 58.2711H90.5367L89.7822 64.4121H95.3506L97.4116 47.6186H91.8443L91.0826 53.8254H87.9093L88.671 47.6186H83.1027ZM115.329 47.6186L113.268 64.4121H118.835L119.59 58.2711H122.763L122.008 64.4121H127.577L129.637 47.6186H124.069L123.309 53.8254H120.135L120.897 47.6186H115.329ZM171.27 47.6186L170.724 52.047H175.616L174.098 64.4122H179.667L181.185 52.047H185.219L188.093 47.6186H171.27ZM49.3345 47.6196L47.2755 64.4132H53.0044L53.394 61.2481H58.7292C60.472 61.2481 62.0667 59.9566 62.2829 58.374L63.2512 50.503C63.3481 49.7818 63.1525 49.0958 62.6992 48.5714C62.1833 47.9749 61.3683 47.6329 60.4634 47.6329L49.3345 47.6196ZM68.6507 47.6196C68.0944 47.6196 67.5451 47.9764 67.3729 48.4502L61.5477 64.4132H67.2303L68.1863 61.5566L73.6121 61.4908L73.9143 64.4132H79.6042L77.83 48.436C77.795 47.9562 77.3679 47.6198 76.7918 47.6198H68.6513L68.6507 47.6196ZM131.413 47.6196L129.351 64.4132H143.063L143.607 59.9847H135.499L135.754 57.9155H143.861L144.327 54.1213H136.218L136.473 52.0489H144.577L145.125 47.6195L131.413 47.6196ZM150.069 47.6196C149.163 47.6196 148.26 47.9634 147.589 48.5612C147 49.0868 146.627 49.7732 146.54 50.4969L145.576 58.37C145.387 59.9556 146.598 61.2472 148.34 61.2472H153.729L153.34 64.4133H158.954L159.344 61.2472H164.625C166.368 61.2472 167.963 59.9567 168.179 58.3741L169.146 50.5041C169.244 49.7829 169.047 49.0959 168.594 48.5716C168.078 47.975 167.264 47.633 166.357 47.633L164.092 47.6197L150.069 47.6196ZM103.356 47.6309C102.176 47.6309 100.992 48.0847 100.106 48.8758C99.3304 49.5674 98.8422 50.4646 98.7284 51.4055L97.5976 60.6302C97.4724 61.5645 97.6773 62.4667 98.2853 63.1692C98.9758 63.9669 100.041 64.4244 101.209 64.4244H107.265C109.536 64.4244 111.679 62.7185 111.959 60.6271L112.279 57.974H106.627L106.381 59.9806H103.256L104.23 52.0448H107.355L107.15 53.7132H112.805L113.161 50.8062C113.443 48.4626 111.318 47.6308 109.412 47.6308L103.356 47.6309ZM151.922 52.049H154.859L154.276 56.7931H151.339L151.922 52.049ZM160.473 52.049H163.416L162.88 56.4189C162.848 56.6284 162.655 56.793 162.444 56.793H159.891L160.473 52.049ZM54.5792 52.0583H57.5202L56.9209 56.3634C56.8895 56.6024 56.6655 56.7972 56.4223 56.7972H53.9429L54.4661 52.8909L54.5792 52.0583ZM71.5191 52.6668H72.6364L73.1504 57.2998H69.7849L71.5191 52.6668ZM194.239 55.5543H197.118L196.663 59.2621C196.613 59.6721 196.265 59.9807 195.852 59.9807H193.697L194.239 55.5543Z" fill="#005597"/>
</svg>
