<svg width="12" height="12" viewBox="0 0 12 12" fill="none" xmlns="http://www.w3.org/2000/svg">
<path d="M0.295919 5.28501L5.29592 0.285013C5.39102 0.193972 5.50317 0.122607 5.62592 0.075013C5.86938 -0.025005 6.14246 -0.025005 6.38592 0.075013C6.50867 0.122607 6.62081 0.193972 6.71592 0.285013L11.7159 5.28501C11.8092 5.37825 11.8831 5.48894 11.9336 5.61076C11.984 5.73259 12.01 5.86315 12.01 5.99501C12.01 6.26132 11.9042 6.51671 11.7159 6.70501C11.5276 6.89332 11.2722 6.9991 11.0059 6.9991C10.7396 6.9991 10.4842 6.89332 10.2959 6.70501L7.00592 3.40501L7.00592 10.995C7.00592 11.2602 6.90056 11.5146 6.71302 11.7021C6.52549 11.8897 6.27113 11.995 6.00592 11.995C5.7407 11.995 5.48635 11.8897 5.29881 11.7021C5.11127 11.5146 5.00592 11.2602 5.00592 10.995L5.00592 3.40501L1.71592 6.70501C1.62295 6.79874 1.51235 6.87314 1.39049 6.9239C1.26864 6.97467 1.13793 7.00081 1.00592 7.00081C0.873906 7.00081 0.743201 6.97467 0.621341 6.9239C0.499482 6.87314 0.388882 6.79874 0.295919 6.70501C0.202191 6.61205 0.127795 6.50145 0.0770258 6.37959C0.026257 6.25773 0.000119627 6.12702 0.000119639 5.99501C0.00011965 5.863 0.026257 5.73229 0.0770259 5.61044C0.127795 5.48858 0.202191 5.37798 0.295919 5.28501Z" fill="#56A2E9"/>
</svg>
