<svg width="53" height="53" viewBox="0 0 53 53" fill="none" xmlns="http://www.w3.org/2000/svg">
<circle cx="26.5" cy="26.5" r="26.5" fill="black" fill-opacity="0.5"/>
<path fill-rule="evenodd" clip-rule="evenodd" d="M34.5563 33.5564C34.9469 33.1658 34.9469 32.5327 34.5563 32.1421L28.7026 26.2884L34.7484 20.2427C35.1389 19.8521 35.1389 19.219 34.7484 18.8284C34.3578 18.4379 33.7247 18.4379 33.3342 18.8284L27.2884 24.8742L21.1213 18.7071C20.7308 18.3166 20.0976 18.3166 19.7071 18.7071C19.3166 19.0976 19.3166 19.7308 19.7071 20.1213L25.8742 26.2884L19.8991 32.2635C19.5086 32.654 19.5086 33.2872 19.8991 33.6777C20.2896 34.0682 20.9228 34.0682 21.3133 33.6777L27.2884 27.7026L33.1421 33.5564C33.5327 33.9469 34.1658 33.9469 34.5563 33.5564Z" fill="#6F7279"/>
</svg>
