<svg width="20" height="12" viewBox="0 0 20 12" fill="none" xmlns="http://www.w3.org/2000/svg">
<path d="M1 1H4M1 5H3M7.02 2.801L6.42 8.801C6.3922 9.07903 6.42296 9.35981 6.51031 9.62522C6.59766 9.89064 6.73966 10.1348 6.92715 10.342C7.11464 10.5492 7.34346 10.7148 7.59886 10.8281C7.85426 10.9414 8.13058 11 8.41 11H16.39C16.886 11 17.3642 10.8157 17.732 10.4829C18.0997 10.1501 18.3307 9.69251 18.38 9.199L18.98 3.199C19.0078 2.92097 18.977 2.64019 18.8897 2.37478C18.8023 2.10936 18.6603 1.86519 18.4729 1.65801C18.2854 1.45083 18.0565 1.28524 17.8011 1.17191C17.5457 1.05857 17.2694 1.00001 16.99 1H9.01C8.51403 1.00002 8.03576 1.18432 7.66803 1.51712C7.3003 1.84993 7.06935 2.30749 7.02 2.801Z" stroke="#56A2E9" stroke-width="1.5" stroke-linecap="round" stroke-linejoin="round"/>
<path d="M7.80005 1.5L10.782 4.78C11.047 5.07155 11.3669 5.30804 11.7233 5.47598C12.0797 5.64392 12.4657 5.74001 12.8592 5.75877C13.2528 5.77753 13.6461 5.71858 14.0169 5.5853C14.3876 5.45203 14.7285 5.24702 15.02 4.982L18.3 2" stroke="#56A2E9" stroke-width="1.5" stroke-linecap="round" stroke-linejoin="round"/>
</svg>
