<svg width="55" height="55" viewBox="0 0 55 55" fill="none" xmlns="http://www.w3.org/2000/svg">
<circle cx="27.5" cy="27.5" r="26" transform="matrix(-1 0 0 1 55 0)" stroke="url(#paint0_linear_400_408)" stroke-width="3"/>
<path d="M26.29 32.7099L21.29 27.7099C21.199 27.6148 21.1276 27.5027 21.08 27.3799C20.98 27.1365 20.98 26.8634 21.08 26.6199C21.1276 26.4972 21.199 26.385 21.29 26.2899L26.29 21.2899C26.3833 21.1967 26.4939 21.1227 26.6158 21.0723C26.7376 21.0218 26.8682 20.9958 27 20.9958C27.2663 20.9958 27.5217 21.1016 27.71 21.2899C27.8983 21.4782 28.0041 21.7336 28.0041 21.9999C28.0041 22.2662 27.8983 22.5216 27.71 22.7099L24.41 25.9999L32 25.9999C32.2652 25.9999 32.5196 26.1053 32.7071 26.2928C32.8947 26.4804 33 26.7347 33 26.9999C33 27.2652 32.8947 27.5195 32.7071 27.707C32.5196 27.8946 32.2652 27.9999 32 27.9999L24.41 27.9999L27.71 31.2899C27.8037 31.3829 27.8781 31.4935 27.9289 31.6154C27.9797 31.7372 28.0058 31.8679 28.0058 31.9999C28.0058 32.132 27.9797 32.2627 27.9289 32.3845C27.8781 32.5064 27.8037 32.617 27.71 32.7099C27.6171 32.8037 27.5065 32.8781 27.3846 32.9288C27.2627 32.9796 27.132 33.0057 27 33.0057C26.868 33.0057 26.7373 32.9796 26.6154 32.9288C26.4936 32.8781 26.383 32.8037 26.29 32.7099Z" fill="#A8B1C0"/>
<defs>
<linearGradient id="paint0_linear_400_408" x1="1.5" y1="29" x2="55" y2="29.5" gradientUnits="userSpaceOnUse">
<stop stop-color="#D5DDEB" stop-opacity="0"/>
<stop offset="1" stop-color="#D5DDEA"/>
</linearGradient>
</defs>
</svg>
