<svg width="103" height="103" viewBox="0 0 103 103" fill="none" xmlns="http://www.w3.org/2000/svg">
<path fill-rule="evenodd" clip-rule="evenodd" d="M51.5 0C79.9348 0 103 23.0652 103 51.5C103 79.9348 79.9348 103 51.5 103C23.0652 103 0 79.9348 0 51.5C0 23.0652 23.0652 0 51.5 0Z" fill="#454545"/>
<path fill-rule="evenodd" clip-rule="evenodd" d="M51.4999 0.457642C79.6906 0.457642 102.573 23.3397 102.573 51.5305C102.573 79.7213 79.6906 102.603 51.4999 102.603C23.3091 102.603 0.427002 79.7213 0.427002 51.5305C0.457511 23.3092 23.3091 0.457642 51.4999 0.457642Z" fill="#FFCC00"/>
<path fill-rule="evenodd" clip-rule="evenodd" d="M51.5916 101.658C79.2026 101.597 101.597 79.1416 101.597 51.5C101.597 51.1034 101.597 50.6763 101.566 50.2797H97.1117C97.1117 50.6763 97.1422 51.1034 97.1422 51.5C97.1422 76.7009 76.7619 97.1422 51.5916 97.2032V101.658Z" fill="#E21C2A"/>
<path fill-rule="evenodd" clip-rule="evenodd" d="M51.5916 101.658C65.4123 101.627 77.9212 95.9828 86.952 86.9215C87.5012 86.3418 88.0809 85.7622 88.5995 85.1825L88.6301 85.152C88.9046 84.8469 89.1487 84.5723 89.4233 84.2672C89.6979 83.9621 89.942 83.657 90.186 83.3519C90.4301 83.0468 90.6742 82.7417 90.9183 82.4366L90.9793 82.3451C91.1929 82.0705 91.4064 81.7654 91.6505 81.4908L91.7115 81.3993C91.9251 81.0942 92.1386 80.8196 92.3522 80.5145L92.3827 80.484C92.8404 79.8433 93.2675 79.2026 93.6946 78.5314L93.7251 78.5009C93.9387 78.1653 94.1523 77.8602 94.3353 77.5246C94.5489 77.189 94.732 76.8229 94.9455 76.4873L94.976 76.3957C95.1591 76.0601 95.3421 75.755 95.5252 75.4194L95.5557 75.3279C95.7388 74.9923 95.8913 74.6872 96.0744 74.3516C96.1049 74.2906 96.1354 74.2296 96.1659 74.1686C96.3184 73.8635 96.471 73.5584 96.6235 73.2533L96.654 73.2228C96.8066 72.8872 96.9896 72.521 97.1422 72.1549C97.1727 72.0939 97.2032 72.0329 97.2337 71.9414C97.3558 71.6363 97.5083 71.3312 97.6303 71.0261C97.6609 70.9346 97.6914 70.843 97.7524 70.7515C97.8744 70.4769 97.9965 70.1718 98.1185 69.8972C98.149 69.7752 98.21 69.6837 98.2405 69.5616C98.3321 69.287 98.4541 69.0125 98.5456 68.7684C98.6067 68.6463 98.6372 68.5243 98.6677 68.4023C98.7592 68.1582 98.8507 67.8836 98.9423 67.6395C99.0033 67.4565 99.0643 67.3039 99.0948 67.1209C99.1558 66.9073 99.2473 66.6937 99.3084 66.4497C99.3694 66.2971 99.3999 66.1141 99.4609 65.9615C99.5219 65.7174 99.6135 65.5039 99.6745 65.2598C99.705 65.1377 99.7355 65.0462 99.766 64.9242C99.8575 64.6496 99.9186 64.3445 100.01 64.0699C100.041 63.9784 100.071 63.8564 100.102 63.7648C100.163 63.4597 100.254 63.1851 100.315 62.8801C100.346 62.7275 100.376 62.575 100.407 62.4529C100.468 62.2088 100.529 61.9343 100.59 61.6902C100.62 61.4766 100.681 61.263 100.712 61.0495C100.742 60.8664 100.773 60.6529 100.834 60.4698C100.864 60.2867 100.895 60.1342 100.925 59.9511C100.956 59.7071 101.017 59.463 101.047 59.2189C101.108 58.8223 101.169 58.3952 101.23 57.9985C101.261 57.6934 101.291 57.3883 101.322 57.0833C101.322 56.9612 101.353 56.8697 101.353 56.7476C101.383 56.5036 101.383 56.2595 101.414 56.0459C101.444 55.8629 101.444 55.6798 101.475 55.4968C101.505 55.0696 101.536 54.6425 101.566 54.2154C101.597 53.7882 101.597 53.3611 101.627 52.934C101.627 52.5068 101.658 52.0797 101.658 51.6526V51.6221V51.5915C101.658 51.1949 101.658 50.8288 101.658 50.4322V50.4017H100.956C100.956 50.7983 100.986 51.2254 100.986 51.6221C100.986 78.867 78.928 100.986 51.6831 101.078V101.658H51.5916Z" fill="white"/>
<path fill-rule="evenodd" clip-rule="evenodd" d="M51.5916 97.2337C76.7619 97.1422 97.1422 76.7008 97.1422 51.5305C97.1422 51.1339 97.1422 50.7067 97.1117 50.3101H92.6573C92.6573 50.7067 92.6878 51.1339 92.6878 51.5305C92.6878 74.2601 74.2906 92.7183 51.5916 92.8098V97.2337Z" fill="white"/>
<path fill-rule="evenodd" clip-rule="evenodd" d="M51.5916 92.7794C74.2906 92.6878 92.6878 74.2601 92.6878 51.5C92.6878 51.1034 92.6878 50.6763 92.6573 50.2797H88.2029C88.2029 50.6763 88.2334 51.1034 88.2334 51.5C88.2334 71.7888 71.8193 88.2335 51.5916 88.325V92.7794Z" fill="#E21C2A"/>
<path fill-rule="evenodd" clip-rule="evenodd" d="M88.9657 50.2797H88.2335C88.2335 50.6763 88.264 51.1034 88.264 51.5C88.264 71.7888 71.8499 88.2335 51.6221 88.325V89.0572C72.277 88.9657 89.0267 72.1855 89.0267 51.5C88.9962 51.1034 88.9657 50.6763 88.9657 50.2797Z" fill="white"/>
<path fill-rule="evenodd" clip-rule="evenodd" d="M51.3473 101.658C23.7057 101.597 1.34229 79.1416 1.34229 51.5C1.34229 51.1034 1.34229 50.6763 1.37279 50.2797H5.79667H10.2511H14.7054C14.7054 50.6763 14.6749 51.1034 14.6749 51.5C14.6749 71.7888 31.089 88.2335 51.3168 88.325V92.7794V97.2338V101.658H51.3473Z" fill="#E21C2A"/>
<path fill-rule="evenodd" clip-rule="evenodd" d="M51.195 101.658C37.4352 101.566 24.9874 95.9524 15.9871 86.9215C15.4379 86.3419 14.8582 85.7622 14.3396 85.1825L14.309 85.152C14.0345 84.8469 13.7904 84.5723 13.5158 84.2672C13.2412 83.9621 12.9971 83.657 12.7531 83.3519C12.509 83.0468 12.2649 82.7417 12.0208 82.4367L11.9598 82.3451C11.7462 82.0705 11.5327 81.7654 11.2886 81.4909L11.2276 81.3993C11.014 81.0942 10.8005 80.8196 10.5869 80.5146L10.5564 80.484C10.0987 79.8433 9.6716 79.2026 9.24447 78.5314L9.21396 78.5009C9.00039 78.1653 8.78683 77.8602 8.60377 77.5246C8.3902 77.189 8.20715 76.8229 7.99358 76.4873L7.96307 76.3958C7.78001 76.0602 7.59696 75.7551 7.4139 75.4195L7.38339 75.3279C7.20033 74.9923 7.04779 74.6872 6.86473 74.3516C6.83422 74.2906 6.80371 74.2296 6.7732 74.1686C6.62065 73.8635 6.46811 73.5584 6.31556 73.2533L6.28505 73.2228C6.1325 72.8872 5.94944 72.5211 5.7969 72.155C5.76639 72.0939 5.73588 72.0329 5.70537 71.9414C5.58333 71.6363 5.43078 71.3312 5.30875 71.0261C5.27824 70.9346 5.24773 70.843 5.18671 70.7515C5.06467 70.4769 4.94263 70.1718 4.82059 69.8973C4.79008 69.7752 4.72907 69.6837 4.69856 69.5617C4.60703 69.2871 4.48499 69.0125 4.39346 68.7684C4.33244 68.6464 4.30193 68.5243 4.27142 68.4023C4.17989 68.1582 4.08837 67.8836 3.99684 67.6396C3.93582 67.4565 3.8748 67.304 3.84429 67.1209C3.78327 66.9073 3.69174 66.6938 3.63072 66.4497C3.56971 66.2971 3.5392 66.1141 3.47818 65.9615C3.41716 65.7175 3.32563 65.5039 3.26461 65.2598C3.2341 65.1378 3.20359 65.0463 3.17308 64.9242C3.08155 64.6496 3.02053 64.3445 2.92901 64.0699C2.8985 63.9784 2.86799 63.8564 2.83748 63.7649C2.77646 63.4598 2.68493 63.1852 2.62391 62.8801C2.5934 62.7275 2.56289 62.575 2.53238 62.4529C2.47136 62.2089 2.41034 61.9343 2.34933 61.6902C2.31882 61.4766 2.2578 61.2631 2.22729 61.0495C2.19678 60.8665 2.16627 60.6529 2.10525 60.4698C2.07474 60.2868 2.04423 60.1342 2.01372 59.9512C1.98321 59.7071 1.92219 59.463 1.89168 59.2189C1.83066 58.8223 1.76965 58.3952 1.70863 57.9986C1.67812 57.6935 1.64761 57.3884 1.6171 57.0833C1.6171 56.9612 1.58659 56.8697 1.58659 56.7477C1.55608 56.5036 1.55608 56.2595 1.52557 56.046C1.49506 55.8629 1.49506 55.6798 1.46455 55.4968C1.43404 55.0696 1.40353 54.6425 1.37302 54.2154C1.34251 53.7883 1.34251 53.3611 1.312 52.934C1.312 52.5069 1.28149 52.0797 1.28149 51.6526V51.6221V51.5916C1.28149 51.1949 1.28149 50.8288 1.28149 50.4322V50.4017H1.98321C1.98321 50.7983 1.9527 51.2255 1.9527 51.6221C1.9527 78.8365 23.9195 100.895 51.1035 101.078V100.376C24.4077 100.071 2.77646 78.3179 2.77646 51.5C2.77646 51.1034 2.77646 50.6763 2.80697 50.2797H3.50869C3.50869 50.6763 3.47818 51.1034 3.47818 51.5C3.47818 77.9212 24.8043 99.3694 51.195 99.522V90.3691C29.8689 90.1861 12.631 72.8567 12.631 51.5C12.631 51.1034 12.631 50.6763 12.6615 50.2797H13.3632C13.3632 50.6763 13.3327 51.1034 13.3327 51.5C13.3327 72.4601 30.2655 89.4843 51.195 89.6674V89.0572C30.6011 88.8741 13.9429 72.1244 13.9429 51.5C13.9429 51.1034 13.9429 50.6763 13.9734 50.2797H14.7057C14.7057 50.6763 14.6752 51.1034 14.6752 51.5C14.6752 71.7278 30.9977 88.1419 51.1645 88.325V88.2945H51.8052V101.749H51.1645V101.658H51.195Z" fill="#FFCC00"/>
<path fill-rule="evenodd" clip-rule="evenodd" d="M51.3778 1.31195C78.6838 1.31195 100.864 23.1262 101.535 50.2492H1.22021C1.89142 23.1262 24.1023 1.31195 51.3778 1.31195Z" fill="#FFCC00"/>
<path fill-rule="evenodd" clip-rule="evenodd" d="M2.07471 49.5779H100.895C99.8881 23.0957 78.1043 2.04413 51.5001 2.04413C24.9263 2.04413 3.11203 23.0957 2.07471 49.5779Z" fill="white"/>
<path fill-rule="evenodd" clip-rule="evenodd" d="M51.5001 5.79681C76.3348 5.79681 96.5626 25.5975 97.2033 50.2796H5.79688C6.46808 25.5975 26.6654 5.79681 51.5001 5.79681Z" fill="#FFCC00"/>
<path fill-rule="evenodd" clip-rule="evenodd" d="M6.52905 49.5779H96.4405C95.4337 25.5669 75.6025 6.49847 51.4695 6.49847C27.367 6.49847 7.56637 25.5364 6.52905 49.5779Z" fill="#002ED3"/>
<path fill-rule="evenodd" clip-rule="evenodd" d="M51.378 10.2207C73.7414 10.2207 91.9861 28.0382 92.6268 50.2491H10.1292C10.7698 28.0382 29.0145 10.2207 51.378 10.2207Z" fill="#FFCC00"/>
<path fill-rule="evenodd" clip-rule="evenodd" d="M10.9834 49.5779H91.9861C90.9792 28.0077 73.1617 10.9529 51.4695 10.9529C29.8383 10.9529 12.0207 28.0077 10.9834 49.5779Z" fill="#E21C2A"/>
<path fill-rule="evenodd" clip-rule="evenodd" d="M51.4084 14.675C71.7278 14.675 88.2334 31.1807 88.2334 51.5C88.2334 71.8193 71.7278 88.3249 51.4084 88.3249C31.0891 88.3249 14.5835 71.8193 14.5835 51.5C14.5835 31.1807 31.0891 14.675 51.4084 14.675Z" fill="#FFCC00"/>
<path fill-rule="evenodd" clip-rule="evenodd" d="M51.4084 15.2852C71.3921 15.2852 87.6231 31.5163 87.6231 51.5C87.6231 71.4837 71.3921 87.7147 51.4084 87.7147C31.4246 87.7147 15.1936 71.5142 15.1936 51.5C15.1936 31.5163 31.4246 15.2852 51.4084 15.2852Z" fill="white"/>
<path fill-rule="evenodd" clip-rule="evenodd" d="M63.1242 74.7482C61.5987 76.1516 59.9512 77.6466 58.1511 78.6229C57.4799 78.989 56.8087 79.2636 56.107 79.5382C54.4595 80.1789 53.3001 80.6975 51.9272 81.8569C51.7136 82.04 51.5001 82.0094 51.256 81.8264C49.8831 80.667 48.7237 80.1484 47.0762 79.5077C46.3745 79.2331 45.7033 78.9585 45.0321 78.5924C43.232 77.6161 41.5845 76.1211 40.059 74.7177L38.1979 74.9312L38.0759 74.5651C37.1606 71.6362 36.9776 68.4937 38.8081 65.8699L39.2963 65.1682L39.6014 65.992C40.3641 68.1581 41.615 70.0802 43.3235 71.6362L43.8727 72.1244L43.171 72.3685C42.5913 72.582 42.1032 72.9176 41.737 73.3753L44.1778 74.4736C45.2151 74.6567 46.1914 75.2363 47.2593 74.6262C49.3339 73.4668 49.517 68.4632 49.5475 66.4801L49.7 58.151L49.7915 55.5272L50.3102 39.9674H47.0762C46.7101 39.9674 46.3745 39.6623 46.3745 39.2657V37.8317C46.3745 37.4656 46.6796 37.13 47.0762 37.13H48.8457C47.7779 36.3368 47.1067 35.0859 47.1067 33.6519C47.1067 31.2417 49.0593 29.3196 51.4391 29.3196C53.8493 29.3196 55.7714 31.2722 55.7714 33.6519C55.7714 35.0859 55.0697 36.3368 54.0324 37.13H56.0155C56.3816 37.13 56.7172 37.4351 56.7172 37.8317V39.2962C56.7172 39.6623 56.4121 39.9979 56.0155 39.9979H52.812L53.4222 58.2121L53.5747 66.5411C53.6052 68.4938 53.7883 73.5278 55.8629 74.6872C56.9308 75.2974 57.9071 74.6872 58.9444 74.5346L61.3851 73.4363C61.019 72.9786 60.5309 72.643 59.9512 72.4295L59.2495 72.1854L59.7987 71.6972C61.5072 70.1413 62.7276 68.2192 63.5208 66.053L63.8259 65.2292L64.3141 65.931C66.1446 68.5548 65.9616 71.6972 65.0463 74.6262L64.9242 74.9923L63.1242 74.7482ZM51.5001 31.7908C52.5374 31.7908 53.3917 32.6451 53.3917 33.6824C53.3917 34.7198 52.5374 35.574 51.5001 35.574C50.4627 35.574 49.6085 34.7198 49.6085 33.6824C49.6085 32.6451 50.4627 31.7908 51.5001 31.7908Z" fill="#2C2C2B"/>
<path fill-rule="evenodd" clip-rule="evenodd" d="M51.622 39.2047H52.4153L52.9339 55.5578L53.0255 58.1816L53.178 66.5107C53.3611 77.8297 57.7239 75.1449 59.1274 74.9008L62.1173 73.5584C61.6597 72.8262 61.019 72.277 60.1647 71.9719C61.9342 70.3244 63.2156 68.3718 64.0089 66.1446C65.4733 68.2497 65.7479 71.0261 64.6801 74.4432L62.9716 74.2296C61.263 75.8161 59.646 77.25 57.9375 78.1958C55.8629 79.3247 54.1543 79.3552 51.6525 81.4603C51.5915 81.4908 51.622 81.4908 51.561 81.4298C49.0592 79.3247 47.3507 79.2942 45.2761 78.1653C43.5675 77.2195 41.9505 75.7856 40.242 74.1991L38.5335 74.4126C37.4656 70.9956 37.7402 68.2192 39.2047 66.1141C39.9979 68.3107 41.2488 70.2939 43.0489 71.9414C42.1946 72.2465 41.5234 72.8261 41.0963 73.5279L44.0862 74.8703C45.4896 75.0839 49.8525 77.7687 50.0355 66.4802L50.1881 58.1511L50.2796 55.5273L50.7983 39.1742H51.622V39.2047Z" fill="#FFCC00"/>
<path fill-rule="evenodd" clip-rule="evenodd" d="M51.8357 41.5234V78.0127C53.2086 77.9822 54.3985 77.8297 55.4663 77.5856C56.6257 77.311 57.6325 76.9449 58.5173 76.4567C59.5546 75.9076 60.5614 75.1753 61.3852 74.3211C62.1174 73.5583 62.7581 72.7041 63.1547 71.7278C63.4598 70.9955 63.6734 70.1718 63.7649 69.226C63.8564 68.4327 63.8869 67.609 63.8259 66.7242C63.8259 66.6632 63.7954 66.6327 63.8259 66.5717L64.009 66.114L64.2531 66.5717C64.2836 66.6022 64.2531 66.6632 64.2531 66.6937C64.3141 67.609 64.2836 68.4632 64.192 69.287C64.07 70.2633 63.8564 71.1481 63.5513 71.9108C63.1242 72.9176 62.453 73.8329 61.6903 74.6567C60.8055 75.5414 59.7682 76.3042 58.7003 76.8839C57.785 77.372 56.7477 77.7686 55.5579 78.0432C54.4595 78.2873 53.2391 78.4398 51.8357 78.4704V80.9721H51.3781V78.4704C49.9746 78.4398 48.7542 78.2873 47.6559 78.0432C46.466 77.7686 45.4287 77.372 44.5134 76.8839C43.4456 76.3042 42.4083 75.572 41.5235 74.6567C40.7303 73.8634 40.0896 72.9481 39.6624 71.9108C39.3268 71.1481 39.1132 70.2633 39.0217 69.287C38.9302 68.4632 38.8997 67.6395 38.9607 66.6937C38.9607 66.6632 38.9607 66.6022 38.9607 66.5717L39.2048 66.114L39.3878 66.5717C39.4183 66.6327 39.3878 66.6632 39.3878 66.7242C39.3268 67.609 39.3573 68.4632 39.4489 69.226C39.5404 70.1413 39.7539 70.9955 40.059 71.7278C40.4557 72.7041 41.0964 73.5583 41.8286 74.3211C42.6829 75.1753 43.6897 75.9076 44.6965 76.4567C45.5813 76.9449 46.5881 77.311 47.7474 77.5856C48.8153 77.8297 50.0051 77.9822 51.3781 78.0127V41.5234H51.8357Z" fill="#2C2C2B"/>
<path fill-rule="evenodd" clip-rule="evenodd" d="M51.5915 37.5877H56.0459C56.1679 37.5877 56.29 37.7097 56.29 37.8318V39.2962C56.29 39.4183 56.1679 39.5403 56.0459 39.5403H51.5915H47.1371C47.0151 39.5403 46.8931 39.4183 46.8931 39.2962V37.8318C46.8931 37.7097 47.0151 37.5877 47.1371 37.5877H51.5915ZM51.5 29.7773C53.6662 29.7773 55.4052 31.5163 55.4052 33.6825C55.4052 35.8487 53.6662 37.5877 51.5 37.5877C49.3338 37.5877 47.5948 35.8487 47.5948 33.6825C47.5948 31.5163 49.3643 29.7773 51.5 29.7773ZM51.5 31.3028C52.8119 31.3028 53.8797 32.3706 53.8797 33.6825C53.8797 34.9944 52.8119 36.0622 51.5 36.0622C50.1881 36.0622 49.1203 34.9944 49.1203 33.6825C49.1203 32.3706 50.1881 31.3028 51.5 31.3028Z" fill="#FFCC00"/>
<path fill-rule="evenodd" clip-rule="evenodd" d="M55.6189 51.1339L55.5579 51.1644L55.3748 51.0729C55.1308 50.9508 54.8562 50.8898 54.6121 50.7678L53.8799 50.4016L54.5816 49.9745C55.7104 49.3033 56.8088 48.2355 57.7241 47.2897C58.6088 46.4354 59.4936 45.5201 60.4394 44.7269C61.5378 43.8116 62.5446 43.3845 63.9785 43.2624C64.1311 43.2624 64.2531 43.2319 64.4057 43.2319C65.7786 43.1709 67.1515 43.598 68.4329 44.0252C71.5754 45.0625 74.5958 46.6185 77.7993 47.4422C79.1417 47.6558 80.9113 47.8083 82.2232 47.3202C82.6198 47.1982 83.108 47.1371 83.3825 47.5032C83.6876 47.9304 83.4436 48.4796 83.169 48.8152C82.9859 49.0287 82.7724 49.2423 82.5588 49.4253L82.4368 49.7304C82.1012 50.6457 81.4605 51.2559 80.6062 51.439C80.1791 52.5983 79.5078 52.995 78.379 52.9644C77.9519 54.1238 77.1586 54.2153 76.1518 54.1543L76.1213 54.2153C75.6942 55.0086 74.7179 55.1306 73.6805 54.9781C73.467 55.3442 73.1619 55.6188 72.7652 55.7408C72.0025 56.0154 71.1177 55.7713 70.294 55.4662C70.233 55.5578 70.2024 55.6493 70.0804 55.7103C69.1346 56.3205 67.8532 56.0459 66.7244 55.5578C66.6634 55.6493 66.6328 55.7103 66.5108 55.7713C63.887 57.2358 61.5073 54.2153 59.3716 53.2695C59.1885 53.178 58.975 53.117 58.9139 52.9339C58.5783 52.8729 58.2732 52.6899 57.8156 52.4153L55.6189 51.1339Z" fill="#2C2C2B"/>
<path fill-rule="evenodd" clip-rule="evenodd" d="M55.5274 50.6762C55.2833 50.5542 55.0087 50.4932 54.7646 50.3711C56.6867 49.2118 58.8834 46.588 60.714 45.093C61.7208 44.2387 62.6666 43.8421 63.9785 43.7201C64.1005 43.7201 64.2531 43.6896 64.3751 43.6896C65.687 43.6286 67.0295 44.0557 68.2498 44.4523C71.3923 45.4591 74.4738 47.0761 77.6773 47.8694C79.8129 48.205 81.3079 48.1134 82.3452 47.7168C83.5961 47.2897 83.0469 48.8152 81.613 49.4254C80.6672 49.822 79.6604 49.6389 78.6841 49.4559C76.6399 49.0898 74.5958 48.388 72.4907 47.5033C70.6906 46.7405 69.0126 45.7337 67.121 45.154C65.3209 44.6049 63.7955 44.4828 62.5141 45.0625C60.5004 45.9778 58.7004 49.0592 55.5274 50.6762Z" fill="#FFCC00"/>
<path fill-rule="evenodd" clip-rule="evenodd" d="M61.8125 45.8557C64.5278 43.6591 68.6771 46.0388 71.4535 47.3202C71.7585 47.4727 71.8196 47.4422 71.8196 47.7778C71.7891 47.9609 71.5755 48.0829 71.3009 48.1439C70.7212 48.266 70.2941 48.0524 69.7449 47.8389C67.2126 46.8931 64.7109 45.7032 61.9345 45.9778C61.6599 45.9778 61.5684 46.0388 61.8125 45.8557Z" fill="#FFCC00"/>
<path fill-rule="evenodd" clip-rule="evenodd" d="M70.9041 48.4491C71.6668 48.3575 72.1244 48.1135 72.1549 47.6558C74.3516 48.6626 77.311 49.6694 80.0569 49.944C80.8501 50.0051 81.3383 49.8525 81.979 49.6389C81.6129 50.7068 80.7586 51.1949 79.6908 51.1339C76.8229 50.9203 74.2296 50.2186 70.9041 48.4491Z" fill="#FFCC00"/>
<path fill-rule="evenodd" clip-rule="evenodd" d="M60.4699 46.9846C60.8055 46.71 61.0191 46.3744 61.4462 46.3134C64.1311 45.8252 67.4566 47.2592 69.8058 48.1744C70.4465 48.4185 70.0499 48.9067 69.5618 48.9982C68.9821 49.1202 68.5549 49.0592 68.0058 48.8457C65.4735 47.8999 63.4599 46.4659 60.5615 47.1066C60.3174 47.1676 60.1953 47.1981 60.4699 46.9846Z" fill="#FFCC00"/>
<path fill-rule="evenodd" clip-rule="evenodd" d="M69.0432 49.3033C69.8365 49.2728 70.3856 49.0287 70.4161 48.571C72.4603 49.4863 76.335 51.561 80.2097 51.3169C79.8436 52.3847 79.2639 52.6288 78.1961 52.5678C77.0367 52.4763 75.9078 52.1712 74.718 51.7745C72.9484 51.2254 71.0263 50.3711 69.0432 49.3033Z" fill="#FFCC00"/>
<path fill-rule="evenodd" clip-rule="evenodd" d="M59.3718 48.022C59.7074 47.7474 59.9515 47.4728 60.3481 47.3813C63.0635 46.7101 65.4432 48.083 67.7924 49.0593C68.4331 49.3339 68.0975 49.7305 67.6094 49.822C67.0297 49.9441 66.6026 49.8831 66.0534 49.6695C63.5211 48.7237 62.3922 47.5033 59.4938 48.144C59.2498 48.1745 59.1277 48.2355 59.3718 48.022Z" fill="#FFCC00"/>
<path fill-rule="evenodd" clip-rule="evenodd" d="M67.0598 50.1271C67.8531 50.0966 68.4022 49.8525 68.4327 49.3948C69.8362 49.9745 74.138 52.3848 77.9517 52.8119C77.5856 53.8797 76.8228 53.7882 75.755 53.7272C73.7109 53.6051 68.8599 51.1034 67.0598 50.1271Z" fill="#FFCC00"/>
<path fill-rule="evenodd" clip-rule="evenodd" d="M58.4563 48.9372C58.7919 48.6626 58.7614 48.5711 59.158 48.4491C62.0564 47.6253 63.6429 48.9677 65.9921 49.944C66.6328 50.2186 66.4497 50.4932 65.9616 50.5847C65.3819 50.7068 65.0158 50.4627 64.4666 50.2796C61.9649 49.4864 61.5987 48.8152 58.5783 49.0287C58.3037 49.0593 58.2122 49.1203 58.4563 48.9372Z" fill="#FFCC00"/>
<path fill-rule="evenodd" clip-rule="evenodd" d="M65.4124 50.9203C66.1751 50.8898 66.6327 50.6762 66.6632 50.2186C67.7311 50.6762 70.5379 52.3237 73.4363 53.3916C74.1686 53.6661 74.9618 53.9712 75.6941 54.0323C74.4737 56.3205 66.9683 51.4389 65.4124 50.9203Z" fill="#FFCC00"/>
<path fill-rule="evenodd" clip-rule="evenodd" d="M57.6631 49.5474C57.9987 49.2728 57.9377 49.2728 58.3343 49.2423C61.8734 49.0897 62.209 49.8525 64.2226 50.5237C64.8938 50.7373 64.5582 51.1034 64.0701 51.1339C62.2395 51.2864 60.1649 49.3643 57.9072 49.6694C57.6631 49.6999 57.3885 49.761 57.6631 49.5474Z" fill="#FFCC00"/>
<path fill-rule="evenodd" clip-rule="evenodd" d="M63.7039 51.5C64.4666 51.4695 64.8327 51.3475 64.8327 50.8898C67.426 51.9272 70.66 54.2459 73.3143 54.7035C73.1618 55.0086 72.9177 55.2222 72.6126 55.3442C71.6668 55.7103 70.3244 55.0086 69.5007 54.612C67.1819 53.5442 64.5581 51.7746 63.7039 51.5Z" fill="#FFCC00"/>
<path fill-rule="evenodd" clip-rule="evenodd" d="M61.9344 51.9576C62.5141 51.8966 62.8497 51.7441 63.0327 51.4084C65.4125 52.5678 67.4871 54.1543 69.9279 55.1916C69.8974 55.2526 69.8668 55.3137 69.8363 55.3442C67.7617 56.6561 63.3683 52.9644 61.8429 52.0797C61.5378 51.9271 61.6598 51.9881 61.9344 51.9576Z" fill="#FFCC00"/>
<path fill-rule="evenodd" clip-rule="evenodd" d="M59.5546 52.7204C60.1343 52.6594 60.6835 52.3848 60.9275 52.1102C60.958 52.0492 60.9886 52.0187 61.0191 51.9576C61.1411 52.0187 61.2631 52.0797 61.3547 52.1712C63.2463 53.3001 64.0395 54.3069 66.3887 55.2527C66.3582 55.3137 66.3277 55.3747 66.2972 55.4052C63.948 56.7171 61.5377 53.7577 59.5546 52.8729C59.2495 52.7509 59.219 52.7509 59.5546 52.7204Z" fill="#FFCC00"/>
<path fill-rule="evenodd" clip-rule="evenodd" d="M56.9917 50.0965C57.3273 49.8219 57.2663 49.9134 57.6629 49.8829C58.3036 49.8524 58.9443 49.8219 59.524 50.005C60.4393 50.2795 61.2936 50.8287 62.3004 51.0728C62.5444 51.1338 62.6665 51.1948 62.6665 51.2559C62.7275 51.4999 61.9343 51.866 61.3241 51.744C60.0122 51.4694 59.3104 50.6152 57.2358 50.249C56.9917 50.188 56.7476 50.3101 56.9917 50.0965Z" fill="#FFCC00"/>
<path fill-rule="evenodd" clip-rule="evenodd" d="M58.0292 52.0491L55.9546 50.8287L56.6563 50.3711C56.9614 50.3711 57.6326 50.5236 58.3648 50.8287C59.0666 51.1338 59.9208 51.4084 60.3174 51.7745C60.6836 52.1101 60.3174 52.2627 59.6767 52.4457C58.8835 52.6288 58.731 52.4457 58.0292 52.0491Z" fill="#FFCC00"/>
<path fill-rule="evenodd" clip-rule="evenodd" d="M47.2591 51.1339L47.3202 51.1644L47.5032 51.0729C47.7473 50.9508 48.0219 50.8898 48.266 50.7678L48.9982 50.4016L48.2965 49.9745C47.1676 49.3033 46.0693 48.2355 45.154 47.2897C44.2692 46.4354 43.3844 45.5201 42.4386 44.7269C41.3403 43.8116 40.3335 43.3845 38.8995 43.2624C38.747 43.2624 38.625 43.2319 38.4724 43.2319C37.0995 43.1709 35.7266 43.598 34.4452 44.0252C31.3027 45.0625 28.3128 46.6185 25.0788 47.4422C23.7363 47.6558 21.9668 47.8083 20.6549 47.3202C20.2583 47.1982 19.7701 47.1371 19.4955 47.5032C19.1904 47.9304 19.4345 48.4796 19.7091 48.8152C19.8921 49.0287 20.1057 49.2423 20.3193 49.4253L20.4413 49.7304C20.7769 50.6457 21.4176 51.2559 22.2719 51.439C22.699 52.5983 23.3702 52.995 24.4991 52.9644C24.9262 54.1238 25.7195 54.2153 26.7263 54.1543L26.7568 54.2153C27.1839 55.0086 28.1602 55.1306 29.1975 54.9781C29.4111 55.3442 29.7162 55.6188 30.1128 55.7408C30.8756 56.0154 31.7603 55.7713 32.5841 55.4662C32.6451 55.5578 32.6756 55.6493 32.7976 55.7103C33.7434 56.3205 35.0248 56.0459 36.1537 55.5578C36.2147 55.6493 36.2452 55.7103 36.3673 55.7713C38.9911 57.2358 41.3708 54.2153 43.5065 53.2695C43.6895 53.178 43.9031 53.117 43.9641 52.9339C44.2997 52.8729 44.6048 52.6899 45.0625 52.4153L47.2591 51.1339Z" fill="#2C2C2B"/>
<path fill-rule="evenodd" clip-rule="evenodd" d="M47.3506 50.6762C47.5947 50.5542 47.8692 50.4932 48.1133 50.3711C46.1912 49.2118 43.9945 46.588 42.164 45.093C41.1572 44.2387 40.2114 43.8421 38.8995 43.7201C38.7774 43.7201 38.6249 43.6896 38.5028 43.6896C37.1909 43.6286 35.8485 44.0557 34.6281 44.4523C31.4857 45.4591 28.4042 47.0761 25.2007 47.8694C23.065 48.205 21.5701 48.1134 20.5327 47.7168C19.2819 47.2897 19.831 48.8152 21.265 49.4254C22.2108 49.822 23.2176 49.6389 24.1939 49.4559C26.238 49.0898 28.2822 48.388 30.3873 47.5033C32.1874 46.7405 33.8654 45.7337 35.757 45.154C37.557 44.6049 39.0825 44.4828 40.3639 45.0625C42.3775 45.9778 44.1776 49.0592 47.3506 50.6762Z" fill="#FFCC00"/>
<path fill-rule="evenodd" clip-rule="evenodd" d="M41.0657 45.8557C38.3504 43.6591 34.2011 46.0388 31.4247 47.3202C31.1196 47.4727 31.0586 47.4422 31.0586 47.7778C31.0891 47.9609 31.3027 48.0829 31.5773 48.1439C32.1569 48.266 32.5841 48.0524 33.1332 47.8389C35.6655 46.8931 38.1673 45.7032 40.9437 45.9778C41.1877 45.9778 41.3098 46.0388 41.0657 45.8557Z" fill="#FFCC00"/>
<path fill-rule="evenodd" clip-rule="evenodd" d="M31.9433 48.4491C31.1806 48.3575 30.723 48.1135 30.6925 47.6558C28.4958 48.6626 25.5364 49.6694 22.7905 49.944C21.9973 50.0051 21.5091 49.8525 20.8684 49.6389C21.2345 50.7068 22.0888 51.1949 23.1566 51.1339C26.055 50.9203 28.6483 50.2186 31.9433 48.4491Z" fill="#FFCC00"/>
<path fill-rule="evenodd" clip-rule="evenodd" d="M42.408 46.9846C42.0724 46.71 41.8588 46.3744 41.4317 46.3134C38.7468 45.8252 35.4213 47.2592 33.0721 48.1744C32.4314 48.4185 32.828 48.9067 33.3162 48.9982C33.8958 49.1202 34.323 49.0592 34.8721 48.8457C37.4044 47.8999 39.418 46.4659 42.3164 47.1066C42.53 47.1676 42.6521 47.1981 42.408 46.9846Z" fill="#FFCC00"/>
<path fill-rule="evenodd" clip-rule="evenodd" d="M33.8349 49.3033C33.0417 49.2728 32.4925 49.0287 32.462 48.571C30.4179 49.4863 26.5432 51.561 22.6685 51.3169C23.0346 52.3847 23.6143 52.6288 24.6821 52.5678C25.8414 52.4763 26.9703 52.1712 28.1602 51.7745C29.9297 51.2254 31.8518 50.3711 33.8349 49.3033Z" fill="#FFCC00"/>
<path fill-rule="evenodd" clip-rule="evenodd" d="M43.5063 48.022C43.1707 47.7474 42.9266 47.4728 42.53 47.3813C39.8147 46.7101 37.4349 48.083 35.0857 49.0593C34.445 49.3339 34.7806 49.7305 35.2687 49.822C35.8484 49.9441 36.2756 49.8831 36.8247 49.6695C39.357 48.7237 40.4859 47.5033 43.3843 48.144C43.6283 48.1745 43.7504 48.2355 43.5063 48.022Z" fill="#FFCC00"/>
<path fill-rule="evenodd" clip-rule="evenodd" d="M35.7876 50.1271C34.9944 50.0966 34.4452 49.8525 34.4147 49.3948C33.0113 49.9745 28.7094 52.3848 24.8958 52.8119C25.2619 53.8797 26.0246 53.7882 27.0924 53.7272C29.1671 53.6051 34.0181 51.1034 35.7876 50.1271Z" fill="#FFCC00"/>
<path fill-rule="evenodd" clip-rule="evenodd" d="M44.4218 48.9372C44.0862 48.6626 44.1167 48.5711 43.72 48.4491C40.8216 47.6253 39.2352 48.9677 36.8859 49.944C36.2452 50.2186 36.4283 50.4932 36.9164 50.5847C37.4961 50.7068 37.8622 50.4627 38.4114 50.2796C40.9132 49.4864 41.2793 48.8152 44.2997 49.0287C44.5438 49.0593 44.6658 49.1203 44.4218 48.9372Z" fill="#FFCC00"/>
<path fill-rule="evenodd" clip-rule="evenodd" d="M37.435 50.9203C36.6723 50.8898 36.2146 50.6762 36.1841 50.2186C35.1163 50.6762 32.3094 52.3237 29.411 53.3916C28.6788 53.6661 27.8855 53.9712 27.1533 54.0323C28.4042 56.3205 35.9095 51.4389 37.435 50.9203Z" fill="#FFCC00"/>
<path fill-rule="evenodd" clip-rule="evenodd" d="M45.215 49.5474C44.8794 49.2728 44.9404 49.2728 44.5438 49.2423C41.0047 49.0897 40.669 49.8525 38.6554 50.5237C37.9842 50.7373 38.3198 51.1034 38.808 51.1339C40.6385 51.2864 42.7132 49.3643 44.9709 49.6694C45.1845 49.6999 45.459 49.761 45.215 49.5474Z" fill="#FFCC00"/>
<path fill-rule="evenodd" clip-rule="evenodd" d="M39.174 51.5C38.4112 51.4695 38.0451 51.3475 38.0451 50.8898C35.4518 51.9272 32.2178 54.2459 29.5635 54.7035C29.716 55.0086 29.9601 55.2222 30.2652 55.3442C31.211 55.7103 32.5534 55.0086 33.3772 54.612C35.6654 53.5442 38.3197 51.7746 39.174 51.5Z" fill="#FFCC00"/>
<path fill-rule="evenodd" clip-rule="evenodd" d="M40.9437 51.9576C40.364 51.8966 40.0284 51.7441 39.8453 51.4084C37.4656 52.5678 35.391 54.1543 32.9502 55.1916C32.9807 55.2526 33.0112 55.3137 33.0417 55.3442C35.1164 56.6561 39.5097 52.9644 41.0352 52.0797C41.3403 51.9271 41.2183 51.9881 40.9437 51.9576Z" fill="#FFCC00"/>
<path fill-rule="evenodd" clip-rule="evenodd" d="M43.3234 52.7204C42.7437 52.6594 42.1945 52.3848 41.9505 52.1102C41.9199 52.0492 41.8894 52.0187 41.8589 51.9576C41.7369 52.0187 41.6149 52.0797 41.5233 52.1712C39.6317 53.3001 38.8385 54.3069 36.4893 55.2527C36.5198 55.3137 36.5503 55.3747 36.5808 55.4052C38.93 56.7171 41.3403 53.7577 43.3234 52.8729C43.598 52.7509 43.659 52.7509 43.3234 52.7204Z" fill="#FFCC00"/>
<path fill-rule="evenodd" clip-rule="evenodd" d="M45.8861 50.0965C45.5505 49.8219 45.6115 49.9134 45.2149 49.8829C44.5742 49.8524 43.9335 49.8219 43.3538 50.005C42.4385 50.2795 41.5843 50.8287 40.5774 51.0728C40.3334 51.1338 40.2113 51.1948 40.2113 51.2559C40.1503 51.4999 40.9436 51.866 41.5537 51.744C42.8656 51.4694 43.5674 50.6152 45.642 50.249C45.8861 50.188 46.1302 50.3101 45.8861 50.0965Z" fill="#FFCC00"/>
<path fill-rule="evenodd" clip-rule="evenodd" d="M44.8489 52.0491L46.9236 50.8287L46.2219 50.3711C45.9168 50.3711 45.2456 50.5236 44.5133 50.8287C43.8116 51.1338 42.9573 51.4084 42.5607 51.7745C42.1946 52.1101 42.5607 52.2627 43.2014 52.4457C43.9947 52.6288 44.1472 52.4457 44.8489 52.0491Z" fill="#FFCC00"/>
<path fill-rule="evenodd" clip-rule="evenodd" d="M62.9409 64.7106L30.967 31.9434C30.2958 31.2111 29.8991 30.4484 29.8381 29.4721C29.8076 29.228 29.8076 29.045 29.7771 28.7704L29.7466 28.3127L30.3263 28.3433C30.6008 28.3433 30.8754 28.3433 31.15 28.3738C32.0348 28.4653 32.7365 28.8619 33.4077 29.5026L66.1749 61.4765C63.9782 63.8868 64.4969 62.4223 62.9409 64.7106Z" fill="#2C2C2B"/>
<path fill-rule="evenodd" clip-rule="evenodd" d="M70.0801 70.4159C70.5988 71.0261 71.209 71.5752 72.0022 71.7888C72.3988 71.9108 72.6429 71.9108 72.948 71.5752C73.009 71.5142 73.07 71.4532 73.1616 71.3617C73.4361 71.0871 73.5277 70.9345 73.4972 70.5074C73.4361 69.4701 72.8565 68.7989 72.0327 68.3107C72.0327 68.1582 72.0022 68.0056 71.8802 67.8836L71.6056 67.609C71.453 67.4565 71.27 67.4259 71.0869 67.4565L66.5105 62.2393L65.6867 61.141L65.0766 62.5139L62.8188 63.9479L63.6426 64.6191L64.1613 65.1377L69.1038 69.5006C69.0733 69.6836 69.1038 69.8667 69.2563 69.9887L69.5309 70.2633C69.653 70.4769 69.897 70.5074 70.0801 70.4159Z" fill="#2C2C2B"/>
<path fill-rule="evenodd" clip-rule="evenodd" d="M65.168 63.0021L64.9545 65.2903L64.4663 64.8326L63.9477 64.314L63.5815 64.0394L65.168 63.0021ZM70.7208 68.5853L70.7818 67.792L71.1174 68.1887L70.7208 68.5853ZM70.5072 67.5175L70.3852 68.9209L69.7445 69.5616L69.6529 69.4701L69.897 66.8157L70.5072 67.5175ZM69.6529 66.5106L69.4089 69.226L68.7987 68.6768L69.0732 65.8089L69.6529 66.5106ZM68.7987 65.5343L68.5241 68.4633L67.9139 67.9141L68.219 64.8631L68.7987 65.5343ZM67.9139 64.5275L67.6088 67.6395L66.9986 67.0903L67.3037 63.8258L67.9139 64.5275ZM67.0596 63.5512L66.7545 66.8768L66.1443 66.3276L66.4799 62.8495L67.0596 63.5512ZM66.1748 62.5444L65.8392 66.053L65.2291 65.5038L65.5036 62.6665L65.8087 62.0258L66.1748 62.5444Z" fill="#FFCC00"/>
<path fill-rule="evenodd" clip-rule="evenodd" d="M70.1716 69.8056L71.0564 68.8598L71.0869 68.8903C71.331 69.0734 71.6361 69.3175 71.8802 69.6226C72.1547 69.9277 72.3683 70.2938 72.4293 70.7514C72.4293 70.8124 72.5209 70.8735 72.5819 70.8735C72.6429 70.8735 72.7039 70.7819 72.7039 70.7209C72.6429 70.2328 72.3988 69.8056 72.0937 69.47C71.8191 69.1344 71.4835 68.8598 71.2395 68.6768L71.4225 68.4937C72.3683 68.9514 73.0395 69.5615 73.1005 70.5684C73.1005 70.8429 73.07 70.8735 72.887 71.087C72.826 71.148 72.7649 71.2091 72.6734 71.3006C72.4904 71.4836 72.4293 71.4531 72.1547 71.3921C71.453 71.1785 70.7818 70.6904 70.1716 69.8056Z" fill="#FFCC00"/>
<path fill-rule="evenodd" clip-rule="evenodd" d="M71.5445 67.5785C71.331 67.365 70.9649 67.3955 70.7513 67.6396L69.2258 69.3481C69.0122 69.5617 69.0428 69.9278 69.2563 70.1413L69.5309 70.3854C69.7445 70.599 70.1106 70.5685 70.3242 70.3244L71.8496 68.6159C72.0632 68.4023 72.0327 68.0362 71.8191 67.8226L71.5445 67.5785Z" fill="#2C2C2B"/>
<path fill-rule="evenodd" clip-rule="evenodd" d="M71.27 67.9141L71.5446 68.1582C71.5751 68.1887 71.5751 68.2497 71.5446 68.3107L70.0191 70.0192C69.9886 70.0803 69.8971 70.0803 69.8666 70.0497L69.592 69.8057C69.5615 69.7752 69.5615 69.7141 69.592 69.6531L71.1174 67.9446C71.148 67.8836 71.209 67.8836 71.27 67.9141Z" fill="#FFCC00"/>
<path fill-rule="evenodd" clip-rule="evenodd" d="M64.497 63.6733L53.361 52.2932L30.2653 29.167C30.2348 30.1739 30.5704 30.9061 31.2721 31.6688L63.0935 64.2834L64.497 63.6733ZM65.1072 63.0631L53.7271 51.9271L30.6314 28.8314C31.6383 28.8009 32.3705 29.1365 33.1332 29.8382L65.7479 61.6596L65.1072 63.0631Z" fill="#D9DBDC"/>
<path fill-rule="evenodd" clip-rule="evenodd" d="M67.9443 58.9748C68.4935 59.0053 69.1036 58.6697 69.4393 58.3341C69.8969 57.8765 70.4156 56.8391 69.8359 56.2595C69.2867 55.7103 68.1884 56.1374 67.7002 56.6256C67.3341 56.9917 67.029 57.6324 67.09 58.1816L62.6967 61.2935L59.5847 65.6869C59.0355 65.6259 58.3948 65.931 58.0287 66.2971C57.5711 66.7547 57.1134 67.8531 57.6626 68.4327C58.2118 68.9819 59.2796 68.4938 59.7372 68.0361C60.0728 67.7005 60.4084 67.0903 60.3779 66.5412L65.0459 63.6733L67.9443 58.9748Z" fill="#2C2C2B"/>
<path fill-rule="evenodd" clip-rule="evenodd" d="M64.7714 63.3071L59.9204 66.297C60.1035 66.5716 59.9509 67.2123 59.4628 67.7004C58.9441 68.2191 58.2424 68.3411 58.0288 68.0971C57.8153 67.8835 57.8763 67.1208 58.3949 66.6021C58.8526 66.1444 59.5238 66.0224 59.8289 66.2055L63.0629 61.629L67.6698 58.395C67.5173 58.1205 67.6088 57.4492 68.0664 56.9611C68.5851 56.4424 69.3478 56.3814 69.5614 56.595C69.775 56.8085 69.6529 57.5103 69.1648 58.0289C68.6766 58.5171 68.0359 58.6391 67.7613 58.4866L64.7714 63.3071Z" fill="#FFCC00"/>
<path fill-rule="evenodd" clip-rule="evenodd" d="M60.6834 65.2598C60.6223 65.3208 60.6223 65.4123 60.6529 65.4734C60.7139 65.5344 60.8054 65.5039 60.8664 65.4428L63.9479 62.6055L64.314 63.1546C64.375 63.2157 64.5886 63.1851 64.6496 63.1546C64.7106 63.0936 64.7106 62.9106 64.6496 62.8495L64.1004 62.4834L66.8768 59.402C66.9378 59.341 66.9988 59.2799 66.9378 59.2189C66.8768 59.1579 66.8158 59.2494 66.7547 59.3104L63.7953 62.1478L63.4292 61.6597C63.3682 61.5987 63.1851 61.6597 63.1546 61.7207C63.0936 61.7817 63.0631 61.9037 63.1241 61.9648L63.6428 62.3004L60.6834 65.2598Z" fill="#2C2C2B"/>
<path fill-rule="evenodd" clip-rule="evenodd" d="M32.8892 70.3548C32.3706 70.965 31.7299 71.4837 30.9366 71.6972C30.5095 71.7888 30.2959 71.8193 29.9908 71.4837C29.9298 71.4226 29.8688 71.3616 29.7772 71.2701C29.5027 70.965 29.4111 70.843 29.4416 70.4158C29.5027 69.3785 30.1129 68.7073 30.9366 68.2497C30.9366 68.0971 30.9671 67.9446 31.0892 67.8225L31.3637 67.5479C31.5163 67.3954 31.7299 67.3649 31.9129 67.4259L36.5809 62.2698L37.4351 61.202L38.0453 62.5749L40.2725 64.0699L39.4182 64.7106L38.8996 65.2292L33.896 69.5005C33.9265 69.6836 33.8655 69.8667 33.7435 69.9887L33.4689 70.2633C33.3469 70.4158 33.1028 70.4463 32.8892 70.3548Z" fill="#2C2C2B"/>
<path fill-rule="evenodd" clip-rule="evenodd" d="M37.9537 63.0325L38.1368 65.3207L38.6554 64.8936L39.1741 64.3749L39.5402 64.1004L37.9537 63.0325ZM32.3095 68.5242L32.2484 67.731L31.9128 68.0971L32.3095 68.5242ZM32.523 67.4259L32.6451 68.8293L33.2858 69.47L33.3773 69.3785L33.1637 66.7242L32.523 67.4259ZM33.4078 66.4496L33.6214 69.1649L34.2621 68.6158L34.0485 65.7479L33.4078 66.4496ZM34.2926 65.5038L34.5061 68.4327L35.1468 67.8835L34.9028 64.8326L34.2926 65.5038ZM35.1774 64.5275L35.4214 67.6394L36.0621 67.0903L35.8181 63.8258L35.1774 64.5275ZM36.0621 63.5512L36.3062 66.8767L36.9469 66.3275L36.6723 62.8495L36.0621 63.5512ZM36.9469 62.5749L37.2215 66.114L37.8622 65.5648L37.6486 62.7274L37.374 62.0562L36.9469 62.5749Z" fill="#FFCC00"/>
<path fill-rule="evenodd" clip-rule="evenodd" d="M32.8281 69.7447L31.9433 68.7989L31.9128 68.8294C31.6687 69.0124 31.3636 69.2565 31.089 69.5616C30.8145 69.8667 30.6009 70.2328 30.5399 70.6904C30.5399 70.7515 30.4483 70.8125 30.3873 70.8125C30.3263 70.8125 30.2653 70.721 30.2653 70.6599C30.3263 70.1718 30.6009 69.7447 30.8755 69.4091C31.1501 69.0734 31.4857 68.8294 31.7297 68.6463L31.5772 68.4633C30.6314 68.8904 29.9602 69.5006 29.8687 70.5074C29.8382 70.782 29.8687 70.8125 30.0822 71.0261C30.1432 71.0871 30.2043 71.1481 30.2958 71.2396C30.4789 71.4227 30.5399 71.4227 30.8145 71.3312C31.5162 71.0871 32.1874 70.5989 32.8281 69.7447Z" fill="#FFCC00"/>
<path fill-rule="evenodd" clip-rule="evenodd" d="M39.9369 64.7106L71.9108 31.9434C72.582 31.2111 72.9786 30.4484 73.0397 29.4721C73.0702 29.228 73.0702 29.045 73.1007 28.7704L73.1312 28.3127L72.5515 28.3433C72.2769 28.3433 72.0023 28.3433 71.7278 28.3738C70.843 28.4653 70.1413 28.8619 69.4701 29.5026L36.7029 61.4765C38.8996 63.8868 38.3504 62.4223 39.9369 64.7106Z" fill="#2C2C2B"/>
<path fill-rule="evenodd" clip-rule="evenodd" d="M31.4856 67.4869C31.7297 67.2733 32.0653 67.3343 32.2789 67.5479L33.7738 69.287C33.9874 69.531 33.9569 69.8666 33.7128 70.0802L33.4382 70.3243C33.1942 70.5378 32.8585 70.4768 32.645 70.2633L31.15 68.5242C30.967 68.2801 30.967 67.9445 31.211 67.731L31.4856 67.4869Z" fill="#2C2C2B"/>
<path fill-rule="evenodd" clip-rule="evenodd" d="M31.7604 67.8225L31.4858 68.0666C31.4553 68.0971 31.4553 68.1581 31.4858 68.2192L32.9807 69.9582C33.0112 70.0192 33.1028 70.0192 33.1333 69.9887L33.4079 69.7446C33.4384 69.7141 33.4384 69.6531 33.4079 69.5921L31.9129 67.853C31.8824 67.792 31.8214 67.792 31.7604 67.8225Z" fill="#FFCC00"/>
<path fill-rule="evenodd" clip-rule="evenodd" d="M38.3503 63.6733L49.4862 52.2932L72.6124 29.167C72.6429 30.1739 72.3073 30.9061 71.6056 31.6688L39.7537 64.2529L38.3503 63.6733ZM37.7706 63.0631L49.1506 51.9271L72.2463 28.8314C71.2395 28.8009 70.5073 29.1365 69.7445 29.8382L37.1604 61.6596L37.7706 63.0631Z" fill="#D9DBDC"/>
<path fill-rule="evenodd" clip-rule="evenodd" d="M42.4386 66.6021C42.4081 67.1513 42.7437 67.7615 43.0793 68.0971C43.5369 68.5547 44.5742 69.0734 45.1539 68.5242C45.7336 67.9751 45.3065 66.8767 44.8183 66.3886C44.4522 66.0225 43.8115 65.7174 43.2623 65.7479L40.2114 61.2935L35.8485 58.1205C35.9095 57.5713 35.635 56.9306 35.2688 56.5645C34.8112 56.0764 33.7129 55.6187 33.1637 56.1679C32.584 56.7171 33.0722 57.7849 33.5298 58.2425C33.8654 58.5781 34.4756 58.9443 35.0248 58.9137L37.8011 63.6122L42.4386 66.6021Z" fill="#2C2C2B"/>
<path fill-rule="evenodd" clip-rule="evenodd" d="M38.1671 63.3376L35.2687 58.4256C34.9941 58.5781 34.3534 58.4561 33.8958 57.968C33.4076 57.4493 33.2856 56.7476 33.4992 56.534C33.7432 56.3204 34.4755 56.3815 34.9941 56.9001C35.4518 57.3883 35.5433 58.0595 35.3907 58.3341L39.9367 61.6596L43.1096 66.297C43.3842 66.1445 44.0554 66.236 44.5436 66.7242C45.0317 67.2428 45.0928 68.0056 44.8792 68.2191C44.6351 68.4327 43.9334 68.3107 43.4452 67.792C42.9876 67.3039 42.8351 66.6632 43.0181 66.3886L38.1671 63.3376Z" fill="#FFCC00"/>
<path fill-rule="evenodd" clip-rule="evenodd" d="M36.2756 59.2189C36.2146 59.1579 36.1231 59.1274 36.0621 59.1884C36.001 59.2494 36.0316 59.341 36.0926 59.402L38.8689 62.5139L38.3198 62.8801C38.2588 62.9411 38.2893 63.1546 38.3198 63.2157C38.3808 63.2767 38.5638 63.2767 38.6249 63.2157L38.991 62.6665L42.0419 65.4734C42.1029 65.5344 42.164 65.5954 42.225 65.5344C42.286 65.4734 42.225 65.4123 42.1335 65.3513L39.3266 62.3614L39.8147 62.0258C39.8758 61.9648 39.8147 61.7817 39.7842 61.7512C39.7232 61.6902 39.6012 61.6597 39.5402 61.7207L39.2045 62.2394L36.2756 59.2189Z" fill="#2C2C2B"/>
<path fill-rule="evenodd" clip-rule="evenodd" d="M87.3484 35.6656L96.7148 32.7977L97.7216 36.0317L94.4571 37.0385L98.3013 38.0148L99.2166 40.9742L89.3621 43.9947L88.3552 40.7607L91.5587 39.7843L87.7451 38.7775L86.8603 35.9096L86.7688 35.9707L85.1212 33.0112L88.0502 31.3942L84.1144 31.2112L82.6195 28.4958L91.6503 23.4923L93.2978 26.4517L90.3384 28.0992L94.3046 28.2518L95.7996 30.9671L87.3484 35.6656ZM79.7211 19.221C79.8736 19.0379 80.0567 18.8548 80.2397 18.6718C81.277 17.665 82.5279 16.9327 83.9924 16.9022C85.3653 16.8717 86.5552 17.4514 87.501 18.4277C88.3247 19.282 88.8434 20.3193 88.8434 21.5092C88.8434 22.2719 88.5688 23.0346 88.2027 23.7059L87.7451 24.4991L84.7246 22.577L85.2128 21.8143C85.3348 21.6312 85.3958 21.4176 85.3958 21.2041C85.3653 20.9905 85.2738 20.8075 85.1212 20.6244C84.8772 20.3803 84.6026 20.2278 84.2365 20.2583C83.7483 20.2888 83.1381 20.8075 82.8025 21.1125C82.4669 21.4482 81.8567 22.0889 81.8262 22.577C81.7957 22.9126 81.8872 23.1872 82.1313 23.4313C82.2839 23.5838 82.4669 23.7059 82.711 23.7059C83.0161 23.7364 83.4127 23.5533 83.6568 23.4008L84.4805 22.9126L86.067 26.1161L85.3043 26.5127C84.389 27.0009 83.3822 27.306 82.3449 27.1229C81.3381 26.9704 80.4838 26.4212 79.7821 25.689C78.8668 24.7432 78.3786 23.5533 78.4397 22.2109C78.5007 21.1736 78.8668 20.2888 79.477 19.4955L79.1414 19.7701C78.3481 20.4413 77.4023 20.899 76.365 20.9295C75.3582 20.96 74.3819 20.5939 73.5582 20.0142C72.4598 19.2515 71.7581 18.1836 71.575 16.8717C71.3615 15.4683 71.8496 14.1259 72.6429 12.997C73.4666 11.8377 74.565 10.8614 75.9989 10.5563C77.3413 10.2817 78.6227 10.6173 79.7516 11.38C80.7279 12.0512 81.4296 12.9665 81.6737 14.1564C81.8262 14.9191 81.7042 15.6819 81.4601 16.4141L81.155 17.2989L77.8295 15.987L78.1651 15.1632C78.2566 14.9496 78.2871 14.7361 78.2261 14.5225C78.1651 14.3089 78.0125 14.1564 77.8295 14.0038C77.5244 13.7903 77.2498 13.7293 76.9142 13.8208C76.426 13.9428 75.9379 14.553 75.6633 14.9496C75.3887 15.3463 74.9311 16.0785 74.9616 16.5666C74.9921 16.9022 75.1446 17.1463 75.4192 17.3599C75.6023 17.4819 75.7853 17.5429 76.0294 17.5124C76.3345 17.4819 76.6701 17.2073 76.9142 17.0243L77.6159 16.3836L79.7211 19.221ZM25.1701 22.4855C25.0176 23.4313 24.5294 24.255 23.8582 24.9262C22.9429 25.9025 21.7836 26.4212 20.4412 26.3907C19.0072 26.3602 17.7868 25.689 16.78 24.7127C15.7427 23.7059 14.98 22.4855 14.8884 21.021C14.8274 19.6481 15.3461 18.4277 16.2919 17.4514C17.1156 16.5971 18.1224 16.048 19.3123 15.987C20.075 15.9564 20.8378 16.2005 21.509 16.5666L22.3327 16.9938L20.5022 20.0752L19.7394 19.6176C19.5564 19.4955 19.3428 19.4345 19.1292 19.465C18.9157 19.4955 18.7326 19.6176 18.5801 19.7701C18.336 20.0142 18.214 20.2888 18.2445 20.6549C18.275 21.1431 18.8241 21.7227 19.1598 22.0583C19.4954 22.3939 20.1666 22.9736 20.6547 23.0041C20.9903 23.0346 21.2649 22.9126 21.509 22.6685C21.6615 22.516 21.7531 22.3329 21.7531 22.0889C21.7531 21.7838 21.57 21.3871 21.3869 21.1431L20.8683 20.3498L24.0108 18.6413L24.3464 19.221L22.6073 12.1428L25.0786 10.4037L31.9432 14.8886L31.8517 6.65105L34.6586 5.5222L42.408 13.5767L38.8689 15.0107L37.4654 13.4852L35.4518 14.3089L35.5128 16.3836L33.5602 17.1768L31.333 18.7328L29.594 17.5734L27.8244 18.8243L28.3736 20.8075L25.2922 22.9736L25.1701 22.4855ZM13.3324 34.4757C12.7223 34.3232 12.1121 34.0791 11.5629 33.7435C10.8002 33.3163 10.0984 32.7672 9.57978 32.0654C9.24417 31.6078 9.0001 31.0586 8.81704 30.5095C8.66449 29.9603 8.60347 29.3806 8.66449 28.8314C8.75602 28.0992 9.0306 27.367 9.39672 26.7263C10.0984 25.5059 11.1053 24.6211 12.4782 24.2855C13.8816 23.9194 15.285 24.316 16.5359 25.0178C17.7868 25.7195 18.7936 26.7263 19.1903 28.1297C19.5869 29.4721 19.3123 30.8146 18.6106 32.0044C17.9089 33.2248 16.9021 34.1096 15.5291 34.4757C15.1935 34.5672 14.8884 34.5977 14.5528 34.5977L18.1834 35.9096L17.0851 38.9301L15.3461 38.2894L14.1257 41.6759L15.8647 42.3166L14.7664 45.3371L10.0069 43.6285L10.3425 42.6522C9.88487 42.2556 9.36621 41.9505 8.81704 41.6759C7.74921 41.1573 6.65087 40.6996 5.52202 40.303L3.84399 39.6928L6.46781 32.4621L13.1494 34.9028L13.3324 34.4757ZM47.3505 12.1123L47.5031 13.1801L44.0555 13.6682L43.9029 12.6004C42.8961 12.6004 41.8893 12.4173 41.0961 11.7461C40.2418 11.0444 39.7842 10.0681 39.6316 9.00028C39.4791 7.87143 39.6621 6.8036 40.3333 5.88832C40.913 5.09507 41.7978 4.63743 42.7436 4.36284L42.6215 3.44756L46.0691 2.95941L46.1911 3.87469C47.1674 3.87469 48.2048 4.05775 48.9675 4.69845C49.8218 5.40017 50.2794 6.37647 50.4625 7.47481C50.615 8.57315 50.432 9.61047 49.8218 10.5258C49.2421 11.38 48.3268 11.8377 47.3505 12.1123ZM57.9373 10.2817L57.4186 13.4547L53.9711 12.9055L55.5881 2.71533L59.1882 3.29501C59.8899 3.41705 60.7747 3.53909 61.4154 3.81367C62.0866 4.08826 62.5747 4.57641 62.9103 5.21711C63.307 5.91883 63.368 6.71207 63.2459 7.50532C63.1544 8.11551 62.9409 8.69519 62.5747 9.15283C62.2696 9.57996 61.873 9.91557 61.4154 10.1291C61.0188 10.3122 60.5611 10.4647 60.134 10.4647C59.4933 10.4952 58.8221 10.4037 58.1814 10.2817H57.9373ZM62.9103 9.27487C63.2154 8.45111 63.6121 7.65787 64.2222 7.04768C64.6189 6.62055 65.107 6.28494 65.6257 6.04086C66.1443 5.79679 66.6935 5.64424 67.2732 5.61373C68.0359 5.58322 68.7682 5.73577 69.4699 5.97985C70.7818 6.468 71.8496 7.29175 72.4293 8.57315C73.0395 9.91557 72.8869 11.3495 72.3988 12.6919C71.9106 14.0343 71.0869 15.1937 69.775 15.8344C68.4936 16.4446 67.1512 16.4141 65.8698 15.9259C64.5578 15.4378 63.49 14.614 62.9103 13.3326C62.3002 12.0207 62.4222 10.5868 62.9103 9.27487ZM8.0543 37.5877C9.24417 38.0453 10.4951 38.5945 11.5934 39.2962L11.99 38.1979L8.32889 36.8554L8.0543 37.5877ZM13.3019 30.662C13.7596 30.9366 14.3698 31.1807 14.9189 31.0891C15.3461 30.9976 15.6207 30.784 15.8342 30.4179C16.0478 30.0518 16.1088 29.7162 15.9563 29.3196C15.7732 28.8009 15.224 28.3738 14.7664 28.1297C14.3393 27.8857 13.6986 27.5806 13.1799 27.7026C12.7528 27.7941 12.5087 28.0382 12.2951 28.4043C12.0816 28.7704 12.0205 29.1365 12.1426 29.5332C12.2646 29.9908 12.8443 30.3874 13.3019 30.662ZM46.8929 8.78672C46.9539 8.7257 47.0149 8.66468 47.0454 8.60366C47.1064 8.4206 47.0759 8.085 47.0454 7.90194C46.9844 7.53583 46.8929 7.29175 46.6488 7.16972L46.8929 8.78672ZM43.4758 9.27487L43.2317 7.62736C43.2012 7.65787 43.2012 7.65787 43.2012 7.68838C43.0487 7.90194 43.0487 8.29857 43.1097 8.54264C43.1402 8.93927 43.2317 9.15283 43.4758 9.27487ZM58.5475 6.468L58.456 7.1087H58.517C58.7305 7.13921 59.3712 7.23073 59.5543 7.20023C59.6153 7.20023 59.6458 7.16972 59.7068 7.13921C59.7374 7.1087 59.7679 7.04768 59.7679 6.98666C59.7679 6.92564 59.7679 6.86462 59.7374 6.8036C59.7068 6.74258 59.6458 6.71207 59.5543 6.68156C59.2492 6.55953 58.8526 6.49851 58.5475 6.468ZM66.1443 12.0817C66.2969 12.4784 66.5715 12.7224 66.9681 12.875C67.3647 13.0275 67.7003 12.997 68.097 12.814C68.5851 12.5394 68.8902 11.9292 69.0733 11.4105C69.2563 10.9224 69.4089 10.2512 69.2258 9.76302C69.0733 9.3664 68.7682 9.15283 68.402 9.00028C68.0054 8.84774 67.6393 8.84774 67.2732 9.0613C66.785 9.30538 66.5105 9.94608 66.3274 10.4342C66.0833 10.9224 65.9308 11.5631 66.1443 12.0817Z" fill="white"/>
<path fill-rule="evenodd" clip-rule="evenodd" d="M32.462 15.7429L32.34 6.98668L34.5977 6.0714L41.6454 13.3937L39.0216 14.4615L37.6181 12.936L35.0248 13.9734L35.0859 16.048L33.3773 16.7497L31.3637 18.1531L29.5942 16.9938L27.3059 18.6108L27.8551 20.5939L25.5669 22.1804L23.1567 12.3563L25.1398 10.9529L32.462 15.7429ZM13.4546 35.4825L13.6987 34.7808L17.6344 36.2148L16.8412 38.4114L15.1022 37.7707L13.5767 41.9811L15.3157 42.6217L14.5225 44.8184L10.5868 43.3845L10.8918 42.5607C10.3427 42.0421 9.73249 41.6454 9.06128 41.3098C7.99345 40.7607 6.83408 40.3335 5.73574 39.9064L4.45435 39.4488L6.77307 33.0723L13.4546 35.4825ZM11.7766 33.3774C11.0749 32.9808 10.4037 32.4621 9.94605 31.8214C9.64096 31.3943 9.39688 30.9061 9.27484 30.418C9.1223 29.9298 9.09179 29.4111 9.15281 28.8925C9.24433 28.1908 9.48841 27.5501 9.82401 26.9704C10.4647 25.872 11.38 25.0483 12.6309 24.7432C13.9428 24.4076 15.2242 24.7737 16.353 25.4449C17.4819 26.0856 18.4277 27.0009 18.7938 28.3128C19.1599 29.5332 18.8853 30.7536 18.2751 31.8519C17.6344 32.9502 16.7192 33.8045 15.4683 34.1096C14.1564 34.3537 12.9055 34.0181 11.7766 33.3774ZM21.5397 20.5329L23.8889 19.2515L24.1024 19.6176C24.5601 20.4109 24.8652 21.3261 24.7737 22.2719C24.6516 23.1872 24.194 23.9805 23.5533 24.6212C22.699 25.5059 21.6617 25.9636 20.4413 25.9636C19.1294 25.9331 18.0006 25.3229 17.0853 24.4076C16.1395 23.4923 15.4072 22.3635 15.3462 21.021C15.2852 19.7702 15.7734 18.6718 16.6276 17.787C17.3599 17.0243 18.2751 16.5056 19.3735 16.4751C20.0752 16.4446 20.7464 16.6582 21.3566 16.9938L21.7532 17.2074L20.3803 19.5261L19.9837 19.282C19.7091 19.0989 19.404 19.0379 19.0684 19.0684C18.7328 19.0989 18.4582 19.282 18.2446 19.4956C17.909 19.8312 17.7565 20.2278 17.787 20.7159C17.848 21.3261 18.3972 21.9668 18.8243 22.394C19.2514 22.8211 19.9837 23.4008 20.5939 23.4618C21.082 23.4923 21.4481 23.3398 21.7837 22.9736C22.0278 22.7296 22.1498 22.455 22.1804 22.1194C22.2109 21.6922 21.9668 21.2651 21.7532 20.9295L21.5397 20.5329ZM46.8625 11.7767L47.0151 12.7835L44.4523 13.1496L44.2997 12.1428C43.2929 12.2038 42.1946 12.0818 41.4013 11.4106C40.6386 10.7699 40.2115 9.91559 40.0894 8.93929C39.9369 7.93248 40.0894 6.95617 40.6996 6.13242C41.3098 5.33917 42.2861 4.91204 43.2319 4.69847L43.1099 3.84421L45.6726 3.47809L45.7947 4.33236C46.8015 4.27134 47.8998 4.39338 48.6931 5.06459C49.4558 5.70528 49.883 6.55955 50.005 7.56636C50.1575 8.54267 49.9745 9.48846 49.4253 10.3122C48.8761 11.136 47.8388 11.5631 46.8625 11.7767ZM57.5713 9.76304L57.0527 12.9665L54.4594 12.5699L55.9238 3.26453L59.0968 3.75268C59.707 3.84421 60.6528 3.99675 61.202 4.24083C61.7817 4.48491 62.2088 4.91204 62.5139 5.46121C62.8495 6.0714 62.9105 6.77312 62.7885 7.47483C62.6969 7.99349 62.5444 8.51216 62.2088 8.93929C61.9342 9.3054 61.5986 9.57999 61.202 9.79355C60.8664 9.97661 60.4697 10.0681 60.0731 10.0986C59.4629 10.1292 58.7917 10.0376 58.212 9.9461L57.5713 9.76304ZM63.3071 9.42744C63.5817 8.6647 63.9478 7.93248 64.5275 7.3528C64.8936 6.98668 65.3208 6.65108 65.8089 6.43751C66.2665 6.22395 66.7547 6.0714 67.2734 6.04089C67.9751 6.01038 68.6463 6.13242 69.287 6.37649C70.4769 6.80363 71.4532 7.56636 71.9718 8.75623C72.521 9.97661 72.3989 11.2885 71.9413 12.5394C71.4837 13.7598 70.7514 14.8581 69.5616 15.4378C68.4022 15.987 67.1818 15.9565 65.992 15.5293C64.8021 15.1022 63.8258 14.3395 63.2766 13.1496C62.758 11.9292 62.88 10.6478 63.3071 9.42744ZM77.5551 17.1158L79.1721 19.221L78.8364 19.4956C78.1042 20.0752 77.2805 20.5329 76.3347 20.5634C75.4194 20.5939 74.5651 20.2583 73.8024 19.7396C72.7956 19.0379 72.1854 18.0921 72.0023 16.8718C71.8193 15.5904 72.2769 14.37 73.0091 13.3327C73.7719 12.2648 74.7482 11.3495 76.0906 11.075C77.311 10.8004 78.4703 11.136 79.4771 11.8377C80.3619 12.4479 81.0026 13.2716 81.2162 14.3395C81.3687 15.0107 81.2467 15.7124 81.0026 16.3531L80.8501 16.7802L78.3788 15.8039L78.5619 15.3768C78.6839 15.0717 78.7144 14.7666 78.6229 14.4615C78.5314 14.1564 78.3178 13.9123 78.0737 13.7293C77.6771 13.4547 77.25 13.3632 76.7923 13.4852C76.1821 13.6377 75.633 14.2784 75.2974 14.7666C74.9617 15.2548 74.4736 16.048 74.5346 16.6887C74.5651 17.1768 74.8092 17.5125 75.2058 17.787C75.4804 17.9701 75.7855 18.0616 76.1211 18.0311C76.5482 17.9701 76.9449 17.6955 77.25 17.4209L77.5551 17.1158ZM83.9925 17.3599C85.2434 17.3294 86.3113 17.8481 87.1655 18.7633C87.8978 19.5261 88.3859 20.4719 88.3859 21.5397C88.3859 22.2414 88.1418 22.9126 87.8062 23.4923L87.5622 23.8889L85.3045 22.455L85.5485 22.0889C85.7316 21.8143 85.8231 21.5092 85.7926 21.2041C85.7621 20.8685 85.6096 20.5939 85.3655 20.3803C85.0299 20.0447 84.6332 19.8617 84.1451 19.8922C83.5044 19.9227 82.8637 20.4719 82.4366 20.8685C82.0094 21.2956 81.3687 21.9668 81.3077 22.6075C81.2467 23.0957 81.3992 23.4618 81.7348 23.8279C81.9789 24.072 82.2535 24.2245 82.5891 24.255C83.0163 24.2856 83.4739 24.072 83.8095 23.8889L84.2366 23.6449L85.4265 26.0246L85.0604 26.2382C84.2366 26.6958 83.3213 26.9704 82.4061 26.8178C81.4908 26.6653 80.728 26.1771 80.0873 25.5364C79.2331 24.6517 78.8059 23.6143 78.867 22.394C78.928 21.0821 79.5992 19.9837 80.5145 19.0989C81.4908 18.0921 82.6501 17.3904 83.9925 17.3599ZM88.752 28.4654L94.0607 28.6789L95.22 30.7841L86.9825 35.3605L85.7621 33.1638L89.6673 30.9976L84.4197 30.7536L83.2603 28.6484L91.4979 24.072L92.7183 26.2687L88.752 28.4654ZM92.8098 37.069L97.9659 38.3809L98.6676 40.6996L89.6368 43.4455L88.9046 41.0658L93.1759 39.7539L88.1113 38.4114L87.4096 36.0927L96.4404 33.3469L97.1726 35.7571L92.8098 37.069ZM7.50529 37.8318C8.90873 38.3504 10.5868 39.0826 11.8071 39.9674L12.5394 37.9233L8.05446 36.2758L7.50529 37.8318ZM13.058 31.0281C13.6072 31.3638 14.3089 31.6383 14.9801 31.4858C15.5293 31.3638 15.8954 31.0892 16.17 30.601C16.4446 30.1129 16.5056 29.6552 16.3225 29.1366C16.109 28.4959 15.4988 28.0077 14.9191 27.7026C14.3699 27.3975 13.6682 27.0924 13.0275 27.2145C12.4783 27.3365 12.1122 27.6416 11.8376 28.1297C11.5631 28.6179 11.4715 29.1061 11.6546 29.6247C11.8987 30.2349 12.5088 30.7231 13.058 31.0281ZM27.55 15.6209L26.2991 14.7361L26.6958 16.2005L27.55 15.6209ZM35.8791 11.136L34.8418 10.0071L34.9028 11.5326L35.8791 11.136ZM46.5574 9.45795C46.7405 9.39693 46.893 9.33591 47.0761 9.24438C47.2591 9.12234 47.4117 8.9698 47.5032 8.75623C47.5947 8.48165 47.5642 8.08502 47.5337 7.84095C47.4117 6.95617 46.9235 6.62057 46.1913 6.62057L46.5574 9.45795ZM43.9946 9.82406L43.598 6.98668C43.2929 7.07821 43.0183 7.20025 42.8353 7.41381C42.5912 7.74942 42.5912 8.20706 42.6522 8.60368C42.7743 9.51897 43.2319 9.82406 43.9946 9.82406ZM58.1815 5.94936L57.9375 7.47483L58.4256 7.56636C58.7002 7.59687 59.3409 7.71891 59.6155 7.65789C59.768 7.62738 59.8901 7.56636 59.9816 7.44432C60.0731 7.32229 60.1341 7.20025 60.1646 7.0477C60.1952 6.86464 60.1646 6.7121 60.0731 6.55955C59.9816 6.407 59.829 6.31547 59.6765 6.25445C59.3714 6.13242 58.8833 6.0714 58.5476 6.01038L58.1815 5.94936ZM65.8394 10.2817C65.6258 10.8919 65.4733 11.6241 65.7174 12.2648C65.9309 12.7835 66.2665 13.1191 66.7852 13.3021C67.3039 13.4852 67.792 13.4547 68.2802 13.2106C68.8599 12.875 69.226 12.2038 69.47 11.5936C69.6836 11.0139 69.8667 10.2512 69.6226 9.64101C69.409 9.12235 69.0429 8.81725 68.5242 8.63419C68.0056 8.45114 67.5174 8.45114 67.0293 8.69521C66.4191 8.9698 66.053 9.67152 65.8394 10.2817Z" fill="#2C2C2B"/>
<path fill-rule="evenodd" clip-rule="evenodd" d="M5.00342 39.1436L7.01704 33.5909L13.6986 36.0317L13.9427 35.3299L17.0547 36.4588L16.5665 37.8012L14.8275 37.1605L12.9969 42.2251L14.7359 42.8658L14.2478 44.2082L11.1358 43.0793L11.3799 42.4081C10.8002 41.8285 10.0985 41.3098 9.21373 40.8827C8.35946 40.4555 7.23061 39.9674 5.82717 39.4792L5.00342 39.1436ZM6.92552 38.1063C9.36627 38.9911 11.0748 39.8758 12.0206 40.6996L13.1189 37.6487L7.77978 35.6961L6.92552 38.1063ZM12.0206 32.9807C11.2579 32.5536 10.7087 32.0654 10.3121 31.5468C10.0375 31.1501 9.82392 30.723 9.70188 30.2654C9.57984 29.8077 9.51882 29.3501 9.57984 28.9229C9.64086 28.3433 9.85442 27.7636 10.2205 27.1534C10.8612 26.0551 11.685 25.3838 12.7528 25.1093C13.8207 24.8347 14.9495 25.0482 16.1394 25.75C17.3292 26.4517 18.092 27.3059 18.3666 28.3433C18.6717 29.3806 18.4886 30.4484 17.8784 31.5163C17.2377 32.6146 16.414 33.2858 15.3461 33.5604C14.3088 33.8655 13.18 33.6519 12.0206 32.9807ZM12.8444 31.4247C13.6681 31.9129 14.4308 32.0654 15.0715 31.9434C15.7122 31.7908 16.2309 31.4247 16.5665 30.845C16.9021 30.2654 16.9936 29.6247 16.7801 29.0145C16.5665 28.3738 16.0478 27.8246 15.1936 27.3365C14.3393 26.8483 13.6071 26.6652 12.9664 26.7873C12.3257 26.9093 11.8375 27.3059 11.4714 27.9161C11.1053 28.5263 11.0443 29.1365 11.2579 29.7772C11.4714 30.3874 11.9901 30.9366 12.8444 31.4247ZM22.1803 20.6854L23.7362 19.8616C24.2244 20.6854 24.438 21.4786 24.3464 22.2109C24.2549 22.9431 23.8888 23.6448 23.2481 24.316C22.4548 25.1398 21.5396 25.5364 20.4717 25.5059C19.4039 25.5059 18.3971 25.0177 17.4208 24.0719C16.3835 23.0956 15.8648 22.0583 15.8038 20.9905C15.7428 19.9227 16.1394 18.9463 16.9631 18.0921C17.6954 17.3293 18.4886 16.9327 19.4039 16.9022C19.9226 16.8717 20.5022 17.0242 21.1429 17.3599L20.2582 18.8853C19.8615 18.6413 19.4649 18.5497 19.0683 18.6107C18.6717 18.6718 18.3055 18.8548 17.9699 19.1904C17.5428 19.6481 17.3292 20.1667 17.3903 20.7769C17.4513 21.3871 17.8479 22.0278 18.5801 22.7295C19.3429 23.4923 20.0446 23.8889 20.6548 23.9194C21.265 23.9499 21.7836 23.7668 22.2108 23.3092C22.5159 22.9736 22.6989 22.6075 22.7294 22.1498C22.6684 21.7227 22.5159 21.2346 22.1803 20.6854ZM32.8586 16.5666L31.3331 17.6344L29.5941 16.4751L26.7872 18.4277L27.3364 20.4108L25.8414 21.4481L23.6752 12.5394L25.1702 11.502L32.8586 16.5666ZM28.3127 15.6208L25.5363 13.6987L26.4211 16.9632L28.3127 15.6208ZM40.852 13.2411L39.113 13.9428L37.7096 12.4173L34.5366 13.6987L34.5976 15.7734L32.8891 16.4446L32.767 7.29172L34.4451 6.62052L40.852 13.2411ZM36.6417 11.319L34.3535 8.8172L34.4756 12.1732L36.6417 11.319ZM46.3743 11.4105L46.5268 12.3868L44.8488 12.6309L44.6962 11.6546C43.3233 11.8071 42.347 11.5936 41.7063 11.0444C41.0656 10.4952 40.669 9.76299 40.547 8.84771C40.3944 7.8714 40.5775 7.04765 41.0961 6.37644C41.5843 5.70523 42.4996 5.24759 43.781 5.00351L43.6589 4.17976L45.3369 3.93568L45.459 4.75944C46.8014 4.60689 47.8082 4.82046 48.4489 5.33912C49.0896 5.85778 49.4862 6.62052 49.6083 7.5358C49.7303 8.48159 49.5778 9.27484 49.0896 9.97656C48.6015 10.7088 47.7167 11.1969 46.3743 11.4105ZM46.1607 10.0071C46.6183 9.94605 46.9845 9.82401 47.2896 9.61045C47.5946 9.42739 47.7777 9.18331 47.8997 8.90873C47.9913 8.63414 48.0218 8.26803 47.9608 7.77988C47.7777 6.5595 47.015 6.04084 45.6726 6.22389L46.1607 10.0071ZM44.4827 10.2206L43.964 6.43746C43.2318 6.52899 42.7436 6.77306 42.4691 7.13918C42.1945 7.50529 42.1029 8.02395 42.1945 8.66465C42.3775 9.91554 43.1403 10.4342 44.4827 10.2206ZM54.9779 12.1732L56.3204 3.75262L59.0662 4.17976C60.1035 4.3323 60.7747 4.48485 61.0798 4.6374C61.5375 4.85097 61.9036 5.18657 62.1782 5.64421C62.4223 6.13236 62.5138 6.68153 62.4223 7.35274C62.3307 7.8714 62.1782 8.29854 61.9341 8.60363C61.69 8.93924 61.4154 9.1528 61.0798 9.33586C60.7442 9.48841 60.4391 9.57994 60.134 9.57994C59.7069 9.61044 59.1272 9.54943 58.334 9.42739L57.2356 9.24433L56.717 12.4173L54.9779 12.1732ZM57.7848 5.43065L57.4187 7.81039L58.3645 7.96293C59.0357 8.05446 59.4933 8.08497 59.7374 8.05446C59.9815 7.99344 60.1646 7.90191 60.3476 7.71886C60.5002 7.5358 60.5917 7.35274 60.6527 7.10867C60.7137 6.80357 60.6527 6.52899 60.5002 6.31542C60.3476 6.10185 60.134 5.9188 59.89 5.82727C59.7069 5.76625 59.2798 5.67472 58.6696 5.58319L57.7848 5.43065ZM63.7342 9.57994C64.0393 8.75618 64.4054 8.11548 64.863 7.65784C65.1986 7.32223 65.5647 7.04765 66.0224 6.83408C66.4495 6.62052 66.8766 6.49848 67.3343 6.49848C67.914 6.46797 68.5241 6.5595 69.1648 6.80357C70.3547 7.23071 71.148 7.93242 71.6056 8.93924C72.0632 9.91554 72.0327 11.0749 71.5446 12.3868C71.0869 13.6987 70.3547 14.553 69.3784 15.0411C68.4021 15.5293 67.3343 15.5293 66.1444 15.1022C64.9545 14.675 64.1308 13.9428 63.7037 12.9665C63.246 11.9902 63.2765 10.8613 63.7342 9.57994ZM65.4122 10.1291C65.0766 11.0444 65.0461 11.8071 65.2901 12.4173C65.5342 13.0275 65.9919 13.4546 66.6326 13.6987C67.2733 13.9428 67.8834 13.8818 68.4631 13.5767C69.0428 13.2716 69.5005 12.6309 69.8361 11.7156C70.1717 10.8003 70.2327 10.0376 69.9886 9.42739C69.7445 8.8172 69.2869 8.42057 68.6157 8.1765C67.9445 7.93242 67.3343 7.96293 66.7546 8.26803C66.2054 8.57312 65.7783 9.18331 65.4122 10.1291ZM77.4939 17.7565L78.5618 19.1599C77.8295 19.7701 77.0668 20.1057 76.3346 20.1362C75.6023 20.1667 74.8396 19.9226 74.0769 19.404C73.1616 18.7633 72.6124 17.909 72.4599 16.8412C72.3073 15.7734 72.6124 14.7055 73.3752 13.6072C74.1989 12.4478 75.1142 11.7461 76.182 11.5325C77.2193 11.319 78.2567 11.5325 79.233 12.2343C80.0872 12.8444 80.6059 13.5767 80.7889 14.4615C80.911 14.9801 80.85 15.5903 80.6059 16.2615L78.9584 15.6208C79.1414 15.1937 79.172 14.7971 79.0499 14.4004C78.9279 14.0038 78.6838 13.6682 78.3177 13.4241C77.799 13.058 77.2499 12.9665 76.6702 13.0885C76.0905 13.2411 75.5108 13.7292 74.9311 14.553C74.3209 15.4378 74.0159 16.17 74.0769 16.7802C74.1379 17.3904 74.4125 17.848 74.9311 18.2141C75.2972 18.4887 75.7244 18.5802 76.1515 18.5497C76.5481 18.4277 77.0058 18.1836 77.4939 17.7565ZM84.084 24.194L84.8772 25.75C84.023 26.2076 83.2297 26.3907 82.4975 26.2686C81.7653 26.1466 81.0635 25.7805 80.4228 25.1093C79.6296 24.2855 79.2635 23.3397 79.3245 22.3024C79.3855 21.2346 79.8737 20.2277 80.85 19.3125C81.8873 18.3362 82.9246 17.8175 83.9924 17.8175C85.0603 17.787 86.0061 18.2141 86.8603 19.0684C87.5926 19.8311 87.9587 20.6549 87.9587 21.5397C87.9587 22.0583 87.8061 22.638 87.44 23.2482L85.9451 22.3024C86.1891 21.9363 86.3112 21.5397 86.2502 21.1125C86.2196 20.7159 86.0366 20.3498 85.701 20.0142C85.2738 19.5565 84.7552 19.343 84.145 19.3735C83.5348 19.404 82.8941 19.7701 82.1619 20.4718C81.3991 21.2346 80.972 21.9058 80.911 22.4854C80.85 23.0956 81.033 23.6143 81.4602 24.0414C81.7653 24.377 82.1619 24.5601 82.589 24.5906C83.0467 24.6821 83.5348 24.5296 84.084 24.194ZM91.3147 24.6821L92.108 26.0856L87.1349 28.8314L93.786 29.106L94.6097 30.601L87.1349 34.7503L86.3417 33.3468L91.2232 30.6315L84.6637 30.3264L83.8399 28.8314L91.3147 24.6821ZM96.1352 33.896L96.5929 35.452L91.1622 37.0995L97.6302 38.747L98.1183 40.3945L89.9418 42.8963L89.4842 41.3403L94.8233 39.7233L88.4773 38.0453L87.9587 36.3978L96.1352 33.896Z" fill="#FFCC00"/>
</svg>
