<svg width="101" height="70" viewBox="0 0 101 70" fill="none" xmlns="http://www.w3.org/2000/svg">
<path fill-rule="evenodd" clip-rule="evenodd" d="M0 23.1582H39.4502L44.5848 30.5662L50.4037 23.1582H91.2258V47.5333H52.5262L43.5577 36.0097L34.8633 47.5333H0V23.1582Z" fill="black"/>
<path d="M17.4696 37.581H10.915V31.8521H9.52063V38.8383H17.4696V37.581ZM32.2802 31.8521H30.8854V37.581H23.9125V31.8521H22.5182V37.581C22.5182 37.581 22.5182 38.8383 23.7734 38.8383H31.025C32.3219 38.8383 32.2802 37.581 32.2802 37.581V31.8521ZM63.9648 31.8521H56.7132C55.458 31.8521 55.458 33.1093 55.458 33.1093V38.8383H56.8523V36.6026H63.8252V38.8383H65.22V33.1093C65.22 33.1093 65.22 31.8521 63.9648 31.8521ZM56.8523 33.1093H63.8252V35.345H56.8523V33.1093ZM81.7036 38.8383L80.0302 36.6026C81.4249 36.6026 81.4249 35.345 81.4249 35.345V33.1093C81.4249 33.1093 81.4249 31.8521 80.0302 31.8521H71.6629V38.8383H73.0572V36.6026H78.4963L80.1697 38.8383H81.7036ZM80.0302 35.345H73.0572V33.1093H80.0302V35.345Z" fill="#FEFEFE"/>
<path d="M100.071 45.7725C100.071 46.0712 100.029 46.3446 99.9466 46.5934C99.8636 46.8422 99.6962 47.0433 99.4436 47.1967C99.1915 47.35 98.8086 47.4269 98.2955 47.4269H94.1368C93.6899 47.4269 93.3484 47.3441 93.1127 47.1781C92.8766 47.0121 92.7155 46.7865 92.6282 46.5C92.5414 46.214 92.4979 45.8845 92.4979 45.5115C92.4979 45.138 92.5435 44.8085 92.6345 44.5225C92.7256 44.2365 92.8871 44.0104 93.1186 43.8444C93.3505 43.6788 93.6899 43.596 94.1368 43.596H95.1049V44.5288H94.112C93.8223 44.5288 93.6052 44.5702 93.4601 44.653C93.3155 44.7358 93.2202 44.8499 93.1747 44.9952C93.1291 45.1401 93.1064 45.3083 93.1064 45.4988C93.1064 45.6897 93.1291 45.8575 93.1747 46.0028C93.2202 46.1477 93.3155 46.2618 93.4601 46.3446C93.6052 46.4278 93.8223 46.4692 94.112 46.4692H98.4819C98.7795 46.4692 99.0009 46.4278 99.1459 46.3446C99.2906 46.2618 99.3858 46.1477 99.4314 46.0028C99.4769 45.8575 99.4997 45.6897 99.4997 45.4988C99.4997 45.217 99.4128 44.9846 99.2391 44.8021C99.065 44.6201 98.8128 44.5288 98.4819 44.5288H96.9795V45.3868H96.4086V43.596H99.934V44.3172L99.2636 44.367C99.3133 44.3919 99.361 44.419 99.4065 44.4477C99.452 44.4768 99.4913 44.5039 99.5246 44.5288C99.6818 44.6365 99.8121 44.7899 99.9154 44.9889C100.019 45.1879 100.071 45.4489 100.071 45.7725ZM99.934 42.3269H92.5974V39.9142C92.5974 39.4744 92.6986 39.1284 92.9014 38.8754C93.1042 38.6227 93.4125 38.496 93.8265 38.496H94.9932C95.4153 38.496 95.7462 38.6164 95.9866 38.8568C96.2265 39.0972 96.3547 39.433 96.3711 39.8644C96.388 39.5906 96.4791 39.3895 96.6443 39.2611C96.81 39.1326 97.0664 39.0186 97.4143 38.9189L99.934 38.1851V39.2298L97.4762 39.8644C97.327 39.9058 97.1866 39.9556 97.0542 40.0135C96.9218 40.0718 96.8159 40.1419 96.7375 40.2251C96.6587 40.3079 96.6195 40.4199 96.6195 40.561V41.332H99.934V42.3269ZM95.9491 41.332V40.362C95.9491 40.0549 95.8748 39.8251 95.7256 39.6717C95.5767 39.5179 95.3204 39.4415 94.9561 39.4415H93.9876C93.6899 39.4415 93.4749 39.5141 93.342 39.659C93.2097 39.8044 93.1435 39.9805 93.1435 40.1875V41.332H95.9491ZM100.083 35.3617C100.083 35.7348 100.04 36.0622 99.9525 36.3444C99.8657 36.6262 99.6856 36.8501 99.4128 37.0161C99.1396 37.1817 98.7298 37.2645 98.1837 37.2645H94.1368C93.6815 37.2645 93.3361 37.1817 93.1 37.0161C92.8643 36.8501 92.705 36.624 92.6223 36.338C92.5393 36.052 92.4979 35.7225 92.4979 35.349C92.4979 34.976 92.5414 34.6465 92.6282 34.3605C92.7155 34.074 92.8745 33.8484 93.1064 33.6824C93.3383 33.5168 93.6815 33.4336 94.1368 33.4336H98.1837C98.7382 33.4336 99.1501 33.5168 99.4187 33.6824C99.6877 33.8484 99.8657 34.0761 99.9525 34.3664C100.04 34.6566 100.083 34.9883 100.083 35.3617ZM99.4997 35.3617C99.4997 35.1708 99.4748 35.003 99.4251 34.8577C99.3753 34.7128 99.2783 34.5987 99.1333 34.5159C98.9887 34.4327 98.7715 34.3913 98.4819 34.3913H94.112C93.8307 34.3913 93.6174 34.4327 93.4728 34.5159C93.3277 34.5987 93.2303 34.7128 93.181 34.8577C93.1312 35.003 93.1064 35.1708 93.1064 35.3617C93.1064 35.5522 93.1312 35.7183 93.181 35.859C93.2303 36.0001 93.3277 36.112 93.4728 36.1948C93.6174 36.278 93.8307 36.3194 94.112 36.3194H98.4819C98.7715 36.3194 98.9887 36.278 99.1333 36.1948C99.2783 36.112 99.3753 36.0001 99.4251 35.859C99.4748 35.7183 99.4997 35.5522 99.4997 35.3617ZM100.083 30.2744C100.083 30.5397 100.063 30.7885 100.021 31.0205C99.9795 31.2528 99.899 31.4539 99.7788 31.6237C99.6591 31.794 99.4811 31.9288 99.245 32.028C99.0093 32.1277 98.6927 32.1776 98.2955 32.1776H92.5974V31.2072H98.5189C98.7837 31.2072 98.9844 31.1637 99.1211 31.0766C99.2577 30.9896 99.3504 30.8755 99.4002 30.7344C99.4499 30.5938 99.4748 30.44 99.4748 30.2744C99.4748 30.1083 99.4499 29.9529 99.4002 29.808C99.3504 29.6626 99.2577 29.5469 99.1211 29.4594C98.9844 29.3724 98.7837 29.3289 98.5189 29.3289H92.5974V28.3838H98.2955C98.6842 28.3838 98.9988 28.4316 99.2391 28.5266C99.479 28.6221 99.6591 28.7548 99.7788 28.9246C99.899 29.0949 99.9795 29.2959 100.021 29.5279C100.063 29.7602 100.083 30.0091 100.083 30.2744ZM99.934 27.0028H92.5974V24.6273C92.5974 24.1879 92.6986 23.8415 92.9014 23.5888C93.1042 23.3358 93.4125 23.2095 93.8265 23.2095H95.1547C95.4443 23.2095 95.7176 23.2488 95.9739 23.3273C96.2307 23.4063 96.4373 23.5576 96.5946 23.7815C96.7519 24.0054 96.8307 24.3286 96.8307 24.7515V25.9956H99.934V27.0028ZM96.272 25.9956V25.0628C96.272 24.7641 96.1725 24.5402 95.9739 24.3911C95.7753 24.2416 95.4608 24.1672 95.0307 24.1672H94.2111C93.8387 24.1672 93.5676 24.2356 93.3981 24.3721C93.2286 24.509 93.1435 24.6813 93.1435 24.8884V25.9956H96.272Z" fill="#6B8C9E"/>
<mask id="mask0_282_4984" style="mask-type:alpha" maskUnits="userSpaceOnUse" x="18" y="0" width="50" height="70">
<path fill-rule="evenodd" clip-rule="evenodd" d="M43.663 38.3274L18.5967 69.9088L40.7997 34.0634L29.2715 16.8978H36.4974L44.6707 29.0682L67.7418 0L47.3063 32.9925L61.231 53.7266H54.0051L43.663 38.3274Z" fill="#62D8D8"/>
</mask>
<g mask="url(#mask0_282_4984)">
<path d="M11.3788 -3.10938H72.3059V75.1079H11.3788V-3.10938Z" fill="#62D6D6"/>
<path fill-rule="evenodd" clip-rule="evenodd" d="M36.3879 81.4139L10.2161 64.4704L26.4952 39.2251L52.6666 56.1685L36.3879 81.4139Z" fill="url(#paint0_linear_282_4984)"/>
<path fill-rule="evenodd" clip-rule="evenodd" d="M57.9484 -9.95626L82.583 9.15343L64.214 32.9214L39.5799 13.8118L57.9484 -9.95626Z" fill="url(#paint1_linear_282_4984)"/>
<path fill-rule="evenodd" clip-rule="evenodd" d="M79.5431 48.1205L60.8536 73.0754L36.7777 55.1118L55.4672 30.1574L79.5431 48.1205Z" fill="url(#paint2_linear_282_4984)"/>
<path fill-rule="evenodd" clip-rule="evenodd" d="M6.99982 15.9877L31.2765 -3.57463L50.1665 19.7814L25.89 39.3433L6.99982 15.9877Z" fill="url(#paint3_linear_282_4984)"/>
</g>
<defs>
<linearGradient id="paint0_linear_282_4984" x1="23.3022" y1="72.9421" x2="39.6265" y2="47.7263" gradientUnits="userSpaceOnUse">
<stop stop-color="#2B2A29"/>
<stop offset="0.164706" stop-color="#252325"/>
<stop offset="0.258824" stop-color="#1F1B20"/>
<stop offset="1" stop-color="#62D8D8"/>
</linearGradient>
<linearGradient id="paint1_linear_282_4984" x1="70.2655" y1="-0.401434" x2="51.8541" y2="23.3333" gradientUnits="userSpaceOnUse">
<stop stop-color="#2B2A29"/>
<stop offset="0.164706" stop-color="#252325"/>
<stop offset="0.258824" stop-color="#1F1B20"/>
<stop offset="1" stop-color="#62D8D8"/>
</linearGradient>
<linearGradient id="paint2_linear_282_4984" x1="70.1984" y1="60.5977" x2="46.155" y2="42.5911" gradientUnits="userSpaceOnUse">
<stop stop-color="#2B2A29"/>
<stop offset="0.164706" stop-color="#252325"/>
<stop offset="0.258824" stop-color="#1F1B20"/>
<stop offset="1" stop-color="#62D8D8"/>
</linearGradient>
<linearGradient id="paint3_linear_282_4984" x1="19.1381" y1="6.20675" x2="37.986" y2="29.5964" gradientUnits="userSpaceOnUse">
<stop stop-color="#2B2A29"/>
<stop offset="0.164706" stop-color="#252325"/>
<stop offset="0.258824" stop-color="#1F1B20"/>
<stop offset="1" stop-color="#62D8D8"/>
</linearGradient>
</defs>
</svg>
