<svg width="14" height="16" viewBox="0 0 14 16" fill="none" xmlns="http://www.w3.org/2000/svg">
<path d="M1 6.7C1 3.552 3.686 1 7 1C10.314 1 13 3.552 13 6.7C13 9.824 11.085 13.469 8.097 14.772C7.7508 14.9223 7.37741 14.9998 7 14.9998C6.62259 14.9998 6.2492 14.9223 5.903 14.772C2.915 13.47 1 9.824 1 6.7Z" stroke="#56A2E9" stroke-width="1.5"/>
<path d="M7 9C8.10457 9 9 8.10457 9 7C9 5.89543 8.10457 5 7 5C5.89543 5 5 5.89543 5 7C5 8.10457 5.89543 9 7 9Z" stroke="#56A2E9" stroke-width="1.5"/>
</svg>
