<svg width="55" height="55" viewBox="0 0 55 55" fill="none" xmlns="http://www.w3.org/2000/svg">
<circle cx="27.5" cy="27.5" r="26" stroke="url(#paint0_linear_400_411)" stroke-width="3"/>
<path d="M28.71 32.7099L33.71 27.7099C33.801 27.6148 33.8724 27.5027 33.92 27.3799C34.02 27.1365 34.02 26.8634 33.92 26.6199C33.8724 26.4972 33.801 26.385 33.71 26.2899L28.71 21.2899C28.6167 21.1967 28.5061 21.1227 28.3842 21.0723C28.2624 21.0218 28.1318 20.9958 28 20.9958C27.7337 20.9958 27.4783 21.1016 27.29 21.2899C27.1017 21.4782 26.9959 21.7336 26.9959 21.9999C26.9959 22.2662 27.1017 22.5216 27.29 22.7099L30.59 25.9999L23 25.9999C22.7348 25.9999 22.4804 26.1053 22.2929 26.2928C22.1053 26.4804 22 26.7347 22 26.9999C22 27.2652 22.1053 27.5195 22.2929 27.707C22.4804 27.8946 22.7348 27.9999 23 27.9999L30.59 27.9999L27.29 31.2899C27.1963 31.3829 27.1219 31.4935 27.0711 31.6154C27.0203 31.7372 26.9942 31.8679 26.9942 31.9999C26.9942 32.132 27.0203 32.2627 27.0711 32.3845C27.1219 32.5064 27.1963 32.617 27.29 32.7099C27.3829 32.8037 27.4935 32.8781 27.6154 32.9288C27.7373 32.9796 27.868 33.0057 28 33.0057C28.132 33.0057 28.2627 32.9796 28.3846 32.9288C28.5064 32.8781 28.617 32.8037 28.71 32.7099Z" fill="#244F77"/>
<defs>
<linearGradient id="paint0_linear_400_411" x1="1.5" y1="29" x2="55" y2="29.5" gradientUnits="userSpaceOnUse">
<stop stop-color="#D5DDEB" stop-opacity="0"/>
<stop offset="1" stop-color="#D5DDEA"/>
</linearGradient>
</defs>
</svg>
