<svg width="55" height="55" viewBox="0 0 55 55" fill="none" xmlns="http://www.w3.org/2000/svg">
<circle cx="27.5" cy="27.5" r="27" stroke="#3C4350"/>
<path d="M28.71 32.71L33.71 27.71C33.801 27.6149 33.8724 27.5028 33.92 27.38C34.02 27.1365 34.02 26.8635 33.92 26.62C33.8724 26.4973 33.801 26.3851 33.71 26.29L28.71 21.29C28.6167 21.1968 28.5061 21.1228 28.3842 21.0723C28.2624 21.0219 28.1318 20.9959 28 20.9959C27.7337 20.9959 27.4783 21.1017 27.29 21.29C27.1017 21.4783 26.9959 21.7337 26.9959 22C26.9959 22.2663 27.1017 22.5217 27.29 22.71L30.59 26L23 26C22.7348 26 22.4804 26.1054 22.2929 26.2929C22.1053 26.4804 22 26.7348 22 27C22 27.2652 22.1053 27.5196 22.2929 27.7071C22.4804 27.8946 22.7348 28 23 28L30.59 28L27.29 31.29C27.1963 31.383 27.1219 31.4936 27.0711 31.6154C27.0203 31.7373 26.9942 31.868 26.9942 32C26.9942 32.132 27.0203 32.2627 27.0711 32.3846C27.1219 32.5064 27.1963 32.617 27.29 32.71C27.3829 32.8037 27.4935 32.8781 27.6154 32.9289C27.7373 32.9797 27.868 33.0058 28 33.0058C28.132 33.0058 28.2627 32.9797 28.3846 32.9289C28.5064 32.8781 28.617 32.8037 28.71 32.71Z" fill="#A8B1C0"/>
</svg>
