<svg width="55" height="55" viewBox="0 0 55 55" fill="none" xmlns="http://www.w3.org/2000/svg">
<circle cx="27.5" cy="27.5" r="27" transform="matrix(-1 0 0 1 55 0)" stroke="#3C4350"/>
<path d="M26.29 32.71L21.29 27.71C21.199 27.6149 21.1276 27.5028 21.08 27.38C20.98 27.1365 20.98 26.8635 21.08 26.62C21.1276 26.4973 21.199 26.3851 21.29 26.29L26.29 21.29C26.3833 21.1968 26.4939 21.1228 26.6158 21.0723C26.7376 21.0219 26.8682 20.9959 27 20.9959C27.2663 20.9959 27.5217 21.1017 27.71 21.29C27.8983 21.4783 28.0041 21.7337 28.0041 22C28.0041 22.2663 27.8983 22.5217 27.71 22.71L24.41 26L32 26C32.2652 26 32.5196 26.1054 32.7071 26.2929C32.8947 26.4804 33 26.7348 33 27C33 27.2652 32.8947 27.5196 32.7071 27.7071C32.5196 27.8946 32.2652 28 32 28L24.41 28L27.71 31.29C27.8037 31.383 27.8781 31.4936 27.9289 31.6154C27.9797 31.7373 28.0058 31.868 28.0058 32C28.0058 32.132 27.9797 32.2627 27.9289 32.3846C27.8781 32.5064 27.8037 32.617 27.71 32.71C27.6171 32.8037 27.5065 32.8781 27.3846 32.9289C27.2627 32.9797 27.132 33.0058 27 33.0058C26.868 33.0058 26.7373 32.9797 26.6154 32.9289C26.4936 32.8781 26.383 32.8037 26.29 32.71Z" fill="#A8B1C0"/>
</svg>
