<svg width="25" height="14" viewBox="0 0 25 14" fill="none" xmlns="http://www.w3.org/2000/svg">
<path fill-rule="evenodd" clip-rule="evenodd" d="M8.24581 0.979455C8.57841 1.13714 9.35439 1.05509 9.63311 2.0165C9.88423 2.88255 9.87392 4.95368 9.67984 5.91772C9.14318 8.58359 6.8778 4.36717 6.31852 3.44094C6.02899 2.96131 5.52526 1.86737 5.30141 1.33363C4.91526 0.412672 3.98945 0.608835 2.88602 0.608835C2.47093 0.608835 2.19071 0.646817 1.79907 0.645995C1.18624 0.644515 0 0.527278 0 1.09061C0 1.52157 0.24696 1.95221 0.437211 2.32596L1.4623 4.35122C1.64141 4.69158 1.80572 5.03277 2.00811 5.36804L2.56506 6.33669C4.03185 8.73158 5.79417 11.5407 8.43323 12.8382C10.4335 13.8216 11.375 13.8017 13.5682 13.8017C13.9096 13.8017 14.3385 13.6179 14.4571 13.3836C14.6017 13.0978 14.5869 12.6249 14.6185 12.2461C14.6959 11.3233 15.1492 10.1054 16.2452 10.8583C16.7644 11.2151 17.3953 12.0461 17.8691 12.5139C18.1259 12.7673 18.4365 13.0991 18.7249 13.2984C18.8726 13.4005 19.117 13.5478 19.2697 13.6121C20.1759 13.9936 21.2166 13.8014 22.3388 13.8017C22.9616 13.8019 24.0473 13.9035 24.5723 13.5641C25.4046 13.0259 24.5723 12.0642 24.1005 11.467C23.8309 11.126 22.791 10.0368 22.4228 9.71617C20.0126 7.61774 20.4949 7.95795 22.9921 4.66412C23.5159 3.97303 24.925 2.16219 24.925 1.20176C24.925 0.698283 24.3854 0.655203 23.9814 0.612781C23.7737 0.591076 23.716 0.64468 23.5023 0.647311C22.8384 0.655532 19.8152 0.575456 19.437 0.704367C19.1927 0.787732 19.0539 1.03618 18.9546 1.26507C18.3928 2.55846 18.0098 3.44916 17.2042 4.64867C16.8781 5.13422 15.8336 6.76058 15.1798 6.76058C14.7115 6.76058 14.5427 5.8383 14.5427 5.38941C14.5427 4.02795 14.6177 2.78586 14.6177 1.46123C14.6177 1.17924 14.556 0.883594 14.4622 0.688418C14.0526 -0.164306 11.822 0.0159071 10.7946 0.0159071C10.0525 0.0159071 8.85614 0.0918728 8.39415 0.681347C8.32231 0.773263 8.25911 0.822427 8.24581 0.979455Z" fill="#7D889A"/>
</svg>
