<svg width="19" height="21" viewBox="0 0 19 21" fill="none" xmlns="http://www.w3.org/2000/svg">
<path d="M1 8.73581C1 4.46347 4.64533 1 9.14296 1C13.6406 1 17.2859 4.46347 17.2859 8.73581C17.2859 12.9756 14.687 17.9224 10.6318 19.6908C10.1619 19.8948 9.65517 20 9.14296 20C8.63075 20 8.12401 19.8948 7.65416 19.6908C3.59896 17.9238 1 12.9756 1 8.73581Z" stroke="#56A2E9" stroke-width="1.5"/>
<path d="M9.14303 11.8573C10.6421 11.8573 11.8574 10.642 11.8574 9.14297C11.8574 7.64389 10.6421 6.42865 9.14303 6.42865C7.64395 6.42865 6.42871 7.64389 6.42871 9.14297C6.42871 10.642 7.64395 11.8573 9.14303 11.8573Z" fill="#56A2E9" stroke="#56A2E9" stroke-width="1.5"/>
</svg>
